<svg xmlns="http://www.w3.org/2000/svg" viewBox="0 0 316 322.93"><defs><style>.cls-1{fill:#595959;}.cls-2{fill:#8169c7;}.cls-3{fill:#fff;}</style></defs><g id="Layer_2" data-name="Layer 2"><g id="Layer_1-2" data-name="Layer 1"><polygon class="cls-1" points="155 268.18 316 183.93 316 232.24 155 322.93 155 268.18"/><polygon class="cls-1" points="150 267.93 0 187.3 0 232.93 150 320.93 150 267.93"/><path class="cls-2" d="M62,104.56c2.87-1.64,2.87-4,2.87-4.31s.72-39.88.72-44.19S72.05,44.2,77.79,44.2s46-.72,48.51-.72,6.11-4.31,5.39-6.46S127,27,127.38,19.77,134.92.37,149.29,0,171.93,10.07,173,17.26s-3.24,16.16-3.24,18.68,1.44,6.47,4.68,6.83,43.47,0,48.5,0,12.94,5,13.29,11.85S238,94.5,238.4,98.1s3.95,5.75,7.55,5.75,13.29-4,18-4,20.84,3.24,24.07,17.61-5.75,23.35-15.09,26.23-20.12-2.52-23.71-2.52-7.19,1.8-7.91,4,1.8,43.11,1.8,45.27,0,6.46-3.23,10.06-4,5-12.22,6.46-44.19.72-47.07.72-8.26-5-6.1-9.34,2.87-10.78,2.51-17.6c-.45-8.5-10.42-20.12-25.15-19.77-19,.47-24.07,20.13-23.35,25.16s4.31,10.06,4.31,14.37-1.44,6.82-5,7.9-46.71,1.08-50.3.72-12.22-5-13.3-11.86,5.39-37.36,5-43.11S59.47,143,56.6,143.37s-20.48,6.83-28.39,1.8-13.65-8.63-12.57-22.28,15.45-20.48,24.07-20.48S59.47,106,62,104.56Z"/><path class="cls-1" d="M245.59,161.18c.34,7.27.77,15.39,1,20.26.31,5.76.45,8.33.45,9,0,2.39,0,8-4.26,12.73l-.66.74c-3.25,3.66-5.2,5.49-13.84,7-6.73,1.17-28.89,1-45,.81l-2.79,0c-3.68,0-7.23-3-9-5.84a9.41,9.41,0,0,1-.71-9.29c1.68-3.36,2.44-9,2.1-15.6-.53-10-12.87-16.18-21.06-16a18.19,18.19,0,0,0-14,6.55c-4.5,5.32-5.75,12.2-5.48,14a27.26,27.26,0,0,0,2,6c1.17,2.87,2.39,5.84,2.39,8.93,0,6.22-2.65,10.16-7.88,11.73-2.8.84-19.88,1.08-33.7,1.08-9.31,0-17.14-.11-18.15-.21-5.13-.51-15.43-6.19-16.85-15.21-.66-4.18.69-13.34,2.82-26.84.45-2.86.92-5.87,1.31-8.56L0,183.93l152,80,164-84Z"/><path class="cls-2" d="M237.49,159c-.51-11.77-.37-14,0-15.13,1.45-4.34,7.11-6.69,11.7-6.69a23.94,23.94,0,0,1,6,1.24c4.69,1.32,11.1,3.12,16.52,1.45,7.42-2.28,15.11-9.29,12.36-21.52-2.68-11.91-16.81-14.49-20.17-14.49-1.93,0-5.83,1.12-9,2-3.63,1-6.76,1.94-9,1.94-6,0-11-4-11.53-9.35-.23-2.35-.85-15.33-1.56-30.78-.27-5.78-.49-10.69-.61-12.89-.23-4.29-6-8.06-9.3-8.06-1.12,0-4,0-7.8,0-23.71.14-38.86.19-41.15-.07-5.34-.59-8.23-6-8.23-10.8a20.22,20.22,0,0,1,1.22-5.4c1.12-3.69,2.66-8.74,2.06-12.69C168.38,13.38,162.5,3.68,149.39,4c-12,.3-17.76,10.71-18,16-.25,5,2.1,10.75,3.36,13.84.32.8.58,1.43.75,1.94.72,2.15.14,4.68-1.63,7.13-1.6,2.23-4.43,4.6-7.55,4.6-1,0-8.08.12-16.32.25-12.78.21-28.69.47-32.19.47S69.58,54,69.58,56.06c0,3.38-.43,27.42-.63,39,0,3.06-.09,5.06-.09,5.25A9.08,9.08,0,0,1,64,108c-2.58,1.47-6.21.84-12.24-.2a75.8,75.8,0,0,0-12-1.43c-6.73,0-19.2,5.61-20.09,16.79s3,13.65,10.63,18.52l.11.07c4.88,3.11,17.34-.25,22-1.51a29.44,29.44,0,0,1,3.7-.88,6.19,6.19,0,0,1,.76-.05c3.24,0,7.5,2.32,10.46,4.77,2.51,2.09,5.58,5.48,5.84,9.78a34.77,34.77,0,0,1-.38,5.77L147,134.93Z"/><path class="cls-2" d="M68.09,196.64c.74,4.64,7.55,8.28,9.74,8.5,3.51.35,44.58.28,48.82-.59,1.15-.34,2.12-.7,2.12-4.05,0-1.52-.87-3.65-1.8-5.91a33.63,33.63,0,0,1-2.47-7.9c-.58-4,1.34-13.3,7.29-20.33A26.16,26.16,0,0,1,151.71,157a29.86,29.86,0,0,1,20.7,7.57c5.06,4.53,8.26,10.5,8.55,16,.29,5.67,0,13.67-2.94,19.6,0,.1-.19.39.15,1.1a5.32,5.32,0,0,0,2.52,2.45l2.76,0c24.36.32,39,.09,43.49-.7,6.27-1.09,6.84-1.73,9.23-4.42l.69-.78c2.21-2.45,2.21-5.54,2.21-7.38,0-.56-.21-4.45-.43-8.57-.55-10.13-.92-17.47-1.15-22.84L147,134.93,72.78,159.67c-.39,3.17-1,7.35-1.87,12.62C69.5,181.2,67.58,193.4,68.09,196.64Z"/><path class="cls-3" d="M184.94,63.13,170.79,101.5h-8.62l-9.92-26.44L142.19,101.5h-8.62L119.49,63.13H128L138.1,91.44l10.56-28.31h7.54l10.35,28.46L177,63.13Z"/><path class="cls-3" d="M73.24,125.73c0-5.51,4.13-9.39,10-9.39,3.57,0,6.43,1.48,7.84,4.26l-3.3,1.93A5.2,5.2,0,0,0,83.15,120a5.75,5.75,0,0,0,0,11.5,5.22,5.22,0,0,0,4.58-2.55l3.3,1.93c-1.41,2.75-4.27,4.3-7.84,4.3C77.37,135.16,73.24,131.23,73.24,125.73Z"/><path class="cls-3" d="M93,125.73c0-5.51,4.13-9.39,9.77-9.39s9.81,3.88,9.81,9.39-4.1,9.43-9.81,9.43S93,131.23,93,125.73Zm15.24,0c0-3.51-2.34-5.75-5.47-5.75s-5.44,2.24-5.44,5.75,2.34,5.75,5.44,5.75S108.2,129.24,108.2,125.73Z"/><path class="cls-3" d="M147.4,124.39v10.53h-4.31v-10c0-3.27-1.51-4.85-4.12-4.85-2.83,0-4.79,1.85-4.79,5.5v9.33h-4.3v-10c0-3.27-1.51-4.85-4.13-4.85-2.85,0-4.78,1.85-4.78,5.5v9.33h-4.3V116.54h4.09v2.34a7.62,7.62,0,0,1,6-2.54,6.87,6.87,0,0,1,6.2,3.06,8.59,8.59,0,0,1,6.88-3.06C144.3,116.34,147.4,118.85,147.4,124.39Z"/><path class="cls-3" d="M172.41,125.73c0,5.71-3.95,9.43-9.32,9.43a7.53,7.53,0,0,1-5.88-2.48v8.91H152.9v-25H157V119a7.58,7.58,0,0,1,6.09-2.61A8.93,8.93,0,0,1,172.41,125.73Zm-4.37,0c0-3.51-2.34-5.75-5.43-5.75a5.76,5.76,0,0,0,0,11.5C165.7,131.48,168,129.24,168,125.73Z"/><path class="cls-3" d="M194.3,116.54v18.38h-4.09v-2.34a7.54,7.54,0,0,1-5.92,2.58c-4.72,0-7.92-2.58-7.92-8.12v-10.5h4.3v9.91c0,3.34,1.59,4.92,4.31,4.92,3,0,5-1.86,5-5.54v-9.29Z"/><path class="cls-3" d="M211,133.92a6.79,6.79,0,0,1-4.13,1.24c-4,0-6.33-2.14-6.33-6.2v-8.84h-3v-3.44h3v-4.2h4.3v4.2h4.92v3.44h-4.92v8.74c0,1.79.9,2.75,2.55,2.75a3.93,3.93,0,0,0,2.41-.75Z"/><path class="cls-3" d="M231.12,127.11H216.7c.52,2.68,2.76,4.4,6,4.4a6.57,6.57,0,0,0,5-2l2.3,2.65a9.32,9.32,0,0,1-7.4,3c-6.16,0-10.15-4-10.15-9.43a9.14,9.14,0,0,1,9.5-9.39c5.37,0,9.29,3.75,9.29,9.49C231.19,126.18,231.16,126.69,231.12,127.11Zm-14.45-2.86H227.1a5,5,0,0,0-5.2-4.47A5.07,5.07,0,0,0,216.67,124.25Z"/><polygon class="cls-3" points="65 243.93 13 215.93 13.23 211.81 65.37 239.59 65 243.93"/><polygon class="cls-3" points="65 257.93 13 229.93 13.23 225.81 65.37 253.59 65 257.93"/><polygon class="cls-3" points="132 278.93 80 250.93 80.23 246.81 132.37 274.59 132 278.93"/><polygon class="cls-3" points="132 292.93 80 264.93 80.23 260.81 132.37 288.59 132 292.93"/><polygon class="cls-3" points="207 254.15 207 275.69 183.31 289.69 182.5 265.19 207 254.15"/><polygon class="cls-3" points="253 227.56 253 249.1 229.31 263.11 228.5 238.61 253 227.56"/><polygon class="cls-3" points="299 202.17 299 223.71 275.31 237.72 274.5 213.22 299 202.17"/></g></g></svg>