<svg xmlns="http://www.w3.org/2000/svg" width="60.685" height="60.763" viewBox="0 0 60.685 60.763">
  <g id="noun_networking_1757808" transform="translate(-0.024 0.002)">
    <g id="_4-Cloud_Storage" data-name="4-Cloud Storage" transform="translate(0.024 -0.002)">
      <path id="Path_1126" data-name="Path 1126" d="M51.837,20.531a11.4,11.4,0,0,0-8.859-10.124,11.39,11.39,0,0,0-22.667-.282h-.07a11.4,11.4,0,0,0-11.337,10.4,11.39,11.39,0,0,0,2.478,22.5h7.593V40.5H11.384a8.859,8.859,0,0,1-1.1-17.64,1.352,1.352,0,0,0,1.1-1.343,8.869,8.869,0,0,1,8.859-8.859h1.266a1.266,1.266,0,0,0,1.266-1.266,8.859,8.859,0,0,1,17.717-.052c0,.032,0,.106,0,.138A1.266,1.266,0,0,0,41.6,12.733a8.851,8.851,0,0,1,7.75,8.73V21.6a1.266,1.266,0,0,0,1.109,1.257A8.859,8.859,0,0,1,49.349,40.5H41.756v2.531h7.593a11.39,11.39,0,0,0,2.488-22.5Z" transform="translate(-0.024 0.002)" fill="#a48fe2"/>
      <path id="Path_1127" data-name="Path 1127" d="M18.328,12A6.335,6.335,0,0,0,12,18.328h2.531a3.8,3.8,0,0,1,3.8-3.8Z" transform="translate(3.157 3.188)" fill="#a48fe2"/>
      <path id="Path_1128" data-name="Path 1128" d="M19.531,38.248V20.531H28.39v2.531a1.266,1.266,0,0,0,1.266,1.266h2.531V38.248a2.531,2.531,0,0,0,2.531-2.531V23.062a1.265,1.265,0,0,0-.371-.895l-3.8-3.8A1.266,1.266,0,0,0,29.655,18H19.531A2.531,2.531,0,0,0,17,20.531V35.717A2.531,2.531,0,0,0,19.531,38.248Z" transform="translate(4.484 4.782)" fill="#a48fe2"/>
      <path id="Path_1129" data-name="Path 1129" d="M16.062,45.419V41.39H26.186a2.479,2.479,0,0,0,2.531-2.531V30H26.186v8.859H16.062a2.479,2.479,0,0,0-2.531,2.531v4.029a3.8,3.8,0,1,0,2.531,0ZM14.8,50.248a1.266,1.266,0,1,1,1.266-1.266A1.266,1.266,0,0,1,14.8,50.248Z" transform="translate(2.891 7.968)" fill="#a48fe2"/>
      <path id="Path_1130" data-name="Path 1130" d="M26.062,42.764V40H23.531v2.764a3.8,3.8,0,1,0,2.531,0ZM24.8,47.593a1.266,1.266,0,1,1,1.266-1.266A1.266,1.266,0,0,1,24.8,47.593Z" transform="translate(5.546 10.623)" fill="#a48fe2"/>
      <path id="Path_1131" data-name="Path 1131" d="M37.124,43.561V39.531A2.479,2.479,0,0,0,34.593,37H27v2.531h7.593v4.029a3.8,3.8,0,1,0,2.531,0ZM35.859,48.39a1.266,1.266,0,1,1,1.266-1.266A1.266,1.266,0,0,1,35.859,48.39Z" transform="translate(7.14 9.827)" fill="#a48fe2"/>
    </g>
  </g>
</svg>
