<svg xmlns="http://www.w3.org/2000/svg" width="494" height="383.862" viewBox="0 0 494 383.862">
  <g id="pixeltrue-teaching-1" transform="translate(-130.875 -170)">
    <path id="Path_857" data-name="Path 857" d="M975.737,714.841a4.117,4.117,0,0,0-3.212.562,1.269,1.269,0,0,0-.442,1.646,1.239,1.239,0,0,0,1.646.442,1.519,1.519,0,0,1,1.325-.321,1.269,1.269,0,0,0,1.486-.843A1.161,1.161,0,0,0,975.737,714.841Z" transform="translate(-503.387 -326.031)" fill="#fff"/>
    <path id="Path_856" data-name="Path 856" d="M951.1,717.1a38.1,38.1,0,0,0,9.555.281c-.2-.763-.4-1.486-.6-2.248a9.2,9.2,0,0,1-4.256,1.245c-.883.121-1.767,1.325-.843,2.048a4.27,4.27,0,0,0,4.055.924c1.486-.361.883-2.69-.642-2.329a1.627,1.627,0,0,1-1.726-.321l-.843,2.048a11.368,11.368,0,0,0,5.46-1.606c.923-.6.682-2.369-.6-2.248a37.136,37.136,0,0,1-8.953-.2c-1.486-.161-2.128,2.168-.6,2.409Z" transform="translate(-490.389 -325.998)" fill="#fff"/>
    <path id="Path_854" data-name="Path 854" d="M946.843,717.018l7.468,4.7c1.325.843,2.529-1.245,1.2-2.088l-7.468-4.7C946.723,714.128,945.518,716.216,946.843,717.018Z" transform="translate(-488.023 -326.04)" fill="#fff"/>
    <path id="Path_855" data-name="Path 855" d="M974.361,712.871a76.163,76.163,0,0,0-5.982,5.38c-1.084,1.084.6,2.81,1.686,1.686a76.15,76.15,0,0,1,5.982-5.38C977.252,713.594,975.566,711.907,974.361,712.871Z" transform="translate(-501.048 -324.743)" fill="#fff"/>
    <path id="Path_849" data-name="Path 849" d="M549.6,730.894V857.162a1.2,1.2,0,0,0,2.409,0V730.894A1.206,1.206,0,0,0,549.6,730.894Z" transform="translate(-250.612 -335.017)" fill="#161616"/>
    <path id="Path_852" data-name="Path 852" d="M534.041,714.169a60.635,60.635,0,0,1,5.581,7.99c.8,1.325,2.891.12,2.088-1.2a68.678,68.678,0,0,0-5.982-8.471C534.724,711.278,533.037,712.964,534.041,714.169Z" transform="translate(-241.116 -324.435)" fill="#fff"/>
    <path id="Path_853" data-name="Path 853" d="M551.676,720.935c2.971-2.489,5.9-5.019,8.873-7.508,1.164-1-.522-2.69-1.686-1.686-2.971,2.489-5.9,5.019-8.873,7.508C548.786,720.253,550.512,721.939,551.676,720.935Z" transform="translate(-250.601 -324.055)" fill="#fff"/>
    <path id="Path_858" data-name="Path 858" d="M540.484,716.143c.723.482,3.413,1.726,3.292,2.77l1.2-1.2a12.1,12.1,0,0,1-.763-2.168c-.361.6-.683,1.2-1.044,1.807a21.251,21.251,0,0,0,6.906-1.485c-.4-.683-.763-1.325-1.164-2.007a40.785,40.785,0,0,1-4.376,3.935l1.646,1.646c1.445-2.449-.6-4.456-2.69-5.5-.2.763-.4,1.486-.6,2.248,1.646-.08,3.292-.12,4.938-.04,1.566.08,1.526-2.329,0-2.409a40.535,40.535,0,0,0-4.938.04c-1.124.08-1.726,1.686-.6,2.248.723.361,2.489,1.124,1.847,2.208-.562.964.642,2.409,1.646,1.646a41.3,41.3,0,0,0,4.858-4.3c.763-.8,0-2.489-1.164-2.007a19.969,19.969,0,0,1-6.263,1.405,1.227,1.227,0,0,0-1.044,1.807c.682,1.526.642,3.372,2.851,3.332a1.235,1.235,0,0,0,1.2-1.2c.321-2.409-2.851-3.774-4.457-4.818-1.365-.883-2.57,1.2-1.285,2.048Z" transform="translate(-244.829 -325.284)" fill="#fff"/>
    <path id="Path_707" data-name="Path 707" d="M269.949,1099.009h91.258a1.2,1.2,0,0,0,0-2.409H269.949A1.2,1.2,0,0,0,269.949,1099.009Z" transform="translate(-82.535 -554.582)" fill="#e8e8e8"/>
    <path id="Path_708" data-name="Path 708" d="M344.094,1075.509H461.65a1.2,1.2,0,0,0,0-2.409H344.094A1.206,1.206,0,0,0,344.094,1075.509Z" transform="translate(-126.93 -540.517)" fill="#e8e8e8"/>
    <path id="Path_709" data-name="Path 709" d="M631.949,1038.509h61.99a1.2,1.2,0,0,0,0-2.409h-61.99A1.2,1.2,0,0,0,631.949,1038.509Z" transform="translate(-299.196 -518.372)" fill="#e8e8e8"/>
    <path id="Path_710" data-name="Path 710" d="M764.149,1122.509H929.321a1.2,1.2,0,0,0,0-2.409H764.149A1.2,1.2,0,0,0,764.149,1122.509Z" transform="translate(-378.32 -568.647)" fill="#e8e8e8"/>
    <path id="Path_711" data-name="Path 711" d="M1017.449,1099.009h85.316a1.2,1.2,0,0,0,0-2.409h-85.316a1.2,1.2,0,0,0,0,2.409Z" transform="translate(-529.923 -554.582)" fill="#e8e8e8"/>
    <path id="Path_712" data-name="Path 712" d="M428.557,374.6a25.022,25.022,0,0,0-8.833,3.332,24.616,24.616,0,0,0-9.355,10.439,20.732,20.732,0,0,0-2.128,12.968c1.646,8.913,9.475,13.37,10.72,14.052,3.975-6.062,7.909-12.165,11.884-18.227q-1.2-11.262-2.289-22.564Z" transform="translate(-165.824 -122.456)" fill="#ec615b"/>
    <path id="Path_713" data-name="Path 713" d="M466.7,414.755c5.862-3.172,11.683-6.344,17.545-9.555a16.035,16.035,0,0,1,3.654,10,14.129,14.129,0,0,1-.321,3.011Q477.1,416.462,466.7,414.755Z" transform="translate(-200.995 -140.77)" fill="#5222d0"/>
    <path id="Path_714" data-name="Path 714" d="M310.1,496.623c.723,9.435,1.405,18.91,2.128,28.345,2.57-.161,5.139-.361,7.668-.522-.843-9.6-1.686-19.151-2.529-28.747C314.918,496.021,312.509,496.3,310.1,496.623Z" transform="translate(-107.268 -194.936)" fill="#5222d0"/>
    <path id="Path_715" data-name="Path 715" d="M345.8,521.482c.4,5.822.8,11.6,1.245,17.425,2.569-.241,5.139-.442,7.668-.682-.562-5.822-1.084-11.6-1.646-17.425C350.618,521,348.209,521.242,345.8,521.482Z" transform="translate(-128.635 -209.958)" fill="#ec615b"/>
    <path id="Path_716" data-name="Path 716" d="M378.843,361.323Q319.1,366.8,259.4,372.244q-5.48-87.444-11-174.928L367.561,193.1q5.661,84.132,11.282,168.223Z" transform="translate(-70.34 -13.826)" fill="none" stroke="#fff" stroke-miterlimit="10" stroke-width="2"/>
    <g id="Group_1197" data-name="Group 1197" transform="translate(185.558 170)">
      <path id="Path_717" data-name="Path 717" d="M350.687,174.971c.442,3.172.923,6.343,1.365,9.515.12.763,1.285.442,1.164-.321-.442-3.172-.923-6.343-1.365-9.515C351.731,173.887,350.567,174.208,350.687,174.971Z" transform="translate(-317.113 -172.522)" fill="#e8e8e8"/>
      <path id="Path_718" data-name="Path 718" d="M351.947,172.369c9.033-.6,18.107-.964,27.141-1.164a.6.6,0,0,0,0-1.2q-13.61.3-27.141,1.164C351.184,171.2,351.184,172.409,351.947,172.369Z" transform="translate(-317.53 -170)" fill="#e8e8e8"/>
      <path id="Path_719" data-name="Path 719" d="M419.487,170.947c.4,3.413.723,6.785.923,10.2.04.763,1.245.763,1.2,0-.2-3.413-.522-6.825-.923-10.2C420.571,170.184,419.367,170.184,419.487,170.947Z" transform="translate(-358.291 -170.224)" fill="#e8e8e8"/>
      <path id="Path_720" data-name="Path 720" d="M352.894,174.947c.281,2.971.562,5.982.843,8.953a.617.617,0,0,0,.6.6c8.632.08,17.224-1.285,25.9-1,.763.04.763-1.164,0-1.2-8.632-.281-17.224,1.044-25.9,1l.6.6c-.281-2.971-.562-5.982-.843-8.953C354.018,174.184,352.814,174.184,352.894,174.947Z" transform="translate(-318.437 -172.618)" fill="#e8e8e8"/>
      <path id="Path_721" data-name="Path 721" d="M354.091,173.807c1.325.8,3.051.4,4.5.321l7.227-.361c4.818-.241,9.6-.522,14.413-.763l-.6-.6c.12,2.61.241,5.219.361,7.869.04.763,1.245.763,1.2,0-.12-2.61-.241-5.219-.361-7.869a.617.617,0,0,0-.6-.6c-4.256.241-8.552.442-12.807.683-2.128.12-4.256.241-6.424.321-1.686.08-4.818.883-6.3-.04-.642-.4-1.245.642-.6,1.044Z" transform="translate(-318.991 -171.077)" fill="#e8e8e8"/>
      <path id="Path_722" data-name="Path 722" d="M354.377,175.274a51.751,51.751,0,0,1,1.245,7.468c.4-.04.8-.12,1.164-.161a16.9,16.9,0,0,1,.08-6.5c-.4-.04-.8-.12-1.164-.161a19.065,19.065,0,0,0,1.164,6.906c.281.642,1.285.161,1.084-.482-.682-2.57-1.325-5.1-.642-7.749h-1.164l1.084,7.227c.12.763,1.285.442,1.164-.321l-1.084-7.227c-.08-.6-1.044-.522-1.164,0-.723,2.851-.08,5.621.642,8.391l1.084-.482a17.729,17.729,0,0,1-1-6.3c0-.642-1.044-.843-1.164-.161a17.852,17.852,0,0,0-.08,7.146c.12.642,1.245.522,1.164-.161a57.285,57.285,0,0,0-1.285-7.789c-.161-.723-1.285-.4-1.124.361Z" transform="translate(-319.317 -172.303)" fill="#e8e8e8"/>
      <path id="Path_723" data-name="Path 723" d="M360.173,177.946l1.325-2.168c-.361-.2-.683-.4-1.044-.6-.522,1.164-1,2.329-1.526,3.493-.241.562.482,1.325.964.723.8-1,1.566-2.048,2.369-3.051-.321-.2-.683-.4-1-.6a12.083,12.083,0,0,1-1.285,2.73c-.361.562.522,1.285.964.723.6-.763,1.2-1.526,1.847-2.288l-.964-.723c-.8,1.887-1.606,3.734-2.409,5.621-.241.562.482,1.325.964.723,1.445-1.807,2.931-3.654,4.376-5.46l-.964-.723c-1.084,1.767-2.168,3.573-3.252,5.34a.6.6,0,0,0,.683.883,2.563,2.563,0,0,0,1.2-.683c-.321-.2-.683-.4-1-.6a3.356,3.356,0,0,1-1.245,1.646c-.6.442-.08,1.445.6,1.044a5.007,5.007,0,0,1,1.967-.683l-.723-.723c-1.044-.522-1.365-1.245-.964-2.208a5.7,5.7,0,0,1,.562-1.445c.321-.562.923-1.927,1.526-.723.442.883-1.405,5.822-1.646,2.77a6.405,6.405,0,0,1,.281-2.329,8.047,8.047,0,0,1,.683-1.606c.4-.8.6-.8.642,0,.763,1.606-.161,4.135-.923,5.541a10.1,10.1,0,0,1,1.084.161,6.726,6.726,0,0,1-.2-3.332c.08-.442.482-2.57.923-1.887.923,1.325-.6,4.336-1.245,5.5.361.12.763.2,1.124.321a10.769,10.769,0,0,1,.04-3.212c.12-.723.562-3.051,1.325-3.132,1.084-.12-1,4.818-1.485,5.541a10.093,10.093,0,0,1,1.084.161c-.361-1.807-.361-5.661,2.088-6.263-.241-.12-.482-.281-.723-.4a7.555,7.555,0,0,1-1.927,6.625,9.369,9.369,0,0,1,1,.281,6.692,6.692,0,0,1-.04-3.332c.161-.6,1-3.132,1.807-2.931.562.12-.161,2.449-.321,2.971A8.317,8.317,0,0,1,364.59,183a9.375,9.375,0,0,1,1,.281,6.208,6.208,0,0,1,2.851-6.825c-.281-.12-.6-.241-.883-.361.923,2.449-1.445,5.621-3.011,7.267a9.376,9.376,0,0,1,1,.281,6.311,6.311,0,0,1,.08-3.453c.12-.361,1.325-3.091,1.887-2.891.8.281-.562,2.73-.8,3.091a5.249,5.249,0,0,1-1.325,1.767c-.6.4-.562.482-.6-.4a6.055,6.055,0,0,1,1.445-3.453,4.367,4.367,0,0,1,1.526-1.445c.642-.281.562-.361.482.482a11.035,11.035,0,0,1-3.453,6.464,9.371,9.371,0,0,1,1,.281A7.342,7.342,0,0,1,368,177.625c.522-.482,1.124-.8,1.325.2a4.6,4.6,0,0,1-.562,1.726A10.809,10.809,0,0,1,366.4,183h.843c-.723-.843.2-2.69.642-3.493.2-.361,1.927-3.011,2.409-2.77.562.281-.683,2.971-.843,3.252a12.726,12.726,0,0,1-2.128,2.931c.361.161.683.281,1.044.442a8.131,8.131,0,0,1,3.894-6.986c-.321-.161-.6-.361-.923-.522a9.241,9.241,0,0,1-2.851,6.946c.361.161.683.281,1.044.442a10.566,10.566,0,0,1,3.854-7.347l-.964-.12c1.285,1.927-1.526,5.54-2.65,6.986.361.161.683.281,1.044.442a8.856,8.856,0,0,1,.683-3.212c.241-.642,1.245-2.851,1.967-3.011.964-.2-.04,1.646-.361,2.329a12.063,12.063,0,0,1-2.208,3.091c.321.2.683.4,1,.6.361-2.489,1.365-5.781,3.975-6.7a9.254,9.254,0,0,0-.763-.562,10.894,10.894,0,0,1-3.533,6.906c.361.161.682.281,1.044.442a11.155,11.155,0,0,1,.964-3.734c.361-.763,1.325-2.77,2.208-2.931.442-.08,0,.6-.161,1.044a12.569,12.569,0,0,1-.883,1.807,14.478,14.478,0,0,1-2.369,3.051c.361.161.683.281,1.044.442a8.579,8.579,0,0,1,3.372-6.344c-.281-.241-.6-.442-.883-.683a9.311,9.311,0,0,1-2.57,4.778c-.763.843-1,.642-1.084-.482a3.349,3.349,0,0,1,2.369-3.453,9.269,9.269,0,0,0-.763-.562,13.193,13.193,0,0,1-2.128,6.584c.361.12.763.2,1.124.321a9.5,9.5,0,0,1,1-3.453c.361-.723,1.285-2.529,2.088-2.73,1.164-.321,0,1.967-.281,2.529a12.376,12.376,0,0,1-2.208,3.011c.361.161.683.281,1.044.442a6.255,6.255,0,0,1,4.376-6.384,9.254,9.254,0,0,0-.763-.562,10.643,10.643,0,0,1-3.894,7.106c.361.161.683.281,1.044.442a9.413,9.413,0,0,1,4.015-6.745c-.281-.12-.6-.241-.883-.361.642,2.088-1.566,4.818-2.77,6.3.361.161.682.281,1.044.442.161-2.048,1.325-5.781,3.774-6.143l-.723-.723a13.511,13.511,0,0,1-2.851,6.143c.361.161.683.281,1.044.442a9.488,9.488,0,0,1,2.77-6.3l-.964-.12c.923,1.686-.964,4.657-1.807,6.143l1.084.482c.4-1.927.723-5.179,2.529-6.344a4.426,4.426,0,0,0-.723-.08c1,1.124-.923,4.9-1.365,6.022.4.12.763.2,1.164.321.562-2.048,1.084-4.055,1.646-6.1-.4-.04-.8-.12-1.164-.161a14.75,14.75,0,0,1-.843,5.581c.4.04.8.12,1.164.161.2-1.807,0-4.617,1.044-6.143a10.09,10.09,0,0,1-1.084-.161,13.914,13.914,0,0,1,.08,5.9c.4.04.8.12,1.164.161-.161-2.248-.321-4.537-.482-6.785-.361.161-.682.281-1.044.442,1.526,1.566.923,3.613.241,5.42a10.091,10.091,0,0,0,1.084-.161c-.442-.843-1.325-2.248-1.285-3.252-.4-.642-.241-.964.522-.923a2.738,2.738,0,0,1,.321,2.007c.361-.161.682-.281,1.044-.442a5.191,5.191,0,0,1-1.164-2.409c-.281.241-.6.442-.883.683.161.442.321.923.482,1.365a10.091,10.091,0,0,1,1.084.161,5.975,5.975,0,0,1-.361-2.369,9.254,9.254,0,0,1-.763.562c1.566.642.482,4.818.281,5.9a6.859,6.859,0,0,0,.562-.442l-9.154.241a.6.6,0,0,0,0,1.2,44.467,44.467,0,0,0,7.99-.723c-.12-.4-.2-.763-.321-1.164A50.9,50.9,0,0,1,371.295,183a.6.6,0,0,0,0,1.2c3.132.12,6.183-.964,9.315-.843-.04-.4-.12-.8-.161-1.164a16.88,16.88,0,0,1-7.347.763v1.2l8.672-.843c-.04-.4-.12-.8-.161-1.164a17.812,17.812,0,0,1-5.822.683v1.2a22.962,22.962,0,0,0,5.741-.723.6.6,0,0,0-.321-1.164,32.2,32.2,0,0,1-6.785.723v1.2c2.73-.361,5.46-.8,8.19-1.365.642-.12.522-1.245-.161-1.164a27.818,27.818,0,0,1-7.749-.12c-.763-.12-1.084,1.044-.321,1.164a30.191,30.191,0,0,0,8.07.161c-.04-.4-.12-.8-.161-1.164-2.61.522-5.219,1-7.869,1.325a.6.6,0,0,0,0,1.2,32.64,32.64,0,0,0,7.106-.763c-.12-.4-.2-.763-.321-1.164a22.529,22.529,0,0,1-5.42.683.6.6,0,0,0,0,1.2,19.961,19.961,0,0,0,6.143-.723c.642-.2.522-1.245-.161-1.164l-8.672.843a.6.6,0,0,0,0,1.2,18.3,18.3,0,0,0,7.668-.8.6.6,0,0,0-.161-1.164c-3.132-.12-6.183.964-9.315.843v1.2a50.524,50.524,0,0,0,9.8-1.686c.763-.2.442-1.285-.321-1.164a41.262,41.262,0,0,1-7.668.683v1.2l9.154-.241a.6.6,0,0,0,.562-.442c.4-2.248,1.646-6.223-1.124-7.387-.4-.161-.723.241-.763.562a5.581,5.581,0,0,0,.4,2.69c.161.442.843.642,1.084.161a2.181,2.181,0,0,0-.923-3.011.6.6,0,0,0-.883.683,6.509,6.509,0,0,0,1.486,2.971c.361.442,1,.04,1.044-.442.12-1.285-1-5.1-3.051-3.935-1.847,1.084.6,5.46,1.2,6.7.241.522.923.281,1.084-.161.883-2.288,1.285-4.7-.562-6.584a.614.614,0,0,0-1.044.442c.161,2.248.321,4.537.482,6.785.04.642,1.084.883,1.164.161a15,15,0,0,0-.08-6.544.6.6,0,0,0-1.084-.161c-1.245,1.767-1,4.7-1.2,6.745-.08.723.964.763,1.164.161a15.518,15.518,0,0,0,.883-5.9.593.593,0,0,0-1.164-.161c-.562,2.048-1.084,4.055-1.646,6.1a.6.6,0,0,0,1.164.321c.723-1.847,2.65-5.38,1.044-7.227a.553.553,0,0,0-.723-.08c-2.208,1.445-2.61,4.7-3.091,7.066-.12.642.763,1.084,1.084.482,1.084-1.967,3.011-5.139,1.807-7.387a.631.631,0,0,0-.964-.12,10.907,10.907,0,0,0-3.132,7.146.623.623,0,0,0,1.044.442,14.474,14.474,0,0,0,3.172-6.665.6.6,0,0,0-.723-.723c-3.011.442-4.456,4.7-4.657,7.307a.623.623,0,0,0,1.044.442c1.566-1.887,3.894-4.858,3.091-7.468a.6.6,0,0,0-.883-.361,10.677,10.677,0,0,0-4.617,7.749c-.08.562.683.723,1.044.442a11.914,11.914,0,0,0,4.216-7.949.578.578,0,0,0-.763-.562,7.444,7.444,0,0,0-5.259,7.548.628.628,0,0,0,1.044.442c.923-.923,5.741-7.468,2.73-8.19-1.245-.321-2.65,1.606-3.252,2.409a11.2,11.2,0,0,0-2.128,5.581c-.08.642.843.763,1.124.321a13.884,13.884,0,0,0,2.329-7.187.591.591,0,0,0-.763-.562,4.2,4.2,0,0,0-3.051,3.292c-.281,1.044-.562,3.011.562,3.694,1.084.683,1.967-.522,2.57-1.245A10.3,10.3,0,0,0,377,176.46c.08-.442-.4-1.044-.883-.683a9.865,9.865,0,0,0-3.975,7.387c-.04.522.683.763,1.044.442.964-.964,6.1-7.307,3.332-8.351-1.245-.482-2.57,1.526-3.132,2.329a11.84,11.84,0,0,0-2.048,5.862c-.04.562.683.763,1.044.442a12.039,12.039,0,0,0,3.894-7.749.6.6,0,0,0-.763-.562c-3.051,1.084-4.376,4.577-4.818,7.548-.08.562.562,1.084,1,.6.964-1,5.541-7.307,2.73-8.11-1.285-.361-2.69,1.847-3.252,2.73a10.514,10.514,0,0,0-1.606,5.34.623.623,0,0,0,1.044.442c1.526-1.887,4.5-5.9,2.851-8.431a.631.631,0,0,0-.964-.12,11.887,11.887,0,0,0-4.216,8.23c-.04.522.683.763,1.044.442a10.572,10.572,0,0,0,3.172-7.789.622.622,0,0,0-.923-.522,9.379,9.379,0,0,0-4.5,8.03.628.628,0,0,0,1.044.442,12.776,12.776,0,0,0,3.292-5.7c.241-.923.4-2.73-1.084-2.65-1.566.08-3.212,2.81-3.774,4.015-.6,1.365-1.245,3.132-.161,4.376a.619.619,0,0,0,.843,0,11.164,11.164,0,0,0,3.252-5.741c.2-1,.281-2.69-1.164-2.69-1.526,0-3.172,2.248-3.774,3.413a8.313,8.313,0,0,0-.883,5.541.607.607,0,0,0,1,.281,13.107,13.107,0,0,0,3.694-6.464c.241-1.084.562-2.931-1.044-2.891-2.77.08-6.584,7.026-3.975,8.833a.639.639,0,0,0,.6,0c1.405-.683,6.384-7.428,3.332-8.311-1.285-.4-2.73,1.767-3.212,2.69a7.627,7.627,0,0,0-.683,5.46.607.607,0,0,0,1,.281c1.887-2.007,4.416-5.581,3.332-8.431a.611.611,0,0,0-.883-.361,7.45,7.45,0,0,0-3.413,8.19.623.623,0,0,0,1,.281,10.348,10.348,0,0,0,2.891-5.741c.161-.964.522-2.73-.723-3.132-1.325-.4-2.569,1.847-3.011,2.81a8.339,8.339,0,0,0-.482,5.5.607.607,0,0,0,1,.281,8.708,8.708,0,0,0,2.248-7.789.592.592,0,0,0-.723-.4c-3.132.763-3.453,5.179-2.931,7.749a.6.6,0,0,0,1.084.161,10.083,10.083,0,0,0,1.887-4.978c.08-.883.321-2.73-.883-3.051s-1.927,1.445-2.288,2.288a11.142,11.142,0,0,0-.8,5.942c.08.562.8.883,1.124.321,1.245-2.168,2.288-5.42,1.164-7.829a.486.486,0,0,0-.522-.281c-2.971.04-2.81,5.7-2.289,7.588a.6.6,0,0,0,1.084.161c1.124-1.967,1.847-4.858.883-7.066-.683-1.566-1.927-.843-2.69.321-1.084,1.686-1.767,4.858-.683,6.7.843,1.445,1.927.361,2.529-.723.723-1.325,1.887-4.577.683-5.982-1.084-1.245-2.489.482-3.091,1.365-.923,1.405-1.807,3.975-.642,5.5a1.661,1.661,0,0,0,2.971-.4c.2-.482-.321-.8-.723-.723a5.6,5.6,0,0,0-2.248.8c.2.361.4.683.6,1.044a5.294,5.294,0,0,0,1.807-2.369c.241-.6-.6-.923-1-.6-.241.12-.442.241-.683.361.241.281.442.6.683.883,1.084-1.767,2.168-3.573,3.252-5.34.361-.562-.522-1.285-.964-.723-1.445,1.807-2.931,3.654-4.376,5.46l.964.723c.8-1.887,1.606-3.734,2.409-5.621.241-.562-.482-1.325-.964-.723-.6.763-1.2,1.526-1.847,2.288l.964.723a13.72,13.72,0,0,0,1.405-3.011c.161-.562-.642-1.084-1-.6-.8,1-1.566,2.048-2.369,3.051l.964.723c.522-1.164,1-2.329,1.526-3.493.321-.683-.642-1.285-1.044-.6l-1.325,2.168c-.522-.241.522.361.923-.321Z" transform="translate(-322.022 -172.847)" fill="#e8e8e8"/>
      <path id="Path_724" data-name="Path 724" d="M414.279,173.317c0,1.365.04,2.77.08,4.135.04,1,.482,3.132-.161,3.894-.4.482.12,1.325.723.964a3.525,3.525,0,0,0,.6-.482.624.624,0,0,0-.281-1,3.3,3.3,0,0,0-1.967.08c-.723.241-.442,1.405.321,1.164.442-.04.883-.04,1.325-.08a9.356,9.356,0,0,0-.281-1,2.42,2.42,0,0,0-.321.321l.723.964c.883-1.044.642-1.767.562-3.172-.08-1.887-.12-3.814-.12-5.7a.6.6,0,1,0-1.2-.08Z" transform="translate(-354.327 -171.63)" fill="#e8e8e8"/>
      <path id="Path_725" data-name="Path 725" d="M267.647,257.808q24.752-1.385,49.584-1.084a.6.6,0,0,0,0-1.2q-24.812-.3-49.584,1.084C266.884,256.644,266.884,257.848,267.647,257.808Z" transform="translate(-267.075 -221.153)" fill="#e8e8e8"/>
      <path id="Path_726" data-name="Path 726" d="M272.925,284.091a340.731,340.731,0,0,1,35.612-1.887.6.6,0,0,0,0-1.2,330.128,330.128,0,0,0-35.612,1.887C272.162,282.967,272.122,284.172,272.925,284.091Z" transform="translate(-270.225 -236.435)" fill="#e8e8e8"/>
      <path id="Path_727" data-name="Path 727" d="M275.647,333.994q23.728-2.469,47.576-2.69a.6.6,0,0,0,0-1.2q-23.848.181-47.576,2.69C274.884,332.87,274.884,334.075,275.647,333.994Z" transform="translate(-271.863 -265.822)" fill="#e8e8e8"/>
      <path id="Path_728" data-name="Path 728" d="M419.022,414.438c-7.789-3.011-12.406-11.643-11.643-19.833.8-8.311,6.986-15.417,14.413-18.749,5.1-2.289,10.72-2.77,15.738-.08a25.92,25.92,0,0,1,9.676,9.074,22.579,22.579,0,0,1-.642,25.093c-3.132,4.617-9.033,5.942-14.213,6.745-5.139.8-10.559.522-14.9-2.65-.642-.442-1.245.6-.6,1.044,4.015,2.931,8.953,3.533,13.771,3.051,4.778-.482,10.439-1.526,14.293-4.577,3.814-3.011,6.1-8.712,6.906-13.37a22.207,22.207,0,0,0-1.967-13.048c-4.216-9.114-13.932-16.421-24.25-13.891-8.913,2.168-16.782,9.355-18.95,18.388-2.329,9.6,2.69,20.315,12,23.929C419.423,415.883,419.744,414.719,419.022,414.438Z" transform="translate(-350.277 -291.342)" fill="#e8e8e8"/>
      <path id="Path_729" data-name="Path 729" d="M459.4,373.647c.482,7.428.964,14.855,1.486,22.283.04.763,1.245.763,1.2,0-.482-7.428-.964-14.855-1.485-22.283C460.563,372.884,459.358,372.884,459.4,373.647Z" transform="translate(-382.183 -291.543)" fill="#e8e8e8"/>
      <path id="Path_730" data-name="Path 730" d="M464.555,414.428q9.154-5,18.067-10.519c.642-.4.04-1.445-.6-1.044q-8.853,5.54-18.067,10.519A.6.6,0,0,0,464.555,414.428Z" transform="translate(-384.729 -309.319)" fill="#e8e8e8"/>
      <path id="Path_731" data-name="Path 731" d="M465.647,430.5c6.906,0,13.731,1.646,20.516,2.81.763.12,1.084-1.044.321-1.164-6.865-1.164-13.811-2.851-20.837-2.851A.6.6,0,0,0,465.647,430.5Z" transform="translate(-385.581 -325.194)" fill="#e8e8e8"/>
      <path id="Path_732" data-name="Path 732" d="M446.468,429.864c-3.854,6.384-7.709,12.727-11.6,19.111a.6.6,0,0,0,1.044.6c3.854-6.384,7.709-12.727,11.6-19.111C447.914,429.824,446.87,429.182,446.468,429.864Z" transform="translate(-367.446 -325.357)" fill="#e8e8e8"/>
      <path id="Path_733" data-name="Path 733" d="M292.747,563.256q26.2-1.987,52.274-4.657c.763-.08.763-1.285,0-1.2q-26.137,2.65-52.274,4.657C291.984,562.132,291.984,563.336,292.747,563.256Z" transform="translate(-282.098 -401.858)" fill="#e8e8e8"/>
      <path id="Path_734" data-name="Path 734" d="M308.394,497.447c.642,9.234,1.325,18.508,1.967,27.743.04.763,1.245.763,1.2,0-.642-9.234-1.325-18.509-1.967-27.743C309.518,496.684,308.314,496.684,308.394,497.447Z" transform="translate(-291.803 -365.639)" fill="#e8e8e8"/>
      <path id="Path_735" data-name="Path 735" d="M310.188,496.148a30.573,30.573,0,0,1,6.906-.4l-.6-.6c.6,9.395,1.486,18.749,2.57,28.064.08.763,1.285.763,1.2,0-1.124-9.315-1.967-18.709-2.57-28.064a.618.618,0,0,0-.6-.6,33.48,33.48,0,0,0-7.227.442C309.1,495.144,309.465,496.308,310.188,496.148Z" transform="translate(-292.432 -364.219)" fill="#e8e8e8"/>
      <path id="Path_736" data-name="Path 736" d="M342.787,520.871a132.429,132.429,0,0,1,1.686,16.9c.04.763,1.245.763,1.2,0a130.36,130.36,0,0,0-1.726-17.224C343.831,519.787,342.667,520.108,342.787,520.871Z" transform="translate(-312.384 -379.547)" fill="#e8e8e8"/>
      <path id="Path_737" data-name="Path 737" d="M345.547,521.042a49.463,49.463,0,0,0,6.906-.442l-.6-.6c.562,5.581,1.164,11.121,1.726,16.7.08.763,1.285.763,1.2,0-.562-5.581-1.164-11.121-1.726-16.7-.04-.281-.241-.642-.6-.6a56.967,56.967,0,0,1-6.906.442A.6.6,0,0,0,345.547,521.042Z" transform="translate(-313.699 -379.116)" fill="#e8e8e8"/>
      <path id="Path_738" data-name="Path 738" d="M378.394,497.247c.964,8.672,1.566,17.344,1.807,26.1.04.763,1.245.763,1.2,0q-.422-13.068-1.807-26.1C379.518,496.484,378.314,496.484,378.394,497.247Z" transform="translate(-333.699 -365.519)" fill="#e8e8e8"/>
      <path id="Path_739" data-name="Path 739" d="M379.039,497.445c1.285.08,2.61.12,3.894.2,1.807.08,1.847.12,1.887,1.927.12,2.61.241,5.179.4,7.789a130.971,130.971,0,0,0,1.847,14.815c.161.763,1.285.442,1.164-.321a140.05,140.05,0,0,1-2.048-18.79c-.08-1.445-.12-2.851-.2-4.3-.04-.562.04-1.405-.4-1.887-.482-.482-1.325-.4-1.927-.442L379,496.2C378.277,496.2,378.277,497.4,379.039,497.445Z" transform="translate(-333.742 -365.235)" fill="#e8e8e8"/>
      <path id="Path_740" data-name="Path 740" d="M417.9,582.753a406.1,406.1,0,0,0,46.211-5.9c.763-.161.442-1.285-.321-1.164a401.654,401.654,0,0,1-45.89,5.862C417.1,581.588,417.1,582.793,417.9,582.753Z" transform="translate(-356.987 -412.803)" fill="#e8e8e8"/>
      <path id="Path_741" data-name="Path 741" d="M476.747,569.346c6.584-.682,13.209-1.365,19.793-2.048.763-.08.763-1.285,0-1.2-6.584.682-13.209,1.365-19.793,2.048C475.984,568.222,475.984,569.427,476.747,569.346Z" transform="translate(-392.224 -407.065)" fill="#e8e8e8"/>
      <path id="Path_742" data-name="Path 742" d="M504.7,551.864l9.074-.361c.763-.04.763-1.245,0-1.2l-9.074.361C503.9,550.7,503.9,551.9,504.7,551.864Z" transform="translate(-408.938 -397.613)" fill="#e8e8e8"/>
      <path id="Path_743" data-name="Path 743" d="M426.335,216.814a17.73,17.73,0,0,1,.964,6.785c-.04.763,1.164.763,1.2,0a18.612,18.612,0,0,0-1-7.106C427.219,215.77,426.054,216.091,426.335,216.814Z" transform="translate(-362.368 -197.583)" fill="#e8e8e8"/>
      <path id="Path_744" data-name="Path 744" d="M428.047,213.111q16.561-1.686,33.163-2.208c.763-.04.763-1.245,0-1.2-11.081.361-22.162,1.084-33.163,2.208C427.284,211.987,427.284,213.191,428.047,213.111Z" transform="translate(-363.076 -193.759)" fill="#e8e8e8"/>
      <path id="Path_745" data-name="Path 745" d="M430.947,231.012l32.962-2.409c.763-.04.763-1.245,0-1.2l-32.962,2.409C430.184,229.848,430.184,231.052,430.947,231.012Z" transform="translate(-364.812 -204.353)" fill="#e8e8e8"/>
      <path id="Path_746" data-name="Path 746" d="M511.887,212.071c.361,2.489.723,4.938,1.084,7.428.12.763,1.285.442,1.164-.321-.361-2.489-.723-4.938-1.084-7.428C512.931,210.987,511.767,211.308,511.887,212.071Z" transform="translate(-413.593 -194.727)" fill="#e8e8e8"/>
      <path id="Path_747" data-name="Path 747" d="M995.5,293.747a43.093,43.093,0,0,0,.321,4.537c.12.763,1.325.763,1.2,0a34,34,0,0,1-.321-4.537A.6.6,0,0,0,995.5,293.747Z" transform="translate(-703.047 -243.722)" fill="#e8e8e8"/>
      <path id="Path_748" data-name="Path 748" d="M996.847,294.3h77.929a.6.6,0,0,0,0-1.2H996.847A.6.6,0,0,0,996.847,294.3Z" transform="translate(-703.51 -243.677)" fill="#e8e8e8"/>
      <path id="Path_749" data-name="Path 749" d="M1190,294.9v2.65a.6.6,0,0,0,1.2,0V294.9A.6.6,0,0,0,1190,294.9Z" transform="translate(-819.457 -244.395)" fill="#e8e8e8"/>
      <path id="Path_750" data-name="Path 750" d="M998.6,305.2h76.925a.6.6,0,0,0,0-1.2H998.6A.6.6,0,1,0,998.6,305.2Z" transform="translate(-704.543 -250.201)" fill="#e8e8e8"/>
      <path id="Path_751" data-name="Path 751" d="M999.177,258.971c1,4.537,1.847,9.114,2.529,13.691.12.763,1.285.442,1.164-.321-.723-4.577-1.566-9.154-2.529-13.691A.6.6,0,0,0,999.177,258.971Z" transform="translate(-705.238 -222.797)" fill="#e8e8e8"/>
      <path id="Path_752" data-name="Path 752" d="M1000.147,258.1c5.26.161,10.76.8,16.019.161.763-.08.763-1.285,0-1.2-5.259.642-10.76,0-16.019-.161C999.384,256.858,999.384,258.063,1000.147,258.1Z" transform="translate(-705.486 -222.009)" fill="#e8e8e8"/>
      <path id="Path_753" data-name="Path 753" d="M1036.94,260.047c-.562,4.336-1.084,8.672-1.646,13.048-.08.763,1.124.763,1.2,0,.562-4.336,1.084-8.672,1.646-13.048C1038.225,259.284,1037.021,259.284,1036.94,260.047Z" transform="translate(-726.862 -223.552)" fill="#e8e8e8"/>
      <path id="Path_754" data-name="Path 754" d="M1006.8,240.138a7.315,7.315,0,0,1-2.369-1.365c-1.044-1.044-.964-2.449-1.124-3.814-.241-1.807-1.245-3.413-1.365-5.259-.321.161-.6.361-.923.522,3.734,2.409,7.026,5.822,6.906,10.559-.04.763,1.164.763,1.2,0,.161-5.179-3.413-8.953-7.508-11.6a.631.631,0,0,0-.923.522,12.018,12.018,0,0,0,.763,3.091,26.6,26.6,0,0,1,.8,4.336c.442,2.208,1.967,3.172,3.894,4.055C1006.883,241.463,1007.485,240.459,1006.8,240.138Z" transform="translate(-706.159 -205.369)" fill="#e8e8e8"/>
      <path id="Path_755" data-name="Path 755" d="M1016.985,220.1c-.442-3.051,1.566-5.982,2.69-8.672a15.128,15.128,0,0,0,1.405-6.625c-.4.04-.8.12-1.164.161,1.486,6.946,3.332,13.53.161,20.355-.321.683.723,1.325,1.044.6a21.337,21.337,0,0,0,2.048-9.957c-.2-3.814-1.285-7.588-2.088-11.322a.593.593,0,0,0-1.164.161c.241,5.581-4.9,10.077-4.055,15.618C1015.941,221.187,1017.1,220.866,1016.985,220.1Z" transform="translate(-715.176 -190.474)" fill="#e8e8e8"/>
      <path id="Path_756" data-name="Path 756" d="M1067.7,185c.482,14.614.642,29.188.361,43.8a.6.6,0,0,0,1.2,0q.361-21.921-.361-43.8A.6.6,0,1,0,1067.7,185Z" transform="translate(-746.259 -178.619)" fill="#e8e8e8"/>
      <path id="Path_757" data-name="Path 757" d="M1068.434,183.34c1.726-1.445,4.657-.8,6.584-.2.723.241,1.044-.923.321-1.164-2.449-.763-5.661-1.245-7.749.522C1066.989,182.979,1067.832,183.822,1068.434,183.34Z" transform="translate(-746.07 -176.756)" fill="#e8e8e8"/>
      <path id="Path_758" data-name="Path 758" d="M1085.2,185c.08,14.413.161,28.787.241,43.2a.6.6,0,0,0,1.2,0c-.08-14.413-.161-28.787-.241-43.2A.6.6,0,0,0,1085.2,185Z" transform="translate(-756.733 -178.619)" fill="#e8e8e8"/>
      <path id="Path_759" data-name="Path 759" d="M1070.634,206.971a4.154,4.154,0,0,1,5.46.2c.562.522,1.405-.321.843-.843a5.392,5.392,0,0,0-7.146-.2C1069.189,206.609,1070.032,207.452,1070.634,206.971Z" transform="translate(-747.387 -190.871)" fill="#e8e8e8"/>
      <path id="Path_760" data-name="Path 760" d="M1069.315,195.062a4.843,4.843,0,0,1,6.143-.161c.642.482,1.2-.6.6-1.044a6.106,6.106,0,0,0-7.628.361C1067.87,194.741,1068.753,195.584,1069.315,195.062Z" transform="translate(-746.589 -183.58)" fill="#e8e8e8"/>
      <path id="Path_761" data-name="Path 761" d="M1087.4,209.863a21.836,21.836,0,0,1,5.34.642,6.835,6.835,0,0,0-.442-.562c.241,10.84.12,21.64-.442,32.48-.04.763,1.164.763,1.2,0,.562-10.8.682-21.64.442-32.48a.6.6,0,0,0-.442-.562,22.526,22.526,0,0,0-5.661-.682A.582.582,0,1,0,1087.4,209.863Z" transform="translate(-757.691 -193.161)" fill="#e8e8e8"/>
      <path id="Path_762" data-name="Path 762" d="M1087.693,236.961a4.832,4.832,0,0,1,5.179-.12.6.6,0,0,0,.6-1.044,5.923,5.923,0,0,0-6.384.12C1086.448,236.319,1087.05,237.363,1087.693,236.961Z" transform="translate(-757.7 -208.857)" fill="#e8e8e8"/>
      <path id="Path_763" data-name="Path 763" d="M1087.155,223.109a5.4,5.4,0,0,1,4.457-.12c.723.281,1.325-.723.6-1.044a6.652,6.652,0,0,0-5.661.12C1085.87,222.427,1086.472,223.471,1087.155,223.109Z" transform="translate(-757.363 -200.746)" fill="#e8e8e8"/>
      <path id="Path_764" data-name="Path 764" d="M1108,284.577c0-.683-.442-3.172-.04-3.654.562-.683,3.654-.442,4.456-.482,2.77-.161,5.581-.281,8.351-.321,5.581-.08,11.161.12,16.7.562l-.6-.6a35.292,35.292,0,0,1,.321,5.46.6.6,0,0,0,1.2,0,41.121,41.121,0,0,0-.321-5.46.618.618,0,0,0-.6-.6,187.09,187.09,0,0,0-20.677-.442c-1.606.04-3.172.12-4.778.241-1.164.08-3.332-.161-4.416.361-1.566.723-.843,3.654-.8,4.978A.6.6,0,0,0,1108,284.577Z" transform="translate(-769.541 -235.194)" fill="#e8e8e8"/>
      <path id="Path_765" data-name="Path 765" d="M1117.741,272a10.653,10.653,0,0,1-.4-2.208c.281-1.2,1.445-.923,2.329-.923,1.445-.04,2.931-.04,4.376-.08,3.051-.04,6.1-.12,9.194-.161,2.931-.04,5.862-.12,8.792-.161,1.606-.04,3.212-.04,4.778-.08,1.124,0,1.767-.4,2.128,1.044a7.558,7.558,0,0,1,0,2.128c-.04.763,1.164.763,1.2,0,.04-1.044.361-3.091-.482-3.975-.763-.763-2.329-.4-3.252-.361l-13.57.241-13.169.241c-.883,0-2.77-.361-3.413.442-.763.923.16,3.212.321,4.216C1116.738,273.082,1117.9,272.761,1117.741,272Z" transform="translate(-775.142 -228.116)" fill="#e8e8e8"/>
      <path id="Path_766" data-name="Path 766" d="M1182.047,280.133c1.807.04,3.654.08,5.46-.04.883-.08,1.767-.4,1.686-1.445-.08-.763-1.285-.763-1.2,0,.04.442-5.42.321-5.942.281C1181.284,278.888,1181.284,280.092,1182.047,280.133Z" transform="translate(-814.355 -234.684)" fill="#e8e8e8"/>
      <path id="Path_767" data-name="Path 767" d="M1126.951,262.3a14.633,14.633,0,0,1-.161-2.288c.08-.8-.12-.923.8-1.044a24.907,24.907,0,0,1,4.216.361c2.69.2,5.42.321,8.11.361s5.42.04,8.11-.08a24.8,24.8,0,0,1,3.854-.2.909.909,0,0,1,1.285.442.92.92,0,0,1,.562,1c.121.321.161.723.281,1.084.281.723,1.445.4,1.164-.321-.361-.883-.12-2.208-.843-2.971-.642-.683-1.566-.522-2.449-.482-3.975.2-7.99.321-11.964.281-3.854-.08-7.709-.281-11.563-.642-.8-.08-2.047-.4-2.61.4-.642.964-.08,3.011,0,4.055.08.8,1.285.8,1.2.04Z" transform="translate(-780.819 -222.474)" fill="#e8e8e8"/>
      <path id="Path_768" data-name="Path 768" d="M1205.9,367.347v17.866a.6.6,0,0,0,1.2,0V367.347A.6.6,0,0,0,1205.9,367.347Z" transform="translate(-828.974 -287.772)" fill="#e8e8e8"/>
      <path id="Path_769" data-name="Path 769" d="M1207.547,366.4h31.316a.6.6,0,0,0,0-1.2h-31.316A.6.6,0,0,0,1207.547,366.4Z" transform="translate(-829.617 -286.83)" fill="#e8e8e8"/>
      <path id="Path_770" data-name="Path 770" d="M1285,366.347v17.866a.6.6,0,0,0,1.2,0V366.347A.6.6,0,0,0,1285,366.347Z" transform="translate(-876.316 -287.174)" fill="#e8e8e8"/>
      <path id="Path_771" data-name="Path 771" d="M1206.547,413.4h31.316a.6.6,0,0,0,0-1.2h-31.316A.6.6,0,0,0,1206.547,413.4Z" transform="translate(-829.019 -314.96)" fill="#e8e8e8"/>
      <path id="Path_772" data-name="Path 772" d="M1239.545,355.439a10.857,10.857,0,0,1,.361-3.011,4.181,4.181,0,0,1,.562-1.445c.12-.4.4-.522.883-.361.642-.281.964-.08,1,.642a39.487,39.487,0,0,1,.8,5.38c.121.763,1.285.442,1.164-.321a40.447,40.447,0,0,0-.8-5.38,2.518,2.518,0,0,0-2.048-2.048c-2.69-.161-3.172,4.738-3.172,6.544C1238.38,356.2,1239.585,356.2,1239.545,355.439Z" transform="translate(-848.366 -277.068)" fill="#e8e8e8"/>
      <path id="Path_773" data-name="Path 773" d="M1210.8,373.847V387.1a.6.6,0,0,0,1.2,0V373.847A.6.6,0,0,0,1210.8,373.847Z" transform="translate(-831.906 -291.663)" fill="#e8e8e8"/>
      <path id="Path_774" data-name="Path 774" d="M1213.047,372.9h27.3a.6.6,0,0,0,0-1.2h-27.3A.6.6,0,0,0,1213.047,372.9Z" transform="translate(-832.909 -290.72)" fill="#e8e8e8"/>
      <path id="Path_775" data-name="Path 775" d="M1280,372.847V386.9a.6.6,0,0,0,1.2,0V372.847A.6.6,0,0,0,1280,372.847Z" transform="translate(-873.323 -291.064)" fill="#e8e8e8"/>
      <path id="Path_776" data-name="Path 776" d="M1212.047,407.4h26.1a.6.6,0,0,0,0-1.2h-26.1A.6.6,0,0,0,1212.047,407.4Z" transform="translate(-832.31 -311.369)" fill="#e8e8e8"/>
      <path id="Path_777" data-name="Path 777" d="M1213.781,385.991c.883-1.285,1.686-1.566,2.369-.923.12.08.2.161.321.241a6.929,6.929,0,0,0,.763.4,2.223,2.223,0,0,0,1.526-.08,1.391,1.391,0,0,0,.8-.843c.2-.642-.281-.763-.321-1.325-.2-.241-.12-.482.241-.8.08-.923.642-1.124,1.606-.562a4.128,4.128,0,0,0,.682.04c.723-.12.8-.361,1.325-.8,1.686-1.365,3.573-.683,4.015,1.486.04.281.241,2.128-.08,2.329-.321-.4-.643-.763-.964-1.164a2.887,2.887,0,0,1,2.248,1.606.619.619,0,0,0,1.044,0,1.485,1.485,0,0,1,2.409-.08l.843-.843c-.321-.281-.6-.562-.923-.843-1.044-.883-.964-1.887.281-3.051a2.164,2.164,0,0,1,1.847,3.212c-.923,1.807-3.132,2.048-4.938,1.887v1.2l7.869.482c.763.04.763-1.164,0-1.2l-7.869-.482c-.763-.04-.763,1.124,0,1.2,2.088.2,4.376-.2,5.7-2.048a3.615,3.615,0,0,0-.562-4.9,2.875,2.875,0,0,0-3.894.442c-1.446,1.807.241,3.774,1.606,4.978.562.522,1.405-.281.843-.843a2.722,2.722,0,0,0-4.3.321h1.044c-1-1.646-2.891-2.851-4.778-1.847a2.571,2.571,0,0,0-.642,4.1c1.365,1.245,3.333.281,4.055-1.124a5.675,5.675,0,0,0-.522-5.581,3.353,3.353,0,0,0-4.657-.522c-1,.763-.4.883-2.088.763a4.32,4.32,0,0,0-1.606,0,2.15,2.15,0,0,0-1.445,1.124,1.532,1.532,0,0,0-.08,1.325c.04.161.482.522.442.642-.161.883-2.489-.723-2.891-.8a2.409,2.409,0,0,0-2.489,3.212C1212.858,387.035,1214.022,386.754,1213.781,385.991Z" transform="translate(-832.921 -295.295)" fill="#e8e8e8"/>
      <path id="Path_778" data-name="Path 778" d="M1301.4,310.547v13.811a.6.6,0,0,0,1.2,0V310.547A.6.6,0,0,0,1301.4,310.547Z" transform="translate(-886.132 -253.777)" fill="#e8e8e8"/>
      <path id="Path_779" data-name="Path 779" d="M1303.7,309.4h22.162a.6.6,0,0,0,0-1.2H1303.7A.6.6,0,1,0,1303.7,309.4Z" transform="translate(-887.149 -252.714)" fill="#e8e8e8"/>
      <path id="Path_780" data-name="Path 780" d="M1302.847,346.4h22.162a.6.6,0,0,0,0-1.2h-22.162A.6.6,0,0,0,1302.847,346.4Z" transform="translate(-886.655 -274.859)" fill="#e8e8e8"/>
      <path id="Path_781" data-name="Path 781" d="M1358.3,310.1v14.172a.6.6,0,0,0,1.2,0V310.1A.6.6,0,1,0,1358.3,310.1Z" transform="translate(-920.187 -253.493)" fill="#e8e8e8"/>
      <path id="Path_782" data-name="Path 782" d="M1304.8,311.8v13.129a.6.6,0,0,0,1.2,0V311.8A.6.6,0,0,0,1304.8,311.8Z" transform="translate(-888.167 -254.51)" fill="#e8e8e8"/>
      <path id="Path_783" data-name="Path 783" d="M1305,343.8h21.158a.6.6,0,0,0,0-1.2H1305A.6.6,0,0,0,1305,343.8Z" transform="translate(-887.927 -273.303)" fill="#e8e8e8"/>
      <path id="Path_784" data-name="Path 784" d="M1305.847,311.5h20.476a.6.6,0,0,0,0-1.2h-20.476A.6.6,0,0,0,1305.847,311.5Z" transform="translate(-888.451 -253.971)" fill="#e8e8e8"/>
      <path id="Path_785" data-name="Path 785" d="M1357,311.347v12.607a.6.6,0,0,0,1.2,0V311.347A.6.6,0,0,0,1357,311.347Z" transform="translate(-919.409 -254.256)" fill="#e8e8e8"/>
      <path id="Path_786" data-name="Path 786" d="M1315.028,333.551c3.332-1.606,7.106-2.369,10.479-.4a.6.6,0,0,0,.6-1.044c-3.734-2.208-7.949-1.405-11.683.4C1313.7,332.828,1314.346,333.872,1315.028,333.551Z" transform="translate(-893.737 -266.221)" fill="#e8e8e8"/>
      <path id="Path_787" data-name="Path 787" d="M1313.894,325.059c-.723-.883,1.124-1.164,1.365-1.646.2-.361-.08-1.486.04-1.445a.61.61,0,0,0,.763-.562c-.04-1.887,2.007,1.124,1.927,1a2.261,2.261,0,0,0,.883.723c.562.241,1.767-.4,2.088-.161a.607.607,0,0,0,1-.281,7.335,7.335,0,0,1,1-.321.623.623,0,0,0,1.044.442c1.084.843,1.245,1.526.442,2.007-.6.522.281,1.365.843.843,1.044-.883,1.767-2.409.8-3.654a1.865,1.865,0,0,0-2.971-.04c.361.161.683.281,1.044.442a1.467,1.467,0,0,0-1.405-1.686c-1.044-.08-1.646.8-1.967,1.686a9.393,9.393,0,0,0,1-.281c-.683-.562-.8-.321-1.566-.361-2.047-.08-1.445-1.365-2.77-2.128a1.791,1.791,0,0,0-2.61,1.767,9.294,9.294,0,0,1,.763-.562,1.673,1.673,0,0,0-1.726.361c-.442.562.241,1,.08,1.405-.241.642-1.405.442-1.686,1.285-.281.8.281,1.526.763,2.088s1.325-.321.843-.923Z" transform="translate(-892.603 -259.416)" fill="#e8e8e8"/>
      <path id="Path_788" data-name="Path 788" d="M1326.183,300.889a2.488,2.488,0,0,1-.241-1.606c.04-.361.361-1.526.923-1.365.4.12.8,1.164.883,1.526a4.452,4.452,0,0,1,.161,1.927c-.08.763,1.124.763,1.2,0a5.158,5.158,0,0,0-.562-3.091c-.4-.8-1.164-1.887-2.208-1.566a2.812,2.812,0,0,0-1.526,2.007,4.01,4.01,0,0,0,.321,2.81C1325.5,302.214,1326.5,301.612,1326.183,300.889Z" transform="translate(-900.075 -245.805)" fill="#e8e8e8"/>
      <path id="Path_789" data-name="Path 789" d="M1305.8,362V380.43a.6.6,0,0,0,1.2,0V362A.6.6,0,0,0,1305.8,362Z" transform="translate(-888.765 -284.555)" fill="#e8e8e8"/>
      <path id="Path_790" data-name="Path 790" d="M1306.4,360h18.669a.6.6,0,0,0,0-1.2H1306.4A.6.6,0,0,0,1306.4,360Z" transform="translate(-888.765 -282.999)" fill="#e8e8e8"/>
      <path id="Path_791" data-name="Path 791" d="M1352.3,359.447v19.432a.6.6,0,0,0,1.2,0V359.447A.6.6,0,0,0,1352.3,359.447Z" transform="translate(-916.596 -283.044)" fill="#e8e8e8"/>
      <path id="Path_792" data-name="Path 792" d="M1307.647,410.4h17.665a.6.6,0,0,0,0-1.2h-17.665A.6.6,0,0,0,1307.647,410.4Z" transform="translate(-889.528 -313.164)" fill="#e8e8e8"/>
      <path id="Path_793" data-name="Path 793" d="M1322.149,377.347a4.522,4.522,0,0,0,3.693,5.139,3.983,3.983,0,0,0,4.457-4.256c-.04-.763-1.245-.763-1.2,0a2.765,2.765,0,0,1-3.332,3.011c-1.807-.361-2.569-2.208-2.409-3.894C1323.434,376.584,1322.23,376.584,1322.149,377.347Z" transform="translate(-898.53 -293.757)" fill="#e8e8e8"/>
      <path id="Path_794" data-name="Path 794" d="M1327.451,389.447c-.08.562.281,1,.121,1.526-.241.8-1.285,1.566-1.807,2.168a5.5,5.5,0,0,0-1.566,3.493c-.04.763,1.164.763,1.2,0,.08-1.847,1.646-2.931,2.69-4.3a3.68,3.68,0,0,0,.763-1.325c.12-.562-.281-1-.2-1.566C1328.735,388.684,1327.531,388.684,1327.451,389.447Z" transform="translate(-899.776 -300.999)" fill="#e8e8e8"/>
      <path id="Path_795" data-name="Path 795" d="M1318.263,374.1c-1.405-.08-4.055-.964-3.413-2.931.321-1.044,1.646-1.084,2.208-1.807.763-.923.12-1.445-.482-2.128-.562-.642-1.726-.883-.161-2.289.883-.8,2.329.2,3.051.8.442.4.522.843,1.124,1.124a1.79,1.79,0,0,0,1.365.12c.723-.321,1.526-2.449,2.288.2a.562.562,0,0,0,.723.4c.04.843.08,1.646.08,2.489-.482.6.361,1.445.843.843.763-.964,1.646-2.168,1.084-3.453a1.908,1.908,0,0,0-2.369-1.044c.241.12.482.281.723.4-.321-1.084-.843-2.208-2.088-2.288a1.674,1.674,0,0,0-1.084.241,5.256,5.256,0,0,1-.482.6c-.843.442-1.084-.321-1.566-.8a2.9,2.9,0,0,0-2.891-1.245,3.767,3.767,0,0,0-2.891,1.967c-.442,1.285.642,1.646,1.124,2.61.522.2.522.442-.04.723a.854.854,0,0,1-.482.442,4.424,4.424,0,0,0-.562.361,3.536,3.536,0,0,0-.723,1.164c-.923,2.931,2.088,4.5,4.5,4.657a.586.586,0,1,0,.12-1.164Z" transform="translate(-893.359 -285.689)" fill="#e8e8e8"/>
      <path id="Path_796" data-name="Path 796" d="M1324.722,355.074c-.04-.6-.241-1.686.482-2.048.763-.361.642.8.562,1.2-.161.763,1,1.084,1.164.321a3,3,0,0,0-.12-1.967,1.547,1.547,0,0,0-1.526-.8c-1.646.2-1.847,1.967-1.727,3.292,0,.763,1.2.763,1.164,0Z" transform="translate(-899.376 -278.791)" fill="#e8e8e8"/>
      <path id="Path_797" data-name="Path 797" d="M1309.5,361.7v17.706a.6.6,0,0,0,1.2,0V361.7A.6.6,0,0,0,1309.5,361.7Z" transform="translate(-890.98 -284.376)" fill="#e8e8e8"/>
      <path id="Path_798" data-name="Path 798" d="M1310.447,407.1h16.019a.6.6,0,0,0,0-1.2h-16.019A.6.6,0,0,0,1310.447,407.1Z" transform="translate(-891.204 -311.189)" fill="#e8e8e8"/>
      <path id="Path_799" data-name="Path 799" d="M1350.5,379.236V360.647a.6.6,0,0,0-1.2,0v18.589A.6.6,0,0,0,1350.5,379.236Z" transform="translate(-914.8 -283.762)" fill="#e8e8e8"/>
      <path id="Path_800" data-name="Path 800" d="M1311.147,361.2h15.859a.6.6,0,0,0,0-1.2h-15.859A.6.6,0,0,0,1311.147,361.2Z" transform="translate(-891.623 -283.717)" fill="#e8e8e8"/>
    </g>
    <path id="Path_801" data-name="Path 801" d="M704.428,900.426a8.7,8.7,0,0,0-9.315-1.124,9.052,9.052,0,0,0-4.5,10.037c.723,5.5,1.445,11.041,2.168,16.541-14.654,6.7-21.64,11.081-21.038,13.089.723,2.449,12.607,1.405,35.692-3.051C706.435,924.074,705.431,912.27,704.428,900.426Z" transform="translate(-323.697 -435.975)" fill="#191919"/>
    <path id="Path_802" data-name="Path 802" d="M711.417,570.984c-.562,8.07-1.486,21.158-3.051,37.378-1.927,20.355-2.73,40.871-5.46,61.147-2.81,21.038-5.9,35.451,1.2,40.47a11.134,11.134,0,0,0,7.869,1.526c2.329-.6,4.657-1.245,6.986-1.847,2.289,1.124,5.38,2.208,7.869.923,7.307-3.734.4-22.885.923-50.346.361-18.107,3.854-36.174,8.512-59.9,3.533-18.107,6.223-27.5,1.2-32.119C731.371,562.553,717.841,567.973,711.417,570.984Z" transform="translate(-340.483 -236.856)" fill="#fff" stroke="#161616" stroke-miterlimit="10" stroke-width="2"/>
    <path id="Path_803" data-name="Path 803" d="M741.245,567.23a141.688,141.688,0,0,1,3.132,30.955c-.2,21.118-5.139,34.448-8.712,50.306a227,227,0,0,0-4.979,62.351c2.128-.4,4.3-.843,6.424-1.245a7.76,7.76,0,0,0,5.179,1.445,7.62,7.62,0,0,0,4.778-2.289c2.128-2.409,1.686-5.982,1.445-7.709-.923-7.508-1.124-15.1-1.887-22.644a149.4,149.4,0,0,1-.642-17.866,162.3,162.3,0,0,1,1.245-16.622c1.767-14.9,3.372-17.425,6.865-39.065,2.65-16.3,1.486-13.329,2.489-17.023.923-3.292,2.489-8.07,1.646-14.132-.4-2.85-1.124-4.456-2.289-5.621-2.409-2.369-5.982-2.329-8.11-2.289a17.442,17.442,0,0,0-6.584,1.445Z" transform="translate(-358.788 -236.876)" fill="#6d6c6c" opacity="0.14"/>
    <path id="Path_804" data-name="Path 804" d="M759.366,671.4a111.874,111.874,0,0,0-8.11,25.976c-3.373,18.629-.04,28.1-2.891,48.018a131.085,131.085,0,0,1-6.865,27.02c1.445.2,2.891.4,4.376.642,2.168.763,4.9,1.325,6.865,0,3.533-2.369,2.329-9.315,1.445-17.465,0,0-1.084-10.037-1.245-29.108-.08-10.559.883-18.348,2.288-29.71,1.245-10.2,2.77-18.83,4.135-25.374Z" transform="translate(-365.467 -300.094)" fill="#6d6c6c" opacity="0.1"/>
    <path id="Path_805" data-name="Path 805" d="M830.628,892.826a8.7,8.7,0,0,0-9.315-1.124,9.052,9.052,0,0,0-4.5,10.037c.723,5.5,1.445,11.041,2.168,16.541-14.654,6.7-21.64,11.081-21.038,13.089.723,2.449,12.607,1.405,35.692-3.051C832.595,916.474,831.591,904.67,830.628,892.826Z" transform="translate(-399.229 -431.427)" fill="#191919"/>
    <path id="Path_806" data-name="Path 806" d="M792.816,567.236c2.329,19.071,4.818,38.744,7.468,59.179,1.807,14.052,2.248,17.384,3.654,22.845,2.409,9.475,5.661,17.545,8.471,32.2,1.325,6.825,2.007,12.366-1.164,16.541-2.369,3.132-6.986,5.621-8.03,4.657-.442-.442-.161-1.566.241-2.57-.964.923-7.066,6.665-11.924,4.657-2.85-1.164-4.015-4.5-4.577-6.3a153.734,153.734,0,0,1-6.625-34.97c-.361-6.745-1.245-13.651-2.971-27.5a277.21,277.21,0,0,0-8.873-42.718c-.763-.482-8.23-5.46-8.712-14.654-.04-.682-.321-7.628,4.055-12.326,5.781-6.223,18.147-6.665,28.987.964Z" transform="translate(-376.393 -234.352)" fill="#fff" stroke="#161616" stroke-miterlimit="10" stroke-width="2"/>
    <path id="Path_807" data-name="Path 807" d="M759.642,587.093c-1.445,4.175-1.847,8.873.442,12.848,1.967,3.413,5.139,7.146,8.993,8.351.723.241,1.044-.923.321-1.164-3.533-1.084-6.5-4.657-8.271-7.789-2.128-3.694-1.646-8.03-.321-11.924C761.087,586.691,759.923,586.37,759.642,587.093Z" transform="translate(-375.619 -249.391)" fill="#fff"/>
    <path id="Path_808" data-name="Path 808" d="M758.4,605.447a14.322,14.322,0,0,0,10.479,13.209.6.6,0,0,0,.321-1.164,13.13,13.13,0,0,1-9.6-12.045c-.04-.763-1.245-.763-1.2,0Z" transform="translate(-375.58 -260.278)" fill="#fff"/>
    <path id="Path_809" data-name="Path 809" d="M802.7,562.7c1.044,3.132,2.65,8.19,4.417,14.453,5.139,18.147,14.012,49.584,14.574,87.4.08,6.3.321,38.382,3.212,38.543.683.04,1.807-1.726,3.332-1.325,1.044.281,1.084,1.245,2.007,1.606,2.007.763,5.34-2.69,6.946-5.219a12.783,12.783,0,0,0,2.128-5.741,16.176,16.176,0,0,0-.4-4.938c-.642-4.216-.964-6.3-1.2-7.347-1.726-8.15-4.818-15.979-7.347-27.02-1.084-4.657-1.807-8.833-2.69-13.651-.281-1.526-1.044-5.982-1.887-11.523-1.887-12.687-2.489-21.4-3.734-32.521-.683-6.062-1.726-14.614-3.332-25.013a11.371,11.371,0,0,0-2.409-3.493c-.442-.4-1.807-1.646-5.5-2.81A26.211,26.211,0,0,0,802.7,562.7Z" transform="translate(-402.096 -235.036)" fill="#6d6c6c" opacity="0.14"/>
    <path id="Path_810" data-name="Path 810" d="M860.312,773c2.208,10.278,3.694,19.071,4.7,25.976,1.606,11.242,1.686,15.337-.4,19.673-3.131,6.544-9.636,10.439-9.234,10.961.161.2,1.2-.2,4.818-2.529.12.964.4,2.047,1.2,2.409,2.048.883,6.584-3.533,8.552-7.749,2.69-5.822.723-11.8-1.084-17.545C866.615,796.929,863.6,786.57,860.312,773Z" transform="translate(-433.611 -360.903)" fill="#6d6c6c" opacity="0.2"/>
    <path id="Path_811" data-name="Path 811" d="M619.622,405.646c-3.935-.522-7.548,4.617-14.574,14.855a160.344,160.344,0,0,0-10.4,17.384c-4.778-.241-9.555-.482-14.333-.763-4.457-.241-8.913-.482-13.37-.763a79.192,79.192,0,0,0-7.668-2.248c-5.259-1.285-16.14-3.413-16.822-1.526-.2.6.522,1.847,5.179,4.778a11.422,11.422,0,0,0,0,8.07,11.117,11.117,0,0,0,4.7,5.541c4.015,2.128,9.555.964,13.61-3.011,3.132,1.887,20.115,11.8,36.094,5.019,5.219-2.208,8.873-5.581,12.125-8.552,5.9-5.42,13.651-12.526,13.851-22.4.161-7.146-3.613-15.738-8.391-16.381Z" transform="translate(-246.319 -141.016)" fill="#fff" stroke="#161616" stroke-miterlimit="10" stroke-width="2"/>
    <path id="Path_812" data-name="Path 812" d="M541.51,472.853a47.509,47.509,0,0,0,4.858,4.577,20.055,20.055,0,0,0,5.7,2.69c.562.2.8-.683.241-.883a18.358,18.358,0,0,1-5.942-2.971,57.579,57.579,0,0,1-4.216-4.055C541.751,471.809,541.109,472.451,541.51,472.853Z" transform="translate(-245.694 -180.801)" fill="#161616"/>
    <path id="Path_813" data-name="Path 813" d="M580.555,484.256a10.044,10.044,0,0,0-4.015,2.65c-.763.843-1.887,2.168-1.606,3.372.281,1.365,1.967,1.365,3.091,1.365a10.443,10.443,0,0,0,5.1-1.485c.482-.281.04-1.084-.442-.763a9.428,9.428,0,0,1-3.252,1.245c-1,.161-3.935.522-3.413-1.365.522-1.927,3.091-3.493,4.818-4.135C581.318,484.939,581.077,484.055,580.555,484.256Z" transform="translate(-265.749 -188.069)" fill="#161616"/>
    <path id="Path_814" data-name="Path 814" d="M553.373,486.023c-.843,2.69-.843,5.3,2.048,6.584,2.128.964,5.219.482,6.3-1.807.241-.522-.522-.964-.763-.442-.883,1.887-3.413,2.208-5.179,1.405-2.449-1.084-2.208-3.292-1.526-5.5A.458.458,0,0,0,553.373,486.023Z" transform="translate(-252.579 -188.952)" fill="#161616"/>
    <path id="Path_815" data-name="Path 815" d="M553.6,500.672a5.2,5.2,0,0,0,3.975,4.978,4.4,4.4,0,0,0,4.858-2.81c.2-.522-.642-.763-.883-.241a3.529,3.529,0,0,1-4.175,2.088,4.382,4.382,0,0,1-2.891-4.015c0-.562-.923-.562-.883,0Z" transform="translate(-253.004 -197.659)" fill="#161616"/>
    <path id="Path_816" data-name="Path 816" d="M574.272,506.529c3.132-.562,2.088,5.019-.2,4.818-.562-.04-.562.843,0,.923,1.927.161,2.971-2.208,3.091-3.814a2.587,2.587,0,0,0-3.132-2.73C573.469,505.767,573.71,506.61,574.272,506.529Z" transform="translate(-265.006 -200.907)" fill="#161616"/>
    <path id="Path_817" data-name="Path 817" d="M573.333,498.421c0-.04.04-.04.04-.08-.161.04-.281.08-.442.12.321.08.361,1.124.321,1.325a2.171,2.171,0,0,1-.642,1.405c-.4.4.241,1.044.642.642a3.084,3.084,0,0,0,.883-2.329c-.04-.642-.241-1.767-1-1.927a.453.453,0,0,0-.442.12c0,.04-.04.04-.04.08-.321.442.281,1.084.683.642Z" transform="translate(-264.308 -196.05)" fill="#161616"/>
    <path id="Path_818" data-name="Path 818" d="M568.534,490.981a1.467,1.467,0,0,1,1.325,1.887.458.458,0,0,0,.883.241,2.338,2.338,0,0,0-2.168-3.011A.443.443,0,1,0,568.534,490.981Z" transform="translate(-261.677 -191.582)" fill="#161616"/>
    <path id="Path_819" data-name="Path 819" d="M631.958,421.8a68.292,68.292,0,0,1-6.143,13.089c-3.132,5.179-6.624,10.92-13.41,15.738a37.905,37.905,0,0,1-42.357,1.807c-2.409,1.807-4.055,1.927-5.139,1.686-.964-.241-1.325-.723-3.011-1.245a13.541,13.541,0,0,0-3.252-.562c-2.329-.161-4.737-.321-5.38.763-.843,1.485,1.887,4.657,4.015,6.384a10.6,10.6,0,0,0,5.019,2.449c5.581.883,9.716-3.975,9.957-4.256a50.322,50.322,0,0,0,5.822,3.132c4.055,1.887,9.8,4.5,17.425,4.456a33.942,33.942,0,0,0,16.22-4.135c1.526-.883,4.376-3.372,10.037-8.391,5.26-4.657,7.187-6.7,8.953-9.515a22.763,22.763,0,0,0,3.132-6.7C635.491,430.231,633.283,424.53,631.958,421.8Z" transform="translate(-252.712 -150.706)" fill="#6d6c6c" opacity="0.12"/>
    <path id="Path_820" data-name="Path 820" d="M642.158,433.8a50.939,50.939,0,0,1-4.376,10.519c-2.128,3.854-7.749,13.771-19.673,19.874A36.627,36.627,0,0,1,600,468.89a35.4,35.4,0,0,1-18.99-6.143,26.43,26.43,0,0,1-7.146,3.132c-4.175,1.084-7.187.723-7.267,1.325s2.81,1.887,5.822,1.807A12.4,12.4,0,0,0,580.69,465c2.77,2.007,13.129,9.074,26.7,7.267,10.479-1.405,17.1-7.307,22.925-12.526,4.336-3.894,9.355-8.512,11.282-16.22A26.321,26.321,0,0,0,642.158,433.8Z" transform="translate(-260.784 -157.888)" fill="#6d6c6c" opacity="0.15"/>
    <path id="Path_821" data-name="Path 821" d="M717.649,400.068c-.8.923-2.208,2.891-3.413,12.285a128.631,128.631,0,0,0,0,30.433c.883,8.953,2.128,19.753,3.935,32.039a71.957,71.957,0,0,0,32.521,2.409,70.458,70.458,0,0,0,16.019-4.537,163.679,163.679,0,0,1-.522-23.487c1.365-27.582,2.61-35.251,2.61-35.251.923-5.5,1.767-8.913-.281-12-2.048-3.172-5.942-4.256-18.348-5.059C731.339,395.612,721.864,395.09,717.649,400.068Z" transform="translate(-348.601 -135.277)" fill="#ec615b"/>
    <path id="Path_822" data-name="Path 822" d="M791.6,398.4c1.245,4.416,2.288,9.114,3.172,14.092a156.4,156.4,0,0,1-3.172,66.687c2.329-.161,4.778-.442,7.387-.883a79.01,79.01,0,0,0,14.414-3.854c-.562-7.99-.723-14.815-.723-20.235a263.861,263.861,0,0,1,1.927-31.316c.723-5.621,1.486-10.318,2.128-13.731a7.856,7.856,0,0,0-.522-4.577,8.4,8.4,0,0,0-3.533-3.694,12.459,12.459,0,0,0-6.7-1.566C802.521,399.2,797.943,399,791.6,398.4Z" transform="translate(-395.452 -136.7)" fill="#6d6c6c" opacity="0.14"/>
    <path id="Path_823" data-name="Path 823" d="M822.218,422c-7.106,18.428-8.592,31.6-8.431,40.47.04,3.332.4,11.322-3.854,19.713A36.349,36.349,0,0,1,801.3,493.1a62.273,62.273,0,0,0,7.909-1.566,66.541,66.541,0,0,0,9.515-3.332c-.361-10.358-.321-21.6.361-33.6C819.688,442.877,820.812,432,822.218,422Z" transform="translate(-401.258 -150.825)" fill="#6d6c6c" opacity="0.16"/>
    <path id="Path_824" data-name="Path 824" d="M825.656,405.744c4.938-2.168,11.643,4.175,15.979,8.231,4.738,4.456,14.333,13.49,14.815,28.265.4,12.326-5.741,21.239-8.793,24.972a38.024,38.024,0,0,1-13.41,10.358,17.7,17.7,0,0,1-1.164,5.9c-.522,1.285-3.172,8.03-8.23,8.311-.682.04-3.011.04-5.7-2.489a2.073,2.073,0,0,1-1.485-.843,2.319,2.319,0,0,1-.04-2.489,2.779,2.779,0,0,1-1.405-1.847,2.722,2.722,0,0,1,.723-2.409,2.558,2.558,0,0,1,.843-2.007c.723-.482,1.485-.08,2.65-.161a5.492,5.492,0,0,0,3.132-1.485c-1.445-.4-4.7-1.445-4.617-2.61.04-1.365,4.738-2.168,5.781-2.369a24.847,24.847,0,0,1,6.263-.241c.883-1.606,2.168-3.975,3.694-6.825,2.57-4.818,3.854-7.227,4.617-8.953A42.5,42.5,0,0,0,842.8,442.2a100.391,100.391,0,0,0-8.11-7.066c-7.628-5.942-10.2-6.062-12.286-9.435C818.469,419.4,820.356,408.073,825.656,405.744Z" transform="translate(-410.156 -140.833)" fill="#fff" stroke="#161616" stroke-miterlimit="10" stroke-width="2"/>
    <path id="Path_825" data-name="Path 825" d="M817.083,593.577c.642,3.132,5.46,2.409,7.387,1.285.482-.281.04-1.084-.442-.763-1.405.843-5.581,1.767-6.062-.723C817.846,592.774,816.963,593.015,817.083,593.577Z" transform="translate(-410.698 -253.185)" fill="#161616"/>
    <path id="Path_826" data-name="Path 826" d="M818.029,605.335c2.409,1.726,5.942.923,8.471-.241.522-.241.08-1-.442-.763-2.248,1-5.42,1.726-7.548.241C818.029,604.21,817.587,605.013,818.029,605.335Z" transform="translate(-411.161 -259.925)" fill="#161616"/>
    <path id="Path_827" data-name="Path 827" d="M822.465,613.588a7.523,7.523,0,0,0,7.668-.562c.482-.321.04-1.124-.442-.763a6.583,6.583,0,0,1-6.745.562C822.425,612.545,821.943,613.307,822.465,613.588Z" transform="translate(-413.791 -264.646)" fill="#161616"/>
    <path id="Path_828" data-name="Path 828" d="M825.863,407.479c-.8,2.73,8.592,5.34,16.822,14.172,2.851,3.051,8.672,9.274,10.037,18.509,1.726,11.442-4.256,20.6-6.464,23.888a41.416,41.416,0,0,1-12.567,12.245,13.137,13.137,0,0,1-3.292,8.672,11.354,11.354,0,0,1-6.865,3.894c-2.128.241-4.055-.361-4.135-.12-.04.241,1.445.562,3.372,1.887,1.245.843,1.285,1.2,1.887,1.485,2.489,1.164,6.424-2.369,6.865-2.73,4.1-3.734,4.577-9.274,4.657-11.322.923-.522,2.168-1.245,3.613-2.208a51.43,51.43,0,0,0,9.314-7.709,36.866,36.866,0,0,0,7.909-14.9c.8-3.011,3.011-11.723-.522-21.239-1.566-4.135-3.573-6.825-7.187-11.523-3.212-4.216-5.581-6.3-10.158-10.358-3.292-2.931-5.26-4.3-7.909-4.457C829.436,405.552,826.3,405.993,825.863,407.479Z" transform="translate(-412.09 -141.041)" fill="#6d6c6c" opacity="0.18"/>
    <path id="Path_829" data-name="Path 829" d="M877.486,456a42.352,42.352,0,0,1,3.051,17.344,40.981,40.981,0,0,1-4.135,16.822,42.658,42.658,0,0,1-16.7,17.665,34.765,34.765,0,0,0,11.964-7.508c12.567-12.125,10.72-29.228,10.559-30.433A36.058,36.058,0,0,0,877.486,456Z" transform="translate(-436.211 -171.175)" fill="#6d6c6c" opacity="0.18"/>
    <path id="Path_830" data-name="Path 830" d="M737.09,296.01c2.409,8.07,3.292,12.767,6.7,20.155a87.019,87.019,0,0,0,4.216,7.99,41.343,41.343,0,0,1-27.261,3.011,42.913,42.913,0,0,0,.241-8.11,40.555,40.555,0,0,0-1.927-9.716c-3.854-.482-7.749-1-11.6-1.486-.763-1.686-1.526-3.413-2.288-5.1l-3.172-.12c.8-2.329,2.007-5.982,3.413-10.519,2.61-8.552,2.57-9.756,3.975-11.683,3.894-5.259,12.607-8.632,18.348-5.781C731.148,276.3,733.155,282.882,737.09,296.01Z" transform="translate(-341.826 -62.013)" fill="#fff" stroke="#161616" stroke-miterlimit="10" stroke-width="2"/>
    <path id="Path_831" data-name="Path 831" d="M701.347,345.153a36.651,36.651,0,0,0,5.942-.4c.763-.12.442-1.285-.321-1.164a33.047,33.047,0,0,1-5.621.361A.6.6,0,0,0,701.347,345.153Z" transform="translate(-341.092 -103.889)" fill="#161616"/>
    <path id="Path_832" data-name="Path 832" d="M698.955,307.066a2.617,2.617,0,0,1,3.332.763c.442.642,1.485.04,1.044-.6a3.851,3.851,0,0,0-4.978-1.2C697.67,306.383,698.272,307.427,698.955,307.066Z" transform="translate(-339.463 -81.138)" fill="#161616"/>
    <path id="Path_833" data-name="Path 833" d="M722.8,310.8a3.371,3.371,0,0,1,3.854,1.325c.442.642,1.486.04,1.044-.6a4.61,4.61,0,0,0-5.219-1.847A.585.585,0,0,0,722.8,310.8Z" transform="translate(-353.83 -83.463)" fill="#161616"/>
    <path id="Path_834" data-name="Path 834" d="M722.741,319.676a2.089,2.089,0,0,1,.281-1.285,1.22,1.22,0,0,1,.2-.281c-.161-.2-.241-.241-.2-.04-.08.08-.04.482-.08.6a3.555,3.555,0,0,1-.2.6.876.876,0,0,1-.12.2c.2.361.321.4.4.12a4.045,4.045,0,0,0,.361-.723l.361-.723a.61.61,0,0,0-.964-.723,2.21,2.21,0,0,0-.562.923.6.6,0,0,0,1.164.321.683.683,0,0,1,.241-.4l-.964-.723c-.281.562-.6,1.124-.843,1.726a.944.944,0,0,0,.281,1.245c1.084.683,1.767-.723,1.967-1.566.161-.8.161-2.489-1.164-2.128-1.044.321-1.445,1.847-1.405,2.77C721.576,320.439,722.781,320.439,722.741,319.676Z" transform="translate(-353.492 -87.847)" fill="#161616"/>
    <path id="Path_835" data-name="Path 835" d="M716.9,274.51a20.237,20.237,0,0,1,2.85-7.588,15.506,15.506,0,0,1,4.376-4.737c4.376-2.851,11.081-2.61,15.939.883a15.837,15.837,0,0,1,6.1,15.618c-9.716-1.365-19.512-2.77-29.268-4.175Z" transform="translate(-350.743 -54.003)" fill="#5222d0"/>
    <path id="Path_836" data-name="Path 836" d="M674.519,290.69q22.584,2.83,45.127,5.661c2.289.281,2.289-3.332,0-3.613q-22.584-2.83-45.127-5.661C672.19,286.8,672.23,290.409,674.519,290.69Z" transform="translate(-324.341 -70.063)" fill="#161616"/>
    <path id="Path_837" data-name="Path 837" d="M726.384,304.15c-2.65.964-4.216,2.81-5.982,4.938-3.774,4.577-2.65,6.263-5.3,9.114-4.216,4.537-8.511,1.847-12.285,6.3-3.212,3.774-2.77,8.873-2.65,10.037a13.421,13.421,0,0,0,4.416,8.793c3.252,2.69,7.588,3.292,7.869,2.69.08-.2-.241-.763-2.65-2.369a8.638,8.638,0,0,0,3.212,1.365c1.646.281,3.212,0,3.212-.241,0-.2-.883-.161-1.566-.883a3.125,3.125,0,0,1-.683-1.365c1.325.843,2.971,1.606,4.537,1.124,4.3-1.285,5.059-10.8,5.3-13.972.8-10.2-2.128-15.778,1.445-19.392.281-.321,1.726-1.767,3.332-1.445,2.007.361,3.533,3.453,2.891,5.5-.562,1.767-2.57,2.248-2.449,2.61.2.4,3.573-.241,6.424-2.489a6.008,6.008,0,0,0,2.329-2.69,6.433,6.433,0,0,0-1.325-5.982C733.972,302.906,729.274,303.107,726.384,304.15Z" transform="translate(-340.674 -79.869)" fill="#161616" stroke="#161616" stroke-miterlimit="10" stroke-width="2"/>
    <path id="Path_838" data-name="Path 838" d="M769.156,333.87c-.642.08-1.566.08-1.606-.12-.04-.12.2-.281.2-.281a3.116,3.116,0,0,1-1.726,1.084,1.95,1.95,0,0,1-1.124-.241,90.428,90.428,0,0,1,7.949,27.5,23.327,23.327,0,0,0,6.986-1.084,24.125,24.125,0,0,0,5.46-2.529,60.276,60.276,0,0,1-6.5-13.289c-.482-1.445-1.526-4.858-2.007-6.544-.923-3.051-1.686-5.581-2.168-7.267a9.543,9.543,0,0,1-1.2.964A8.631,8.631,0,0,1,769.156,333.87Z" transform="translate(-379.472 -96.42)" fill="#6d6c6c" opacity="0.22"/>
    <path id="Path_839" data-name="Path 839" d="M748.6,260.449A9.078,9.078,0,0,1,755.907,268a9.245,9.245,0,0,1-3.011,7.628c4.176.522,8.311,1,12.486,1.526a14.279,14.279,0,0,0-.161-3.814,16.2,16.2,0,0,0-4.3-8.552,14.917,14.917,0,0,0-9.475-4.5A18.184,18.184,0,0,0,748.6,260.449Z" transform="translate(-369.716 -54.034)" fill="#321693"/>
    <path id="Path_840" data-name="Path 840" d="M528.5,698.4c.2,2.168.361,4.376.562,6.544l204.4.361c.6-2.168,1.2-4.376,1.807-6.544Z" transform="translate(-237.984 -316.254)" fill="#fff"/>
    <path id="Path_841" data-name="Path 841" d="M534.4,697.3h2.168a.6.6,0,0,0,0-1.2H534.4A.6.6,0,0,0,534.4,697.3Z" transform="translate(-241.156 -314.878)" fill="#161616"/>
    <path id="Path_842" data-name="Path 842" d="M528.094,698.409H734.941a1.2,1.2,0,0,0,0-2.409H528.094A1.206,1.206,0,0,0,528.094,698.409Z" transform="translate(-237.056 -314.818)" fill="#161616"/>
    <path id="Path_843" data-name="Path 843" d="M529.449,713.209H733a1.2,1.2,0,0,0,0-2.409H529.449A1.2,1.2,0,0,0,529.449,713.209Z" transform="translate(-237.849 -323.676)" fill="#161616"/>
    <path id="Path_844" data-name="Path 844" d="M547.1,729.694V859.415a1.2,1.2,0,0,0,2.409,0V729.694A1.206,1.206,0,0,0,547.1,729.694Z" transform="translate(-249.116 -334.299)" fill="#161616"/>
    <path id="Path_845" data-name="Path 845" d="M964.9,725.649V842.924a1.2,1.2,0,0,0,2.409,0V725.649A1.2,1.2,0,0,0,964.9,725.649Z" transform="translate(-499.174 -331.86)" fill="#161616"/>
    <path id="Path_846" data-name="Path 846" d="M132.049,980.909H367.923a1.2,1.2,0,0,0,0-2.409H132.049a1.2,1.2,0,0,0,0,2.409Z" transform="translate(0 -483.897)" fill="#fff"/>
    <path id="Path_847" data-name="Path 847" d="M834.549,983.609H1043a1.2,1.2,0,0,0,0-2.409H834.549A1.2,1.2,0,0,0,834.549,983.609Z" transform="translate(-420.455 -485.514)" fill="#fff"/>
    <path id="Path_848" data-name="Path 848" d="M548.3,729.549v126.79a1.2,1.2,0,0,0,2.409,0V729.549A1.2,1.2,0,0,0,548.3,729.549Z" transform="translate(-249.834 -334.195)" fill="#fff"/>
    <path id="Path_850" data-name="Path 850" d="M964.4,724.194V839.14a1.2,1.2,0,0,0,2.409,0V724.194A1.206,1.206,0,0,0,964.4,724.194Z" transform="translate(-498.875 -331.007)" fill="#161616"/>
    <path id="Path_851" data-name="Path 851" d="M965.8,725.559V840.393a1.2,1.2,0,0,0,2.409,0V725.559A1.2,1.2,0,0,0,965.8,725.559Z" transform="translate(-499.713 -332.752)" fill="#fff"/>
    <path id="Path_859" data-name="Path 859" d="M572.3,685.589v-5.942a.6.6,0,0,0-1.2,0v5.942A.6.6,0,0,0,572.3,685.589Z" transform="translate(-263.48 -304.688)" fill="#e8e8e8"/>
    <path id="Path_860" data-name="Path 860" d="M571.747,680h33.323a.6.6,0,0,0,0-1.2H571.747A.6.6,0,0,0,571.747,680Z" transform="translate(-263.525 -304.523)" fill="#e8e8e8"/>
    <path id="Path_861" data-name="Path 861" d="M654.1,679.4v5.661a.6.6,0,0,0,1.2,0V679.4A.6.6,0,0,0,654.1,679.4Z" transform="translate(-313.157 -304.523)" fill="#e8e8e8"/>
    <path id="Path_862" data-name="Path 862" d="M575.547,685.6h25.495a.6.6,0,0,0,0-1.2H575.547A.6.6,0,0,0,575.547,685.6Z" transform="translate(-265.799 -307.875)" fill="#e8e8e8"/>
    <path id="Path_863" data-name="Path 863" d="M589.647,691.3H609.2a.6.6,0,0,0,0-1.2H589.647A.6.6,0,0,0,589.647,691.3Z" transform="translate(-274.238 -311.286)" fill="#e8e8e8"/>
    <path id="Path_864" data-name="Path 864" d="M592.1,673.1v-4.055a.6.6,0,0,0-1.2,0V673.1A.6.6,0,0,0,592.1,673.1Z" transform="translate(-275.331 -298.344)" fill="#e8e8e8"/>
    <path id="Path_865" data-name="Path 865" d="M593.447,669h29.028a.6.6,0,0,0,0-1.2H593.447A.6.6,0,0,0,593.447,669Z" transform="translate(-276.513 -297.94)" fill="#e8e8e8"/>
    <path id="Path_866" data-name="Path 866" d="M655.647,679.3h3.774a.6.6,0,0,0,0-1.2h-3.774A.6.6,0,0,0,655.647,679.3Z" transform="translate(-313.74 -304.104)" fill="#e8e8e8"/>
    <path id="Path_867" data-name="Path 867" d="M665.1,668.7V672.6a.6.6,0,0,0,1.2,0V668.7A.6.6,0,0,0,665.1,668.7Z" transform="translate(-319.74 -298.119)" fill="#e8e8e8"/>
    <path id="Path_868" data-name="Path 868" d="M607.9,674h6.946a.6.6,0,0,0,0-1.2H607.9A.6.6,0,0,0,607.9,674Z" transform="translate(-285.146 -300.932)" fill="#e8e8e8"/>
    <path id="Path_869" data-name="Path 869" d="M637.747,676.5h6.183a.6.6,0,0,0,0-1.2h-6.183A.6.6,0,0,0,637.747,676.5Z" transform="translate(-303.027 -302.428)" fill="#e8e8e8"/>
    <path id="Path_870" data-name="Path 870" d="M607.191,656.314a4.505,4.505,0,0,1-1.084-3.613c.161-2.128,2.088-2.208,3.694-1.566.723.281,1.044-.883.321-1.164-1.807-.723-4.176-.682-4.978,1.445a5.756,5.756,0,0,0,1.2,5.741c.562.562,1.405-.321.843-.843Z" transform="translate(-283.672 -287.016)" fill="#e8e8e8"/>
    <path id="Path_871" data-name="Path 871" d="M615.328,649.839c3.774-1.686,5.34,4.657,2.088,6.263-.683.361-.08,1.365.6,1.044,4.657-2.329,1.927-10.68-3.292-8.351C614,649.116,614.646,650.16,615.328,649.839Z" transform="translate(-289.401 -286.322)" fill="#e8e8e8"/>
    <path id="Path_872" data-name="Path 872" d="M613.13,645.584a7.9,7.9,0,0,0-1.445-3.493c-.442-.642-1.486-.04-1.044.6a7.591,7.591,0,0,1,1.325,3.212C612.086,646.668,613.251,646.346,613.13,645.584Z" transform="translate(-287.082 -282.388)" fill="#e8e8e8"/>
    <path id="Path_873" data-name="Path 873" d="M613.841,642.051a3.784,3.784,0,0,1,.482-.883,2.823,2.823,0,0,1,.321-.4c.04-.08.12-.12.2-.2-.2-.4-.321-.482-.4-.281a3.954,3.954,0,0,0-.522,1,8.822,8.822,0,0,1-.683,1c-.442.642.6,1.245,1.044.6a11.717,11.717,0,0,0,1.164-1.927c.281-.562.442-1.285-.281-1.566-1.2-.442-2.128,1.445-2.449,2.288C612.4,642.453,613.56,642.774,613.841,642.051Z" transform="translate(-288.355 -280.903)" fill="#e8e8e8"/>
    <path id="Path_874" data-name="Path 874" d="M1107,847.161c.161,1.887.321,3.814.482,5.7l55.526-.482c-.2-1.807-.4-3.613-.6-5.38C1143.9,847.08,1125.469,847.12,1107,847.161Z" transform="translate(-584.223 -405.193)" fill="#fff"/>
    <path id="Path_875" data-name="Path 875" d="M1106.172,859.609h55.486a1.2,1.2,0,0,0,0-2.409h-55.486A1.205,1.205,0,0,0,1106.172,859.609Z" transform="translate(-583.034 -411.298)" fill="#161616"/>
    <path id="Path_876" data-name="Path 876" d="M1107.05,845.909h54.442a1.2,1.2,0,0,0,0-2.409H1107.05A1.2,1.2,0,0,0,1107.05,845.909Z" transform="translate(-583.55 -403.098)" fill="#161616"/>
    <path id="Path_877" data-name="Path 877" d="M1104.1,845.649v4.1a1.2,1.2,0,0,0,2.409,0v-4.1A1.2,1.2,0,0,0,1104.1,845.649Z" transform="translate(-582.487 -403.682)" fill="#161616"/>
    <path id="Path_878" data-name="Path 878" d="M1243.1,845.649v5.46a1.2,1.2,0,0,0,2.409,0v-5.46A1.2,1.2,0,0,0,1243.1,845.649Z" transform="translate(-665.681 -403.682)" fill="#161616"/>
    <path id="Path_879" data-name="Path 879" d="M1175.7,860.149v69.176a1.2,1.2,0,0,0,2.409,0V860.149A1.2,1.2,0,0,0,1175.7,860.149Z" transform="translate(-625.341 -412.36)" fill="#161616"/>
    <path id="Path_880" data-name="Path 880" d="M1156.089,1033.031c-4.135,2.449-8.271,4.9-12.446,7.347-1.325.8-.12,2.891,1.2,2.088,4.135-2.449,8.271-4.9,12.446-7.347A1.206,1.206,0,0,0,1156.089,1033.031Z" transform="translate(-605.811 -516.427)" fill="#161616"/>
    <path id="Path_881" data-name="Path 881" d="M1176.3,1034.242c4.7,2.61,9.355,5.259,14.052,7.869a1.206,1.206,0,0,0,1.2-2.088c-4.7-2.61-9.355-5.26-14.052-7.869A1.206,1.206,0,0,0,1176.3,1034.242Z" transform="translate(-625.344 -515.912)" fill="#161616"/>
    <path id="Path_882" data-name="Path 882" d="M1144.549,1054.209c8.913-.08,17.786-.361,26.7-.8,1.526-.08,1.566-2.489,0-2.409q-13.309.662-26.7.8A1.2,1.2,0,0,0,1144.549,1054.209Z" transform="translate(-605.994 -527.287)" fill="#161616"/>
    <path id="Path_883" data-name="Path 883" d="M1149.282,861.486a156.566,156.566,0,0,1,9.877,16.06c.723,1.365,2.81.161,2.088-1.2a156.564,156.564,0,0,0-9.877-16.059C1150.486,859,1148.4,860.2,1149.282,861.486Z" transform="translate(-609.402 -412.813)" fill="#161616"/>
    <path id="Path_884" data-name="Path 884" d="M1189.44,859.287a77.2,77.2,0,0,0-13.41,16.983,1.205,1.205,0,0,0,2.088,1.2,75.075,75.075,0,0,1,13.048-16.461C1192.291,859.929,1190.564,858.2,1189.44,859.287Z" transform="translate(-625.431 -412.341)" fill="#161616"/>
    <path id="Path_885" data-name="Path 885" d="M930.895,974.886c-.321,5.741-.6,11.483-.923,17.224-15.337,6.665-22.724,11.041-22.122,13.048.682,2.409,12.486,1.566,35.331-2.449q.241-14.755.442-29.509c-4.216.562-8.471,1.124-12.727,1.686Z" transform="translate(-465.009 -480.725)" fill="#161616"/>
    <path id="Path_886" data-name="Path 886" d="M996.757,744.56c-3.413,3.051-8.271,7.468-13.932,12.928-13.49,13.089-23.407,22.684-30.112,32.6-5.541,8.231-13.771,23.889-14.413,49.5a74.71,74.71,0,0,0,20.636,2.73,75.594,75.594,0,0,0,7.708-.482,69.149,69.149,0,0,1,.241-25.615,68.059,68.059,0,0,1,6.223-17.906,130.675,130.675,0,0,0,38.061-25.374c7.869-7.588,16.822-16.26,14.414-22.4C1023.375,744.72,1011.612,742.472,996.757,744.56Z" transform="translate(-483.254 -343.423)" fill="#ec615b"/>
    <path id="Path_887" data-name="Path 887" d="M1036.455,745.8a261.49,261.49,0,0,1-53.438,53.157q-5.059,22.222-10.117,44.4a29.58,29.58,0,0,0,4.9.442,32.961,32.961,0,0,0,9.194-1.084,75.124,75.124,0,0,1-.321-20.074,73.248,73.248,0,0,1,6.745-22.965,167.877,167.877,0,0,0,21.439-11.8,133.044,133.044,0,0,0,28.787-26.659,14.247,14.247,0,0,0,2.007-3.533c.6-1.566,1.365-3.493.763-5.5-.562-1.807-1.927-2.81-3.372-3.814a15.655,15.655,0,0,0-6.584-2.57Z" transform="translate(-503.963 -344.623)" fill="#6d6c6c" opacity="0.18"/>
    <path id="Path_888" data-name="Path 888" d="M997.644,880.5q-2.589,4.818-5.059,10.117A198.044,198.044,0,0,0,980.5,924.3c3.694-.161,7.347-.321,11.041-.442a71.442,71.442,0,0,1-.763-18.99A70.029,70.029,0,0,1,997.644,880.5Z" transform="translate(-508.511 -425.243)" fill="#6d6c6c" opacity="0.16"/>
    <path id="Path_889" data-name="Path 889" d="M1006.321,984.856l5.541,17.224q-20.476,12.285-19.352,14.775,1.385,3.011,35.331-8.913l-9.395-27.341C1014.391,981.965,1010.336,983.411,1006.321,984.856Z" transform="translate(-515.663 -485.154)" fill="#161616"/>
    <path id="Path_890" data-name="Path 890" d="M1067.307,760.794c2.85,14.494-1.445,22.644-3.493,25.776-4.1,6.263-9.555,8.19-25.495,16.1-6.223,3.091-15.7,7.909-27.3,14.293A116,116,0,0,0,1021.5,850a33.451,33.451,0,0,1-29.068,8.833,77.5,77.5,0,0,1-8.351-30.031c-.522-8.03-1.124-17.143,3.573-26.137,3.614-6.906,7.106-7.548,21.72-18.709,21.961-16.742,24.17-23.005,35.492-25.334A41.09,41.09,0,0,1,1067.307,760.794Z" transform="translate(-510.444 -351.869)" fill="#ec615b"/>
    <path id="Path_891" data-name="Path 891" d="M1075.077,758.36a39.542,39.542,0,0,1-3.894,19.432c-3.132,6.3-7.307,10.8-21.078,20.115-12.245,8.271-22,14.654-28.3,18.749l12.045,40.349a23.615,23.615,0,0,0,4.135-1.847,22.744,22.744,0,0,0,5.9-4.9,122.548,122.548,0,0,1-5.1-12.607,124.554,124.554,0,0,1-5.179-20.275c9.957-5.541,16.943-9.154,21.038-11.2,6.1-3.051,9.114-4.577,12.205-6.062,1.044-.482,3.372-1.566,6.424-3.172a65.846,65.846,0,0,0,6.625-3.654,26.385,26.385,0,0,0,6.906-6.7c3.613-5.219,3.934-10.68,4.175-14.654a38.6,38.6,0,0,0-.843-10.68,36.812,36.812,0,0,0-8.271-2.409A30.156,30.156,0,0,0,1075.077,758.36Z" transform="translate(-533.23 -352.124)" fill="#6d6c6c" opacity="0.22"/>
    <path id="Path_892" data-name="Path 892" d="M1108.652,785.1a36.784,36.784,0,0,1-3.854,8.552c-6.3,10.117-15.939,14.132-22.684,17.5a126.39,126.39,0,0,0-30.714,22.082c3.372-1.887,7.508-4.135,12.326-6.7,8.511-4.537,12.727-6.785,17.1-8.873,3.413-1.606,7.307-3.332,13.128-6.424,4.176-2.208,6.464-3.573,8.632-6.1a23.776,23.776,0,0,0,4.256-7.628A30.7,30.7,0,0,0,1108.652,785.1Z" transform="translate(-550.946 -368.145)" fill="#6d6c6c" opacity="0.11"/>
    <path id="Path_893" data-name="Path 893" d="M1051,906a107.343,107.343,0,0,0,6.745,35.732,14.683,14.683,0,0,0,2.449-1.726,11.572,11.572,0,0,0,1.405-1.405c-1.686-3.493-3.332-7.387-4.9-11.6A132.114,132.114,0,0,1,1051,906Z" transform="translate(-550.706 -440.505)" fill="#6d6c6c" opacity="0.17"/>
    <path id="Path_894" data-name="Path 894" d="M1009.324,568.605c-5.019,1.686-5.9,7.668-9.274,14.494a62.65,62.65,0,0,1-16.9,19.753c-4.216,3.252-13.329,8.993-28.546,10a31.512,31.512,0,0,0-6.665-1.887c-4.135-.682-9.917-1.686-13.811,1.646-1.766,1.526-3.734,4.416-2.851,6.183,1.084,2.168,5.9,1.325,13.811.964,10.961-.482,10.439.723,18.067.241,6.825-.442,17.585-1.084,28.787-7.628a51.855,51.855,0,0,0,17.585-16.662c2.57-4.015,3.734-7.267,6.1-13.811,3.132-8.592,2.61-10.519,1.726-11.643C1015.828,568.164,1012.134,567.642,1009.324,568.605Z" transform="translate(-478.919 -238.291)" fill="#fff" stroke="#161616" stroke-miterlimit="10" stroke-width="2"/>
    <path id="Path_895" data-name="Path 895" d="M964.878,682.592c-2.529.482-6.183.6-8.03,2.69-1.044,1.2-.883,3.332,1.044,3.332a.462.462,0,0,0,0-.923c-.964-1-.883-1.807.321-2.369a6.862,6.862,0,0,1,1.325-.682,11.443,11.443,0,0,1,1.566-.442c1.325-.281,2.65-.522,4.015-.763C965.681,683.355,965.44,682.512,964.878,682.592Z" transform="translate(-493.973 -306.79)" fill="#161616"/>
    <path id="Path_896" data-name="Path 896" d="M930.44,690.721c2.369,2.971,6.063-.482,8.913.281a.458.458,0,0,0,.241-.883,6.064,6.064,0,0,0-3.573.241c-1.646.522-3.654,1.405-4.978-.281C930.721,689.637,930.079,690.279,930.44,690.721Z" transform="translate(-478.486 -311.185)" fill="#161616"/>
    <path id="Path_897" data-name="Path 897" d="M934.2,682.164c.08,1.2.883,1.686,2.048,1.686,2.61,0,4.9-1.044,7.508-.2a.458.458,0,0,0,.241-.883,9.531,9.531,0,0,0-3.975-.361c-.964.08-4.818,1.164-4.9-.281C935.041,681.6,934.158,681.6,934.2,682.164Z" transform="translate(-480.798 -306.281)" fill="#161616"/>
    <path id="Path_898" data-name="Path 898" d="M943.938,675.807a2.457,2.457,0,0,0,2.128,1.566,19.517,19.517,0,0,1,5.7,1.2c.522.241,1-.562.442-.763A15.025,15.025,0,0,0,949,676.77c-1.285-.241-3.654.161-4.216-1.2C944.581,675.044,943.7,675.285,943.938,675.807Z" transform="translate(-486.604 -302.413)" fill="#161616"/>
    <path id="Path_899" data-name="Path 899" d="M1030.9,569.536c-2.288.562-1.606,6.7-2.81,12.406-2.008,9.194-8.552,14.935-15.779,21.279-4.9,4.3-10.639,9.355-19.392,11.6a74.187,74.187,0,0,1-13.329,1.887c-7.227.361-10.8.562-11.041.522a14.115,14.115,0,0,0-7.267.923c-.642.281-2.409,1.044-2.289,1.606.161.843,4.336.6,13.731.522,6.946-.04,6.223.08,8.351,0a59.916,59.916,0,0,0,18.87-3.252,54.793,54.793,0,0,0,21.279-14.413,50.2,50.2,0,0,0,5.259-6.464c2.489-3.734,3.654-7.066,5.942-13.61,2.65-7.628,2.65-9.636,1.606-11.2C1033.306,570.42,1031.982,569.255,1030.9,569.536Z" transform="translate(-495.634 -239.102)" fill="#6d6c6c" opacity="0.16"/>
    <path id="Path_900" data-name="Path 900" d="M933.3,686.005a9.789,9.789,0,0,1,4.7-5.26c4.818-2.288,9.515.8,9.716.923a21.908,21.908,0,0,1-2.57,1.2c-1,.442-1.405.522-1.767.923a3.106,3.106,0,0,0-.281,2.57,19.744,19.744,0,0,1-4.979.4A18.614,18.614,0,0,1,933.3,686.005Z" transform="translate(-480.262 -305.184)" fill="#6d6c6c" opacity="0.13"/>
    <path id="Path_901" data-name="Path 901" d="M1081.1,586a64.8,64.8,0,0,1-13.49,24.25A65.778,65.778,0,0,1,1037.7,629.4c4.537-.8,21.4-4.376,33.283-19.793A52.716,52.716,0,0,0,1081.1,586Z" transform="translate(-542.746 -248.981)" fill="#6d6c6c" opacity="0.14"/>
    <path id="Path_902" data-name="Path 902" d="M1094.949,560.375c-2.529,2.77-4.336,6.424-5.5,19.914-1.726,19.713,1,24.25-2.048,34.006a44.979,44.979,0,0,1-11,17.866,72.368,72.368,0,0,0,22.684,9.636,71.4,71.4,0,0,0,24.41,1.365c7.227-22.2,6.625-40.149,5.139-51.19-1.405-10.519-4.577-34.729-17.184-37.78C1105.468,552.707,1098.682,556.32,1094.949,560.375Z" transform="translate(-565.909 -229.74)" fill="#fff" stroke="#161616" stroke-miterlimit="10" stroke-width="2"/>
    <path id="Path_903" data-name="Path 903" d="M1121.106,554.9c-.2,1.646-.482,4.1-.763,7.026-1.887,19.633.321,23.206-1.124,34.769-.8,6.584-2.489,18.91-11.161,30.393a51.987,51.987,0,0,1-10.158,10.158,64.879,64.879,0,0,0,19.552,6.263,63.69,63.69,0,0,0,18.669,0,111.509,111.509,0,0,0,4.015-14.735,113.545,113.545,0,0,0,2.128-27.261c-.522-12.727-1.686-40.028-15.658-45.609A15.1,15.1,0,0,0,1121.106,554.9Z" transform="translate(-578.777 -230.368)" fill="#6d6c6c" opacity="0.12"/>
    <path id="Path_904" data-name="Path 904" d="M1181.724,698.5c-.482-.08-1.606,4.9-3.252,9.395-2.088,5.822-6.022,13.651-14.172,22.122,3.934-.2,7.909-.361,11.844-.562a149.272,149.272,0,0,0,4.376-18.428c.883-5.259,1.807-12.406,1.2-12.526Z" transform="translate(-618.518 -316.313)" fill="#6d6c6c" opacity="0.24"/>
    <path id="Path_905" data-name="Path 905" d="M1115.851,568.669c4.537.883,6.464,8.07,8.07,14.373a70.361,70.361,0,0,1,.361,36.294c-1.807,7.026-3.413,13.57-8.993,20.195a42.792,42.792,0,0,1-20.877,13.289c-4.818,3.332-7.307,5.019-8.712,5.9-1,.642-1.606,1-2.69,1.767a15.422,15.422,0,0,1-2.61,1.807,5.813,5.813,0,0,1-4.015-.04,2.734,2.734,0,0,1-2.329-.723,2.23,2.23,0,0,1-.683-1.485,1.927,1.927,0,0,1-1.566-2.891,2.917,2.917,0,0,1-.321-1.325c-.2-2.81,3.132-5.059,4.979-6.344a24.594,24.594,0,0,1,11.884-4.1,41.186,41.186,0,0,0,12.406-10c1.365-1.606,10.479-12.928,9.756-28.144-.281-6.384-2.569-18.268-3.854-29.349a8.435,8.435,0,0,1,.843-5.059C1109.187,569.994,1113.041,568.147,1115.851,568.669Z" transform="translate(-562.963 -238.555)" fill="#fff" stroke="#161616" stroke-miterlimit="10" stroke-width="2"/>
    <path id="Path_906" data-name="Path 906" d="M1071.972,788.523a.462.462,0,0,0,0-.924A.462.462,0,0,0,1071.972,788.523Z" transform="translate(-563.006 -369.641)" fill="#161616"/>
    <path id="Path_907" data-name="Path 907" d="M1071.5,781.429v.281a.457.457,0,0,0,.843.241,12.68,12.68,0,0,1,6.3-4.5.458.458,0,0,0-.241-.883,13.8,13.8,0,0,0-6.865,4.9l.843.241v-.281C1072.381,780.867,1071.458,780.867,1071.5,781.429Z" transform="translate(-562.974 -363.029)" fill="#161616"/>
    <path id="Path_908" data-name="Path 908" d="M1075.983,787.6a19.616,19.616,0,0,1,7.468-5.259c.522-.2.321-1.084-.241-.883a20.324,20.324,0,0,0-7.869,5.46C1074.979,787.4,1075.622,788.04,1075.983,787.6Z" transform="translate(-565.211 -365.947)" fill="#161616"/>
    <path id="Path_909" data-name="Path 909" d="M1083.512,792.094a29.442,29.442,0,0,1,7.227-5.942c.482-.281.04-1.084-.442-.763a29.957,29.957,0,0,0-7.387,6.1C1082.508,791.893,1083.151,792.535,1083.512,792.094Z" transform="translate(-569.729 -368.273)" fill="#161616"/>
    <path id="Path_910" data-name="Path 910" d="M1122.538,570.646c-1.526,2.208.964,6.1,2.369,8.993,2.047,4.256,2.369,8.873,3.011,18.107,1.164,16.742-6.625,31.075-7.187,32.079-7.106,12.647-18.147,20.235-21.6,22.564-5.862,3.935-14.172,8.23-13.49,9.877.241.6,1.566.682,2.128.642,1.927-.08,2.73-1.566,5.42-3.453,1.405-1,1.365-.682,3.774-2.128a62.823,62.823,0,0,0,5.781-3.934,41.728,41.728,0,0,0,11.844-5.26A40.561,40.561,0,0,0,1129.4,631.15c1.445-3.172,2.007-5.7,3.131-10.72a76.666,76.666,0,0,0,1.967-24.892,71.025,71.025,0,0,0-2.489-12.687c-1.807-7.026-3.453-13.089-6.584-13.49a3.247,3.247,0,0,0-2.891,1.285Z" transform="translate(-571.416 -239.007)" fill="#6d6c6c" opacity="0.13"/>
    <path id="Path_911" data-name="Path 911" d="M1137.69,627.3c-.361,0-.281,4.216-2.007,15.417-1.566,10.037-2.369,15.176-4.577,19.874a43.926,43.926,0,0,1-9.716,13.169c-6.062,5.862-9.716,6.263-18.99,13.088a113.274,113.274,0,0,0-10.6,8.833c4.818-3.212,9.6-6.424,14.413-9.6a43.093,43.093,0,0,0,20.8-13.289c5.018-5.942,6.986-11.764,8.511-16.3C1140.741,642.316,1138.333,627.3,1137.69,627.3Z" transform="translate(-575.126 -273.7)" fill="#6d6c6c" opacity="0.16"/>
    <path id="Path_912" data-name="Path 912" d="M1133.314,524.073c-1.807,1.245-2.128,3.653-2.409,6.3a26.54,26.54,0,0,0,2.128,13.209,29.23,29.23,0,0,0,5.5-.522,28.135,28.135,0,0,0,4.3-1.2c-.161-5.34-.281-10.68-.442-16.019C1139.015,523.35,1135.482,522.587,1133.314,524.073Z" transform="translate(-598.452 -211.465)" fill="#fff" stroke="#161616" stroke-miterlimit="10" stroke-width="2"/>
    <path id="Path_913" data-name="Path 913" d="M1095.962,456.35c-2.81,1.606-4.015,4.3-6.384,9.515a74.135,74.135,0,0,0-5.219,14.855,1.216,1.216,0,0,0,.682,1.365,15.363,15.363,0,0,0,2.529.6,16.322,16.322,0,0,0,1.606,7.146,16.707,16.707,0,0,0,8.712,7.949,28.729,28.729,0,0,0,9.716-3.453,21.968,21.968,0,0,0,6.424-5.019,20.357,20.357,0,0,0,3.694-6.424,7.033,7.033,0,0,0,3.453-.8c2.73-1.486,5.059-5.38,3.613-7.749-1.084-1.726-4.055-2.449-7.106-1.325a21.029,21.029,0,0,0-3.332-12.165C1110.656,455.668,1101.663,453.1,1095.962,456.35Z" transform="translate(-570.656 -170.521)" fill="#fff" stroke="#161616" stroke-miterlimit="10" stroke-width="2"/>
    <path id="Path_914" data-name="Path 914" d="M1083.744,460.048a18.029,18.029,0,0,1-2.891-10.72,14.5,14.5,0,0,1,2.81-8.311,14.157,14.157,0,0,1,8.311-5.1,11.2,11.2,0,0,1,3.132-3.413c.642-.442,2.409-1.526,6.745-1.767a30.057,30.057,0,0,1,9.957,1.164,19.15,19.15,0,0,1,6.745,3.413c5.1,4.015,4.7,7.187,11.161,13.691,1.486,1.485,2.529,2.007,4.778,4.216a60.983,60.983,0,0,1,5.3,5.822c2.369,3.011,6.825,8.712,7.668,16.421.281,2.61,1.084,9.957-3.493,15.578-6.223,7.668-20.275,8.271-28.827,2.168-1.606-1.124-8.271-5.942-7.909-13.691.321-6.986,6.143-11.161,6.946-11.764a5,5,0,0,0,3.453.241c2.85-1.044,4.055-5.42,2.57-7.628a3.586,3.586,0,0,0-1.847-1.325c-2.329-.8-4.5.923-4.657,1.044a53.6,53.6,0,0,1-7.146-6.223,33.281,33.281,0,0,1-6.544-8.953,21.692,21.692,0,0,0-6.785,2.931,22.15,22.15,0,0,0-4.7,4.1,28.179,28.179,0,0,0-2.65,3.613,42.38,42.38,0,0,0-2.128,4.5Z" transform="translate(-568.555 -156.031)" fill="#5222d0"/>
    <path id="Path_915" data-name="Path 915" d="M1107.21,511.959h0a1.734,1.734,0,0,1,.04.2v.04c-.04.08-.08.12-.121.2.08-.08,0-.04-.161.08-.08-.04-.161-.04-.241-.08-.04-.04-.08-.04-.08-.08-.04-.08-.04-.161-.08-.241v-.04c.04-.08.08-.12.12-.2.08,0,.161-.04.241-.04l.321.321v.12c-.2.04-.4.121-.6.161l-.04-.04c-.04-.08-.08-.12-.121-.2a2.378,2.378,0,0,1,.161-.321c.08-.04.16-.04.241-.08h-.04a.475.475,0,0,0-.442.442.421.421,0,0,0,.442.442.556.556,0,0,0,.522-.442.542.542,0,0,0-.281-.642.443.443,0,0,0-.6.161.552.552,0,0,0,.321.883.613.613,0,0,0,.683-.6.572.572,0,0,0-.723-.522.6.6,0,0,0-.361.843.427.427,0,0,0,.6.161C1107.291,512.441,1107.291,512.16,1107.21,511.959Z" transform="translate(-583.831 -204.369)" fill="#161616"/>
    <path id="Path_916" data-name="Path 916" d="M1116.089,509.463c.08.4-.08.361-.442-.12.08-.04.12-.08.2-.12a.373.373,0,0,1,.361.281c.04-.241-.241-.442-.442-.442a.421.421,0,0,0-.442.442.58.58,0,0,0,.642.6.568.568,0,0,0,.522-.763.611.611,0,0,0-.883-.361.659.659,0,0,0-.241.923.42.42,0,0,0,.6.161A.434.434,0,0,0,1116.089,509.463Z" transform="translate(-589.177 -202.837)" fill="#161616"/>
    <path id="Path_917" data-name="Path 917" d="M1113.542,516.319c.241,0,.281.08.12.281,0,.161-.04.241-.161.241-.04-.161-.04-.361-.08-.522a.314.314,0,0,1,.321.04c-.4-.442-1.044.2-.642.642a.624.624,0,0,0,1-.12.651.651,0,0,0-.361-.923.658.658,0,0,0-.843.562.719.719,0,0,0,.843.683.453.453,0,0,0-.2-.883Z" transform="translate(-587.754 -207.043)" fill="#161616"/>
    <path id="Path_918" data-name="Path 918" d="M1095.177,531.746a9.168,9.168,0,0,0,6.062-4.015c.322-.482-.441-.923-.763-.442a8.389,8.389,0,0,1-5.5,3.613C1094.374,530.983,1094.615,531.826,1095.177,531.746Z" transform="translate(-576.816 -213.718)" fill="#161616"/>
    <path id="Path_919" data-name="Path 919" d="M1123.716,469.4c.723,1.445,1.646,3.372,2.69,5.661,3.212,6.986,3.573,8.913,3.694,10.6a17.458,17.458,0,0,1-.642,5.822c-1.847,7.468-7.267,12.446-9.957,14.614a22.925,22.925,0,0,0,4.7-1.044,23.966,23.966,0,0,0,6.3-3.212,12.992,12.992,0,0,0,.6,5.34,16.819,16.819,0,0,0,3.453,5.7,17.862,17.862,0,0,0,5.179,4.5,18.3,18.3,0,0,0,6.344,2.248,26.025,26.025,0,0,0,8.07.522c2.61-.241,6.745-.6,10.6-3.573a14.2,14.2,0,0,0,4.5-5.541c.321-.723.8-2.088,1.044-5.7.281-4.256.482-7.227-.522-11a23.749,23.749,0,0,0-4.778-9.114c-3.212,8.632-10.961,13.61-17.946,12.566-5.46-.843-8.753-5.139-9.716-6.464a5.474,5.474,0,0,0,5.541-1.726c1.485-1.767,1.927-4.938,0-6.625a4.718,4.718,0,0,0-5.942.12,52.6,52.6,0,0,1-7.548-6.625A50.022,50.022,0,0,1,1123.716,469.4Z" transform="translate(-591.704 -179.195)" fill="#6d6c6c" opacity="0.1"/>
    <path id="Path_920" data-name="Path 920" d="M1105.507,498.737a1.033,1.033,0,0,1,.12-1.325c-.12.04-.2.08-.321.12h.12c-.12-.04-.2-.08-.321-.12.4.321.08,1.566-.08,1.927a1.7,1.7,0,0,1,.281-.2.14.14,0,0,0-.08.04c.12,0,.241.04.361.04-.241-.12-.2-.763-.161-.923a2.454,2.454,0,0,1,.281-.964c-.2.04-.4.12-.6.161a.787.787,0,0,1,.2.723.757.757,0,0,1-.08.321c-.04.2-.121.2.08.241a1.7,1.7,0,0,0,.281.2c0-.04-.04-.04-.04-.08-.361-.442-1.124,0-.763.442a.7.7,0,0,0,.8.281.992.992,0,0,0,.562-.8,1.841,1.841,0,0,0-.522-2.128.412.412,0,0,0-.6.161,3.113,3.113,0,0,0-.12,2.851.68.68,0,0,0,.964.241c.361-.281.4-1,.442-1.405.08-.6-.04-2.329-1.084-1.807-.843.442-.763,1.807-.361,2.489C1105.025,499.7,1105.828,499.219,1105.507,498.737Z" transform="translate(-582.77 -195.483)" fill="#161616"/>
    <path id="Path_921" data-name="Path 921" d="M1101.464,490.339c2.128-.361,3.935.8,5.581,2.048.482.361.923-.442.442-.763-1.847-1.405-3.854-2.489-6.263-2.128C1100.661,489.536,1100.9,490.419,1101.464,490.339Z" transform="translate(-580.574 -191.18)" fill="#161616"/>
    <path id="Path_922" data-name="Path 922" d="M1107.99,526.392a5.928,5.928,0,0,1,1.2,1.044c.4.442,1.044-.2.642-.642a8.225,8.225,0,0,0-1.405-1.2C1107.949,525.268,1107.508,526.071,1107.99,526.392Z" transform="translate(-584.691 -212.78)" fill="#161616"/>
  </g>
</svg>
