<svg xmlns="http://www.w3.org/2000/svg" width="494" height="388.169" viewBox="0 0 494 388.169">
  <g id="pixeltrue-data-analyse-1" transform="translate(-187.9 -138.525)">
    <g id="backgound" transform="translate(187.9 138.525)">
      <g id="Group_924" data-name="Group 924" transform="translate(391.444 241.599)">
        <g id="Group_923" data-name="Group 923">
          <path id="Path_532" data-name="Path 532" d="M1098.322,700.88c-.043,6.968-.129,13.978-.172,20.946,0,1.72-.043,3.441-.043,5.118,0,1.161-.258,2.624.215,3.742.731,1.892,3.182,1.376,4.086,2.968a6.885,6.885,0,0,0,.215-.9c-3.14,1.548-3.957,5.032-4.215,8.258-.215,3.1-.344,8.086,3.7,8.688a10.756,10.756,0,0,0-.172-1.161c-6.107,2.8-3.656,13.72-1.075,18.107a31.123,31.123,0,0,0,7.57,8.172c1.634,1.333,3.269,2.581,4.946,3.871.989.774,1.978,1.505,2.924,2.279.516.387,2.71,1.591,2.8,2.323a7.4,7.4,0,0,1,.473-.6h.086a6.861,6.861,0,0,1,.215.9c.043-.043.043-.086.086-.129.344-.731-.731-1.376-1.118-.645-.043.043-.043.086-.086.129a.688.688,0,0,0,.215.9.776.776,0,0,0,.9.129c.258-.086.516-.344.473-.6-.172-1.333-1.505-1.935-2.538-2.71-1.505-1.2-3.054-2.366-4.559-3.57a70.538,70.538,0,0,1-8.172-6.967,18.314,18.314,0,0,1-5.2-10.236c-.473-3.269-.9-8.516,2.71-10.193.473-.215.387-1.118-.172-1.161-3.441-.516-2.967-5.419-2.709-8.043.258-2.581.989-5.29,3.527-6.537a.678.678,0,0,0,.215-.9c-.9-1.548-3.1-1.247-3.914-2.624-.645-1.032-.215-3.441-.172-4.688,0-1.72.043-3.441.043-5.118.043-6.537.086-13.118.172-19.655a.626.626,0,1,0-1.247-.086Z" transform="translate(-1098.037 -700.26)" fill="#e8e8e8"/>
        </g>
      </g>
      <g id="Group_926" data-name="Group 926" transform="translate(391.81 241.229)">
        <g id="Group_925" data-name="Group 925">
          <path id="Path_533" data-name="Path 533" d="M1099.495,700.733c6.021.3,10.236,4.9,13.849,9.2,1.721,2.065,3.527,4,5.29,5.935,1.806,1.935,4.172,5.849.9,7.742a.652.652,0,0,0,.344,1.2c4.989.129,7.182,6.193,8.731,10.021A92.739,92.739,0,0,1,1133,749.119a90.1,90.1,0,0,1,1.376,30.365c-.086.817,1.2.817,1.29,0a92.464,92.464,0,0,0-2.151-33.676,79.557,79.557,0,0,0-5.333-15.182c-1.635-3.441-4.172-7.01-8.3-7.1.129.387.215.817.344,1.2,6.279-3.613-1.505-10.494-4.043-13.462-4.516-5.247-9.075-11.484-16.645-11.871a.668.668,0,0,0-.043,1.333Z" transform="translate(-1098.887 -699.4)" fill="#e8e8e8"/>
        </g>
      </g>
      <g id="Group_928" data-name="Group 928" transform="translate(412.788 202.573)">
        <g id="Group_927" data-name="Group 927">
          <path id="Path_534" data-name="Path 534" d="M1148.882,664.994a141.007,141.007,0,0,1,12.645-30.623,6.873,6.873,0,0,1-.9.215c1.161.688,2.365,1.376,3.527,2.064a.67.67,0,0,0,.9-.9c-3.1-6.193,6.193-10.15,9.333-13.849a4.749,4.749,0,0,1-.774.086c.6.344,1.247.688,1.849,1.032a.688.688,0,0,0,.9-.215c3.441-5.849,9.505-9.118,15.354-12.129-.3-.258-.645-.473-.946-.731-1.849,6.064,1.075,12.688,1.634,18.752a58.4,58.4,0,0,1,.086,9.892c-.129,1.634,0,4.086-.645,5.548,0,1.075-.6,1.677-1.849,1.892-.387.043-.731.086-1.118.129-.86.086-1.763.172-2.624.258-.344.043-.688.258-.645.645a1.965,1.965,0,0,0,.946,1.677c.817.688,1.462.774,1.85,1.978a6.487,6.487,0,0,1,.215,2.021,66.426,66.426,0,0,1-1.161,10.494,77.405,77.405,0,0,1-2.495,9.892c-.9,2.71-2.108,6.752-5.462,7.183a.667.667,0,0,0-.559.989c2.495,3.828-1.2,8.473-3.01,11.785-1.979,3.527-3.785,7.14-5.462,10.8a160.407,160.407,0,0,0-8.344,22.494.647.647,0,0,0,1.247.344,156.436,156.436,0,0,1,9.892-25.72c1.892-3.914,4.172-7.613,6.15-11.484,1.419-2.8,2.537-6.064.688-8.9-.172.344-.387.645-.559.989,2.537-.3,4.172-2.107,5.29-4.3a47.726,47.726,0,0,0,3.4-10.881,74.3,74.3,0,0,0,1.721-12.3,8.746,8.746,0,0,0-.387-4.215c-.344-.86-2.537-2.193-2.581-2.8l-.645.645c2.409-.258,5.849.344,6.666-2.408,1.075-3.441,1.032-7.7.989-11.226a61.282,61.282,0,0,0-1.075-11.225c-.774-4.172-2.151-8.344-.86-12.559a.653.653,0,0,0-.946-.731c-6.064,3.14-12.3,6.537-15.827,12.6a6.871,6.871,0,0,1,.9-.215c-.6-.344-1.247-.688-1.85-1.032a.648.648,0,0,0-.774.086c-3.613,4.258-13.118,8.3-9.548,15.4l.9-.9c-1.161-.688-2.366-1.376-3.527-2.064a.678.678,0,0,0-.9.215,146.931,146.931,0,0,0-12.774,30.924.614.614,0,1,0,1.161.387Z" transform="translate(-1147.661 -609.522)" fill="#e8e8e8"/>
        </g>
      </g>
      <g id="Group_930" data-name="Group 930" transform="translate(372.2 188.734)">
        <g id="Group_929" data-name="Group 929">
          <path id="Path_535" data-name="Path 535" d="M1064.693,602.7c-7.226.516-11.053-7.957-9.849-14.064,1.161-5.978,7.011-10.193,12.989-10.021,7.871.172,11.914,7.871,10.494,15.053-1.247,6.408-7.7,11.139-14.15,8.6-.774-.3-1.118.946-.344,1.247a11.75,11.75,0,0,0,14.021-5.032,15.674,15.674,0,0,0-.817-16.774c-3.527-4.731-10.279-5.376-15.4-3.1a13.746,13.746,0,0,0-8.344,12.86c.129,6.107,4.645,12.989,11.354,12.516.86-.043.9-1.333.043-1.29Z" transform="translate(-1053.291 -577.346)" fill="#e8e8e8"/>
        </g>
      </g>
      <g id="Group_932" data-name="Group 932" transform="translate(440.821 119.277)">
        <g id="Group_931" data-name="Group 931">
          <path id="Path_536" data-name="Path 536" d="M1221.641,416.174A88.971,88.971,0,0,1,1213,429.335c-.516.645.387,1.548.9.9a89.364,89.364,0,0,0,8.86-13.419c.387-.731-.731-1.376-1.118-.645Z" transform="translate(-1212.842 -415.852)" fill="#e8e8e8"/>
        </g>
      </g>
      <g id="Group_934" data-name="Group 934" transform="translate(449.531 119.85)">
        <g id="Group_933" data-name="Group 933">
          <path id="Path_537" data-name="Path 537" d="M1233.138,417.966c1.548,4.086,3.182,8.172,4.86,12.215.3.774,1.548.43,1.247-.344-1.677-4.043-3.312-8.129-4.86-12.215-.3-.774-1.548-.43-1.247.344Z" transform="translate(-1233.092 -417.185)" fill="#e8e8e8"/>
        </g>
      </g>
      <g id="Group_936" data-name="Group 936" transform="translate(443.058 120.588)">
        <g id="Group_935" data-name="Group 935">
          <path id="Path_538" data-name="Path 538" d="M1224.26,419.545a215.074,215.074,0,0,1-6.193,47.439.647.647,0,0,0,1.247.344,215.627,215.627,0,0,0,6.236-47.783c.043-.86-1.247-.86-1.29,0Z" transform="translate(-1218.042 -418.9)" fill="#e8e8e8"/>
        </g>
      </g>
      <g id="Group_938" data-name="Group 938" transform="translate(455.89 146.899)">
        <g id="Group_937" data-name="Group 937">
          <path id="Path_539" data-name="Path 539" d="M1248.7,480.688a91.471,91.471,0,0,1-.817,27.612c-.129.817,1.075,1.161,1.247.344a93.758,93.758,0,0,0,.86-27.956c-.129-.817-1.419-.817-1.29,0Z" transform="translate(-1247.878 -480.075)" fill="#e8e8e8"/>
        </g>
      </g>
      <g id="Group_940" data-name="Group 940" transform="translate(451.706 164.422)">
        <g id="Group_939" data-name="Group 939">
          <path id="Path_540" data-name="Path 540" d="M1238.214,521.8c1.505,3.441,4.129,6.58,4.3,10.451a.654.654,0,0,0,1.2.344c1.505-2.624,3.054-5.247,4.559-7.871a.646.646,0,0,0-1.118-.645c-1.505,2.624-3.054,5.247-4.559,7.871.387.129.817.215,1.2.344-.172-4.172-2.881-7.4-4.473-11.1-.344-.817-1.462-.172-1.118.6Z" transform="translate(-1238.149 -520.818)" fill="#e8e8e8"/>
        </g>
      </g>
      <g id="Group_942" data-name="Group 942" transform="translate(157.705 374.827)">
        <g id="Group_941" data-name="Group 941">
          <path id="Path_541" data-name="Path 541" d="M555.188,1018.358c25.935-2.408,51.912-5.548,77.933-6.623,26.236-1.075,52.6-.387,78.836.3,15.053.387,30.107,1.118,45.074,2.538.817.086.817-1.2,0-1.29-26.322-2.495-52.729-2.8-79.137-3.1-13.247-.172-26.494-.3-39.7.129-12.86.387-25.677,1.462-38.493,2.623l-44.515,4.129c-.817.043-.817,1.333,0,1.29Z" transform="translate(-554.575 -1010.025)" fill="#e8e8e8"/>
        </g>
      </g>
      <g id="Group_944" data-name="Group 944" transform="translate(292.814 357.138)">
        <g id="Group_943" data-name="Group 943">
          <path id="Path_542" data-name="Path 542" d="M869.181,975.909c10.8,2.021,21.462,1.935,32.343.946,11.182-1.032,22.322-1.677,33.547-2.193,22.537-.989,45.074-1.893,67.568-2.839,12.86-.559,25.72-1.075,38.579-1.634.817-.043.817-1.333,0-1.29l-67.7,2.839c-22.193.946-44.515,1.419-66.665,3.312-6.021.516-12.043,1.2-18.064,1.29a96.735,96.735,0,0,1-19.268-1.72c-.817-.086-1.161,1.161-.344,1.29Z" transform="translate(-868.714 -968.898)" fill="#e8e8e8"/>
        </g>
      </g>
      <g id="Group_946" data-name="Group 946" transform="translate(0 353.483)">
        <g id="Group_945" data-name="Group 945">
          <path id="Path_543" data-name="Path 543" d="M188.545,961.947q30.064.839,60.127-.258c.817-.043.817-1.333,0-1.29q-30.064,1.1-60.127.258c-.86-.043-.86,1.247,0,1.29Z" transform="translate(-187.9 -960.398)" fill="#e8e8e8"/>
        </g>
      </g>
      <g id="Group_948" data-name="Group 948" transform="translate(21.766 370.198)">
        <g id="Group_947" data-name="Group 947">
          <path id="Path_544" data-name="Path 544" d="M239.278,1001.386c7.312-1.548,15.053-.559,22.451-.215,7.441.387,14.838.731,22.279,1.118,15.139.774,30.236,1.548,45.375,2.28.817.043.817-1.247,0-1.29l-46.235-2.323-23.1-1.161c-7.01-.344-14.15-1.161-21.075.344-.817.172-.473,1.419.3,1.247Z" transform="translate(-238.507 -999.263)" fill="#e8e8e8"/>
        </g>
      </g>
      <g id="Group_950" data-name="Group 950" transform="translate(137.877 333.268)">
        <g id="Group_949" data-name="Group 949">
          <path id="Path_545" data-name="Path 545" d="M509.088,919.678c26.58,1.806,52.729-5.075,79.266-4.989a.646.646,0,0,0,0-1.29c-26.537-.086-52.687,6.753-79.266,4.989-.817-.086-.817,1.247,0,1.29Z" transform="translate(-508.475 -913.398)" fill="#e8e8e8"/>
        </g>
      </g>
      <g id="Group_952" data-name="Group 952" transform="translate(117.262 194.122)">
        <g id="Group_951" data-name="Group 951" transform="translate(0)">
          <path id="Path_546" data-name="Path 546" d="M461.857,601.626a12.842,12.842,0,0,1,.774-2.15c.215-.3.387-.559.6-.86.9-.086,1.849-.215,2.753-.3.258.172.473.688.645.946a7.828,7.828,0,0,0,2.322,2.28,7.163,7.163,0,0,0,6.193.6c5.29-1.935,7.269-8.946,13.72-8.258a7.682,7.682,0,0,1,4.6,2.064c.946.9,1.677,2.021,2.667,2.882a5.962,5.962,0,0,0,6.064.9c2.581-.9,4.559-2.839,6.494-4.688,2.624-2.451,6.451-5.419,9.935-2.8,2.279,1.677,3.613,4.258,6.451,5.161a8.475,8.475,0,0,0,7.742-1.333c.645-.473,0-1.634-.645-1.118a7.171,7.171,0,0,1-9.677-.774c-1.806-1.763-3.355-3.957-6.021-4.258-6.279-.774-9.548,6.881-14.881,8.645-4.043,1.333-5.376-2.279-8.043-4.258a9.223,9.223,0,0,0-6.925-1.677c-2.581.387-4.559,1.936-6.365,3.7-2.107,2.107-4.344,4.989-7.613,4.989a6.135,6.135,0,0,1-5.075-2.925c-.688-.946-1.247-1.72-2.495-1.849-2.71-.258-3.871,2.581-4.516,4.688a.676.676,0,0,0,1.29.387Z" transform="translate(-460.542 -589.873)" fill="#e8e8e8"/>
        </g>
      </g>
      <g id="Group_954" data-name="Group 954" transform="translate(183.647 178.722)">
        <g id="Group_953" data-name="Group 953">
          <path id="Path_547" data-name="Path 547" d="M616.143,558.984c1.548-4.516,6.968-.688,9.032.989,1.806,1.462,3.914,2.968,6.365,2.882,4.043-.172,6.193-4.3,9.505-6.021,4.6-2.366,7.4,3.785,11.871,3.183,1.978-.258,3.011-1.849,4.258-3.226,1.333-1.462,2.71-1.462,4.6-1.032,1.763.43,3.57.86,5.333,1.29a.647.647,0,0,0,.344-1.247c-1.764-.43-3.57-.86-5.333-1.29a6.933,6.933,0,0,0-3.613-.3c-2.366.731-3.054,3.871-5.419,4.43-2.538.6-5.032-2.237-7.226-3.14a6.012,6.012,0,0,0-5.419.172c-1.892.989-3.312,2.667-4.989,4a6.907,6.907,0,0,1-3.828,1.806c-2.236.129-4.086-1.419-5.72-2.71-1.978-1.548-4.086-3.4-6.8-3.183a4.507,4.507,0,0,0-4.172,3.011c-.3.817.946,1.161,1.2.387Z" transform="translate(-614.892 -554.066)" fill="#e8e8e8"/>
        </g>
      </g>
      <g id="Group_956" data-name="Group 956" transform="translate(378.612 57.525)">
        <g id="Group_955" data-name="Group 955">
          <path id="Path_548" data-name="Path 548" d="M1068.931,272.888c-.387,8.043-.645,16.129-.731,24.214a.646.646,0,0,0,1.29,0c.086-8.086.344-16.129.731-24.214.043-.817-1.248-.817-1.29,0Z" transform="translate(-1068.2 -272.275)" fill="#e8e8e8"/>
        </g>
      </g>
      <g id="Group_958" data-name="Group 958" transform="translate(379.392 55.793)">
        <g id="Group_957" data-name="Group 957">
          <path id="Path_549" data-name="Path 549" d="M1070.825,271.194c9.935-1.376,20.042-2.71,29.935-.387a.647.647,0,0,0,.344-1.247c-10.107-2.409-20.473-1.032-30.623.387-.817.086-.473,1.333.344,1.247Z" transform="translate(-1070.014 -268.247)" fill="#e8e8e8"/>
        </g>
      </g>
      <g id="Group_960" data-name="Group 960" transform="translate(408.373 58.17)">
        <g id="Group_959" data-name="Group 959">
          <path id="Path_550" data-name="Path 550" d="M1138.345,274.388c.215,16.344-.086,32.73-.946,49.074-.043.817,1.247.817,1.29,0q1.29-24.515.946-49.074a.646.646,0,0,0-1.29,0Z" transform="translate(-1137.398 -273.775)" fill="#e8e8e8"/>
        </g>
      </g>
      <g id="Group_962" data-name="Group 962" transform="translate(379.683 102.862)">
        <g id="Group_961" data-name="Group 961">
          <path id="Path_551" data-name="Path 551" d="M1070.695,378.295c.215,2.064.3,4.215.688,6.236a3.337,3.337,0,0,0,1.419,2.28c2.71,1.763,7.1.731,10.064.559l12.688-.774c1.892-.129,4.9-.645,3.742-3.269-.344-.774-1.463-.086-1.118.645.215.473-2.194,1.247-2.624,1.333a17.318,17.318,0,0,1-2.107.129c-1.247.086-2.538.172-3.785.215-2.538.172-5.075.3-7.613.473-2.322.129-4.9.6-7.226.086-2.925-.688-2.537-5.419-2.839-7.871-.086-.86-1.376-.86-1.29-.043Z" transform="translate(-1070.69 -377.687)" fill="#e8e8e8"/>
        </g>
      </g>
      <g id="Group_964" data-name="Group 964" transform="translate(360.107 101.582)">
        <g id="Group_963" data-name="Group 963">
          <path id="Path_552" data-name="Path 552" d="M1036.927,375.007c-3.785,5.548-7.7,11.01-11.656,16.43a.587.587,0,0,0,0,.645,2.6,2.6,0,0,0,3.1,1.118c1.849-.559,2.753-2.667,3.7-4.129a61.482,61.482,0,0,1,5.2-6.882c.817-.9,1.634-1.806,2.495-2.667.989-.989,2.667-3.1,4.086-3.312.817-.129.473-1.376-.344-1.247-1.29.215-2.151,1.247-3.1,2.107-1.247,1.161-2.452,2.366-3.613,3.656a64.023,64.023,0,0,0-6.107,7.957,17.932,17.932,0,0,1-1.591,2.408c-.688.989-1.419,1.075-2.279.258.258-.344.516-.688.731-1.032,1.161-1.591,2.323-3.183,3.441-4.774,2.366-3.312,4.688-6.623,6.968-9.978.559-.6-.559-1.247-1.032-.559Z" transform="translate(-1025.175 -374.71)" fill="#e8e8e8"/>
        </g>
      </g>
      <g id="Group_966" data-name="Group 966" transform="translate(369.522 80.802)">
        <g id="Group_965" data-name="Group 965">
          <path id="Path_553" data-name="Path 553" d="M1056.113,349.063a13.485,13.485,0,0,0,12.559-8c1.892-4.43.86-10.193-3.14-13.118-4.6-3.312-10.494-.817-14.064,2.8a14.584,14.584,0,0,0-4.3,7.871,9.056,9.056,0,0,0,.172,3.57,7.585,7.585,0,0,0,.774,1.935c.086.172,2.064,2.968,1.2,2.925-.817-.086-.817,1.2,0,1.29a1.613,1.613,0,0,0,1.634-2.28c-.3-.989-1.247-1.677-1.763-2.581a7.529,7.529,0,0,1-.731-4.645c.731-5.505,6.58-11.268,12.258-11.182,5.591.043,8.516,6.279,7.355,11.182a12.055,12.055,0,0,1-11.957,8.9.667.667,0,0,0,0,1.333Z" transform="translate(-1047.066 -326.396)" fill="#e8e8e8"/>
        </g>
      </g>
      <g id="Group_968" data-name="Group 968" transform="translate(383.509 61.352)">
        <g id="Group_967" data-name="Group 967">
          <path id="Path_554" data-name="Path 554" d="M1080.754,283.12l-.043-.043v.9c.559-.645,4.43-.6,5.462-.731,1.634-.172,3.312-.3,4.946-.387s3.312-.172,4.989-.215c.731,0,4.559.344,4.817-.344-.3.774.946,1.118,1.247.344.043-.086.043-.129.086-.215a.619.619,0,0,0-.172-.645c-.946-.946-2.667-.516-3.914-.516-2.366,0-4.688.086-7.054.258-2.193.129-4.387.344-6.624.559-1.118.129-3.914-.043-4.731.9a.663.663,0,0,0,0,.9l.043.043c.645.688,1.548-.258.946-.817Z" transform="translate(-1079.587 -281.173)" fill="#e8e8e8"/>
        </g>
      </g>
      <g id="Group_970" data-name="Group 970" transform="translate(383.607 68.327)">
        <g id="Group_969" data-name="Group 969">
          <path id="Path_555" data-name="Path 555" d="M1080.281,298.642a71.876,71.876,0,0,0,12.9.258c.817-.043.817-1.333,0-1.29a72,72,0,0,1-12.559-.215c-.817-.086-1.161,1.161-.344,1.247Z" transform="translate(-1079.814 -297.39)" fill="#e8e8e8"/>
        </g>
      </g>
      <g id="Group_972" data-name="Group 972" transform="translate(380.579 73.66)">
        <g id="Group_971" data-name="Group 971">
          <path id="Path_556" data-name="Path 556" d="M1073.344,310.569c-.129.129-.258.3-.387.43a.662.662,0,0,0,.473,1.118,177.261,177.261,0,0,0,22.408-1.032c.817-.086.817-1.376,0-1.29a177.256,177.256,0,0,1-22.408,1.032c.172.387.3.731.473,1.118.129-.129.258-.3.387-.43.516-.645-.387-1.548-.946-.946Z" transform="translate(-1072.774 -309.79)" fill="#e8e8e8"/>
        </g>
      </g>
      <g id="Group_974" data-name="Group 974" transform="translate(389.751 79.72)">
        <g id="Group_973" data-name="Group 973">
          <path id="Path_557" data-name="Path 557" d="M1094.745,325.651a48.438,48.438,0,0,0,11.7-.516c.817-.129.473-1.376-.344-1.247a47.874,47.874,0,0,1-11.354.473c-.86-.043-.86,1.247,0,1.29Z" transform="translate(-1094.1 -323.878)" fill="#e8e8e8"/>
        </g>
      </g>
      <g id="Group_976" data-name="Group 976" transform="translate(373.05 84.908)">
        <g id="Group_975" data-name="Group 975">
          <path id="Path_558" data-name="Path 558" d="M1062.121,349.945c-3.484.172-6.452-2.882-5.333-6.408a10.026,10.026,0,0,1,7.011-6.236,4.918,4.918,0,0,1,4.043,1.118c1.591,1.462,1.161,3.613.43,5.376-1.247,3.1-3.527,5.892-7.01,6.279-.817.086-.817,1.376,0,1.29,4.473-.473,7.656-4.3,8.731-8.516,1.032-3.957-1.893-7.226-5.979-6.882-3.785.344-7.957,4.172-8.645,7.914a6.322,6.322,0,0,0,6.753,7.355c.817-.043.817-1.333,0-1.29Z" transform="translate(-1055.268 -335.942)" fill="#e8e8e8"/>
        </g>
      </g>
      <g id="Group_978" data-name="Group 978" transform="translate(375.856 86.476)">
        <g id="Group_977" data-name="Group 977">
          <path id="Path_559" data-name="Path 559" d="M1066.569,339.937c-1.72,3.7-3.312,7.441-4.731,11.225-.3.774.946,1.118,1.247.344,1.419-3.7,2.925-7.355,4.6-10.924.344-.774-.731-1.419-1.118-.645Z" transform="translate(-1061.792 -339.587)" fill="#e8e8e8"/>
        </g>
      </g>
      <g id="Group_980" data-name="Group 980" transform="translate(379.235 90.184)">
        <g id="Group_979" data-name="Group 979">
          <path id="Path_560" data-name="Path 560" d="M1073.026,348.549c-1.118,2.322-2.193,4.645-3.312,6.967-.344.731.774,1.419,1.118.645,1.118-2.323,2.193-4.645,3.312-6.968.344-.731-.731-1.419-1.118-.645Z" transform="translate(-1069.649 -348.208)" fill="#e8e8e8"/>
        </g>
      </g>
      <g id="Group_982" data-name="Group 982" transform="translate(62.88 19.677)">
        <g id="Group_981" data-name="Group 981">
          <path id="Path_561" data-name="Path 561" d="M334.1,184.888v11.785a.646.646,0,0,0,1.29,0V184.888a.646.646,0,0,0-1.29,0Z" transform="translate(-334.1 -184.275)" fill="#e8e8e8"/>
        </g>
      </g>
      <g id="Group_984" data-name="Group 984" transform="translate(63.084 31.343)">
        <g id="Group_983" data-name="Group 983">
          <path id="Path_562" data-name="Path 562" d="M335.188,212.69h10.924a.646.646,0,0,0,0-1.29H335.188a.646.646,0,0,0,0,1.29Z" transform="translate(-334.575 -211.4)" fill="#e8e8e8"/>
        </g>
      </g>
      <g id="Group_986" data-name="Group 986" transform="translate(74.105 17.828)">
        <g id="Group_985" data-name="Group 985">
          <path id="Path_563" data-name="Path 563" d="M361.49,193.4V180.588a.646.646,0,0,0-1.29,0V193.4a.646.646,0,0,0,1.29,0Z" transform="translate(-360.2 -179.975)" fill="#e8e8e8"/>
        </g>
      </g>
      <g id="Group_988" data-name="Group 988" transform="translate(63.127 17.623)">
        <g id="Group_987" data-name="Group 987">
          <path id="Path_564" data-name="Path 564" d="M346.47,179.5H335.288a.646.646,0,0,0,0,1.29H346.47a.646.646,0,0,0,0-1.29Z" transform="translate(-334.675 -179.5)" fill="#e8e8e8"/>
        </g>
      </g>
      <g id="Group_990" data-name="Group 990" transform="translate(68.342 32.709)">
        <g id="Group_989" data-name="Group 989">
          <path id="Path_565" data-name="Path 565" d="M346.8,215.188v13.118a.646.646,0,0,0,1.29,0V215.188a.646.646,0,0,0-1.29,0Z" transform="translate(-346.8 -214.575)" fill="#e8e8e8"/>
        </g>
      </g>
      <g id="Group_992" data-name="Group 992" transform="translate(52.101 32.092)">
        <g id="Group_991" data-name="Group 991">
          <path id="Path_566" data-name="Path 566" d="M310.14,227.317q7.161-6.838,14.924-13.118c.645-.516-.258-1.419-.9-.9-5.161,4.172-10.107,8.516-14.924,13.118-.6.559.3,1.462.9.9Z" transform="translate(-309.038 -213.142)" fill="#e8e8e8"/>
        </g>
      </g>
      <g id="Group_994" data-name="Group 994" transform="translate(69.451 32.329)">
        <g id="Group_993" data-name="Group 993">
          <path id="Path_567" data-name="Path 567" d="M349.646,214.942l15.483,11.742c.645.516,1.29-.6.645-1.118l-15.483-11.742c-.645-.516-1.29.6-.645,1.118Z" transform="translate(-349.379 -213.691)" fill="#e8e8e8"/>
        </g>
      </g>
      <g id="Group_996" data-name="Group 996" transform="translate(47.601 46.526)">
        <g id="Group_995" data-name="Group 995">
          <path id="Path_568" data-name="Path 568" d="M299.188,247.99h8.559a.646.646,0,0,0,0-1.29h-8.559a.646.646,0,0,0,0,1.29Z" transform="translate(-298.575 -246.7)" fill="#e8e8e8"/>
        </g>
      </g>
      <g id="Group_998" data-name="Group 998" transform="translate(55.998 47.429)">
        <g id="Group_997" data-name="Group 997">
          <path id="Path_569" data-name="Path 569" d="M318.1,249.445v9.72a.646.646,0,0,0,1.29,0v-9.72a.645.645,0,0,0-1.29,0Z" transform="translate(-318.1 -248.8)" fill="#e8e8e8"/>
        </g>
      </g>
      <g id="Group_1000" data-name="Group 1000" transform="translate(47.267 46.827)">
        <g id="Group_999" data-name="Group 999">
          <path id="Path_570" data-name="Path 570" d="M297.8,248.045V259.4a.646.646,0,0,0,1.29,0V248.045a.645.645,0,1,0-1.29,0Z" transform="translate(-297.8 -247.4)" fill="#e8e8e8"/>
        </g>
      </g>
      <g id="Group_1002" data-name="Group 1002" transform="translate(47.171 58.31)">
        <g id="Group_1001" data-name="Group 1001">
          <path id="Path_571" data-name="Path 571" d="M298.188,275.39h7.957a.646.646,0,0,0,0-1.29h-7.957a.646.646,0,0,0,0,1.29Z" transform="translate(-297.575 -274.1)" fill="#e8e8e8"/>
        </g>
      </g>
      <g id="Group_1004" data-name="Group 1004" transform="translate(64.385 47.128)">
        <g id="Group_1003" data-name="Group 1003">
          <path id="Path_572" data-name="Path 572" d="M337.6,248.745v11.182a.646.646,0,0,0,1.29,0V248.745a.645.645,0,0,0-1.29,0Z" transform="translate(-337.6 -248.1)" fill="#e8e8e8"/>
        </g>
      </g>
      <g id="Group_1006" data-name="Group 1006" transform="translate(64.417 58.009)">
        <g id="Group_1005" data-name="Group 1005">
          <path id="Path_573" data-name="Path 573" d="M338.288,274.69h7.828a.646.646,0,0,0,0-1.29h-7.828a.646.646,0,0,0,0,1.29Z" transform="translate(-337.675 -273.4)" fill="#e8e8e8"/>
        </g>
      </g>
      <g id="Group_1008" data-name="Group 1008" transform="translate(64.847 47.128)">
        <g id="Group_1007" data-name="Group 1007">
          <path id="Path_574" data-name="Path 574" d="M339.288,249.39h6.925a.646.646,0,0,0,0-1.29h-6.925a.646.646,0,0,0,0,1.29Z" transform="translate(-338.675 -248.1)" fill="#e8e8e8"/>
        </g>
      </g>
      <g id="Group_1010" data-name="Group 1010" transform="translate(71.912 46.988)">
        <g id="Group_1009" data-name="Group 1009">
          <path id="Path_575" data-name="Path 575" d="M355.1,248.388v10.623a.646.646,0,0,0,1.29,0V248.388a.646.646,0,0,0-1.29,0Z" transform="translate(-355.1 -247.775)" fill="#e8e8e8"/>
        </g>
      </g>
      <g id="Group_1012" data-name="Group 1012" transform="translate(82.406 46.988)">
        <g id="Group_1011" data-name="Group 1011">
          <path id="Path_576" data-name="Path 576" d="M379.715,248.388c-.129,2.8-.215,5.591-.215,8.387a.646.646,0,0,0,1.29,0c0-2.8.086-5.591.215-8.387.043-.817-1.247-.817-1.29,0Z" transform="translate(-379.5 -247.775)" fill="#e8e8e8"/>
        </g>
      </g>
      <g id="Group_1014" data-name="Group 1014" transform="translate(82.551 45.661)">
        <g id="Group_1013" data-name="Group 1013">
          <path id="Path_577" data-name="Path 577" d="M380.466,246.931c2.839-.3,5.677-.645,8.516-.946.817-.086.817-1.376,0-1.29-2.839.3-5.677.645-8.516.946-.817.086-.86,1.376,0,1.29Z" transform="translate(-379.837 -244.69)" fill="#e8e8e8"/>
        </g>
      </g>
      <g id="Group_1016" data-name="Group 1016" transform="translate(91.093 45.956)">
        <g id="Group_1015" data-name="Group 1015">
          <path id="Path_578" data-name="Path 578" d="M399.871,245.988a30.032,30.032,0,0,0,.3,8.559c.129.817,1.376.473,1.247-.344a29.243,29.243,0,0,1-.258-8.215c.086-.817-1.2-.817-1.29,0Z" transform="translate(-399.697 -245.375)" fill="#e8e8e8"/>
        </g>
      </g>
      <g id="Group_1018" data-name="Group 1018" transform="translate(82.799 54.559)">
        <g id="Group_1017" data-name="Group 1017">
          <path id="Path_579" data-name="Path 579" d="M381.225,267.925l8.516-1.29c.817-.129.473-1.376-.344-1.247l-8.516,1.29c-.817.129-.473,1.333.344,1.247Z" transform="translate(-380.414 -265.378)" fill="#e8e8e8"/>
        </g>
      </g>
      <g id="Group_1020" data-name="Group 1020" transform="translate(63.89 59.392)">
        <g id="Group_1019" data-name="Group 1019">
          <path id="Path_580" data-name="Path 580" d="M340.729,276.91a64.621,64.621,0,0,0-4.215,7.527c-.344.731.774,1.419,1.118.645a67.5,67.5,0,0,1,4.215-7.527c.43-.688-.688-1.333-1.118-.645Z" transform="translate(-336.449 -276.616)" fill="#e8e8e8"/>
        </g>
      </g>
      <g id="Group_1022" data-name="Group 1022" transform="translate(68.443 59.263)">
        <g id="Group_1021" data-name="Group 1021">
          <path id="Path_581" data-name="Path 581" d="M347.148,277.255a43.672,43.672,0,0,1,4.129,6.753c.387.731,1.505.086,1.118-.645a48.852,48.852,0,0,0-4.129-6.753c-.473-.688-1.591-.043-1.118.645Z" transform="translate(-347.034 -276.316)" fill="#e8e8e8"/>
        </g>
      </g>
      <g id="Group_1024" data-name="Group 1024" transform="translate(61.02 67.642)">
        <g id="Group_1023" data-name="Group 1023">
          <path id="Path_582" data-name="Path 582" d="M330.388,297.046c.9,0,1.806,0,2.753.043a12.145,12.145,0,0,1,1.247.086c.774.043.688-.215.817.473a22.945,22.945,0,0,1-.172,5.419c-.086.817,1.2.817,1.29,0,.086-1.29.172-2.623.172-3.914a6,6,0,0,0-.172-2.624c-.387-.645-1.29-.559-1.935-.6q-2-.129-4-.129c-.817-.043-.817,1.247,0,1.247Z" transform="translate(-329.775 -295.798)" fill="#e8e8e8"/>
        </g>
      </g>
      <g id="Group_1026" data-name="Group 1026" transform="translate(60.768 68.218)">
        <g id="Group_1025" data-name="Group 1025">
          <path id="Path_583" data-name="Path 583" d="M329.195,297.766c.129,1.505.258,2.968.387,4.473.086,1.2-.086,2.968.387,4.129a.959.959,0,0,0,.86.731c1.118.215,2.8-.344,3.914-.516.817-.129.473-1.333-.344-1.247a10.055,10.055,0,0,1-2.71.387c-.817-.215-.645-1.333-.688-2.193-.172-1.935-.344-3.828-.516-5.763-.086-.817-1.376-.86-1.29,0Z" transform="translate(-329.19 -297.137)" fill="#e8e8e8"/>
        </g>
      </g>
      <g id="Group_1028" data-name="Group 1028" transform="translate(70.32 68.029)">
        <g id="Group_1027" data-name="Group 1027">
          <path id="Path_584" data-name="Path 584" d="M351.572,297.343a37.061,37.061,0,0,0-.086,3.785,31.25,31.25,0,0,1,.258,3.226c.215-.043.43-.129.645-.172-.043,0-.086-.043-.172-.043a7.354,7.354,0,0,0,.473.6v-.172a7.349,7.349,0,0,1-.473.6.158.158,0,0,0,.129-.043c.817-.172.473-1.419-.344-1.247a.158.158,0,0,0-.129.043.6.6,0,0,0-.473.6v.172a.645.645,0,0,0,.473.6c1.118.215,1.118-.817,1.075-1.634a40.327,40.327,0,0,1-.086-6.451c.043-.731-1.247-.688-1.29.129Z" transform="translate(-351.4 -296.696)" fill="#e8e8e8"/>
        </g>
      </g>
      <g id="Group_1030" data-name="Group 1030" transform="translate(69.976 67.326)">
        <g id="Group_1029" data-name="Group 1029">
          <path id="Path_585" data-name="Path 585" d="M351.89,296.712c0-.3,2.753-.387,3.14-.344,1.075.172.86.258,1.032,1.032a6.076,6.076,0,0,1-.086,1.763c-.043,1.075-.043,2.108,0,3.183,0,.6.43,2.409.129,2.839a6.862,6.862,0,0,1,.9-.215c-.043,0-.086-.043-.129-.043.086.258.215.473.3.731,0-.043.043-.086.043-.129a.647.647,0,0,0-1.247-.344c0,.043-.043.086-.043.129a.636.636,0,0,0,.3.731c.043,0,.086.043.129.043a.725.725,0,0,0,.9-.215c.3-.43.172-.86.129-1.376-.043-1.161-.129-2.365-.129-3.527s.043-2.366.086-3.527a2.507,2.507,0,0,0-.172-1.677c-.731-.989-3.054-.688-4-.559-1.075.129-2.495.258-2.581,1.548,0,.774,1.29.774,1.29-.043Z" transform="translate(-350.6 -295.061)" fill="#e8e8e8"/>
        </g>
      </g>
      <g id="Group_1032" data-name="Group 1032" transform="translate(70.75 76.349)">
        <g id="Group_1031" data-name="Group 1031">
          <path id="Path_586" data-name="Path 586" d="M353.045,317.4a12.72,12.72,0,0,1,3.828.344.647.647,0,0,0,.344-1.247,12.431,12.431,0,0,0-4.172-.43c-.86.086-.86,1.376,0,1.333Z" transform="translate(-352.4 -316.041)" fill="#e8e8e8"/>
        </g>
      </g>
      <g id="Group_1034" data-name="Group 1034" transform="translate(84.78 57.015)">
        <g id="Group_1033" data-name="Group 1033">
          <path id="Path_587" data-name="Path 587" d="M387.806,271.437c-1.032,2.279-1.935,4.645-2.753,7.01-.258.774.989,1.118,1.247.344.774-2.28,1.634-4.516,2.624-6.71.344-.774-.774-1.419-1.118-.645Z" transform="translate(-385.019 -271.087)" fill="#e8e8e8"/>
        </g>
      </g>
      <g id="Group_1036" data-name="Group 1036" transform="translate(80.175 65.435)">
        <g id="Group_1035" data-name="Group 1035">
          <path id="Path_588" data-name="Path 588" d="M375.125,292.788a21.377,21.377,0,0,1,6.623-.817c.817.043.817-1.247,0-1.29a22.454,22.454,0,0,0-6.968.86.647.647,0,0,0,.344,1.247Z" transform="translate(-374.314 -290.667)" fill="#e8e8e8"/>
        </g>
      </g>
      <g id="Group_1038" data-name="Group 1038" transform="translate(80.753 65.568)">
        <g id="Group_1037" data-name="Group 1037">
          <path id="Path_589" data-name="Path 589" d="M375.847,292.362a8.132,8.132,0,0,0,.043,3.527,36.637,36.637,0,0,1,.086,4.344c-.086,1.892.387,2.107,2.279,1.935,1.29-.129,3.054.215,3.527-1.2a24.07,24.07,0,0,0,.43-4.688c.129-1.548.3-3.14.43-4.688.086-.817-1.2-.817-1.29,0-.172,1.806-.344,3.656-.516,5.462a21.972,21.972,0,0,1-.215,2.365c-.258,1.2-.387,1.29-1.634,1.419-.387.043-.731.086-1.118.129-.731.258-.946.043-.645-.688a12.536,12.536,0,0,1,.043-2.193c-.043-1.634-.688-3.828-.215-5.376.3-.817-.946-1.161-1.2-.344Z" transform="translate(-375.657 -290.975)" fill="#e8e8e8"/>
        </g>
      </g>
      <g id="Group_1040" data-name="Group 1040" transform="translate(89.259 57.601)">
        <g id="Group_1039" data-name="Group 1039">
          <path id="Path_590" data-name="Path 590" d="M395.549,273.419a46.154,46.154,0,0,1,2.667,4.731c.344.731,1.462.086,1.118-.645a42.861,42.861,0,0,0-2.667-4.731c-.473-.731-1.591-.086-1.118.645Z" transform="translate(-395.434 -272.452)" fill="#e8e8e8"/>
        </g>
      </g>
      <g id="Group_1042" data-name="Group 1042" transform="translate(90.191 63.901)">
        <g id="Group_1041" data-name="Group 1041">
          <path id="Path_591" data-name="Path 591" d="M398.245,288.39H404.7a.646.646,0,0,0,0-1.29h-.387a.646.646,0,0,0,0,1.29h.387a.646.646,0,0,0,0-1.29h-6.451a.645.645,0,0,0,0,1.29Z" transform="translate(-397.6 -287.1)" fill="#e8e8e8"/>
        </g>
      </g>
      <g id="Group_1044" data-name="Group 1044" transform="translate(90.187 64.407)">
        <g id="Group_1043" data-name="Group 1043">
          <path id="Path_592" data-name="Path 592" d="M397.595,289.017c.172,1.634.3,3.269.344,4.9.043,1.161-.344,3.14.172,4.215.3.645.688.731,1.376.731a47.833,47.833,0,0,0,4.9-.645.69.69,0,0,0,.473-.6c-.043-2.925-.086-5.806-.129-8.731a.646.646,0,0,0-1.29,0c.043,2.925.086,5.806.129,8.731a7.365,7.365,0,0,1,.473-.6c-1.032.129-2.064.258-3.1.43-.344.043-1.333.344-1.634.086-.215-.172,0-1.505,0-1.763-.043-2.236-.172-4.473-.387-6.666-.129-.9-1.419-.9-1.333-.086Z" transform="translate(-397.59 -288.275)" fill="#e8e8e8"/>
        </g>
      </g>
      <g id="Group_1046" data-name="Group 1046" transform="translate(41.349 61.68)">
        <g id="Group_1045" data-name="Group 1045">
          <path id="Path_593" data-name="Path 593" d="M285.14,288.93a73.929,73.929,0,0,1,6.967-5.763c.645-.473,0-1.591-.645-1.118a74.014,74.014,0,0,0-7.226,5.978c-.6.559.3,1.462.9.9Z" transform="translate(-284.038 -281.934)" fill="#e8e8e8"/>
        </g>
      </g>
      <g id="Group_1048" data-name="Group 1048" transform="translate(48.916 61.414)">
        <g id="Group_1047" data-name="Group 1047">
          <path id="Path_594" data-name="Path 594" d="M301.749,282.255a32.084,32.084,0,0,1,3.226,5.806c.344.774,1.462.086,1.118-.645a34.587,34.587,0,0,0-3.226-5.806c-.473-.688-1.591-.043-1.118.645Z" transform="translate(-301.634 -281.316)" fill="#e8e8e8"/>
        </g>
      </g>
      <g id="Group_1050" data-name="Group 1050" transform="translate(36.122 69.279)">
        <g id="Group_1049" data-name="Group 1049">
          <path id="Path_595" data-name="Path 595" d="M272.495,301.365c1.161-.086,2.279-.172,3.441-.258a9.806,9.806,0,0,1,1.548-.129c.6-.215.774-.172.516.172a1.128,1.128,0,0,0-.215.817,36.541,36.541,0,0,0-.645,6.494c.387-.172.731-.3,1.118-.473a.593.593,0,0,1-.129-.172c-.559-.6-1.462.3-.9.9a.6.6,0,0,1,.129.172.666.666,0,0,0,1.118-.473,46.727,46.727,0,0,1,.473-5.505c.129-.774.688-2.064.215-2.839-.387-.6-1.032-.473-1.634-.43-1.677.129-3.312.258-4.989.387-.86.129-.86,1.419-.043,1.333Z" transform="translate(-271.887 -299.603)" fill="#e8e8e8"/>
        </g>
      </g>
      <g id="Group_1052" data-name="Group 1052" transform="translate(35.088 69.794)">
        <g id="Group_1051" data-name="Group 1051">
          <path id="Path_596" data-name="Path 596" d="M271.984,300.8h-.172a.735.735,0,0,0-.559.3c-.688,1.161-.645,3.183-.86,4.516l-.9,5.677c-.043.344.086.731.43.774a10.056,10.056,0,0,0,5.849-.387c.774-.3.43-1.548-.344-1.247a8.816,8.816,0,0,1-5.161.387c.129.258.3.516.43.774.129-.86,1.634-9.505,1.2-9.548.9.129.9-1.161.086-1.247Z" transform="translate(-269.481 -300.8)" fill="#e8e8e8"/>
        </g>
      </g>
      <g id="Group_1054" data-name="Group 1054" transform="translate(49.008 69.016)">
        <g id="Group_1053" data-name="Group 1053">
          <path id="Path_597" data-name="Path 597" d="M302.128,299.554l-.043.043h.9c-.043,0-.043-.043-.086-.043v.9a6.672,6.672,0,0,1,.989-.043c.473-.043.989-.086,1.462-.086a19.016,19.016,0,0,1,2.71.086c-.172-.387-.3-.731-.473-1.118a.939.939,0,0,0-.215.172c-.817.086-.817,1.376,0,1.29a1.581,1.581,0,0,0,1.161-.559.662.662,0,0,0-.473-1.118,27.168,27.168,0,0,0-3.742-.043c-.6.043-1.849-.086-2.279.473a.623.623,0,0,0,0,.9c.043,0,.043.043.086.043a.623.623,0,0,0,.9,0l.043-.043c.516-.559-.387-1.462-.946-.86Z" transform="translate(-301.847 -298.991)" fill="#e8e8e8"/>
        </g>
      </g>
      <g id="Group_1056" data-name="Group 1056" transform="translate(48.151 69.245)">
        <g id="Group_1055" data-name="Group 1055">
          <path id="Path_598" data-name="Path 598" d="M300.476,300.159c-.129,1.763-.258,3.527-.344,5.29-.043.989-.6,3.527,0,4.43a1.129,1.129,0,0,0,1.161.559,7.573,7.573,0,0,0,1.677-.516,11.327,11.327,0,0,1,3.183-.387.646.646,0,0,0,0-1.29,12.742,12.742,0,0,0-2.839.3c-.43.086-1.247.559-1.634.473-.3.215-.43.172-.344-.172a4.494,4.494,0,0,1,0-1.075c.043-2.495.258-5.032.43-7.527a.647.647,0,1,0-1.29-.086Z" transform="translate(-299.855 -299.524)" fill="#e8e8e8"/>
        </g>
      </g>
      <g id="Group_1058" data-name="Group 1058" transform="translate(53.841 69.396)">
        <g id="Group_1057" data-name="Group 1057">
          <path id="Path_599" data-name="Path 599" d="M313.565,300.488a64.957,64.957,0,0,0-.473,8.688.646.646,0,0,0,1.29,0,64.957,64.957,0,0,1,.473-8.688c.129-.817-1.161-.817-1.29,0Z" transform="translate(-313.085 -299.875)" fill="#e8e8e8"/>
        </g>
      </g>
      <g id="Group_1060" data-name="Group 1060" transform="translate(397.815 249.466)">
        <g id="Group_1059" data-name="Group 1059">
          <path id="Path_600" data-name="Path 600" d="M1112.914,719.519a275.51,275.51,0,0,1,21.16,70.105c.129.817,1.376.473,1.247-.344a277.949,277.949,0,0,0-21.29-70.406c-.344-.731-1.462-.086-1.118.645Z" transform="translate(-1112.849 -718.552)" fill="#e8e8e8"/>
        </g>
      </g>
      <g id="Group_1062" data-name="Group 1062" transform="translate(420.155 212.377)">
        <g id="Group_1061" data-name="Group 1061">
          <path id="Path_601" data-name="Path 601" d="M1196.063,632.61c-12.559,19.182-23.483,39.4-31.225,61.03-.3.774.946,1.118,1.247.344,7.7-21.548,18.58-41.633,31.1-60.729.43-.688-.688-1.333-1.118-.645Z" transform="translate(-1164.792 -632.316)" fill="#e8e8e8"/>
        </g>
      </g>
      <g id="Group_1064" data-name="Group 1064" transform="translate(393.026 272.73)">
        <g id="Group_1063" data-name="Group 1063">
          <path id="Path_602" data-name="Path 602" d="M1102.181,773.914a29.56,29.56,0,0,1,16.946,12.215c.473.688,1.591.043,1.118-.645a30.937,30.937,0,0,0-17.72-12.817.647.647,0,0,0-.344,1.247Z" transform="translate(-1101.714 -772.642)" fill="#e8e8e8"/>
        </g>
      </g>
      <g id="Group_1066" data-name="Group 1066" transform="translate(405.655 255.859)">
        <g id="Group_1065" data-name="Group 1065">
          <path id="Path_603" data-name="Path 603" d="M1135.69,733.71a33.59,33.59,0,0,0-4.6,12.731c-.129.817,1.118,1.161,1.247.344a32.972,32.972,0,0,1,4.473-12.43c.43-.688-.688-1.333-1.118-.645Z" transform="translate(-1131.078 -733.416)" fill="#e8e8e8"/>
        </g>
      </g>
      <g id="Group_1068" data-name="Group 1068" transform="translate(423.466 230.838)">
        <g id="Group_1067" data-name="Group 1067">
          <path id="Path_604" data-name="Path 604" d="M1172.666,676.384a24.84,24.84,0,0,1,4.688,7.871c.516,1.29.946,2.624,1.333,3.914.387,1.247,1.29,3.1.774,4.344-.3.774.946,1.118,1.247.344.516-1.247,0-2.495-.387-3.7-.516-1.763-1.075-3.527-1.763-5.247a27.313,27.313,0,0,0-5.032-8.473c-.516-.6-1.42.3-.86.946Z" transform="translate(-1172.49 -675.24)" fill="#e8e8e8"/>
        </g>
      </g>
      <g id="Group_1070" data-name="Group 1070" transform="translate(437.165 222.925)">
        <g id="Group_1069" data-name="Group 1069">
          <path id="Path_605" data-name="Path 605" d="M1205.4,670.845a40.869,40.869,0,0,1,20.257-12.731.647.647,0,0,0-.344-1.247A42.206,42.206,0,0,0,1204.5,669.9c-.516.645.387,1.591.9.946Z" transform="translate(-1204.342 -656.842)" fill="#e8e8e8"/>
        </g>
      </g>
      <g id="Group_1072" data-name="Group 1072" transform="translate(421.958 258.532)">
        <g id="Group_1071" data-name="Group 1071">
          <path id="Path_606" data-name="Path 606" d="M1170.065,752.563a41.675,41.675,0,0,1,13.247-7.656c2.193-.817,4.387-1.462,6.624-2.107,1.247-.344,2.452-.645,3.7-.989.6-.129,3.14-1.161,3.613-.9a6.856,6.856,0,0,1-.215-.9c-.043.043-.043.086-.086.129a6.89,6.89,0,0,1,.9-.215c-.043,0-.086-.043-.129-.043-.731-.387-1.376.731-.645,1.118.043,0,.086.043.129.043a.688.688,0,0,0,.9-.215c.043-.043.043-.086.086-.129a.688.688,0,0,0-.215-.9c-.6-.344-1.247-.043-1.892.086-1.463.344-2.925.688-4.387,1.075-2.8.731-5.591,1.548-8.344,2.495a41.786,41.786,0,0,0-14.15,8.086c-.645.645.258,1.591.86,1.032Z" transform="translate(-1168.983 -739.63)" fill="#e8e8e8"/>
        </g>
      </g>
      <g id="Group_1074" data-name="Group 1074" transform="translate(400.669 321.055)">
        <g id="Group_1073" data-name="Group 1073">
          <path id="Path_607" data-name="Path 607" d="M1119.922,888.484c9.763,2.365,19.7.6,29.462-.559a314.814,314.814,0,0,1,31.827-1.634.646.646,0,0,0,0-1.29c-10.365.172-20.731.387-31.01,1.548-9.935,1.161-20.042,3.1-29.935.688a.649.649,0,0,0-.344,1.247Z" transform="translate(-1119.485 -885)" fill="#e8e8e8"/>
        </g>
      </g>
      <g id="Group_1076" data-name="Group 1076" transform="translate(431.287 316.839)">
        <g id="Group_1075" data-name="Group 1075">
          <path id="Path_608" data-name="Path 608" d="M1191.288,879.241q26.064-1.355,52.127-2.753c.817-.043.817-1.333,0-1.29q-26.064,1.355-52.127,2.753c-.817.043-.817,1.333,0,1.29Z" transform="translate(-1190.675 -875.197)" fill="#e8e8e8"/>
        </g>
      </g>
      <g id="Group_1078" data-name="Group 1078" transform="translate(371.557 180.76)">
        <g id="Group_1077" data-name="Group 1077">
          <path id="Path_609" data-name="Path 609" d="M1062.379,574.759c-4.258.817-9.462-3.269-9.333-7.785.172-5.118,6.58-6.839,10.666-6.882,4.516,0,7.7,3.484,6.624,8.043a9.038,9.038,0,0,1-3.269,4.86c-.9.731-4.559,3.4-5.591,2.107-.516-.645-1.419.258-.9.9,1.376,1.721,4.215-.043,5.677-.86a11.52,11.52,0,0,0,5.118-5.849c1.72-5.032-1.333-10.064-6.624-10.451-5.032-.387-12.817,1.935-12.946,8.129-.086,5.419,5.849,9.978,10.967,9.032.774-.129.43-1.376-.387-1.247Z" transform="translate(-1051.798 -558.805)" fill="#e8e8e8"/>
        </g>
      </g>
      <g id="Group_1080" data-name="Group 1080" transform="translate(47.789 216.756)">
        <g id="Group_1079" data-name="Group 1079">
          <path id="Path_610" data-name="Path 610" d="M303.223,642.713a31.816,31.816,0,0,0-4.129,5.935c-.387.731.731,1.376,1.118.645a31.989,31.989,0,0,1,3.957-5.677c.516-.6-.387-1.548-.946-.9Z" transform="translate(-299.013 -642.497)" fill="#161616"/>
        </g>
      </g>
      <g id="Group_1082" data-name="Group 1082" transform="translate(51.822 216.549)">
        <g id="Group_1081" data-name="Group 1081">
          <path id="Path_611" data-name="Path 611" d="M308.524,642.955c1.29,1.806,2.581,3.57,3.871,5.376.473.688,1.591.043,1.118-.645-1.29-1.806-2.581-3.57-3.871-5.376-.516-.688-1.634-.043-1.118.645Z" transform="translate(-308.391 -642.016)" fill="#161616"/>
        </g>
      </g>
      <g id="Group_1084" data-name="Group 1084" transform="translate(51.868 219.396)">
        <g id="Group_1083" data-name="Group 1083">
          <path id="Path_612" data-name="Path 612" d="M308.5,649.266c.387,15.182.731,30.365,1.118,45.59a.646.646,0,0,0,1.29,0c-.387-15.182-.731-30.365-1.118-45.59-.043-.817-1.333-.86-1.29,0Z" transform="translate(-308.498 -648.637)" fill="#161616"/>
        </g>
      </g>
      <g id="Group_1086" data-name="Group 1086" transform="translate(53.794 265.529)">
        <g id="Group_1085" data-name="Group 1085">
          <path id="Path_613" data-name="Path 613" d="M313.588,757.19h57.289a.646.646,0,0,0,0-1.29H313.588a.646.646,0,0,0,0,1.29Z" transform="translate(-312.975 -755.9)" fill="#161616"/>
        </g>
      </g>
      <g id="Group_1088" data-name="Group 1088" transform="translate(108.551 263.603)">
        <g id="Group_1087" data-name="Group 1087">
          <path id="Path_614" data-name="Path 614" d="M440.939,753.348c1.333.516,2.624,1.032,3.957,1.548-.172-.473-.387-.946-.559-1.419a7.444,7.444,0,0,1-2.667,2.753.974.974,0,0,0,.989,1.677,9.313,9.313,0,0,0,3.4-3.441.974.974,0,0,0-.559-1.419c-1.333-.516-2.624-1.032-3.957-1.548-1.247-.473-1.763,1.376-.6,1.849Z" transform="translate(-440.29 -751.422)" fill="#161616"/>
        </g>
      </g>
      <g id="Group_1090" data-name="Group 1090" transform="translate(437.718 27.475)">
        <g id="Group_1089" data-name="Group 1089">
          <path id="Path_615" data-name="Path 615" d="M1207.421,208.166c-1.72-2.28.731-5.763,3.4-4.043a2.58,2.58,0,0,1,.9,3.613,2.912,2.912,0,0,1-3.57.989c-.731-.387-1.376.731-.645,1.118a4.263,4.263,0,0,0,5.161-1.2,3.8,3.8,0,0,0-.774-5.333,3.756,3.756,0,0,0-5.2.3,4.27,4.27,0,0,0-.3,5.247c.387.6,1.505-.043,1.032-.688Z" transform="translate(-1205.626 -202.405)" fill="#5222d0"/>
        </g>
      </g>
      <g id="Group_1092" data-name="Group 1092" transform="translate(473.96 182.115)">
        <g id="Group_1091" data-name="Group 1091">
          <path id="Path_616" data-name="Path 616" d="M1291.229,576.64a3.206,3.206,0,0,1,3.4-3.4,4.9,4.9,0,0,0,2.236-.129c1.462-.645,2.021-2.323,2.495-3.742.688-2.064,1.2-3.054,3.785-2.409.688.172,1.118.516,1.849.258,2.151-.817.86-4.516,4.129-3.914.817.172,1.161-1.075.344-1.247a3.544,3.544,0,0,0-2.925.516c-.817.6-.9,1.333-1.376,2.107-.043.817-.6,1.161-1.634,1.032a5.118,5.118,0,0,0-.688-.344c-.473-.043-.731-.3-1.247-.258a3.144,3.144,0,0,0-2.237,1.333,11.537,11.537,0,0,0-1.505,3.4c-.473,1.2-.946,2.064-2.409,2.194-.645.043-1.247-.172-1.892-.086a4.457,4.457,0,0,0-3.656,4.688c.086.86,1.376.86,1.333,0Z" transform="translate(-1289.892 -561.955)" fill="#5222d0"/>
        </g>
      </g>
      <g id="Group_1094" data-name="Group 1094" transform="translate(66.095 212.757)">
        <g id="Group_1093" data-name="Group 1093">
          <path id="Path_617" data-name="Path 617" d="M342.747,684.811c6.064-12.172,7.01-25.892,10.58-38.837.9-3.312,1.806-7.183,4.3-9.677,3.656-3.656,8.3-1.075,9.806,3.226,1.118,3.269,1.161,7.054,1.376,10.494.215,3.7.387,7.4.6,11.1.473,7.914,1.29,15.87,3.957,23.4.258.774,1.505.43,1.247-.344-2.8-7.914-3.57-16.3-4-24.644-.215-4.086-.387-8.215-.688-12.3-.258-3.269-.387-6.839-1.935-9.806a7.344,7.344,0,0,0-6.236-4.215c-2.8,0-5.118,1.935-6.537,4.172-1.849,2.968-2.71,6.71-3.57,10.064-.946,3.742-1.72,7.527-2.495,11.311-1.72,8.688-3.484,17.419-7.484,25.419-.43.731.688,1.376,1.075.645Z" transform="translate(-341.575 -633.2)" fill="#5222d0"/>
        </g>
      </g>
      <g id="Group_1096" data-name="Group 1096" transform="translate(71.676 207.676)">
        <g id="Group_1095" data-name="Group 1095">
          <path id="Path_618" data-name="Path 618" d="M356.035,624.748c-.86-1.247.9-2.925,1.935-1.548.989,1.29-.86,2.581-1.892,1.591-.6-.559-1.505.344-.9.9a2.72,2.72,0,0,0,3.4.215,2.393,2.393,0,0,0,.43-3.484,2.423,2.423,0,0,0-3.527-.473,2.7,2.7,0,0,0-.516,3.441c.43.688,1.548.043,1.075-.645Z" transform="translate(-354.552 -621.388)" fill="#5222d0"/>
        </g>
      </g>
      <g id="Group_1098" data-name="Group 1098" transform="translate(81.049 202.622)">
        <g id="Group_1097" data-name="Group 1097">
          <path id="Path_619" data-name="Path 619" d="M377.96,612.33c-.688-.989.817-1.892,1.462-.86.688,1.118-1.247,2.365-1.892,1.118-.387-.731-1.462-.086-1.118.645a2.22,2.22,0,0,0,3.14.817,2.407,2.407,0,0,0,.946-3.269,2.3,2.3,0,0,0-3.054-.86,2.217,2.217,0,0,0-.688,3.011c.559.731,1.677.086,1.2-.6Z" transform="translate(-376.344 -609.636)" fill="#5222d0"/>
        </g>
      </g>
      <g id="Group_1100" data-name="Group 1100" transform="translate(77.531 193.076)">
        <g id="Group_1099" data-name="Group 1099">
          <path id="Path_620" data-name="Path 620" d="M369.557,590.218c-.344-.989.731-2.021,1.591-1.2s-.129,1.978-1.118,1.634c-.774-.258-1.118.989-.344,1.247a2.3,2.3,0,0,0,2.366-3.785,2.225,2.225,0,0,0-2.882-.258,2.367,2.367,0,0,0-.86,2.71c.3.774,1.548.473,1.247-.344Z" transform="translate(-368.166 -587.44)" fill="#5222d0"/>
        </g>
      </g>
      <g id="Group_1102" data-name="Group 1102" transform="translate(94.184 206.399)">
        <g id="Group_1101" data-name="Group 1101">
          <path id="Path_621" data-name="Path 621" d="M408.053,619.356c-.129-.086.043.043.086.129v.129h.172a1.259,1.259,0,0,1,.387.086,7.37,7.37,0,0,0-.473-.6v1.032a7.359,7.359,0,0,1,.473-.6,1.708,1.708,0,0,1-1.032.086c-.774-.258-1.118.989-.344,1.247a2.372,2.372,0,0,0,1.72-.086c.258-.129.473-.3.473-.6v-1.032a.607.607,0,0,0-.473-.6c-.688-.172-1.505-.258-1.935.43a1.056,1.056,0,0,0,.344,1.591.688.688,0,0,0,.9-.215.787.787,0,0,0-.3-.989Z" transform="translate(-406.885 -618.418)" fill="#5222d0"/>
        </g>
      </g>
      <g id="Group_1104" data-name="Group 1104" transform="translate(166.855 34.994)">
        <g id="Group_1103" data-name="Group 1103">
          <path id="Path_622" data-name="Path 622" d="M576.172,221.012c.215.086-.258,2.236-.043,2.753a2.12,2.12,0,0,0,1.677,1.118,3.607,3.607,0,0,0,2.537-.731c.774-.473,2.623-2.107,3.183-.3.129.387-.3,1.333-.172,1.849.387,1.72,2.021,1.634,3.183.731a8.681,8.681,0,0,0,1.032-1.161c.43-1.032,1.075-1.247,1.893-.645a2.008,2.008,0,0,0,.129.731c.43.645.645,1.075,1.505,1.032.817-.043.817-1.333,0-1.29.043,0-.9-1.935-1.419-2.15a2.058,2.058,0,0,0-1.849.3,4.739,4.739,0,0,0-.989.86c-.645.645-.6,1.591-1.634.946-.989-.6-.172-1.548-.86-2.409-1.118-1.419-3.011-.645-4.215.129-.688.43-2.409,1.978-2.839-.3-.043-.3.215-.774.215-1.075a1.268,1.268,0,0,0-.731-1.376c-.688-.516-1.333.6-.6.989Z" transform="translate(-575.849 -219.889)" fill="#5222d0"/>
        </g>
      </g>
      <g id="Group_1106" data-name="Group 1106" transform="translate(122.186 136.087)">
        <g id="Group_1105" data-name="Group 1105" transform="translate(0)">
          <path id="Path_623" data-name="Path 623" d="M471.995,455.566c.516,6.021,1.032,12.043,1.591,18.064a.646.646,0,0,0,1.29,0c0-.129.043-.3.043-.43.086-.817-1.2-.817-1.29,0,0,.129-.043.3-.043.43h1.29c-.516-6.021-1.032-12.043-1.591-18.064-.086-.817-1.376-.86-1.29,0Z" transform="translate(-471.99 -454.937)" fill="#ec615b"/>
        </g>
      </g>
      <g id="Group_1108" data-name="Group 1108" transform="translate(122.368 135.466)">
        <g id="Group_1107" data-name="Group 1107">
          <path id="Path_624" data-name="Path 624" d="M473.225,455.217c1.806-.387,4.946-.946,6.322.559,1.247,1.333.946,3.957,1.118,5.763.3,3.613.6,7.226.9,10.8.086.817,1.376.817,1.29,0-.43-5.161-.473-10.58-1.333-15.7-.645-4-5.634-3.269-8.645-2.667-.817.172-.473,1.419.344,1.247Z" transform="translate(-472.414 -453.494)" fill="#ec615b"/>
        </g>
      </g>
      <g id="Group_1110" data-name="Group 1110" transform="translate(134.185 112.303)">
        <g id="Group_1109" data-name="Group 1109">
          <path id="Path_625" data-name="Path 625" d="M499.895,400.266a316.933,316.933,0,0,1,1.419,41.418c-.043.817,1.247.817,1.29,0a317.191,317.191,0,0,0-1.419-41.418c-.086-.817-1.376-.86-1.29,0Z" transform="translate(-499.89 -399.637)" fill="#ec615b"/>
        </g>
      </g>
      <g id="Group_1112" data-name="Group 1112" transform="translate(135.27 111.641)">
        <g id="Group_1111" data-name="Group 1111" transform="translate(0)">
          <path id="Path_626" data-name="Path 626" d="M502.881,399.389c1.763.258,3.914.258,5.548.86,2.194.774,1.849,4.731,2.065,6.752.387,3.914.645,7.828.9,11.742.473,8.129.645,16.258.817,24.386a.646.646,0,0,0,1.29,0c-.215-9.376-.43-18.8-1.075-28.171-.3-4.387-.516-8.817-1.2-13.161-.6-3.7-5.032-3.226-8-3.7-.817-.043-1.161,1.161-.344,1.29Z" transform="translate(-502.414 -398.097)" fill="#ec615b"/>
        </g>
      </g>
      <g id="Group_1114" data-name="Group 1114" transform="translate(146.661 104.233)">
        <g id="Group_1113" data-name="Group 1113" transform="translate(0)">
          <path id="Path_627" data-name="Path 627" d="M528.9,381.488q2.193,24.515,4.43,48.988c.086.817,1.376.817,1.29,0q-2.193-24.515-4.43-48.988c-.043-.817-1.333-.817-1.29,0Z" transform="translate(-528.898 -380.875)" fill="#ec615b"/>
        </g>
      </g>
      <g id="Group_1116" data-name="Group 1116" transform="translate(146.668 103.772)">
        <g id="Group_1115" data-name="Group 1115">
          <path id="Path_628" data-name="Path 628" d="M529.725,381.521a21.942,21.942,0,0,1,6.279-.3c1.763.172,3.011.516,3.1,2.409.043.645.043,1.333.043,1.978.129,3.226.258,6.451.43,9.677.559,12.344,1.2,24.644,1.849,36.988.043.817,1.333.817,1.29,0-.688-13.333-1.376-26.623-1.979-39.956-.129-2.8-.258-5.548-.344-8.344-.043-1.247-.043-2.495-1.2-3.312a7.972,7.972,0,0,0-4-.817,22.052,22.052,0,0,0-5.806.43c-.817.172-.473,1.419.344,1.247Z" transform="translate(-528.914 -379.801)" fill="#ec615b"/>
        </g>
      </g>
      <g id="Group_1118" data-name="Group 1118" transform="translate(108.648 100.377)">
        <g id="Group_1117" data-name="Group 1117">
          <path id="Path_629" data-name="Path 629" d="M444.809,372.249c-1.419,2.8-2.8,5.591-4.215,8.387-.387.731.731,1.376,1.118.645,1.419-2.8,2.8-5.591,4.215-8.387.344-.731-.774-1.419-1.118-.645Z" transform="translate(-440.513 -371.908)" fill="#161616"/>
        </g>
      </g>
      <g id="Group_1120" data-name="Group 1120" transform="translate(113.09 101.206)">
        <g id="Group_1119" data-name="Group 1119">
          <path id="Path_630" data-name="Path 630" d="M450.867,374.637a11.66,11.66,0,0,0,3.914,6.322c.645.516,1.548-.387.9-.9a10.6,10.6,0,0,1-3.57-5.72.642.642,0,1,0-1.247.3Z" transform="translate(-450.842 -373.835)" fill="#161616"/>
        </g>
      </g>
      <g id="Group_1122" data-name="Group 1122" transform="translate(112.193 101.997)">
        <g id="Group_1121" data-name="Group 1121">
          <path id="Path_631" data-name="Path 631" d="M448.776,376.288a195.681,195.681,0,0,0,7.312,55.783.647.647,0,0,0,1.247-.344,194.6,194.6,0,0,1-7.269-55.439.646.646,0,0,0-1.29,0Z" transform="translate(-448.757 -375.675)" fill="#161616"/>
        </g>
      </g>
      <g id="Group_1124" data-name="Group 1124" transform="translate(120.459 156.706)">
        <g id="Group_1123" data-name="Group 1123">
          <path id="Path_632" data-name="Path 632" d="M468.588,505.682q15.1-1.419,30.279-1.505c9.419-.043,19.612-.43,28.3,3.828.731.344,1.376-.731.645-1.118-8.43-4.129-18.064-4.043-27.268-4q-16,0-31.956,1.505c-.817.086-.817,1.376,0,1.29Z" transform="translate(-467.975 -502.877)" fill="#161616"/>
        </g>
      </g>
      <g id="Group_1126" data-name="Group 1126" transform="translate(174.038 156.203)">
        <g id="Group_1125" data-name="Group 1125">
          <path id="Path_633" data-name="Path 633" d="M592.874,502.909A55.66,55.66,0,0,1,599.5,507.6l.129-1.032c-1.763,1.333-3.484,2.667-5.247,4-.645.516,0,1.634.645,1.118,1.763-1.333,3.484-2.667,5.247-4a.676.676,0,0,0,.129-1.032,53.825,53.825,0,0,0-6.882-4.86.646.646,0,0,0-.645,1.118Z" transform="translate(-592.552 -501.708)" fill="#161616"/>
        </g>
      </g>
      <g id="Group_1128" data-name="Group 1128" transform="translate(116.035 67.006)">
        <g id="Group_1127" data-name="Group 1127">
          <path id="Path_634" data-name="Path 634" d="M457.867,351.728l1.935,2.322a.68.68,0,0,0,1.032-.129c3.441-6.752,6.839-13.548,10.322-20.3.9-1.72,2.15-.3,3.441.172a3.564,3.564,0,0,0,2.495-.086c2.064-.774,3.441-2.925,4.387-4.817,1.548-3.226,2.925-6.58,4.43-9.849.387-.9.817-1.806,1.2-2.667a6.373,6.373,0,0,1,.9-1.978c1.333-1.2,4.6,1.548,5.72,2.237,1.849,1.118,4.516,3.613,6.924,2.968,1.806-.473,2.667-2.452,3.183-4.086a63.384,63.384,0,0,1,10.58-20.085.65.65,0,0,0-.645-1.075,20.408,20.408,0,0,0-6.107,3.269c-.6.473.172,1.333.774,1.032,1.677-.817,3.4-1.677,5.075-2.494-.3-.129-.645-.258-.946-.387.516,2.581,1.032,5.161,1.505,7.742.172.817,1.419.473,1.247-.344-.516-2.581-1.032-5.161-1.505-7.742a.655.655,0,0,0-.946-.387c-1.677.817-3.4,1.677-5.075,2.495l.774,1.032a17.7,17.7,0,0,1,5.548-2.968c-.215-.344-.43-.731-.645-1.075a60.484,60.484,0,0,0-9.075,15.311c-.6,1.462-1.118,2.968-1.591,4.473-.387,1.2-.989,3.785-2.581,4.043-1.806.3-4.129-1.763-5.591-2.667s-2.882-1.892-4.387-2.71c-1.72-.9-2.8-.559-3.656,1.118-1.634,3.226-2.968,6.666-4.473,9.978-1.118,2.495-2.538,7.527-5.591,8.344-2.064.559-3.957-2.538-5.806-.731-1.075,1.032-1.634,2.968-2.279,4.258-.989,1.935-1.935,3.828-2.925,5.763-1.935,3.828-3.914,7.656-5.849,11.484l1.032-.129-1.935-2.323c-.559-.559-1.462.344-.9.989Z" transform="translate(-457.691 -294.318)" fill="#161616"/>
        </g>
      </g>
      <g id="Group_1130" data-name="Group 1130" transform="translate(297.61)">
        <g id="Group_1129" data-name="Group 1129">
          <path id="Path_635" data-name="Path 635" d="M885.686,156.062c-4.215-2.323-6.021-8.215-3.355-12.387,2.709-4.258,9.29-5.032,13.118-1.892,3.914,3.269,3.957,9.978.215,13.376-3.871,3.57-10.365,2.624-13.548-1.333-.516-.645-1.419.258-.9.9a11.088,11.088,0,0,0,12.6,3.1,10.159,10.159,0,0,0,5.849-10.752,9.524,9.524,0,0,0-8.516-8.473c-4.344-.516-8.989,1.634-10.623,5.849a10.412,10.412,0,0,0,4.559,12.645c.688.473,1.333-.645.6-1.032Z" transform="translate(-879.864 -138.525)" fill="#ec615b"/>
        </g>
      </g>
      <g id="Group_1132" data-name="Group 1132" transform="translate(320.377 19.204)">
        <g id="Group_1131" data-name="Group 1131">
          <path id="Path_636" data-name="Path 636" d="M934.52,189.422c-1.806-3.355,2.839-7.054,5.161-3.441,2.065,3.183-3.011,5.591-4.645,2.624-.387-.731-1.505-.086-1.118.645a4.165,4.165,0,0,0,5.333,1.591,3.682,3.682,0,0,0,1.548-5.505,4.21,4.21,0,0,0-6.021-1.419,4.875,4.875,0,0,0-1.419,6.193c.473.688,1.591.043,1.161-.688Z" transform="translate(-932.8 -183.175)" fill="#ec615b"/>
        </g>
      </g>
      <g id="Group_1134" data-name="Group 1134" transform="translate(298.829 349.484)">
        <g id="Group_1133" data-name="Group 1133">
          <path id="Path_637" data-name="Path 637" d="M883.345,952.39h101.5a.646.646,0,0,0,0-1.29h-101.5a.645.645,0,0,0,0,1.29Z" transform="translate(-882.7 -951.1)" fill="#161616"/>
        </g>
      </g>
      <g id="Group_1136" data-name="Group 1136" transform="translate(421.61 349.484)">
        <g id="Group_1135" data-name="Group 1135">
          <path id="Path_638" data-name="Path 638" d="M1168.788,952.39h19.354a.646.646,0,0,0,0-1.29h-19.354a.646.646,0,0,0,0,1.29Z" transform="translate(-1168.175 -951.1)" fill="#161616"/>
        </g>
      </g>
      <g id="Group_1138" data-name="Group 1138" transform="translate(201.359 369.01)">
        <g id="Group_1137" data-name="Group 1137">
          <path id="Path_639" data-name="Path 639" d="M656.688,997.79h67.525a.646.646,0,0,0,0-1.29H656.688a.646.646,0,0,0,0,1.29Z" transform="translate(-656.075 -996.5)" fill="#161616"/>
        </g>
      </g>
      <g id="Group_1140" data-name="Group 1140" transform="translate(268.024 363.849)">
        <g id="Group_1139" data-name="Group 1139">
          <path id="Path_640" data-name="Path 640" d="M811.688,985.79h58.493a.646.646,0,0,0,0-1.29H811.688a.646.646,0,0,0,0,1.29Z" transform="translate(-811.075 -984.5)" fill="#161616"/>
        </g>
      </g>
      <g id="Group_1142" data-name="Group 1142" transform="translate(110.502 359.677)">
        <g id="Group_1141" data-name="Group 1141">
          <path id="Path_641" data-name="Path 641" d="M445.76,976.736h17.634a.968.968,0,0,0,0-1.935H445.76a.968.968,0,0,0,0,1.935Z" transform="translate(-444.825 -974.8)" fill="#161616"/>
        </g>
      </g>
      <g id="Group_1144" data-name="Group 1144" transform="translate(134.157 359.677)">
        <g id="Group_1143" data-name="Group 1143" transform="translate(0)">
          <path id="Path_642" data-name="Path 642" d="M500.761,976.736h6.021a.968.968,0,0,0,0-1.935h-6.021a.968.968,0,0,0,0,1.935Z" transform="translate(-499.825 -974.8)" fill="#161616"/>
        </g>
      </g>
      <path id="Path_643" data-name="Path 643" d="M559.7,495.8" transform="translate(-399.791 -342.138)" fill="none" stroke="#161616" stroke-miterlimit="10" stroke-width="1"/>
    </g>
    <g id="cat" transform="translate(242.429 422.02)">
      <path id="Path_644" data-name="Path 644" d="M361.4,797.684c.817.129,1.935,1.161,2.8,6.064l7.613.516c2.107-1.763,4.215-3.527,6.322-5.333.3,1.72.688,4.258,1.032,7.355.774,7.183.3,8.9.774,12.9a40.669,40.669,0,0,0,5.806,16.429c3.527,5.548,5.849,5.72,8.6,11.14a30.52,30.52,0,0,1,3.054,10.881c.43-.043,5.892-.473,9.376,3.785,1.591,1.978,3.355,5.677,2.021,8.6-1.29,2.839-4.258,2.409-9.634,7.1-1.892,1.634-3.7,3.269-3.269,4.559.43,1.333,2.753,1.075,6.839,3.269,2.15,1.161,3.183,1.763,3.527,2.8,1.29,3.742-6.881,9.505-8.086,10.365-3.957,2.753-8.774,4.9-9.376,4.043-.9-1.29,8.817-8.387,7.355-11.14-1.075-2.064-7.183.516-8.6-1.763-1.548-2.494,3.914-8.731,6.838-12.129,5.634-6.537,9.2-8.172,8.6-10.365-.645-2.322-5.548-3.871-8.086-2.28-2.151,1.333-1.72,4.344-2.538,6.323-1.548,3.785-8.946,6.881-34.408,4.043a11.436,11.436,0,0,1,7.828-6.064,11.325,11.325,0,0,1,3.054-15.182c-1.72-3.4-3.441-7.1-5.075-11.139-1.032-2.624-1.978-5.161-2.8-7.613a11.06,11.06,0,0,1-7.355-2.28c-3.226-2.838-1.935-6.322-5.29-8.86-3.14-2.408-6.882-1.333-7.527-3.4a2.957,2.957,0,0,1,.946-2.753c1.634-1.548,4.559-.774,7.742.086a35.009,35.009,0,0,1,8.817,3.828,18.445,18.445,0,0,1-3.4-9.892C354.6,804.523,358.9,797.34,361.4,797.684Z" transform="translate(-329.519 -797.672)" fill="#ec615b"/>
      <path id="Path_645" data-name="Path 645" d="M382.19,869.286c-2.968,1.29-1.849,10.021-.774,17.978a142.628,142.628,0,0,0,4.043,19.483c-6.021,4.645-5.72,5.978-5.548,6.322.559,1.161,4.559.473,5.806.258a12.793,12.793,0,0,0,4.3-1.247c3.054-2.021,1.462-8.172.516-17.978-1.376-14.193.258-20.128-4.3-23.526C385.63,870.1,383.652,868.641,382.19,869.286Z" transform="translate(-351.818 -838.393)" fill="#ce645f"/>
      <g id="Group_1146" data-name="Group 1146" transform="translate(0 46.736)">
        <g id="Group_1145" data-name="Group 1145">
          <path id="Path_646" data-name="Path 646" d="M315.637,908.3a7.628,7.628,0,0,0,1.2-.645c-.086-.043-.086.645-.086.817a8.721,8.721,0,0,0-.129,1.849,1.434,1.434,0,0,0,1.677,1.2,2.224,2.224,0,0,0,1.2-.559,7.635,7.635,0,0,1,.731-.6,8.16,8.16,0,0,1,.129,1.075,1.6,1.6,0,0,0,1.677,1.419c.817-.086.817-1.376,0-1.29-.43.043-.559-2.28-1.29-2.538a1.1,1.1,0,0,0-.9.086c-.645.3-1.591,1.677-1.892.473-.215-.9.688-2.194-.129-2.968-.774-.731-2.064.129-2.8.516a.654.654,0,0,0,.6,1.161Z" transform="translate(-314.684 -906.337)" fill="#fff"/>
        </g>
      </g>
      <g id="Group_1148" data-name="Group 1148" transform="translate(29.719 12.68)">
        <g id="Group_1147" data-name="Group 1147">
          <path id="Path_647" data-name="Path 647" d="M384.608,828.507a1.645,1.645,0,0,1,2.495.344c.344.516,1.161.043.817-.473a2.664,2.664,0,0,0-4-.559c-.43.43.258,1.118.688.688Z" transform="translate(-383.783 -827.153)" fill="#fff"/>
        </g>
      </g>
      <g id="Group_1150" data-name="Group 1150" transform="translate(38.923 12.145)">
        <g id="Group_1149" data-name="Group 1149">
          <path id="Path_648" data-name="Path 648" d="M406.008,827.5a2.122,2.122,0,0,1,2.882-.086c.473.43,1.161-.258.688-.688a3.079,3.079,0,0,0-4.258.086c-.43.43.258,1.118.688.688Z" transform="translate(-405.183 -825.911)" fill="#fff"/>
        </g>
      </g>
      <g id="Group_1152" data-name="Group 1152" transform="translate(30.918 18.156)">
        <g id="Group_1151" data-name="Group 1151">
          <path id="Path_649" data-name="Path 649" d="M387.873,840.494c-.473.946-2.495,4.215-.3,4.473a3.092,3.092,0,0,0,2.279-1.333,9.785,9.785,0,0,0,1.548-2.968c.3-.774-.946-1.118-1.247-.344a7.344,7.344,0,0,1-2.021,3.183c-.215.172-.344.473-.258.086a2.193,2.193,0,0,1,.3-.731c.258-.559.516-1.118.817-1.677.344-.817-.774-1.462-1.118-.688Z" transform="translate(-386.57 -839.885)" fill="#ec615b"/>
        </g>
      </g>
      <g id="Group_1154" data-name="Group 1154" transform="translate(31.84 17.381)">
        <g id="Group_1153" data-name="Group 1153">
          <path id="Path_650" data-name="Path 650" d="M390.256,840.156a11.035,11.035,0,0,0,1.505-.946c-.172.043-.344.043-.516.086.043,0,.086.043.129.043-.129-.086-.258-.215-.387-.3,0-.258-.043-.258-.215.043a3.752,3.752,0,0,0-.344.43,8.737,8.737,0,0,0-.559.774c-.387.6-.731,1.2-1.075,1.849-.387.731.731,1.376,1.118.645.387-.688.774-1.419,1.2-2.064.344-.516,1.075-1.075,1.118-1.72a.832.832,0,0,0-.774-.9.944.944,0,0,0-.731.3,5.614,5.614,0,0,1-1.2.731c-.645.215,0,1.333.731,1.032Z" transform="translate(-388.713 -838.084)" fill="#ec615b"/>
        </g>
      </g>
      <g id="Group_1156" data-name="Group 1156" transform="translate(31.608 15.712)">
        <g id="Group_1155" data-name="Group 1155">
          <path id="Path_651" data-name="Path 651" d="M388.659,837.213a3,3,0,0,0,3.011-2.409c.086-.6-.817-.86-.946-.258a2.007,2.007,0,0,1-2.064,1.72c-.645-.043-.645.9,0,.946Z" transform="translate(-388.175 -834.203)" fill="#fff"/>
        </g>
      </g>
      <g id="Group_1158" data-name="Group 1158" transform="translate(34.284 15.56)">
        <g id="Group_1157" data-name="Group 1157">
          <path id="Path_652" data-name="Path 652" d="M394.4,834.3a3.278,3.278,0,0,0,3.441,2.968c.6-.043.6-1.032,0-.989a2.294,2.294,0,0,1-2.495-1.978c-.043-.6-.989-.6-.946,0Z" transform="translate(-394.397 -833.85)" fill="#fff"/>
        </g>
      </g>
    </g>
    <g id="color_chart" transform="translate(491.245 356.959)">
      <path id="Path_653" data-name="Path 653" d="M945.565,646.4q-21.354,25.87-42.665,51.7l66.966,16.645a88.733,88.733,0,0,0-9.376-47.869A85.184,85.184,0,0,0,945.565,646.4Z" transform="translate(-898.728 -646.4)" fill="#5222d0"/>
      <path id="Path_654" data-name="Path 654" d="M893.2,774.7q33.805,8.516,67.654,16.989A49.465,49.465,0,0,1,949.026,820.5Q921.156,797.6,893.2,774.7Z" transform="translate(-893.2 -719.519)" fill="#ec615b"/>
    </g>
    <g id="chart" transform="translate(412.753 334.938)">
      <ellipse id="Ellipse_22" data-name="Ellipse 22" cx="74.965" cy="76.858" rx="74.965" ry="76.858" transform="translate(0.215)" fill="none" stroke="#161616" stroke-miterlimit="10" stroke-width="3"/>
      <g id="Group_1160" data-name="Group 1160" transform="translate(75.02 73.776)">
        <g id="Group_1159" data-name="Group 1159">
          <path id="Path_655" data-name="Path 655" d="M886.233,768.182a.5.5,0,0,1,.688.172c.043-.172.043-.344.086-.516-.043.086-.172.043-.215,0a.616.616,0,0,0-.774.43.65.65,0,0,0,.43.774,1.4,1.4,0,0,0,1.462-.344.977.977,0,0,0-.086-1.419,1.755,1.755,0,0,0-2.452-.086.655.655,0,1,0,.86.989Z" transform="translate(-885.126 -766.735)" fill="#161616"/>
        </g>
      </g>
      <g id="Group_1162" data-name="Group 1162" transform="translate(77.134 16.608)">
        <g id="Group_1161" data-name="Group 1161">
          <path id="Path_656" data-name="Path 656" d="M934.366,634.11A708.09,708.09,0,0,1,890.2,691.786c-.516.645.387,1.548.9.9a707.231,707.231,0,0,0,44.386-57.934c.473-.688-.645-1.333-1.118-.645Z" transform="translate(-890.042 -633.816)" fill="#161616"/>
        </g>
      </g>
      <g id="Group_1164" data-name="Group 1164" transform="translate(76.176 74.784)">
        <g id="Group_1163" data-name="Group 1163">
          <path id="Path_657" data-name="Path 657" d="M888.281,770.335q36.386,6.516,72.256,15.4a.647.647,0,0,0,.344-1.247q-35.87-8.838-72.256-15.4c-.817-.129-1.161,1.118-.344,1.247Z" transform="translate(-887.814 -769.078)" fill="#161616"/>
        </g>
      </g>
      <g id="Group_1166" data-name="Group 1166" transform="translate(76.34 74.746)">
        <g id="Group_1165" data-name="Group 1165">
          <path id="Path_658" data-name="Path 658" d="M888.413,770.07q27.547,25.225,56.772,48.558c.645.516,1.548-.387.9-.9q-29.16-23.29-56.772-48.558c-.6-.559-1.548.344-.9.9Z" transform="translate(-888.197 -768.991)" fill="#161616"/>
        </g>
      </g>
      <path id="Path_659" data-name="Path 659" d="M785.923,595.558c1.591,7.1,2.667,17.2-1.247,27.526-8.9,23.569-34.752,24.73-44.558,43.956-5.333,10.451-6.666,27.741,10.193,57.848v15.182a75.1,75.1,0,0,1-15.784-11.742c-20.085-19.655-23.182-45.332-23.827-55.1.043-7.053,1.032-29.978,17.935-50.45,3.828-4.645,17.419-20.558,40.558-25.677A69.275,69.275,0,0,1,785.923,595.558Z" transform="translate(-710.7 -595.386)" fill="#6d6c6c" opacity="0.21"/>
    </g>
    <g id="leg_r" transform="translate(348.059 307.326)">
      <path id="Path_660" data-name="Path 660" d="M581.713,865.457c2.968,7.484,5.935,14.924,8.86,22.408-1.763,3.871-4.473,9.591-8.215,16.43-4.9,8.946-7.226,11.957-6.451,12.86,1.118,1.29,8.387-1.936,36.6-23.053-1.763-4.9-3.57-9.849-5.333-14.881q-3.871-10.967-7.527-21.72C593.712,860.167,587.734,862.833,581.713,865.457Z" transform="translate(-569.103 -717.074)" fill="#161616"/>
      <path id="Path_661" data-name="Path 661" d="M652.2,548.29c4.774,8.129,1.376,20.73.9,22.408-2.624,9.763-8.559,10.709-30.322,31.311-13.634,12.946-17.548,18.193-20.429,23.956a61.079,61.079,0,0,0-5.892,20.257c1.763,10.322,3.527,20.6,5.29,30.924a74.423,74.423,0,0,1-18.924,8.86,75.983,75.983,0,0,1-15.1,2.968c-3.957-10.021-9.634-28.515-6.581-51.009,3.7-27.4,18.193-45.332,30.236-60.213A182.251,182.251,0,0,1,649.061,531a24.019,24.019,0,0,0,.86,12.774A24.409,24.409,0,0,0,652.2,548.29Z" transform="translate(-560.281 -531)" fill="#ec615b"/>
      <path id="Path_662" data-name="Path 662" d="M668.442,544.1a153.991,153.991,0,0,1-17.677,34.278c-17.419,25.333-30.279,27.4-40.558,50.923a110.686,110.686,0,0,0-8.43,34.58,119.362,119.362,0,0,0,1.075,29.677,36.584,36.584,0,0,0,8.731-1.376,36.11,36.11,0,0,0,13.591-7.355c-.731-3.484-1.807-8.645-3.011-14.967-1.634-8.774-2.452-13.2-2.452-16.344,0-9.247,3.914-16.215,7.1-21.763,1.505-2.623,5.892-9.892,21.247-23.956,16.215-14.838,22.967-17.419,27.225-28.3a34.07,34.07,0,0,0,2.452-13.333C677.345,554.852,670.98,546.939,668.442,544.1Z" transform="translate(-583.663 -538.466)" fill="#6d6c6c" opacity="0.2"/>
      <path id="Path_663" data-name="Path 663" d="M685.829,603.6c-8.817,7.4-21.419,18.451-35.913,32.644-21.032,20.645-24.773,26.666-26.408,29.676-4.559,8.387-12.387,27.483-4.645,59.353,2.537-1.032,5.161-2.193,7.914-3.527,2.194-1.075,4.3-2.193,6.279-3.269q-2.58-15.1-5.161-30.236a46.43,46.43,0,0,1,3.269-15.784,52.7,52.7,0,0,1,6.8-11.7c3.527-4.817,6.925-8.086,13.591-14.408,5.333-5.075,10.494-10.408,16.042-15.225,9.978-8.645,14.451-11.01,16.86-17.677A24.81,24.81,0,0,0,685.829,603.6Z" transform="translate(-591.802 -572.375)" fill="#6d6c6c" opacity="0.27"/>
    </g>
    <g id="leg_l" transform="translate(381.184 312.892)">
      <path id="Path_664" data-name="Path 664" d="M699.7,855.677l19.612,15.1c-8.688,22.021-8.688,27.741-6.924,28.73,2.925,1.677,12.516-8.688,17.978-16.3a75.276,75.276,0,0,0,9.333-17.72c-2.667-3.4-5.72-6.925-9.118-10.537A168.438,168.438,0,0,0,716.947,842C711.227,846.6,705.463,851.118,699.7,855.677Z" transform="translate(-672.862 -713.807)" fill="#161616"/>
      <path id="Path_665" data-name="Path 665" d="M735.117,555.665c3.828,10.15,1.505,19.956.9,22.408-4.387,18.236-20.688,33.289-26.451,38.536-9.849,9.032-18.021,13.548-22.58,25.591a40.4,40.4,0,0,0-2.495,10.279q4.71,10.774,9.419,21.5a46.346,46.346,0,0,1-15.7,18.838,44.586,44.586,0,0,1-10.752,5.376c-6.537-6.666-24.257-26.451-23.311-52.9.731-20.3,12.215-36.644,21.075-49.332,8.9-12.688,11.182-11.139,22.408-27.354,9.72-14.064,11.57-20.473,19.741-23.311,8.215-2.882,20.257-1.29,25.548,5.849A19.973,19.973,0,0,1,735.117,555.665Z" transform="translate(-641.184 -543.942)" fill="#ec615b"/>
      <path id="Path_666" data-name="Path 666" d="M637.3,615.8" transform="translate(-637.3 -584.894)" fill="#ec615b"/>
      <path id="Path_667" data-name="Path 667" d="M742.255,565.1a51.45,51.45,0,0,1-1.161,18.58c-6.881,26.623-32.085,28.945-44.214,57.762-2.366,5.634-7.871,19.268-3.527,35.053,3.355,12.3,11.182,20.3,15.612,24.171a22.088,22.088,0,0,0,7.054-5.892,22.518,22.518,0,0,0,4.43-10.021C717.4,677.4,714.342,670,711.331,662.65a42.383,42.383,0,0,1,4.43-12.989c3.7-6.968,8.172-10.494,13.935-15.7,10.58-9.505,17.333-15.526,23.182-23.827,3.7-5.29,9.075-13.075,10.839-24.472A50.749,50.749,0,0,0,762.3,563.9C755.63,564.33,748.921,564.717,742.255,565.1Z" transform="translate(-668.321 -555.316)" fill="#6d6c6c" opacity="0.24"/>
      <path id="Path_668" data-name="Path 668" d="M780.492,598.8a149.039,149.039,0,0,1-18.279,26.365c-17.376,20-29.16,24.171-37.246,39.569-3.484,6.623-6.666,17.548-2.753,35.1,4.946,1.978,9.935,3.957,14.881,5.978-3.14-7.4-6.236-14.752-9.376-22.15a36.746,36.746,0,0,1,4.258-14.666c2.71-4.989,5.72-7.613,12.344-13.634,10.967-9.978,16.473-14.967,18.709-17.462,5.118-5.634,10.709-11.957,14.236-21.72A52.619,52.619,0,0,0,780.492,598.8Z" transform="translate(-684.667 -575.206)" fill="#6d6c6c" opacity="0.25"/>
    </g>
    <g id="hand_r" transform="translate(348.279 238.209)">
      <path id="Path_669" data-name="Path 669" d="M591.263,410.511a29.347,29.347,0,0,0-6.882-9.72c-4.645-4.258-11.139-7.312-12.172-6.064-.43.516-.387,2.323,7.441,10.967" transform="translate(-567.217 -384.06)" fill="#fff" stroke="#161616" stroke-miterlimit="10" stroke-width="2"/>
      <path id="Path_670" data-name="Path 670" d="M569.4,415.4a15.474,15.474,0,0,0-6.236,7.011,8.543,8.543,0,0,0-.817,5.548c.989,3.785,5.548,5.376,5.935,5.548,1.849.645,2.322.172,3.656.946,2.15,1.247,2.064,2.925,3.656,4.473,3.269,3.14,9.892,1.892,10.193.559.172-.731-1.72-1.419-1.548-2.753.086-.817.9-1.161,1.462-1.677,3.011-2.753.129-10.8-.387-12.129a26.75,26.75,0,0,0-2.495-5.075" transform="translate(-561.567 -396.002)" fill="#fff" stroke="#161616" stroke-miterlimit="10" stroke-width="2"/>
      <g id="Group_1168" data-name="Group 1168" transform="translate(0 30.604)">
        <g id="Group_1167" data-name="Group 1167">
          <path id="Path_671" data-name="Path 671" d="M560.838,442.25a10.05,10.05,0,0,0,5.505,5.892c2.667,1.075,4.645-.344,4.688-3.183a.646.646,0,0,0-1.29,0c-.043,3.312-3.312,2.108-4.946.774a8.688,8.688,0,0,1-2.71-3.828c-.3-.774-1.548-.473-1.247.344Z" transform="translate(-560.792 -441.457)" fill="#161616"/>
        </g>
      </g>
      <g id="Group_1170" data-name="Group 1170" transform="translate(3.192 26.904)">
        <g id="Group_1169" data-name="Group 1169">
          <path id="Path_672" data-name="Path 672" d="M568.294,433.819c1.29,2.408,3.011,5.075,5.677,6.064,2.409.9,3.828-.559,4.086-2.839.086-.817-1.2-.817-1.29,0-.387,3.4-3.7,1.032-4.86-.172a15.526,15.526,0,0,1-2.495-3.7c-.387-.731-1.505-.086-1.118.645Z" transform="translate(-568.213 -432.852)" fill="#161616"/>
        </g>
      </g>
      <g id="Group_1172" data-name="Group 1172" transform="translate(7.078 21.07)">
        <g id="Group_1171" data-name="Group 1171">
          <path id="Path_673" data-name="Path 673" d="M577.314,420.282a31.047,31.047,0,0,0,2.624,5.032c.731,1.075,1.763,2.624,3.183,2.882,3.355.645,2.28-4.129,1.634-5.763-.3-.774-1.548-.43-1.247.344.3.731.946,2.236.688,3.054-.731,2.366-2.71-.559-3.14-1.161a31.043,31.043,0,0,1-2.623-5.032c-.344-.774-1.462-.129-1.118.645Z" transform="translate(-577.249 -419.287)" fill="#161616"/>
        </g>
      </g>
      <g id="Group_1174" data-name="Group 1174" transform="translate(6.821 18.63)">
        <g id="Group_1173" data-name="Group 1173">
          <path id="Path_674" data-name="Path 674" d="M577.619,415.114c1.29-.645,2.882.516,3.785,1.376a9.07,9.07,0,0,1,1.978,3.1c.3.774,1.548.43,1.247-.344-1.075-2.667-4.258-6.924-7.656-5.247-.731.344-.086,1.462.645,1.118Z" transform="translate(-576.652 -413.616)" fill="#161616"/>
        </g>
      </g>
      <path id="Path_675" data-name="Path 675" d="M680.92,377.224c1.376,4.086-.731,7.57-6.623,18.064C664.4,412.75,663.8,414.3,661.523,417.051c-5.376,6.451-8.43,10.107-14.064,12.473-10.279,4.3-21.677.516-27.913-1.849a51.437,51.437,0,0,1-12.9-7.269c-1.892-1.548-3.355-2.753-4.3-3.484-1.978-1.591-2.882-2.28-3.656-3.656a8.124,8.124,0,0,1-.946-2.882c-.645-4.6,3.914-8.473,4.258-8.774-5.462,1.29-7.355,1.032-7.7.258-.817-1.72,5.118-8.043,9.29-6.623,1.978.645,2.968,2.882,3.7,4.516a13.839,13.839,0,0,1,1.075,7.441,39.576,39.576,0,0,0,11.139,5.333,40.694,40.694,0,0,0,21.5.258c2.193-3.527,5.763-9.29,10.107-16.473,11.871-19.7,15.01-25.935,20.472-26.021C675.673,370.256,679.716,373.654,680.92,377.224Z" transform="translate(-579.844 -370.299)" fill="#fff" stroke="#161616" stroke-miterlimit="10" stroke-width="2"/>
      <g id="Group_1176" data-name="Group 1176" transform="translate(17.074 32.425)">
        <g id="Group_1175" data-name="Group 1175">
          <path id="Path_676" data-name="Path 676" d="M605.182,445.694c-3.7-.172-4.215,4.6-4.688,7.312.43.043.86.129,1.247.172a9.9,9.9,0,0,1,1.634-4.6.646.646,0,0,0-1.118-.645c-1.677,2.71-2.71,6.064-.387,8.731l.9-.9a2.963,2.963,0,0,1-1.032-2.194c-.43.043-.86.129-1.247.172a11.276,11.276,0,0,0,.817,1.978c.387.731,1.505.086,1.118-.645a5.748,5.748,0,0,1-.688-1.677c-.172-.688-1.333-.559-1.247.172a4.725,4.725,0,0,0,1.419,3.1c.6.6,1.462-.3.9-.9-1.892-2.194-.688-4.989.6-7.183-.387-.215-.731-.43-1.118-.645a10.961,10.961,0,0,0-1.806,5.247c-.043.731,1.161.9,1.247.172.344-1.978.645-6.451,3.441-6.365.817.043.817-1.247,0-1.29Z" transform="translate(-600.489 -445.69)" fill="#fff"/>
        </g>
      </g>
      <path id="Path_677" data-name="Path 677" d="M655.837,374.4a185.1,185.1,0,0,1-14.021,29.375c-7.054,12-10.752,18.021-17.118,21.2-13.075,6.494-33.246,2.107-40.042-10.322a21.8,21.8,0,0,1-2.538-10.494,9.781,9.781,0,0,1-6.624.215c-5.505-2.194-6.021-10.408-8.946-10.322-1.935.086-3.355,3.742-3.871,5.075a8.946,8.946,0,0,0-.774,5.247c.688,3.054,3.914,5.462,7.957,6.236a13.889,13.889,0,0,1,4.258,3.1c1.419,1.548,1.806,2.753,3.312,3.484a6.062,6.062,0,0,0,3.7.387,88.522,88.522,0,0,0,9.333,6.623c8.86,5.419,19.569,11.957,31.7,9.72a30.893,30.893,0,0,0,12.043-5.247c3.914-2.624,8.129-6.58,16.128-20.989a236.476,236.476,0,0,0,11.484-23.741,7.092,7.092,0,0,0-.215-5.634A7.245,7.245,0,0,0,655.837,374.4Z" transform="translate(-561.342 -372.636)" fill="#6d6c6c" opacity="0.21"/>
      <path id="Path_678" data-name="Path 678" d="M585.143,443.681c-.6.43-.344,1.29-1.075,1.935a2.473,2.473,0,0,1-1.634.43,3.576,3.576,0,0,1-.559,2.064c-.6.86-1.419,1.032-1.376,1.376.086.387,1.29.172,2.452.817a4.457,4.457,0,0,1,1.634,1.763c2.839-2.71,5.677-5.376,8.516-8.086a7.926,7.926,0,0,1-4.817.43C586.906,443.982,585.874,443.165,585.143,443.681Z" transform="translate(-572.021 -412.025)" fill="#6d6c6c" opacity="0.22"/>
    </g>
    <g id="torso" transform="translate(425.355 224.963)">
      <path id="Path_679" data-name="Path 679" d="M763.655,351.242c-2.882,2.882-4.387,6.15-7.312,12.688A79.846,79.846,0,0,0,749.032,389c-1.376,12.731,1.849,15.612-.731,25.074a40.551,40.551,0,0,1-8.3,15.569,51.269,51.269,0,0,0,19.225,12.172,52.794,52.794,0,0,0,34.58-.258c3.828-10.322,7.613-20.645,11.44-30.924.043-8.731.387-16.171.731-21.935.86-13.763,2.279-24.3,3.183-30.709,1.032-7.527,2.108-13.849,2.925-18.494a189.65,189.65,0,0,0-23.4,2.667C769.935,345.607,765.5,349.392,763.655,351.242Z" transform="translate(-740 -339.5)" fill="#fff" stroke="#161616" stroke-miterlimit="10" stroke-width="2"/>
      <path id="Path_680" data-name="Path 680" d="M807.708,342.81a65.528,65.528,0,0,1,4.989,21.376c1.333,22.193-9.376,39.569-17.5,52.73A144.989,144.989,0,0,1,777.3,440.183a45.147,45.147,0,0,0,13.849,4.6A46.237,46.237,0,0,0,814.8,442.29c3.613-10.408,7.183-20.774,10.8-31.182.215-7.1.6-14.451,1.161-21.935,1.29-17.462,3.4-33.848,5.978-49.074Z" transform="translate(-761.258 -339.842)" fill="#6d6c6c" opacity="0.19"/>
      <path id="Path_681" data-name="Path 681" d="M822.587,341.761a81.373,81.373,0,0,1,5.591,33.676c-2.064,39.009-32.945,62.622-38.278,66.579a48.085,48.085,0,0,0,13.075,2.71,47.566,47.566,0,0,0,18.494-2.494c3.957-10.408,7.957-20.774,11.914-31.182,0-9.505.344-19.655,1.161-30.408a384.037,384.037,0,0,1,5.2-40.042Z" transform="translate(-768.438 -340.127)" fill="#6d6c6c" opacity="0.11"/>
    </g>
    <g id="hand_l" transform="translate(490.399 224.404)">
      <path id="Path_682" data-name="Path 682" d="M896.681,338.2a26.388,26.388,0,0,1,12.3,8.817c4.129,5.634,5.032,12.43,2.667,33.977-2.193,20.042-4.086,24.343-4.817,36.386a137.044,137.044,0,0,0,1.591,31.01l14.709-3.484a22.276,22.276,0,0,1,10.15,5.634c1.591,1.548,4.946,4.817,4,7.484-.6,1.72-2.8,2.581-3.742,2.925a10.489,10.489,0,0,1-5.075.516c-3.57-.215-7.139-.344-10.709-.516a76.092,76.092,0,0,0-7.742,0c4.344,3.742,6.193,6.15,5.634,7.226-.774,1.419-5.935.43-15.526-2.925-.43-3.484-1.118-8.774-2.15-15.225-2.667-16.86-4.6-22.881-5.892-31.827-1.333-9.247-.9-17.591,0-34.236C892.767,372.177,894.014,356.608,896.681,338.2Z" transform="translate(-891.232 -338.2)" fill="#fff" stroke="#161616" stroke-miterlimit="10" stroke-width="2"/>
      <g id="Group_1178" data-name="Group 1178" transform="translate(24.645 115.043)">
        <g id="Group_1177" data-name="Group 1177">
          <path id="Path_683" data-name="Path 683" d="M949.293,607.668c3.312-1.376,6.752-.6,9.935.817a24.041,24.041,0,0,1,7.484,4.645c.6.559,1.505-.344.9-.9a26.1,26.1,0,0,0-8.645-5.2c-3.226-1.333-6.709-1.935-10.064-.559-.688.258-.344,1.505.387,1.2Z" transform="translate(-948.533 -605.682)" fill="#161616"/>
        </g>
      </g>
      <g id="Group_1180" data-name="Group 1180" transform="translate(28.808 111.618)">
        <g id="Group_1179" data-name="Group 1179">
          <path id="Path_684" data-name="Path 684" d="M959.025,599.174c5.72-1.118,12.516,2.28,15.656,7.14.473.688,1.591.043,1.118-.645-3.527-5.376-10.752-8.946-17.118-7.7-.817.129-.473,1.376.344,1.2Z" transform="translate(-958.214 -597.721)" fill="#161616"/>
        </g>
      </g>
      <g id="Group_1182" data-name="Group 1182" transform="translate(33.953 108.813)">
        <g id="Group_1181" data-name="Group 1181">
          <path id="Path_685" data-name="Path 685" d="M970.788,592.489a14.234,14.234,0,0,1,6.236,2.15c.731.387,1.376-.731.645-1.118a15.978,15.978,0,0,0-6.881-2.323c-.817-.043-.817,1.247,0,1.29Z" transform="translate(-970.175 -591.198)" fill="#161616"/>
        </g>
      </g>
      <path id="Path_686" data-name="Path 686" d="M905.3,340.6a90.1,90.1,0,0,1,6.752,22.924c3.742,24.859-5.462,37.805-3.828,64.686a113.167,113.167,0,0,0,5.591,28.687,35.54,35.54,0,0,1,14.838-1.548c4.344.516,6.495.774,8.645,2.323s3.4,3.613,5.591,3.484a3.01,3.01,0,0,0,2.495-1.333c1.161-2.108-2.021-5.72-3.1-6.924a22.161,22.161,0,0,0-10.58-6.537l-15.225,3.1a100.8,100.8,0,0,1-2.495-20.774c-.129-7.742,1.247-17.118,4.043-35.612.516-3.441,1.161-10.365,2.495-24.257.43-4.559.774-8.645-.774-13.677-.774-2.538-2.667-8.3-8.258-11.914A17.175,17.175,0,0,0,905.3,340.6Z" transform="translate(-899.25 -339.568)" fill="#6d6c6c" opacity="0.16"/>
      <path id="Path_687" data-name="Path 687" d="M927.2,623a13.216,13.216,0,0,0,4.215,5.591c1.505,1.118,4.129,2.495,4.6,1.935.6-.688-1.677-4.473-5.2-6.365A10.516,10.516,0,0,0,927.2,623Z" transform="translate(-911.73 -500.509)" fill="#6d6c6c" opacity="0.22"/>
      <path id="Path_688" data-name="Path 688" d="M928.422,422.9a122.33,122.33,0,0,0-7.312,49.289,120.913,120.913,0,0,0,4.989,27.7A96.465,96.465,0,0,1,923,479.5c-.516-12.86,1.806-20.085,4.215-43.7C927.82,430.341,928.207,425.825,928.422,422.9Z" transform="translate(-908.136 -386.471)" fill="#6d6c6c" opacity="0.4"/>
      <path id="Path_689" data-name="Path 689" d="M958.6,596.413c-.086-.516,4.215-2.495,8.473-1.548,5.72,1.29,8.387,7.312,8.86,8.473a19.563,19.563,0,0,0-10.021-6.365C961.91,596.069,958.641,596.844,958.6,596.413Z" transform="translate(-929.624 -484.331)" fill="#6d6c6c" opacity="0.22"/>
    </g>
    <g id="head" transform="translate(405.079 158.792)">
      <path id="Path_690" data-name="Path 690" d="M753.426,314.639c-1.806,1.677-2.193,5.2-2.925,12.129-.817,7.957-1.161,12,.516,14.021,3.054,3.7,9.634,3.914,14.193,1.892,5.376-2.408,7.226-7.613,7.7-8.9,2.107-5.978,1.419-15.01-4.946-19.139C763.662,311.8,757,311.328,753.426,314.639Z" transform="translate(-725.323 -257.845)" fill="#5222d0"/>
      <path id="Path_691" data-name="Path 691" d="M779.657,313.718c.645,3.1,4.086,3.355,7.01,8.3a19.781,19.781,0,0,1,2.581,9.849,28.629,28.629,0,0,0,21.161-9.978c-1.075-1.763-2.667-4.344-4.559-7.441-8.172-13.118-9.376-14.15-11.01-14.58C788.215,298.278,778.409,307.955,779.657,313.718Z" transform="translate(-742.263 -250.644)" fill="#fff" stroke="#161616" stroke-miterlimit="10" stroke-width="2"/>
      <g id="Group_1184" data-name="Group 1184" transform="translate(42.914 57.55)">
        <g id="Group_1183" data-name="Group 1183">
          <path id="Path_692" data-name="Path 692" d="M800.491,319.776a71.914,71.914,0,0,1-6.753,12.043l1.032-.129c-.258-.3-.516-.645-.731-.946a4.744,4.744,0,0,0-.086.774,13.2,13.2,0,0,0,2.753-3.226c-.387-.215-.731-.43-1.118-.645a4.9,4.9,0,0,1-2.624,2.624l.774,1.032a48.922,48.922,0,0,0,6.064-6.924c.473-.688-.645-1.333-1.118-.645a45.417,45.417,0,0,1-5.849,6.666c-.559.516.172,1.29.774,1.032a6.045,6.045,0,0,0,3.1-3.1.646.646,0,0,0-1.118-.645,15.192,15.192,0,0,1-2.538,2.968.592.592,0,0,0-.086.774,5.087,5.087,0,0,0,.946,1.2.68.68,0,0,0,1.032-.129,70.253,70.253,0,0,0,6.753-12.043c.258-.774-.86-1.419-1.2-.688Z" transform="translate(-792.636 -319.455)" fill="#161616"/>
        </g>
      </g>
      <path id="Path_693" data-name="Path 693" d="M712.176,231.651c-1.979,3.656-1.505,7.355-.559,14.58,1.118,8.172,2.58,15.01,4.344,19.526a1.563,1.563,0,0,0,1.677.989,18.452,18.452,0,0,0,3.183-1.075,25.181,25.181,0,0,0,5.419,6.666,25.626,25.626,0,0,0,13.677,5.935,26.156,26.156,0,0,0,12.989-10.451,24.66,24.66,0,0,0,3.441-9.548,23.191,23.191,0,0,0-2.322-12.989,9.106,9.106,0,0,0,3.226-3.226c1.978-3.484,1.892-9.247-1.247-10.8-2.365-1.161-6.107.129-8.645,3.441a24.773,24.773,0,0,0-3.957-5.2,26.686,26.686,0,0,0-7.914-5.591C727.745,220.856,716.219,224.21,712.176,231.651Z" transform="translate(-703.083 -206.812)" fill="#fff" stroke="#161616" stroke-miterlimit="10" stroke-width="2"/>
      <g id="Group_1186" data-name="Group 1186" transform="translate(19.636 56.156)">
        <g id="Group_1185" data-name="Group 1185">
          <path id="Path_694" data-name="Path 694" d="M739.325,322.876c2.968-.774,4.688-3.269,6.193-5.72.43-.688-.688-1.333-1.118-.645-1.333,2.15-2.839,4.43-5.419,5.161-.817.172-.473,1.419.344,1.2Z" transform="translate(-738.514 -316.216)" fill="#161616"/>
        </g>
      </g>
      <g id="Group_1188" data-name="Group 1188" transform="translate(23.716 55.719)">
        <g id="Group_1187" data-name="Group 1187">
          <path id="Path_695" data-name="Path 695" d="M748.645,316.49a2.853,2.853,0,0,1,2.107,1.032c.559.645,1.462-.3.9-.9a4.093,4.093,0,0,0-3.011-1.419.645.645,0,0,0,0,1.29Z" transform="translate(-748 -315.2)" fill="#161616"/>
        </g>
      </g>
      <g id="Group_1190" data-name="Group 1190" transform="translate(19.802 49.139)">
        <g id="Group_1189" data-name="Group 1189">
          <path id="Path_696" data-name="Path 696" d="M740.19,300.674v-.129a.645.645,0,1,0-1.29,0v.129a.661.661,0,0,0,.645.645.693.693,0,0,0,.645-.645Z" transform="translate(-738.9 -299.9)" fill="#161616"/>
        </g>
      </g>
      <g id="Group_1192" data-name="Group 1192" transform="translate(23.361 45.182)">
        <g id="Group_1191" data-name="Group 1191">
          <path id="Path_697" data-name="Path 697" d="M747.788,291.99a.646.646,0,0,0,0-1.29.646.646,0,0,0,0,1.29Z" transform="translate(-747.175 -290.7)" fill="#161616"/>
        </g>
      </g>
      <g id="Group_1194" data-name="Group 1194" transform="translate(22.974 48.451)">
        <g id="Group_1193" data-name="Group 1193">
          <path id="Path_698" data-name="Path 698" d="M746.888,299.59a.646.646,0,0,0,0-1.29.646.646,0,0,0,0,1.29Z" transform="translate(-746.275 -298.3)" fill="#161616"/>
        </g>
      </g>
      <path id="Path_699" data-name="Path 699" d="M700.1,225.153a11.025,11.025,0,0,1-5.978-4.6c-2.624-4.473-.516-9.677.516-12.129.559-1.376,2.107-4.774,9.591-11.44,5.677-5.118,8.559-7.656,11.784-9.075,11.526-5.032,23.311-.215,25.462.688,3.183,1.29,5.505,2.882,10.107,5.978,5.591,3.785,9.161,6.236,11.957,10.451,3.4,5.161,1.333,6.494,4.258,12.3,4.645,9.2,11.053,8.086,14.881,16.6.645,1.419,4.215,9.333.172,16.258-3.312,5.634-10.064,7.656-15.053,7.527-9.247-.258-15.053-8.172-18.107-12.3a38.405,38.405,0,0,1-7.182-20.688c3.656-1.849,5.075-5.806,3.742-8.559-1.032-2.193-4.043-4.043-6.666-2.925a5.354,5.354,0,0,0-2.925,5.118,19.2,19.2,0,0,1-19.655-8.9,31.628,31.628,0,0,0-10.107,6.322A30.7,30.7,0,0,0,700.1,225.153Z" transform="translate(-692.858 -185.648)" fill="#5222d0"/>
      <path id="Path_700" data-name="Path 700" d="M760.31,259.706a34.328,34.328,0,0,1,7.828,11.1,33.307,33.307,0,0,1,2.538,16.43c1.548-2.624,3.054-5.247,4.6-7.914,2.495,5.591,4.946,11.182,7.441,16.731a14.681,14.681,0,0,0,6.494-3.312,13.954,13.954,0,0,0,3.484-4.731,42.981,42.981,0,0,1-14.838-18.494,41.981,41.981,0,0,1-3.011-12.645c3.484-1.892,4.946-5.677,3.785-8.516-.817-2.064-3.355-4.387-6.15-3.613a5.357,5.357,0,0,0-3.613,6.021A20.5,20.5,0,0,1,749.3,241.9c1.161,7.613,4.086,11.742,6.537,14.107C757.386,257.6,758.031,257.6,760.31,259.706Z" transform="translate(-725.025 -217.706)" fill="#6d6c6c" opacity="0.24"/>
      <path id="Path_701" data-name="Path 701" d="M803.657,288.1c-.3,0-.129,4.43-.559,8.516a38.974,38.974,0,0,1-3.4,12.215,15.409,15.409,0,0,0,7.054-12,18.282,18.282,0,0,1-1.376-2.538C803.872,290.853,803.915,288.1,803.657,288.1Z" transform="translate(-753.748 -244.036)" fill="#6d6c6c" opacity="0.24"/>
      <path id="Path_702" data-name="Path 702" d="M812.4,316.065a49.839,49.839,0,0,0,4.387,4.043c5.72,4.774,11.269,7.484,11.441,7.183s-5.247-2.495-9.376-8.43c-2.581-3.7-4.086-8.086-4.731-7.871-.3.086-.043,1.118-.559,2.8A10.048,10.048,0,0,1,812.4,316.065Z" transform="translate(-760.986 -257.077)" fill="#6d6c6c" opacity="0.19"/>
      <path id="Path_703" data-name="Path 703" d="M823.5,202.7a212.265,212.265,0,0,1,11.139,22.107c6.839,15.956,6.279,20.343,5.333,23.182-2.107,6.408-7.957,10.021-11.44,11.742a18.281,18.281,0,0,0,10.967,7.312c1.247.258,8.774,1.677,14.494-3.527a16.023,16.023,0,0,0,5.032-10.236c.774-7.226-3.527-12.645-4.9-14.193-1.806-2.021-2.193-1.548-6.408-5.634-3.269-3.14-4.86-4.731-5.806-6.71-1.505-3.226-.516-4.6-2.28-8.688a24.523,24.523,0,0,0-2.882-4.9C832.575,207.517,826.554,204.205,823.5,202.7Z" transform="translate(-767.312 -195.366)" fill="#2c167c" opacity="0.74"/>
      <path id="Path_704" data-name="Path 704" d="M750.852,348.521a8.486,8.486,0,1,0,16.817-2.021,16.469,16.469,0,0,1,2.925,4.86,15.67,15.67,0,0,1,1.032,4.516c-.645,1.075-4,6.408-10.279,7.441-1.075.172-7.182,1.075-10.064-2.581a9.878,9.878,0,0,1-1.591-5.763A16.093,16.093,0,0,1,750.852,348.521Z" transform="translate(-725.243 -277.319)" fill="#2c167c" opacity="0.52"/>
      <path id="Path_705" data-name="Path 705" d="M730.524,283.442c.43.86.43,2.107-.129,2.366-.559.3-1.634-.516-2.021-1.462-.3-.817-.215-1.978.344-2.193C729.32,281.937,730.18,282.711,730.524,283.442Z" transform="translate(-713.001 -240.625)" fill="#161616"/>
      <g id="Group_1196" data-name="Group 1196" transform="translate(13.395 39.714)">
        <g id="Group_1195" data-name="Group 1195">
          <path id="Path_706" data-name="Path 706" d="M724.6,280.1a28.229,28.229,0,0,1,4.645-1.161c.6-.086.344-1.032-.258-.946a28.224,28.224,0,0,0-4.645,1.161.491.491,0,0,0,.258.946Z" transform="translate(-724.003 -277.987)" fill="#161616"/>
        </g>
      </g>
    </g>
  </g>
</svg>
