<svg xmlns="http://www.w3.org/2000/svg" width="664" height="544.8" viewBox="0 0 664 544.8">
  <g id="pixeltrue-welcome-1" transform="translate(-145.508 -59.4)">
    <g id="background" transform="translate(145.508 59.4)">
      <g id="details" transform="translate(0 0)">
        <circle id="Ellipse_9" data-name="Ellipse 9" cx="8.44" cy="8.44" r="8.44" transform="translate(451.079 106.454)" fill="#ec615b"/>
        <circle id="Ellipse_10" data-name="Ellipse 10" cx="3.935" cy="3.935" r="3.935" transform="translate(464.541 92.06)" fill="#ec615b"/>
        <circle id="Ellipse_11" data-name="Ellipse 11" cx="4.039" cy="4.039" r="4.039" transform="translate(206.432 40.645)" fill="#ec615b"/>
        <circle id="Ellipse_12" data-name="Ellipse 12" cx="6.835" cy="6.835" r="6.835" transform="translate(467.907 507.728)" fill="#ec615b"/>
        <circle id="Ellipse_13" data-name="Ellipse 13" cx="3.158" cy="3.158" r="3.158" transform="translate(160.557 538.483)" fill="#ec615b"/>
        <circle id="Ellipse_14" data-name="Ellipse 14" cx="3.262" cy="3.262" r="3.262" transform="translate(199.908 304.968)" fill="#ec615b"/>
        <circle id="Ellipse_15" data-name="Ellipse 15" cx="3.158" cy="3.158" r="3.158" transform="translate(206.432 321.796)" fill="#5222d0"/>
        <circle id="Ellipse_16" data-name="Ellipse 16" cx="5.903" cy="5.903" r="5.903" transform="translate(199.908 404.328)" fill="#5222d0"/>
        <circle id="Ellipse_17" data-name="Ellipse 17" cx="3.728" cy="3.728" r="3.728" transform="translate(451.079 73.213)" fill="#5222d0"/>
        <circle id="Ellipse_18" data-name="Ellipse 18" cx="3.262" cy="3.262" r="3.262" transform="translate(309.727 80.669)" fill="#5222d0"/>
        <circle id="Ellipse_19" data-name="Ellipse 19" cx="2.485" cy="2.485" r="2.485" transform="translate(19.671 337.38)" fill="#5222d0"/>
        <circle id="Ellipse_20" data-name="Ellipse 20" cx="6.213" cy="6.213" r="6.213" transform="translate(459.881 526.057)" fill="#5222d0"/>
        <circle id="Ellipse_21" data-name="Ellipse 21" cx="3.262" cy="3.262" r="3.262" transform="translate(529.366)" fill="#5222d0"/>
        <g id="Group_636" data-name="Group 636" transform="translate(213.792 123.13)">
          <g id="Group_635" data-name="Group 635">
            <path id="Path_362" data-name="Path 362" d="M560.323,323.972c-.518-3.21-.984-9.631,4.142-9.113,1.864.207,2.9,1.864,4.97,1.139,3.883-1.346,3-6.369,4.608-9.268,2.641-4.66,7.767,2.123,11.7-.1a3.484,3.484,0,0,0,1.553-3.469c-.1-5.23,4.5-4.867,8.284-3.832a.779.779,0,0,0,.414-1.5c-3.831-1.035-10.2-1.4-10.355,4.142-.052,1.346.673,2.692-1.294,3.521a4.073,4.073,0,0,1-2.227-.207c-1.346-.414-2.537-1.346-3.935-1.709a4.43,4.43,0,0,0-4.815,1.294c-1.553,1.864-1.5,4.4-2.226,6.576-.777,2.33-2.278,3.676-4.815,2.537a5.587,5.587,0,0,0-3.158-.725c-5.333.725-5.074,7.2-4.4,11.132.207.984,1.709.57,1.553-.414Z" transform="translate(-558.415 -297.207)" fill="#5222d0"/>
          </g>
        </g>
        <g id="Group_638" data-name="Group 638" transform="translate(220.245 129.953)">
          <g id="Group_637" data-name="Group 637">
            <path id="Path_363" data-name="Path 363" d="M572.443,333.33c.414-3.21,3-4.608,6.006-4.608,1.605,0,3.21.259,4.764-.311,3.521-1.346,2.848-5.178,3.676-8.181,1.553-5.7,8.75-2.175,12.737-3.107,2.692-.673,4.971-3.366,3.831-6.213-.362-.932-1.864-.518-1.5.414,1.76,4.3-4.246,4.556-6.783,4.246a15.33,15.33,0,0,0-5.54-.052c-2.951.777-4.09,2.951-4.5,5.747-.362,2.589-.311,5.437-3.676,5.851-1.812.207-3.625-.311-5.437.1a6.79,6.79,0,0,0-5.126,6.006c-.155,1.087,1.4,1.087,1.553.1Z" transform="translate(-570.879 -310.385)" fill="#5222d0"/>
          </g>
        </g>
        <g id="Group_640" data-name="Group 640" transform="translate(325.713 25.472)">
          <g id="Group_639" data-name="Group 639">
            <path id="Path_364" data-name="Path 364" d="M777.642,108.857c-1.812,2.278-3.728,5.074-2.848,8.129.725,2.485,2.692,3.417,5.074,3.262,1.4-.1,2.848-.466,3.987.777.88.932.311,2.9.052,3.935-.414,1.605-1.191,3.158-1.036,4.867.259,2.33,2.123,4.142,4.5,3.624.984-.207.569-1.709-.414-1.5-4.5,1.036-1.4-6.472-1.191-8.284a5.056,5.056,0,0,0-1.243-4.246c-1.139-1.087-2.537-.984-3.987-.828-2.278.259-4.4-.466-4.5-3.21-.052-2.071,1.4-3.935,2.641-5.488.725-.673-.414-1.812-1.036-1.036Z" transform="translate(-774.573 -108.596)" fill="#5222d0"/>
          </g>
        </g>
        <g id="Group_642" data-name="Group 642" transform="translate(337.498 24.893)">
          <g id="Group_641" data-name="Group 641">
            <path id="Path_365" data-name="Path 365" d="M800.838,107.541a5.271,5.271,0,0,0-1.294,9.268c1.243.932,2.692.725,3.935,1.5,2.33,1.4.466,4.142.57,6.317a3.292,3.292,0,0,0,1.243,2.744,2.51,2.51,0,0,0,4.039-1.036c.311-.932-1.191-1.346-1.5-.414-1.968-.259-2.641-1.139-2.071-2.641l.311-1.553a7.9,7.9,0,0,0,.155-1.553,4.053,4.053,0,0,0-1.139-3c-1.243-1.139-3.158-.673-4.5-1.605-2.744-1.916-1.76-5.54,1.036-6.731.932-.362.1-1.657-.777-1.294Z" transform="translate(-797.335 -107.478)" fill="#5222d0"/>
          </g>
        </g>
        <g id="Group_644" data-name="Group 644" transform="translate(0 301.195)">
          <g id="Group_643" data-name="Group 643">
            <path id="Path_366" data-name="Path 366" d="M147.937,670.93a5.583,5.583,0,0,1,0-6.058c1.191-1.864,2.848-1.916,4.764-2.641,2.641-1.087,2.692-3.832,2.537-6.317a7.874,7.874,0,0,1,.155-2.692c.673-2.071,2.434-1.5,4.039-1.243a3.494,3.494,0,0,0,2.589-.518,5.323,5.323,0,0,0,1.916-3c.259-.932.311-1.916.518-2.848a5.655,5.655,0,0,1,.621-1.864c.828-1.294,1.812-1.4,3-.259a.779.779,0,0,0,1.5-.414c-.932-3.366-5.074-1.864-6.11.518a19.224,19.224,0,0,0-.777,3.417,7.02,7.02,0,0,1-.621,2.019c-.777,1.4-2.226,1.139-3.573.984-1.605-.155-2.848-.311-3.883,1.191-1.191,1.708-.88,3.728-.88,5.7.052,2.382-.466,3.314-2.8,4.09a7.845,7.845,0,0,0-2.537,1.087,7.212,7.212,0,0,0-1.812,9.579c.518.88,1.864.1,1.346-.725Z" transform="translate(-145.508 -641.114)" fill="#ec615b"/>
          </g>
        </g>
        <g id="Group_646" data-name="Group 646" transform="translate(5.997 309.062)">
          <g id="Group_645" data-name="Group 645">
            <path id="Path_367" data-name="Path 367" d="M159.995,681.83c-2.175-.311-1.346-2.692-.362-3.625a11.085,11.085,0,0,1,2.641-1.553,9.5,9.5,0,0,0,3.107-2.226c2.226-2.8-.984-6.524,2.123-8.75,3.107-2.175,11.443-3.158,9.009-8.958-.362-.932-1.709-.1-1.346.777,1.76,4.194-6.783,5.437-8.957,7.2a5.207,5.207,0,0,0-1.76,2.434c-.621,2.175,1.191,4.4-.414,6.472-1.864,2.278-5.851,2.278-6.783,5.488a3.283,3.283,0,0,0,2.382,4.3c.932.1,1.346-1.4.362-1.553Z" transform="translate(-157.09 -656.308)" fill="#ec615b"/>
          </g>
        </g>
        <g id="Group_648" data-name="Group 648" transform="translate(574.47 191.396)">
          <g id="Group_647" data-name="Group 647">
            <path id="Path_368" data-name="Path 368" d="M1257.025,451.911a3.4,3.4,0,0,1,.155-3.624c1.139-1.657,2.485-1.294,4.246-1.139,1.191.1,2.278.362,3.417-.311,2.019-1.243,1.709-3.831,2.071-5.8.828-4.608,4.815-.414,7.508-1.864a3.337,3.337,0,0,0,1.553-2.537c.362-2.019.466-8.025,4.349-5.592.828.518,1.657-.828.776-1.346-3.469-2.123-6.265,1.4-6.576,4.66-.207,1.864,0,3.676-2.485,3.417-.88-.1-1.76-.57-2.641-.673a3.323,3.323,0,0,0-3.417,1.5c-.88,1.45-.569,3.262-.932,4.815-.777,3.521-3.78,1.553-6.213,1.968-3.262.57-4.763,4.5-3.21,7.249a.787.787,0,0,0,1.4-.725Z" transform="translate(-1255.011 -429.053)" fill="#ec615b"/>
          </g>
        </g>
        <g id="Group_650" data-name="Group 650" transform="translate(582.5 198.299)">
          <g id="Group_649" data-name="Group 649">
            <path id="Path_369" data-name="Path 369" d="M1272.218,461.6c-.88-2.382,1.864-5.022,4.246-3.78a.771.771,0,0,0,.932-.1c1.191-1.294,1.5-2.8,2.019-4.453.932-3,3.158-3.417,5.851-4.246,2.64-.828,5.592-3,4.5-6.11-.362-.932-1.864-.518-1.5.414,1.5,4.09-5.851,4.4-8.025,5.9-2.641,1.864-1.864,5.229-3.883,7.4a5.713,5.713,0,0,1,.932-.1c-3.469-1.812-7.87,1.76-6.524,5.54.31.88,1.812.518,1.449-.466Z" transform="translate(-1270.52 -442.385)" fill="#ec615b"/>
          </g>
        </g>
        <g id="Group_652" data-name="Group 652" transform="translate(374.104 229.48)">
          <g id="Group_651" data-name="Group 651">
            <path id="Path_370" data-name="Path 370" d="M869,504.208c.1,0,1.243,2.8,1.709,3.158a3.015,3.015,0,0,0,2.485.466c1.553-.259,2.537-1.4,3.883-2.123,2.9-1.657,2.9,1.191,4.039,2.8,1.295,1.916,2.692.984,4.194.052.984-.621,1.916-1.035,2.8-.155a10.718,10.718,0,0,1,1.139,1.812,5.056,5.056,0,0,0,2.123,1.916c.88.414,1.709-.932.777-1.346-2.123-.932-2.382-4.453-4.919-4.815-1.191-.155-1.709.518-2.641,1.036-1.139.673-1.812,1.139-2.537-.155-.31-.518-.362-1.243-.725-1.76-1.657-2.744-4.246-1.243-6.317.1a8.527,8.527,0,0,1-1.139.725c-.88-.259-1.812-.518-2.693-.777-.362-.362-.362-1.243-.673-1.709a1.632,1.632,0,0,0-1.864-.777c-1.036.207-.621,1.709.362,1.553Z" transform="translate(-868.035 -502.606)" fill="#ec615b"/>
          </g>
        </g>
        <g id="Group_654" data-name="Group 654" transform="translate(385.783 224)">
          <g id="Group_653" data-name="Group 653">
            <path id="Path_371" data-name="Path 371" d="M892.045,494.134c1.553-2.433,5.126,2.641,6.576,3.262a3.853,3.853,0,0,0,2.641.1,7.489,7.489,0,0,0,1.139-.466,3.367,3.367,0,0,1,3.728.777c1.657,1.4,2.123,3.262,4.5,3.78a2.727,2.727,0,0,0,3.314-1.45c.414-.88-.932-1.709-1.346-.777-1.45,3.107-5.437-3-6.472-3.676-1.916-1.243-3.107-.207-5.022.207-3.055.621-4.039-2.8-6.576-3.624a2.94,2.94,0,0,0-3.78,1.139c-.621.828.725,1.605,1.294.725Z" transform="translate(-890.591 -492.023)" fill="#ec615b"/>
          </g>
        </g>
      </g>
      <g id="background_grey" transform="translate(4.954 27.974)">
        <g id="Group_656" data-name="Group 656" transform="translate(575.038 287.091)">
          <g id="Group_655" data-name="Group 655">
            <path id="Path_372" data-name="Path 372" d="M1266.413,669.453h82.533a.778.778,0,0,0,0-1.553h-82.533a.778.778,0,0,0,0,1.553Z" transform="translate(-1265.675 -667.9)" fill="#e8e8e8"/>
          </g>
        </g>
        <g id="Group_658" data-name="Group 658" transform="translate(598.299 287.544)">
          <g id="Group_657" data-name="Group 657">
            <path id="Path_373" data-name="Path 373" d="M1310.6,669.513v24.024a.778.778,0,0,0,1.553,0V669.513a.778.778,0,0,0-1.553,0Z" transform="translate(-1310.6 -668.775)" fill="#e8e8e8"/>
          </g>
        </g>
        <g id="Group_660" data-name="Group 660" transform="translate(635.164 253.216)">
          <g id="Group_659" data-name="Group 659">
            <path id="Path_374" data-name="Path 374" d="M1383.353,636.765V603.213a.778.778,0,0,0-1.553,0v33.552a.777.777,0,0,0,1.553,0Z" transform="translate(-1381.8 -602.475)" fill="#e8e8e8"/>
          </g>
        </g>
        <g id="Group_662" data-name="Group 662" transform="translate(617.702 253.021)">
          <g id="Group_661" data-name="Group 661">
            <path id="Path_375" data-name="Path 375" d="M1348.813,603.653h31.222a.778.778,0,0,0,0-1.553h-31.222a.778.778,0,0,0,0,1.553Z" transform="translate(-1348.075 -602.1)" fill="#e8e8e8"/>
          </g>
        </g>
        <g id="Group_664" data-name="Group 664" transform="translate(597.988 67.387)">
          <g id="Group_663" data-name="Group 663">
            <path id="Path_376" data-name="Path 376" d="M1310,244.313v29a.778.778,0,0,0,1.553,0v-29a.778.778,0,0,0-1.553,0Z" transform="translate(-1310 -243.575)" fill="#e8e8e8"/>
          </g>
        </g>
        <g id="Group_666" data-name="Group 666" transform="translate(573.032 97.793)">
          <g id="Group_665" data-name="Group 665">
            <path id="Path_377" data-name="Path 377" d="M1262.577,303.853H1318.6a.778.778,0,0,0,0-1.553h-56.023a.777.777,0,1,0,0,1.553Z" transform="translate(-1261.8 -302.3)" fill="#e8e8e8"/>
          </g>
        </g>
        <g id="Group_668" data-name="Group 668" transform="translate(629.314 98.402)">
          <g id="Group_667" data-name="Group 667" transform="translate(0 0)">
            <path id="Path_378" data-name="Path 378" d="M1370.5,304.213v19.261a.778.778,0,0,0,1.553,0V304.213a.778.778,0,0,0-1.553,0Z" transform="translate(-1370.5 -303.475)" fill="#e8e8e8"/>
          </g>
        </g>
        <g id="Group_670" data-name="Group 670" transform="translate(108.557 36.386)">
          <g id="Group_669" data-name="Group 669">
            <path id="Path_379" data-name="Path 379" d="M365.495,185.253h54.884a.778.778,0,0,0,0-1.553H365.495a.777.777,0,0,0,0,1.553Z" transform="translate(-364.737 -183.7)" fill="#e8e8e8"/>
          </g>
        </g>
        <g id="Group_672" data-name="Group 672" transform="translate(161.92 37.007)">
          <g id="Group_671" data-name="Group 671">
            <path id="Path_380" data-name="Path 380" d="M467.8,185.677v14.912a.778.778,0,0,0,1.553,0V185.677a.777.777,0,0,0-1.553,0Z" transform="translate(-467.8 -184.9)" fill="#e8e8e8"/>
          </g>
        </g>
        <g id="Group_674" data-name="Group 674" transform="translate(143.747 11.934)">
          <g id="Group_673" data-name="Group 673">
            <path id="Path_381" data-name="Path 381" d="M434.253,161.082V137.213a.778.778,0,0,0-1.553,0v23.869a.777.777,0,0,0,1.553,0Z" transform="translate(-432.7 -136.475)" fill="#e8e8e8"/>
          </g>
        </g>
        <g id="Group_676" data-name="Group 676" transform="translate(0 195.963)">
          <g id="Group_675" data-name="Group 675">
            <path id="Path_382" data-name="Path 382" d="M155.813,493.453h37.9a.778.778,0,0,0,0-1.553h-37.9a.778.778,0,0,0,0,1.553Z" transform="translate(-155.075 -491.9)" fill="#e8e8e8"/>
          </g>
        </g>
        <g id="Group_678" data-name="Group 678" transform="translate(23.882 181.194)">
          <g id="Group_677" data-name="Group 677">
            <path id="Path_383" data-name="Path 383" d="M201.2,464.113v13.98a.778.778,0,0,0,1.553,0v-13.98a.778.778,0,0,0-1.553,0Z" transform="translate(-201.2 -463.375)" fill="#e8e8e8"/>
          </g>
        </g>
        <g id="Group_680" data-name="Group 680" transform="translate(13.993 181.155)">
          <g id="Group_679" data-name="Group 679">
            <path id="Path_384" data-name="Path 384" d="M182.877,464.853H203.07a.778.778,0,0,0,0-1.553H182.877a.777.777,0,1,0,0,1.553Z" transform="translate(-182.1 -463.3)" fill="#e8e8e8"/>
          </g>
        </g>
        <g id="Group_682" data-name="Group 682" transform="translate(242.02 507.61)">
          <g id="Group_681" data-name="Group 681">
            <path id="Path_385" data-name="Path 385" d="M623.277,1095.353h50.638a.778.778,0,0,0,0-1.553H623.277a.777.777,0,0,0,0,1.553Z" transform="translate(-622.5 -1093.8)" fill="#e8e8e8"/>
          </g>
        </g>
        <g id="Group_684" data-name="Group 684" transform="translate(272.413 495.947)">
          <g id="Group_683" data-name="Group 683">
            <path id="Path_386" data-name="Path 386" d="M682.753,1082.938v-10.925a.778.778,0,0,0-1.553,0v10.925a.777.777,0,0,0,1.553,0Z" transform="translate(-681.2 -1071.275)" fill="#e8e8e8"/>
          </g>
        </g>
        <g id="Group_686" data-name="Group 686" transform="translate(268.517 495.184)">
          <g id="Group_685" data-name="Group 685">
            <path id="Path_387" data-name="Path 387" d="M674.413,1071.353h21.021a.778.778,0,0,0,0-1.553H674.413a.778.778,0,0,0,0,1.553Z" transform="translate(-673.675 -1069.8)" fill="#e8e8e8"/>
          </g>
        </g>
        <g id="Group_688" data-name="Group 688" transform="translate(1.191 480.375)">
          <g id="Group_687" data-name="Group 687">
            <path id="Path_388" data-name="Path 388" d="M158.113,1042.753h50.638a.778.778,0,0,0,0-1.553H158.113a.778.778,0,0,0,0,1.553Z" transform="translate(-157.375 -1041.2)" fill="#e8e8e8"/>
          </g>
        </g>
        <g id="Group_690" data-name="Group 690" transform="translate(25.332 460.894)">
          <g id="Group_689" data-name="Group 689">
            <path id="Path_389" data-name="Path 389" d="M204,1004.313v17.915a.778.778,0,0,0,1.553,0v-17.915a.778.778,0,0,0-1.553,0Z" transform="translate(-204 -1003.575)" fill="#e8e8e8"/>
          </g>
        </g>
        <g id="Group_692" data-name="Group 692" transform="translate(4.349 459.302)">
          <g id="Group_691" data-name="Group 691">
            <path id="Path_390" data-name="Path 390" d="M184.458,1000.5H164.213a.778.778,0,0,0,0,1.553h20.245a.778.778,0,0,0,0-1.553Z" transform="translate(-163.475 -1000.5)" fill="#e8e8e8"/>
          </g>
        </g>
        <g id="Group_694" data-name="Group 694" transform="translate(562.149 412.774)">
          <g id="Group_693" data-name="Group 693">
            <path id="Path_391" data-name="Path 391" d="M1243.432,934.229c-1.709-1.709-1.294-5.022,1.346-5.592,1.4-.311,2.744.569,4.091.725a2.714,2.714,0,0,0,2.8-.88c1.035-1.346.207-2.9.155-4.4-.1-4.712,5.488-4.4,8.284-2.744a.786.786,0,0,0,1.139-.88,6.813,6.813,0,0,1,11.132-6.627c.777.621,1.864-.466,1.087-1.087a8.385,8.385,0,0,0-13.721,8.181c.363-.311.777-.569,1.139-.88-2.382-1.45-5.437-2.175-7.974-.569a5.349,5.349,0,0,0-2.175,2.485,4.537,4.537,0,0,0-.414,2.175c.052,1.4.518,1.295-.518,2.641-1.139,1.5-1.243.828-2.848.466a4.818,4.818,0,0,0-5.022,1.4,4.8,4.8,0,0,0,.466,6.679c.673.725,1.76-.362,1.036-1.087Z" transform="translate(-1240.782 -910.638)" fill="#e8e8e8"/>
          </g>
        </g>
        <g id="Group_696" data-name="Group 696" transform="translate(573.366 422.545)">
          <g id="Group_695" data-name="Group 695">
            <path id="Path_392" data-name="Path 392" d="M1263.975,944.882c-.57-4.712,7.146-4.763,9.32-8.025a13.13,13.13,0,0,0,1.139-2.641,5.124,5.124,0,0,1,3.624-3.106c2.848-.725,5.8.569,8.388,1.657.932.363,1.346-1.139.414-1.5-4.764-1.967-11.184-3.469-13.824,2.33-.932,2.071-1.243,3.21-3.417,4.3-1.294.621-2.64.984-3.883,1.709-1.968,1.139-3.521,2.9-3.262,5.281.1.984,1.657.984,1.5,0Z" transform="translate(-1262.445 -929.509)" fill="#e8e8e8"/>
          </g>
        </g>
        <g id="Group_698" data-name="Group 698" transform="translate(350.438 286.433)">
          <g id="Group_697" data-name="Group 697">
            <path id="Path_393" data-name="Path 393" d="M833.657,667.546c1.036,2.589,2.071,5.229,3.107,7.818.1-.311.259-.57.362-.88-.569.362-1.139.725-1.708,1.139-.88-2.071-.518-2.589,1.139-1.657a4.618,4.618,0,0,1,1.657,3.055,14.719,14.719,0,0,1-.88,7.456.757.757,0,0,0,.932.932c3.107-.621,4.349,3.107,3.728,5.437a18.168,18.168,0,0,1-2.33,4.712c-.518.828.828,1.605,1.346.777,1.657-2.589,3.573-5.8,2.434-9.009a4.964,4.964,0,0,0-5.592-3.417l.932.932c1.036-3,1.709-6.783.414-9.838-.88-2.019-2.9-3.573-5.178-2.9a2.778,2.778,0,0,0-1.812,3.987c1.4,2.848,3.832.932,5.644-.259a.84.84,0,0,0,.362-.88c-1.036-2.589-2.071-5.229-3.107-7.818-.311-.88-1.812-.518-1.45.414Z" transform="translate(-831.893 -666.629)" fill="#e8e8e8"/>
          </g>
        </g>
        <g id="Group_700" data-name="Group 700" transform="translate(44.306 37.984)">
          <g id="Group_699" data-name="Group 699">
            <path id="Path_394" data-name="Path 394" d="M242.331,191.195c-.984-2.485,2.33-3.158,3.883-2.278a8.65,8.65,0,0,1,2.692,2.951,12.937,12.937,0,0,1,1.76,3.21,3.08,3.08,0,0,1-.155,2.848c-1.812.828-2.744.621-2.8-.57-.466-1.709,1.346-2.848,2.9-2.8a6.343,6.343,0,0,1,4.194,2.123,8.947,8.947,0,0,1,2.278,7.2c.466-.155.984-.259,1.45-.414-1.035-1.5-.052-3.107,1.346-3.883a3.862,3.862,0,0,1,3.676.155c1.864.984,3.158,2.8,4.349,4.453.57.828,1.916.052,1.346-.777-1.967-2.744-4.919-6.576-8.8-5.7-2.848.621-5.126,3.935-3.262,6.524a.787.787,0,0,0,1.45-.414c.466-4.919-3.158-11.65-8.957-10.821a3.889,3.889,0,0,0-3.573,3.883,3.26,3.26,0,0,0,2.8,3.469c2.071.155,3.469-1.864,3.573-3.728.155-2.589-1.864-5.385-3.417-7.3-1.45-1.709-3.573-3.158-5.851-2.278a3.433,3.433,0,0,0-2.33,4.453c.311,1.036,1.812.621,1.45-.311Z" transform="translate(-240.646 -186.787)" fill="#e8e8e8"/>
          </g>
        </g>
        <g id="Group_702" data-name="Group 702" transform="translate(316.175 112.936)">
          <g id="Group_701" data-name="Group 701" transform="translate(0 0)">
            <path id="Path_395" data-name="Path 395" d="M768.3,336.959c-2.175-1.294-.621-5.126,1.812-3.521,2.33,1.553-.777,4.194-2.278,2.382-.621-.777-1.709.311-1.087,1.087a3.422,3.422,0,0,0,4.815.155,3.056,3.056,0,0,0-.466-4.815,3.3,3.3,0,0,0-4.919.932,3.884,3.884,0,0,0,1.4,5.126c.777.466,1.553-.828.725-1.346Z" transform="translate(-765.719 -331.546)" fill="#e8e8e8"/>
          </g>
        </g>
        <g id="Group_704" data-name="Group 704" transform="translate(481.692)">
          <g id="Group_703" data-name="Group 703">
            <path id="Path_396" data-name="Path 396" d="M1087.415,118.539c-1.139-1.605.828-4.039,2.641-3.314-.155-.1-.31-.259-.466-.362a2.7,2.7,0,0,1-2.382,3.935,8.923,8.923,0,0,1,.725.57c-.311-.88-.673-1.812-.984-2.692-.363-.932-1.864-.518-1.5.414.311.88.673,1.812.984,2.692a.72.72,0,0,0,.725.57,4.086,4.086,0,0,0,3.831-2.382c.57-1.139.88-3.521-.518-4.246-3.055-1.5-6.213,3.055-4.4,5.592.569.828,1.916.052,1.346-.777Z" transform="translate(-1085.392 -113.427)" fill="#e8e8e8"/>
          </g>
        </g>
        <g id="Group_706" data-name="Group 706" transform="translate(524.224 77.758)">
          <g id="Group_705" data-name="Group 705">
            <path id="Path_397" data-name="Path 397" d="M1169.174,267.952a2.415,2.415,0,0,1,1.812-2.744,2.15,2.15,0,0,1,2.33,1.657c.673,2.33-2.382,3.417-3.832,1.812-.673-.725-1.76.362-1.087,1.087,2.692,3,7.87.052,6.213-3.78a3.626,3.626,0,0,0-4.349-2.226,4,4,0,0,0-2.641,4.608.8.8,0,0,0,1.553-.414Z" transform="translate(-1167.536 -263.605)" fill="#e8e8e8"/>
          </g>
        </g>
        <g id="Group_708" data-name="Group 708" transform="translate(354.737 496.998)">
          <g id="Group_707" data-name="Group 707">
            <path id="Path_398" data-name="Path 398" d="M843.253,1086.971a2.624,2.624,0,0,1,0-4.66c1.76-.984,3.417-.1,5.022.621,1.346.621,2.9,1.191,4.09,0,1.087-1.036.88-2.641.932-3.987.207-5.23,5.281-4.194,8.75-2.9.932.362,1.346-1.139.414-1.5-3.055-1.191-7.3-2.33-9.734.673a4.86,4.86,0,0,0-.984,3c-.052.725.259,2.33-.155,3-1.139,1.709-2.692.156-3.883-.362-2.278-.984-5.54-.725-6.938,1.657a4.086,4.086,0,0,0,1.657,5.747c.932.466,1.709-.88.828-1.294Z" transform="translate(-840.196 -1073.303)" fill="#e8e8e8"/>
          </g>
        </g>
      </g>
      <g id="flower" transform="translate(387.048 310.223)">
        <g id="Group_710" data-name="Group 710" transform="translate(0 105.638)">
          <g id="Group_709" data-name="Group 709">
            <path id="Path_399" data-name="Path 399" d="M893.792,863.313a227.28,227.28,0,0,0,2.485,56.851c.155.984,1.657.57,1.5-.414a226.424,226.424,0,0,1-2.433-56.437c.1-.984-1.45-.984-1.553,0Z" transform="translate(-893.033 -862.575)" fill="#e8e8e8"/>
          </g>
        </g>
        <g id="Group_712" data-name="Group 712" transform="translate(1.255 106.01)">
          <g id="Group_711" data-name="Group 711">
            <path id="Path_400" data-name="Path 400" d="M896,864.849a114.1,114.1,0,0,0,24.9,5.592c7.974.828,17.138,1.709,24.8-1.295.932-.362.518-1.864-.414-1.5-7.456,2.951-16.517,2.071-24.387,1.243a110.421,110.421,0,0,1-24.491-5.54c-.984-.362-1.346,1.139-.414,1.5Z" transform="translate(-895.457 -863.292)" fill="#e8e8e8"/>
          </g>
        </g>
        <g id="Group_714" data-name="Group 714" transform="translate(0.313 2.191)">
          <g id="Group_713" data-name="Group 713">
            <path id="Path_401" data-name="Path 401" d="M907.442,770.281a58.279,58.279,0,0,1-6.472-13.41,64.175,64.175,0,0,1-1.812-6.886c-.259-1.4-.518-2.8-.673-4.194,0-.155-.569-3.832.518-3.314.518.259,1.4-.207,1.139-.88a64.479,64.479,0,0,1-4.557-22.523l-.777.777c.414.155.777.311,1.191.466.518.621,1.5-.052,1.294-.777a42.694,42.694,0,0,1-1.916-10.252c-.052-.828.1-10.148.673-9.993a.771.771,0,0,0,.932-.932,84.7,84.7,0,0,1-1.191-17.708,70.489,70.489,0,0,1,.828-8.75c.414-2.641.621-5.851,2.692-7.767l-1.243-.155c4.349,8.181,6.783,17.138,9.009,26.044q3.262,13.126,5.747,26.51a427.027,427.027,0,0,1,6.42,55.66c.052.984,1.6.984,1.553,0a425.558,425.558,0,0,0-6.472-56.075q-2.563-13.824-5.954-27.494c-2.227-8.75-4.66-17.449-8.958-25.474a.814.814,0,0,0-1.243-.155c-1.76,1.605-2.278,3.728-2.692,5.954a85.815,85.815,0,0,0-1.191,9.631,87.6,87.6,0,0,0,1.139,20.141l.932-.932c-3-.828-2.641,5.644-2.693,7.094A44.822,44.822,0,0,0,895.74,719.9c.414-.259.88-.518,1.294-.777a2.3,2.3,0,0,0-2.278-.932.8.8,0,0,0-.777.777,65.861,65.861,0,0,0,4.608,22.937c.362-.311.777-.57,1.139-.88-5.178-2.485-2.175,9.216-1.76,10.977a60.232,60.232,0,0,0,8.077,18.951c.621.932,1.968.155,1.4-.673Z" transform="translate(-893.636 -662.782)" fill="#e8e8e8"/>
          </g>
        </g>
        <g id="Group_716" data-name="Group 716" transform="translate(20.545)">
          <g id="Group_715" data-name="Group 715">
            <path id="Path_402" data-name="Path 402" d="M934.518,716.515a37.994,37.994,0,0,1-.155-9.993c.1-.828,2.071-10.563,3.055-10.148a.813.813,0,0,0,1.191-.673c.311-6.627,2.382-12.53,4.815-18.64,2.434-6.058,4.815-11.909,8.854-17.138H951.19c2.951,3.365,2.589,8.492,2.744,12.685.207,4.712.362,9.423.414,14.135q.155,13.9-.466,27.8a460.514,460.514,0,0,1-6.213,56.541c-.155.984,1.346,1.4,1.5.414a468.793,468.793,0,0,0,6.369-58.974q.621-14.912.311-29.824c-.1-4.971-.207-9.941-.57-14.912-.207-3.262-.725-6.472-3-9.009a.751.751,0,0,0-1.087,0c-3.987,5.178-6.472,10.873-8.854,16.931-2.641,6.524-4.867,12.841-5.229,19.986.414-.207.777-.466,1.191-.673-3.158-1.4-4.194,5.333-4.608,7.145a39.051,39.051,0,0,0-.518,14.7c-.052,1.036,1.45.621,1.346-.362Z" transform="translate(-932.712 -658.55)" fill="#e8e8e8"/>
          </g>
        </g>
        <g id="Group_718" data-name="Group 718" transform="translate(3.407 162.254)">
          <g id="Group_717" data-name="Group 717">
            <path id="Path_403" data-name="Path 403" d="M900.176,974.187a77.756,77.756,0,0,0,49.81-.725c.932-.311.518-1.812-.414-1.5a76.635,76.635,0,0,1-48.981.725.779.779,0,0,0-.414,1.5Z" transform="translate(-899.614 -971.919)" fill="#e8e8e8"/>
          </g>
        </g>
        <g id="Group_720" data-name="Group 720" transform="translate(51.293 110.609)">
          <g id="Group_719" data-name="Group 719">
            <path id="Path_404" data-name="Path 404" d="M992.1,872.913c.621,8.388,1.295,16.776,1.864,25.164.569,8.543.776,17.19-.621,25.681-.155.984,1.346,1.4,1.5.414,1.4-8.336,1.295-16.724.725-25.112-.57-8.7-1.243-17.449-1.916-26.147-.052-.984-1.6-.984-1.553,0Z" transform="translate(-992.097 -872.175)" fill="#e8e8e8"/>
          </g>
        </g>
      </g>
    </g>
    <g id="window" transform="translate(206.062 200.163)">
      <path id="Path_405" data-name="Path 405" d="M458.4,978.371c10.563-5.644,21.177-11.287,31.74-16.931,4.971.828,11.805,1.916,19.986,3.055a668.55,668.55,0,0,0,76.061,6.938,542.52,542.52,0,0,0,67.88-2.071c22.937-2.175,36.814-5.126,48.153-8.181A254.417,254.417,0,0,0,727.072,953a114.221,114.221,0,0,1,16.413,6.938,106.027,106.027,0,0,1,9.216,5.385c-9.734,2.8-22.834,6.369-38.419,9.993-32.827,7.663-57.99,11.287-63.272,12.064-30.186,4.3-73.213,10.355-127.32,4.09A421.561,421.561,0,0,1,458.4,978.371Z" transform="translate(-356.947 -631.081)" fill="#fff"/>
      <path id="Path_406" data-name="Path 406" d="M457.3,988.983c.259,2.175.57,4.3.828,6.472,3.883,1.087,9.579,2.641,16.62,4.194a309.881,309.881,0,0,0,44.994,6.472,799.082,799.082,0,0,0,118.673.57c26.355-2.33,51.932-4.712,84.966-14.342,12.427-3.624,22.575-7.3,29.824-10.148l-1.709-7.3c-2.019.828-5.022,2.019-8.7,3.365-24.957,9.113-45.512,12.116-63.841,14.342-40.283,4.97-60.424,7.4-89.989,7.87A647.229,647.229,0,0,1,457.3,988.983Z" transform="translate(-356.417 -641.642)" fill="#161616"/>
      <g id="Group_722" data-name="Group 722" transform="translate(100.521 347.548)">
        <g id="Group_721" data-name="Group 721">
          <path id="Path_407" data-name="Path 407" d="M456.6,1003.277v4.97a.778.778,0,0,0,1.553,0v-4.97a.777.777,0,0,0-1.553,0Z" transform="translate(-456.6 -1002.5)" fill="#161616"/>
        </g>
      </g>
      <g id="Group_724" data-name="Group 724" transform="translate(100.528 339.933)">
        <g id="Group_723" data-name="Group 723">
          <path id="Path_408" data-name="Path 408" d="M457.176,1002.6c38.678,10.459,79.064,11.805,118.881,12.375,38.263.518,76.786-1.139,114.479-8.129a348.5,348.5,0,0,0,62.34-17.5c.932-.362.518-1.864-.414-1.5-35.623,13.825-73.472,20.866-111.528,23.818-38.367,2.951-77.1,2.278-115.463-.052-22.937-1.45-45.668-4.453-67.88-10.459a.754.754,0,1,0-.414,1.45Z" transform="translate(-456.614 -987.792)" fill="#161616"/>
        </g>
      </g>
      <g id="Group_726" data-name="Group 726" transform="translate(395.277 333.09)">
        <g id="Group_725" data-name="Group 725">
          <path id="Path_409" data-name="Path 409" d="M1027.391,981.888a27.986,27.986,0,0,0,.207-6.576c-.1-.984-1.657-.984-1.553,0a27.189,27.189,0,0,1-.156,6.161c-.155.932,1.346,1.4,1.5.414Z" transform="translate(-1025.878 -974.575)" fill="#161616"/>
        </g>
      </g>
      <g id="Group_728" data-name="Group 728" transform="translate(100.566 330)">
        <g id="Group_727" data-name="Group 727">
          <path id="Path_410" data-name="Path 410" d="M457.885,986.778c10.873-5.178,21.539-10.718,32-16.724a.777.777,0,0,0-.777-1.346q-15.688,8.932-32,16.724c-.932.414-.155,1.76.777,1.346Z" transform="translate(-456.687 -968.608)" fill="#161616"/>
        </g>
      </g>
      <g id="Group_730" data-name="Group 730" transform="translate(132.785 321.426)">
        <g id="Group_729" data-name="Group 729">
          <path id="Path_411" data-name="Path 411" d="M519.476,961.344c61.77,11.753,125.974,13.928,188.262,5.022,16.569-2.382,33.034-6.058,48.36-12.893.932-.414.1-1.76-.777-1.346-13.773,6.11-28.477,9.682-43.338,12.012-15.119,2.382-30.393,3.832-45.667,4.815a588.3,588.3,0,0,1-93.1-1.5c-17.915-1.709-35.674-4.3-53.33-7.611-.984-.155-1.4,1.346-.414,1.5Z" transform="translate(-518.914 -952.049)" fill="#161616"/>
        </g>
      </g>
      <g id="Group_732" data-name="Group 732" transform="translate(369.096 321.048)">
        <g id="Group_731" data-name="Group 731">
          <path id="Path_412" data-name="Path 412" d="M975.876,952.862a107.15,107.15,0,0,1,25.94,12.53c.828.57,1.6-.777.777-1.346a110.087,110.087,0,0,0-26.3-12.685.779.779,0,0,0-.414,1.5Z" transform="translate(-975.314 -951.319)" fill="#161616"/>
        </g>
      </g>
      <g id="Group_734" data-name="Group 734" transform="translate(101.335 332.594)">
        <g id="Group_733" data-name="Group 733">
          <path id="Path_413" data-name="Path 413" d="M458.7,988.365c18.277,6.161,37.331,9.061,56.489,10.614,19.417,1.553,38.988,2.019,58.456,2.019,38.678,0,77.459-2.641,115.567-9.579a460.972,460.972,0,0,0,63.945-16.258c.932-.311.518-1.812-.414-1.5-36.71,12.219-74.87,19.365-113.392,22.885A767.414,767.414,0,0,1,523.892,998c-21.953-1.346-43.959-4.09-64.877-11.132-.828-.311-1.243,1.191-.311,1.5Z" transform="translate(-458.173 -973.619)" fill="#161616"/>
        </g>
      </g>
      <g id="Group_736" data-name="Group 736" transform="translate(130.714 31.428)">
        <g id="Group_735" data-name="Group 735">
          <path id="Path_414" data-name="Path 414" d="M515.89,412.174c63.272-14.653,128.408-17.863,193.129-18.484,18.329-.207,36.658-.155,54.987-.155a.778.778,0,0,0,0-1.553c-64.929-.1-130.168-.155-194.631,8.8-18.122,2.537-36.089,5.747-53.9,9.889a.779.779,0,0,0,.414,1.5Z" transform="translate(-514.914 -391.96)" fill="#161616"/>
        </g>
      </g>
      <path id="Path_415" data-name="Path 415" d="M991.687,364.186c.673,24.076,1.087,51.984.932,83-.1,18.018-.259,9.423-1.864,84.4-.932,43.182-1.191,59.44-4.246,84.4-1.967,16.258-4.349,29.617-6.11,38.678,13.359,3.728,26.1,7.249,37.28,10.355,17.294,4.815,21.9,6.11,28.788,7.093a114.873,114.873,0,0,0,38.677-1.4c5.54-45.357,8.6-84.034,10.355-113.651,6.317-104.072.414-152.018-1.864-168.846-3.107-22.678-6.938-41.318-9.889-54.211-11.08,2.123-20.09,4.4-26.407,6.11-21.695,5.954-38.885,12.944-53.279,18.847C998.729,361.183,994.432,363,991.687,364.186Z" transform="translate(-608.67 -332.582)" fill="#fff"/>
      <path id="Path_416" data-name="Path 416" d="M297.555,335.8c-.414,4.453-.88,9.941-1.294,14.7-8.595,98.014-12.893,147.047-14.29,178.58a896.476,896.476,0,0,0,5.644,143.992,11.274,11.274,0,0,0,3.469,4.349c2.433,1.812,4.66,1.76,9.061,3a60.11,60.11,0,0,1,6.938,2.589c4.763,1.864,15.43,3.987,29,3.469,19.468-.777,34.432-6.731,45.409-11.236a176.615,176.615,0,0,0,24.232-12.116c-3.21-28.84-5.592-59.285-6.938-91.232a1315.536,1315.536,0,0,1,5.644-185.932c-2.382-.932-5.851-2.226-9.941-3.883-7.042-2.848-23.921-9.734-53.641-24.232C329.088,352.162,314.383,344.757,297.555,335.8Z" transform="translate(-271.49 -333.45)" fill="#fff"/>
      <path id="Path_417" data-name="Path 417" d="M1179.4,333.6c.622,3.417,1.45,8.129,2.382,13.773,1.294,8.025,4.194,27.028,6.317,51.984,2.174,25.992,2.692,48.36,2.744,66.171.156,36.141-1.191,62.65-4.712,124.473-1.087,19.261-2.692,47.48-4.711,81.912,2.122-.155,4.194-.259,6.317-.414,1.036-8.595,2.433-21.384,3.521-37.021.828-11.287,1.191-19.52,1.553-28.374,1.812-40.593,2.123-40.127,2.744-56.7,1.243-32.671.984-57.783.777-80.358-.155-15.585-.621-30.341-1.553-59.854-.673-20.09-1.346-37.9-5.9-61.045-1.191-5.9-2.33-10.821-3.159-14.187C1183.594,333.859,1181.523,333.755,1179.4,333.6Z" transform="translate(-704.633 -332.389)" fill="#161616"/>
      <path id="Path_418" data-name="Path 418" d="M281.565,337.6c-.362,1.812-.932,4.608-1.5,8.025a184.438,184.438,0,0,0-2.226,19.779c-1.139,17.6-3.417,26.2-6.731,65.291-.621,7.145-1.087,13.41-2.019,25.992-1.916,25.681-2.848,38.522-3.521,53.02-.725,16.206-.828,27.649-.984,50.535-.155,19.779-.259,34.069.259,52.761.414,14.912,1.243,35.157,3.262,59.285,4.194,1.243,8.336,2.485,12.53,3.728-.052-2.33-.207-6.524-.518-11.753-1.243-23.248-3.262-32.672-3.728-52.036-.155-5.954-.052-9.889,0-15.533.57-40.49-.1-58.974.259-85.277.621-42.923,3.521-76.475,6.006-105.056,2.33-27.028,4.971-50.172,7.249-68.294C287.054,337.911,284.309,337.755,281.565,337.6Z" transform="translate(-263.422 -334.318)" fill="#161616"/>
      <g id="Group_738" data-name="Group 738" transform="translate(371.141 31.746)">
        <g id="Group_737" data-name="Group 737">
          <path id="Path_419" data-name="Path 419" d="M989.9,393.313c1.916,38,1.657,76.113,1.139,114.117-.57,37.176-.829,74.456-3.676,111.58a575.3,575.3,0,0,1-8.077,63.065c-.207.984,1.294,1.4,1.5.414,6.887-36.5,9.424-73.627,10.563-110.7q1.786-56.774,1.657-113.7c-.052-21.591-.414-43.182-1.5-64.773-.1-.984-1.657-.984-1.6,0Z" transform="translate(-979.262 -392.575)" fill="#161616"/>
        </g>
      </g>
      <g id="Group_740" data-name="Group 740" transform="translate(382.527 0.414)">
        <g id="Group_739" data-name="Group 739">
          <path id="Path_420" data-name="Path 420" d="M1002.416,364.132a355.552,355.552,0,0,1,90.714-30.549c.984-.207.569-1.709-.414-1.5a360.5,360.5,0,0,0-91.076,30.7c-.88.466-.1,1.812.777,1.346Z" transform="translate(-1001.252 -332.062)" fill="#161616"/>
        </g>
      </g>
      <g id="Group_742" data-name="Group 742" transform="translate(473.867 0.504)">
        <g id="Group_741" data-name="Group 741">
          <path id="Path_421" data-name="Path 421" d="M1177.682,333.2c8.543,43.027,11.132,86.986,11.08,130.789-.1,43.8-2.692,87.5-4.815,131.255q-1.864,37.823-3.728,75.595c-.052.984,1.5.984,1.553,0,2.226-44.632,4.557-89.264,6.576-133.948,1.967-43.8,3.21-87.711.259-131.462a569.15,569.15,0,0,0-9.372-72.592.8.8,0,0,0-1.553.362Z" transform="translate(-1177.662 -332.235)" fill="#161616"/>
        </g>
      </g>
      <g id="Group_744" data-name="Group 744" transform="translate(371.208 320.23)">
        <g id="Group_743" data-name="Group 743">
          <path id="Path_422" data-name="Path 422" d="M979.6,951.065c2.33,2.692,6.472,3.21,9.734,4.194,4.453,1.346,8.958,2.692,13.41,4.038,9.009,2.693,17.967,5.54,27.079,7.818a132.659,132.659,0,0,0,54.159,2.123c.984-.155.57-1.657-.414-1.5a130.415,130.415,0,0,1-53.33-2.123c-8.336-2.019-16.517-4.608-24.7-7.093l-12.427-3.728-6.213-1.864c-2.175-.673-4.608-1.139-6.161-2.951a.788.788,0,0,0-1.139,1.087Z" transform="translate(-979.392 -949.738)" fill="#161616"/>
        </g>
      </g>
      <g id="Group_746" data-name="Group 746" transform="translate(474.36 0)">
        <g id="Group_745" data-name="Group 745">
          <path id="Path_423" data-name="Path 423" d="M1179.176,332.783c1.916.466,3.831.932,5.8,1.4a.779.779,0,0,0,.414-1.5c-1.915-.466-3.831-.932-5.8-1.4-.984-.207-1.4,1.294-.414,1.5Z" transform="translate(-1178.614 -331.262)" fill="#161616"/>
        </g>
      </g>
      <g id="Group_748" data-name="Group 748" transform="translate(480.588 1.436)">
        <g id="Group_747" data-name="Group 747">
          <path id="Path_424" data-name="Path 424" d="M1190.672,335c5.178,20.918,6.576,42.768,8.077,64.256,1.553,21.953,2.382,43.959,2.744,66.016.621,43.752-.88,87.5-3.365,131.2-1.4,24.75-3.158,49.5-4.971,74.249-.052.984,1.5.984,1.553,0,3.262-44.011,6.213-88.021,7.611-132.136,1.4-44.011,1.295-88.125-1.5-132.135-1.5-23.921-2.848-48.464-8.6-71.815a.8.8,0,0,0-1.553.362Z" transform="translate(-1190.642 -334.035)" fill="#161616"/>
        </g>
      </g>
      <g id="Group_750" data-name="Group 750" transform="translate(476.514 337.809)">
        <g id="Group_749" data-name="Group 749">
          <path id="Path_425" data-name="Path 425" d="M1183.513,985.87c2.278-.207,4.5-.414,6.783-.621.984-.1.984-1.657,0-1.553-2.278.207-4.5.414-6.783.621-.984.1-.984,1.657,0,1.553Z" transform="translate(-1182.775 -983.691)" fill="#161616"/>
        </g>
      </g>
      <g id="Group_752" data-name="Group 752" transform="translate(125.183 51.37)">
        <g id="Group_751" data-name="Group 751">
          <path id="Path_426" data-name="Path 426" d="M510.687,431.213q-5.2,53.822-6.213,107.9-1.01,54.288,2.226,108.577c1.191,20.3,2.9,40.542,4.971,60.735.1.984,1.657.984,1.553,0q-5.592-53.745-6.99-107.852-1.4-54.288,1.45-108.577,1.631-30.445,4.5-60.786c.155-.984-1.4-.984-1.5,0Z" transform="translate(-504.232 -430.475)" fill="#161616"/>
        </g>
      </g>
      <g id="Group_754" data-name="Group 754" transform="translate(26.662 2.13)">
        <g id="Group_753" data-name="Group 753">
          <path id="Path_427" data-name="Path 427" d="M314.339,336.838a843.113,843.113,0,0,0,104.331,48.981c.932.362,1.346-1.139.414-1.5a837.36,837.36,0,0,1-103.969-48.826.777.777,0,0,0-.777,1.346Z" transform="translate(-313.952 -335.375)" fill="#161616"/>
        </g>
      </g>
      <g id="Group_756" data-name="Group 756" transform="translate(11.611 2.492)">
        <g id="Group_755" data-name="Group 755">
          <path id="Path_428" data-name="Path 428" d="M298.717,336.813q-8.621,65.705-11.909,132.032-3.262,66.249-1.036,132.55,1.243,37.2,4.194,74.352c.1.984,1.657.984,1.553,0q-5.281-66.094-5.074-132.446.155-66.327,5.8-132.446,3.184-37.124,8.025-74.042c.1-.984-1.45-.984-1.553,0Z" transform="translate(-284.884 -336.075)" fill="#161616"/>
        </g>
      </g>
      <g id="Group_758" data-name="Group 758" transform="translate(16.265 328.43)">
        <g id="Group_757" data-name="Group 757">
          <path id="Path_429" data-name="Path 429" d="M294.249,980.293c28.84,15.689,63.375,12.323,92.681-.1A204.213,204.213,0,0,0,412.4,967.038c.828-.518.052-1.864-.777-1.346-27.287,16.517-59.285,28.063-91.542,22.057a84.5,84.5,0,0,1-25.06-8.8c-.828-.466-1.657.88-.777,1.346Z" transform="translate(-293.872 -965.575)" fill="#161616"/>
        </g>
      </g>
      <g id="Group_760" data-name="Group 760" transform="translate(4.778 337.425)">
        <g id="Group_759" data-name="Group 759">
          <path id="Path_430" data-name="Path 430" d="M272.108,984.373a108.426,108.426,0,0,0,11.132,4.453c.932.311,1.346-1.191.414-1.5a101.391,101.391,0,0,1-10.77-4.3c-.932-.414-1.709.932-.777,1.346Z" transform="translate(-271.687 -982.949)" fill="#161616"/>
        </g>
      </g>
      <g id="Group_762" data-name="Group 762" transform="translate(0 2.848)">
        <g id="Group_761" data-name="Group 761">
          <path id="Path_431" data-name="Path 431" d="M279.567,337.507c-5.592,43.389-10.252,86.882-13.307,130.53-3,43.441-4.453,86.986-3.521,130.53.518,24.646,1.76,49.292,3.883,73.834.1.984,1.657.984,1.553,0a1201.109,1201.109,0,0,1-3.78-130.945c.984-43.545,3.987-87.038,8.284-130.427q3.65-36.814,8.44-73.575c.155-.932-1.4-.932-1.553.052Z" transform="translate(-262.459 -336.762)" fill="#161616"/>
        </g>
      </g>
      <g id="Group_764" data-name="Group 764" transform="translate(17.011 2.409)">
        <g id="Group_763" data-name="Group 763">
          <path id="Path_432" data-name="Path 432" d="M296.29,338.185a35.734,35.734,0,0,1,9.113-.673c.984.052.984-1.5,0-1.553a39.238,39.238,0,0,0-9.527.725c-.984.207-.57,1.709.414,1.5Z" transform="translate(-295.314 -335.915)" fill="#161616"/>
        </g>
      </g>
      <g id="Group_766" data-name="Group 766" transform="translate(398.549 35.267)">
        <g id="Group_765" data-name="Group 765">
          <path id="Path_433" data-name="Path 433" d="M1035.254,400.113q3.262,90.092-.414,180.237c-.673,16.828-1.553,33.6-2.641,50.431-.052.984,1.5.984,1.553,0q5.669-89.937,4.349-180.185-.388-25.241-1.294-50.483c-.052-.984-1.605-.984-1.553,0Z" transform="translate(-1032.198 -399.375)" fill="#161616"/>
        </g>
      </g>
      <g id="Group_768" data-name="Group 768" transform="translate(422.212 13.728)">
        <g id="Group_767" data-name="Group 767">
          <path id="Path_434" data-name="Path 434" d="M1082.4,358.513q3.106,62.676,3.055,125.508,0,62.754-3.107,125.508-1.709,35.493-4.453,70.883c-.052.984,1.5.984,1.553,0q4.815-62.6,6.576-125.353,1.708-62.754.414-125.56-.777-35.493-2.485-70.987c-.052-.984-1.605-.984-1.553,0Z" transform="translate(-1077.898 -357.775)" fill="#161616"/>
        </g>
      </g>
      <g id="Group_770" data-name="Group 770" transform="translate(455.245 4.466)">
        <g id="Group_769" data-name="Group 769">
          <path id="Path_435" data-name="Path 435" d="M1143.3,340.67q4.349,65.162,5.126,130.582.7,65.628-2.226,131.152-1.631,36.736-4.5,73.42c-.052.984,1.5.984,1.553,0q4.97-65.162,6.369-130.53,1.32-65.55-.984-131.2-1.32-36.736-3.78-73.472a.777.777,0,0,0-1.553.052Z" transform="translate(-1141.698 -339.887)" fill="#161616"/>
        </g>
      </g>
      <g id="Group_772" data-name="Group 772" transform="translate(389.728 285.351)">
        <g id="Group_771" data-name="Group 771">
          <path id="Path_436" data-name="Path 436" d="M1021.705,883.113a279.066,279.066,0,0,1-6.524,40.283.779.779,0,0,0,1.5.414,277.691,277.691,0,0,0,6.576-40.7c.1-.984-1.45-.984-1.553,0Z" transform="translate(-1015.161 -882.375)" fill="#161616"/>
        </g>
      </g>
      <g id="Group_774" data-name="Group 774" transform="translate(34.718 13.141)">
        <g id="Group_773" data-name="Group 773">
          <path id="Path_437" data-name="Path 437" d="M338.825,357.19c-6.213,43.441-8.854,87.348-9.268,131.2-.362,44.114,1.45,88.177,4.142,132.187,1.5,24.9,3.262,49.758,5.022,74.663.052.984,1.605.984,1.553,0-3.107-43.855-6.213-87.711-7.922-131.618-1.709-43.8-1.968-87.711.57-131.514,1.45-24.9,3.832-49.81,7.352-74.507.207-.932-1.294-1.4-1.45-.414Z" transform="translate(-329.511 -356.642)" fill="#161616"/>
        </g>
      </g>
      <g id="Group_776" data-name="Group 776" transform="translate(66.071 27.455)">
        <g id="Group_775" data-name="Group 775">
          <path id="Path_438" data-name="Path 438" d="M397.8,385.019c-3.935,41.991-6.576,84.138-7.456,126.336a1239.454,1239.454,0,0,0,3.624,126.336q2.874,35.027,8.129,69.744c.155.984,1.657.57,1.5-.414A1070.751,1070.751,0,0,1,392.31,580.944c-1.346-41.629-.57-83.361,1.709-124.939q1.942-35.493,5.333-70.935c.1-1.035-1.45-1.035-1.553-.052Z" transform="translate(-390.066 -384.287)" fill="#161616"/>
        </g>
      </g>
      <g id="Group_778" data-name="Group 778" transform="translate(94.612 39.817)">
        <g id="Group_777" data-name="Group 777">
          <path id="Path_439" data-name="Path 439" d="M454.2,408.907a1086.816,1086.816,0,0,0-8.8,118.156,1102.2,1102.2,0,0,0,4.039,118.415q2.951,32.93,7.818,65.6c.155.984,1.657.569,1.5-.414a1091.365,1091.365,0,0,1-9.579-235.742q2.252-33.086,6.524-66.068c.207-.932-1.346-.932-1.5.052Z" transform="translate(-445.188 -408.162)" fill="#161616"/>
        </g>
      </g>
      <path id="Path_440" data-name="Path 440" d="M1073.406,341.111a435.82,435.82,0,0,1,11.961,81.756c3.883,78.391-14.55,142.439-30.6,183.55q-17.009,27.261-33.966,54.521a151.52,151.52,0,0,0,47.791,11.961,148.378,148.378,0,0,0,35.83-1.45c.1-2.278,1.812-36.917,1.916-39.2,5.644-116.033,6.006-123.955,6.213-131.928a1105.078,1105.078,0,0,0-4.763-137.21q-2.874-14.834-5.747-29.617C1092.563,335.985,1082.984,338.522,1073.406,341.111Z" transform="translate(-628.152 -332.341)" fill="#3f3f3f" opacity="0.12"/>
      <path id="Path_441" data-name="Path 441" d="M356.564,368.166c-1.346,5.644-3.366,14.083-5.747,24.387-10.563,45.978-18.329,79.789-22.471,110.907-7.352,54.832-14.446,107.956,15.792,151.552a122.786,122.786,0,0,0,24.853,26.3,93.714,93.714,0,0,1-22.937,5.747c-25.06,2.951-45.15-5.178-54.987-10.045-3.728-34.328-6.317-71.09-7.145-109.975A1277.545,1277.545,0,0,1,299.712,337.1Q328.06,352.633,356.564,368.166Z" transform="translate(-272.663 -334.077)" fill="#3f3f3f" opacity="0.13"/>
    </g>
    <g id="cat" transform="translate(227.707 170.643)">
      <path id="Path_442" data-name="Path 442" d="M312.9,282.146c-.673.518-.155,2.537.777,6.006.362,1.346.725,2.382.932,3.055-.414,2.8-.777,5.592-1.191,8.388a9.538,9.538,0,0,0-7.715,6.576,29.311,29.311,0,0,1,5.851,1.191,31.591,31.591,0,0,1,7.456,3.469,3.94,3.94,0,0,0,.932,2.692,3.71,3.71,0,0,0,2.123.932c1.864.311,4.09.725,6.938,1.346,1.243.725,3.314,1.916,5.851,3.314,8.6,4.66,11.7,5.437,20.3,9.993,5.54,2.951,5.074,3.055,8.957,4.919a88.606,88.606,0,0,0,14.549,5.592,23.607,23.607,0,0,0,5.074-9.216,22.867,22.867,0,0,0,.777-8.7,6.593,6.593,0,0,0,3.883.777c4.142-.466,6.783-5.178,7.611-8.543.725-2.951.052-4.815-.518-8.284-1.294-7.767-2.434-14.7.777-19.106,2.692-3.676,8.233-5.385,12.685-10.3.414-.466,1.191-1.346.932-1.76-.466-.777-4.09.57-5.851,1.346-1.139.518-9.682,4.453-12.271,13.359-.414,1.4-.466,5.437-.518,13.462-.052,5.851.052,9.165-2.278,11.08a5.517,5.517,0,0,1-4.556,1.191c-2.382-.518-3.521-2.848-4.556-4.4-2.692-4.09-6.524-5.8-11.236-8.129-3.676-1.812-6.835-2.485-13.2-3.883-6.006-1.294-7.818-1.139-10.407-3.055a18.692,18.692,0,0,1-5.333-6.938,24.351,24.351,0,0,1-2.692-7.767c-.311-2.123-.259-3.624-.777-3.728-.932-.207-1.4,4.09-4.556,5.592-1.916.932-3.158.052-6.524.155a19.3,19.3,0,0,0-7.456,1.76C316.729,283.854,313.829,281.473,312.9,282.146Z" transform="translate(-304.956 -274.249)" fill="#eb615b" stroke="#eb615b" stroke-width="1"/>
      <g id="Group_780" data-name="Group 780" transform="translate(7.831 7.898)">
        <g id="Group_779" data-name="Group 779">
          <path id="Path_443" data-name="Path 443" d="M321.05,306.536c-1.087-8.543,6.679-16.31,15.274-15.43,8.129.828,13.514,10.718,13.255,18.122-.052.984,1.5.984,1.553,0,.259-8.181-5.851-18.951-14.808-19.675-9.423-.777-18.019,7.56-16.828,16.983.155.932,1.709.984,1.553,0Z" transform="translate(-319.386 -289.503)"/>
        </g>
      </g>
      <g id="Group_782" data-name="Group 782" transform="translate(9.243 26.336)">
        <g id="Group_781" data-name="Group 781">
          <path id="Path_444" data-name="Path 444" d="M322.21,329.093c3.158,6.161,9.941,10.511,17.035,9.579a15.332,15.332,0,0,0,12.944-12.582c.155-.984-1.346-1.4-1.5-.414a13.732,13.732,0,0,1-11.65,11.443c-6.472.88-12.582-3.158-15.481-8.8-.466-.88-1.812-.1-1.346.777Z" transform="translate(-322.113 -325.114)"/>
        </g>
      </g>
      <g id="Group_784" data-name="Group 784" transform="translate(13.318 32.298)">
        <g id="Group_783" data-name="Group 783">
          <path id="Path_445" data-name="Path 445" d="M331.6,342.154c-.155-1.968,5.437-2.8,6.835-3.107a35.257,35.257,0,0,1,7.715-.88,25.371,25.371,0,0,1,13.514,3.78c.828.518,1.657-.828.777-1.346a28.181,28.181,0,0,0-17.552-3.832,41.9,41.9,0,0,0-9.423,2.019c-1.657.57-3.624,1.294-3.469,3.366.1.984,1.709.984,1.605,0Z" transform="translate(-329.983 -336.629)"/>
        </g>
      </g>
      <g id="Group_786" data-name="Group 786" transform="translate(37.01 18.531)">
        <g id="Group_785" data-name="Group 785">
          <path id="Path_446" data-name="Path 446" d="M375.927,311.417c3.262,3.935,8.543,4.867,13.255,5.9,6.265,1.45,12.737,2.744,18.226,6.213a21.588,21.588,0,0,1,4.5,32.723c-.673.725.414,1.864,1.087,1.087a23.088,23.088,0,0,0-.052-31.222c-4.349-4.66-10.563-7.093-16.62-8.7-6.161-1.605-15.015-1.864-19.365-7.145-.57-.725-1.657.362-1.036,1.139Z" transform="translate(-375.741 -310.04)"/>
        </g>
      </g>
      <g id="Group_788" data-name="Group 788" transform="translate(57.484 43.298)">
        <g id="Group_787" data-name="Group 787">
          <path id="Path_447" data-name="Path 447" d="M431.24,361.563a9.387,9.387,0,0,0-11.132-2.951c-4.919,2.019-5.178,8.077-4.608,12.685.1.984,1.657.984,1.553,0-.466-3.624-.518-9.216,3.21-11.029a7.809,7.809,0,0,1,9.579,2.123c.621.777,1.967,0,1.4-.828Z" transform="translate(-415.285 -357.873)"/>
        </g>
      </g>
      <g id="Group_790" data-name="Group 790" transform="translate(49.026 52.673)">
        <g id="Group_789" data-name="Group 789">
          <path id="Path_448" data-name="Path 448" d="M408.968,379.3c-2.848-2.175-5.8-4.039-9.475-3.055a.763.763,0,0,0-.518.932c.932,3.624,6.627,5.126,9.631,6.42a139.6,139.6,0,0,0,14.083,5.229c.932.311,1.346-1.191.414-1.5-3.832-1.191-7.559-2.485-11.287-4.039-2.019-.828-3.987-1.709-5.954-2.641-1.76-.828-4.919-1.812-5.437-3.883-.155.311-.362.621-.518.932,3.21-.88,5.851,1.036,8.233,2.9.828.673,1.605-.673.828-1.294Z" transform="translate(-398.949 -375.979)"/>
        </g>
      </g>
      <g id="Group_792" data-name="Group 792" transform="translate(13.417 36.504)">
        <g id="Group_791" data-name="Group 791">
          <path id="Path_449" data-name="Path 449" d="M330.291,345.916c2.019,3.314,6.11,3.883,9.682,4.4a62.426,62.426,0,0,0,15.844.207c.984-.1.984-1.657,0-1.553a61.612,61.612,0,0,1-12.737.155c-3.573-.362-9.32-.57-11.495-3.987-.466-.88-1.812-.1-1.294.777Z" transform="translate(-330.175 -344.752)"/>
        </g>
      </g>
      <g id="Group_794" data-name="Group 794" transform="translate(0 25.19)">
        <g id="Group_793" data-name="Group 793">
          <path id="Path_450" data-name="Path 450" d="M305.732,330.1c.673-3.624,3.832-5.488,7.352-5.644a8.849,8.849,0,0,1-.725-.57,16.9,16.9,0,0,0,1.139,3.573c.362.932,1.864.518,1.5-.414a28.67,28.67,0,0,1-1.139-3.573.777.777,0,0,0-.725-.57c-4.142.207-8.077,2.485-8.854,6.783-.207.984,1.294,1.4,1.45.414Z" transform="translate(-304.262 -322.9)"/>
        </g>
      </g>
      <g id="Group_796" data-name="Group 796" transform="translate(7.18 7.051)">
        <g id="Group_795" data-name="Group 795">
          <path id="Path_451" data-name="Path 451" d="M321.428,297.152a28.682,28.682,0,0,1-1.553-6.938c0-.207-.052-.414-.052-.621-.052-.466,0-.414.207.155.466.311.932.673,1.4,1.036a16.808,16.808,0,0,1,2.123,2.175c.673.777,1.76-.362,1.087-1.087-.88-1.036-4.556-5.281-6.11-3.624-.777.828-.207,2.744-.052,3.676a29.984,29.984,0,0,0,1.4,5.644c.414.932,1.916.57,1.553-.414Z" transform="translate(-318.13 -287.867)"/>
        </g>
      </g>
      <g id="Group_798" data-name="Group 798" transform="translate(26.517 2.745)">
        <g id="Group_797" data-name="Group 797">
          <path id="Path_452" data-name="Path 452" d="M356.938,285.893c.466-.828.932-1.657,1.45-2.485a10.26,10.26,0,0,0,.57-1.036c.311-.518.311-.984.932-.828.725.155.466,1.864.466,2.485,0,.984.052,1.968.052,2.951a.778.778,0,0,0,1.553,0c0-1.605.052-3.21-.052-4.815a2.547,2.547,0,0,0-1.553-2.537,2.022,2.022,0,0,0-2.278,1.139c-.88,1.4-1.657,2.9-2.485,4.3a.79.79,0,0,0,1.346.828Z" transform="translate(-355.475 -279.55)"/>
        </g>
      </g>
      <g id="Group_800" data-name="Group 800" transform="translate(77.581 0.18)">
        <g id="Group_799" data-name="Group 799">
          <path id="Path_453" data-name="Path 453" d="M454.1,317.367c.311,3.935,4.712,5.229,7.767,3.314,4.5-2.8,5.488-9.113,4.919-13.876-.777-6.524-2.33-12.582-.1-19.054,2.123-6.161,7.4-11.184,14.083-11.6.984-.052.984-1.605,0-1.553-9.113.57-15.326,8.336-16.62,16.931-.777,5.126.362,9.889,1.035,14.912a16.3,16.3,0,0,1-1.294,9.527,9.1,9.1,0,0,1-2.848,3.417c-1.916,1.191-5.229.828-5.437-1.967,0-1.036-1.553-1.087-1.5-.052Z" transform="translate(-454.098 -274.598)"/>
        </g>
      </g>
      <g id="Group_802" data-name="Group 802" transform="translate(78.354 29.009)">
        <g id="Group_801" data-name="Group 801">
          <path id="Path_454" data-name="Path 454" d="M455.648,347.012c1.605,4.3,7.2,2.382,9.63-.1,3.987-4.039,3.107-10.77,2.8-15.9-.052-.984-1.605-.984-1.553,0a43.444,43.444,0,0,1-.052,10.045,8.729,8.729,0,0,1-1.864,4.246c-1.139,1.4-6.11,4.919-7.456,1.294-.362-.932-1.864-.518-1.5.414Z" transform="translate(-455.592 -330.275)"/>
        </g>
      </g>
      <g id="Group_804" data-name="Group 804" transform="translate(88.59 0.074)">
        <g id="Group_803" data-name="Group 803">
          <path id="Path_455" data-name="Path 455" d="M491.069,274.448c-5.9,2.278-11.857,5.488-14.239,11.7-2.744,7.145-.777,14.912-.932,22.316a.778.778,0,0,0,1.553,0c.155-6.472-1.4-13.1.155-19.52,1.709-7.042,7.559-10.562,13.876-13,.932-.362.518-1.864-.414-1.5Z" transform="translate(-475.36 -274.392)"/>
        </g>
      </g>
      <g id="Group_806" data-name="Group 806" transform="translate(89.013 0.932)">
        <g id="Group_805" data-name="Group 805">
          <path id="Path_456" data-name="Path 456" d="M490.273,276.127A26.17,26.17,0,0,0,477.328,288.5c-1.346,2.9-1.139,6.11-1.139,9.268,0,4.039.155,8.129.466,12.168.052.984,1.605.984,1.553,0-.207-3.262-.362-6.472-.414-9.734-.052-3.417-.518-7.456.777-10.666,2.226-5.437,7.249-9.631,12.478-12.064.932-.414.155-1.76-.777-1.346Z" transform="translate(-476.178 -276.049)"/>
        </g>
      </g>
      <g id="Group_808" data-name="Group 808" transform="translate(12.491 18.245)">
        <g id="Group_807" data-name="Group 807">
          <path id="Path_457" data-name="Path 457" d="M328.446,311a2.945,2.945,0,0,0,5.488-1.139c.052-.518-.725-.466-.777,0a2.164,2.164,0,0,1-4.039.777.382.382,0,1,0-.673.362Z" transform="translate(-328.388 -309.487)" fill="#fff"/>
        </g>
      </g>
      <g id="Group_810" data-name="Group 810" transform="translate(23.468 15.844)">
        <g id="Group_809" data-name="Group 809">
          <path id="Path_458" data-name="Path 458" d="M349.646,306.74a3.071,3.071,0,0,0,5.747-1.5.388.388,0,0,0-.777,0,2.288,2.288,0,0,1-4.3,1.139.383.383,0,1,0-.673.362Z" transform="translate(-349.588 -304.85)" fill="#fff"/>
        </g>
      </g>
      <g id="Group_812" data-name="Group 812" transform="translate(19.46 20.682)">
        <g id="Group_811" data-name="Group 811">
          <path id="Path_459" data-name="Path 459" d="M342.806,314.662a5,5,0,0,1-.88,4.246c-.311.414.362.777.673.414a6.008,6.008,0,0,0,.984-4.867c-.155-.466-.932-.259-.777.207Z" transform="translate(-341.845 -314.193)" fill="#fff"/>
        </g>
      </g>
      <g id="Group_814" data-name="Group 814" transform="translate(20.716 20.711)">
        <g id="Group_813" data-name="Group 813">
          <path id="Path_460" data-name="Path 460" d="M344.286,314.638a4.714,4.714,0,0,0,2.744,4.66c.466.207.828-.466.414-.673a4.016,4.016,0,0,1-2.382-3.987.388.388,0,0,0-.777,0Z" transform="translate(-344.272 -314.25)" fill="#fff"/>
        </g>
      </g>
      <g id="Group_816" data-name="Group 816" transform="translate(7.747 24.861)">
        <g id="Group_815" data-name="Group 815">
          <path id="Path_461" data-name="Path 461" d="M319.574,323.112c4.556-.362,7.456,3.366,10.511,6.11.362.311.932-.207.57-.57-3.21-2.9-6.317-6.679-11.08-6.369-.466.052-.466.828,0,.828Z" transform="translate(-319.225 -322.265)" fill="#fff"/>
        </g>
      </g>
      <g id="Group_818" data-name="Group 818" transform="translate(16.02 30.007)">
        <g id="Group_817" data-name="Group 817">
          <path id="Path_462" data-name="Path 462" d="M335.771,337.017a25.788,25.788,0,0,1,19.572-3.469c.466.1.673-.621.207-.725a26.737,26.737,0,0,0-20.141,3.573c-.466.207-.052.88.362.621Z" transform="translate(-335.202 -332.204)" fill="#fff"/>
        </g>
      </g>
      <g id="Group_820" data-name="Group 820" transform="translate(30.944 36.905)">
        <g id="Group_819" data-name="Group 819">
          <path id="Path_463" data-name="Path 463" d="M364.374,350.535a17.954,17.954,0,0,0,13.048-4.349c.362-.311-.155-.88-.57-.57a17.176,17.176,0,0,1-12.478,4.142.39.39,0,0,0,0,.777Z" transform="translate(-364.025 -345.526)" fill="#fff"/>
        </g>
      </g>
      <g id="Group_822" data-name="Group 822" transform="translate(28.803 4.948)">
        <g id="Group_821" data-name="Group 821">
          <path id="Path_464" data-name="Path 464" d="M360.983,284.01a7.611,7.611,0,0,0-.725,6.265c.155.466.88.259.725-.207a6.749,6.749,0,0,1,.621-5.644.375.375,0,1,0-.621-.414Z" transform="translate(-359.891 -283.805)" fill="#fff"/>
        </g>
      </g>
      <g id="Group_824" data-name="Group 824" transform="translate(9.208 9.236)">
        <g id="Group_823" data-name="Group 823">
          <path id="Path_465" data-name="Path 465" d="M322.23,292.819a5.2,5.2,0,0,1,2.33,3.366c.1.466.828.259.725-.207a6.02,6.02,0,0,0-2.692-3.832c-.414-.259-.777.414-.362.673Z" transform="translate(-322.047 -292.088)" fill="#fff"/>
        </g>
      </g>
      <g id="Group_826" data-name="Group 826" transform="translate(36.686 17.566)">
        <g id="Group_825" data-name="Group 825">
          <path id="Path_466" data-name="Path 466" d="M375.211,308.861a13.459,13.459,0,0,0,3.417,3c.414.259.828-.414.414-.673a12.5,12.5,0,0,1-3.262-2.9c-.362-.362-.88.207-.57.57Z" transform="translate(-375.116 -308.176)" fill="#fff"/>
        </g>
      </g>
      <g id="Group_828" data-name="Group 828" transform="translate(57.039 42.247)">
        <g id="Group_827" data-name="Group 827">
          <path id="Path_467" data-name="Path 467" d="M426.114,357.27c-1.087-2.744-6.317-.88-8.025.207a8.084,8.084,0,0,0-3.262,9.268c.155.466.88.259.725-.207a7.342,7.342,0,0,1,2.019-7.715,7.808,7.808,0,0,1,3.417-1.812c.88-.259,3.883-.828,4.349.414.207.518.932.311.777-.155Z" transform="translate(-414.425 -355.843)" fill="#fff"/>
        </g>
      </g>
      <g id="Group_830" data-name="Group 830" transform="translate(45.269 51.774)">
        <g id="Group_829" data-name="Group 829">
          <path id="Path_468" data-name="Path 468" d="M404.485,375.671a18,18,0,0,0-12.53-.57c-.466.155-.259.88.207.725a17.147,17.147,0,0,1,12.116.57c.466.207.673-.57.207-.725Z" transform="translate(-391.693 -374.243)" fill="#fff"/>
        </g>
      </g>
    </g>
    <g id="girl_waving" transform="translate(359.904 130.597)">
      <g id="legs" transform="translate(63.488 285.889)">
        <path id="Path_469" data-name="Path 469" d="M686.808,771.759c-2.123,5.074-2.123,8.854-2.433,18.588-.363,12.012-1.4,23.973-1.5,35.933-.1,10.1-.259,25.371-.673,45.253a523.055,523.055,0,0,0,107.024-5.074c-7.456-25.216-12.375-43.6-15.9-57.835-1.864-7.611-4.608-19-12.168-32.309a103.811,103.811,0,0,0-11.6-16.465c-.828-.725-19.106-16.1-40.231-8.854C708.3,751.41,692.918,757,686.808,771.759Z" transform="translate(-682.2 -749.059)" fill="#ec615b"/>
        <g id="Group_832" data-name="Group 832" transform="translate(35.008 51.722)">
          <g id="Group_831" data-name="Group 831">
            <path id="Path_470" data-name="Path 470" d="M749.91,850.116c3.469,6.162,6.938,12.323,10.355,18.485.466.88,1.812.1,1.346-.777-3.469-6.161-6.938-12.323-10.355-18.484-.466-.88-1.812-.1-1.346.776Z" transform="translate(-749.813 -848.952)" fill="#c64f4f"/>
          </g>
        </g>
        <g id="Group_834" data-name="Group 834" transform="translate(34.511 51.199)">
          <g id="Group_833" data-name="Group 833">
            <path id="Path_471" data-name="Path 471" d="M749.033,849.318c7.974,9.941,12.582,21.28,15.067,33.707a294.131,294.131,0,0,1,4.712,35.623c.052.984,1.605.984,1.553,0a310.708,310.708,0,0,0-4.867-36.606,77.106,77.106,0,0,0-15.326-33.811c-.621-.828-1.76.311-1.139,1.087Z" transform="translate(-748.853 -847.942)" fill="#c64f4f"/>
          </g>
        </g>
        <path id="Path_472" data-name="Path 472" d="M773.3,750.5c1.812,3.625,4.4,8.957,7.3,15.378,8.44,18.743,17.19,38.522,21.85,62.858a177.98,177.98,0,0,1,2.951,41.836c4.349-.207,8.958-.57,13.773-1.087s9.423-1.139,13.773-1.864c-1.346-4.556-3.521-11.8-5.954-20.763-6.783-25.06-7.715-32.879-13.514-49.4-4.3-12.271-8.284-20.607-14.032-28.581-5.178-7.2-10.045-11.7-16.206-14.86A41.429,41.429,0,0,0,773.3,750.5Z" transform="translate(-726.131 -749.754)" fill="#3f3f3f" opacity="0.19"/>
        <path id="Path_473" data-name="Path 473" d="M749.4,851.7a151.5,151.5,0,0,1,4.608,26.717,154.45,154.45,0,0,1-2.692,43.7c5.954-.362,11.857-.725,17.811-1.087a248.738,248.738,0,0,0-3.262-29.151c-3.262-19.106-6.679-26.2-9.424-30.756A65.746,65.746,0,0,0,749.4,851.7Z" transform="translate(-714.606 -798.555)" fill="#3f3f3f" opacity="0.11"/>
      </g>
      <g id="hand_right" transform="translate(11.474 219.229)">
        <path id="Path_474" data-name="Path 474" d="M602.87,621.446c-1.709,1.139-2.744,3.314-4.763,7.611a69.35,69.35,0,0,0-3.676,10.356c-3.417,11.6-3.055,9.63-4.246,14.032a196.2,196.2,0,0,0-5.9,29.616,183.757,183.757,0,0,0-1.139,25.63,161.026,161.026,0,0,0,5.074,34.173c3.21,13.2,7.508,24.18,16.051,46.082,1.864,4.712,3.417,8.595,4.5,11.287-.777.1-2.019.259-3.521.466-7.818.932-8.906.725-12.064,1.4-4.039.88-7.663,1.76-9.061,4.815-.621,1.4-.88,3.365-.1,4.039.984.828,2.9-1.035,6.213-2.123a15.616,15.616,0,0,1,6.99-.57,35.153,35.153,0,0,0-2.589,6.731c-1.139,3.935-2.019,7.145-.57,9.423.725,1.139,2.123,2.175,3.262,1.864.621-.155,1.191-.725,2.744-4.815,1.5-4.09,1.605-5.385,2.848-6.99a9.318,9.318,0,0,1,3.158-2.485,26.027,26.027,0,0,0-1.087,5.54,17.425,17.425,0,0,0,0,4.349c.207,1.5.673,4.712,3.055,6.472.414.311,2.123,1.605,3.158.932.88-.518.621-1.968.984-6.627.311-3.935.621-5.022.88-5.644a10.909,10.909,0,0,1,2.485-3.883,78.936,78.936,0,0,0-.1,9.113c.207,3.676.57,5.333,1.761,6.369a2.83,2.83,0,0,0,2.744.725c.932-.414,1.243-1.709,1.5-3.314,1.139-6.058.466-7.818,1.761-10.873a8.166,8.166,0,0,1,2.485-3.676c2.951-2.175,7.145-.88,7.715-.725,2.485.777,3.417,2.123,4.66,1.553,1.036-.466,1.605-1.967,1.657-3.21.052-3.055-3.314-5.385-6.213-7.3A28.817,28.817,0,0,0,627,798.473a122.319,122.319,0,0,1-8.388-21.591,138.795,138.795,0,0,1-3.366-15.481c-2.744-15.792-1.76-21.85-4.815-37.539-.725-3.78-1.45-6.783-1.864-8.491.207-2.589.57-6.628,1.087-11.546,1.709-16.051,2.848-26.1,6.317-37.9,2.744-9.268,5.54-16.879,5.54-16.879,3.521-9.475,4.66-10.77,4.246-13.825C624.306,625.588,609.238,617.2,602.87,621.446Z" transform="translate(-582.388 -620.315)" fill="#fff"/>
        <g id="Group_836" data-name="Group 836" transform="translate(0 5.642)">
          <g id="Group_835" data-name="Group 835">
            <path id="Path_475" data-name="Path 475" d="M598.238,631.62a195.875,195.875,0,0,0-16.258,67.207c-1.294,23.662,2.8,46.807,10.459,69.174,4.349,12.789,9.63,25.215,15.015,37.642.414.932,1.709.1,1.346-.777-9.32-21.539-18.433-43.389-22.782-66.482-4.3-22.782-3.417-46.341,1.553-68.967a201.527,201.527,0,0,1,12.012-36.969c.362-.932-.932-1.76-1.346-.828Z" transform="translate(-581.743 -631.211)" fill="#161616"/>
          </g>
        </g>
        <g id="Group_838" data-name="Group 838" transform="translate(25.504 35.09)">
          <g id="Group_837" data-name="Group 837">
            <path id="Path_476" data-name="Path 476" d="M641.3,688.611A206.327,206.327,0,0,0,631,749.76a.778.778,0,0,0,1.553,0,205.231,205.231,0,0,1,10.252-60.735c.311-.932-1.191-1.346-1.5-.414Z" transform="translate(-631 -688.085)" fill="#161616"/>
          </g>
        </g>
        <g id="Group_840" data-name="Group 840" transform="translate(19.93 86.242)">
          <g id="Group_839" data-name="Group 839">
            <path id="Path_477" data-name="Path 477" d="M620.372,787.977c4.608,6.42,6.472,14.083,7.56,21.747,1.139,7.818,1.657,15.74,2.8,23.559,2.278,15.9,6.006,31.739,13.514,45.978.466.88,1.812.1,1.346-.777-7.818-14.808-11.495-31.325-13.669-47.79-1.916-14.446-1.346-31.17-10.2-43.493-.57-.777-1.916,0-1.346.777Z" transform="translate(-620.234 -786.879)" fill="#161616"/>
          </g>
        </g>
        <g id="Group_842" data-name="Group 842" transform="translate(0.164 179.347)">
          <g id="Group_841" data-name="Group 841">
            <path id="Path_478" data-name="Path 478" d="M607.4,966.7a110.514,110.514,0,0,0-14.342,1.605c-3.366.673-6.938,1.76-9.268,4.453-1.346,1.6-3.055,5.437-.1,6.524,1.294.466,2.433-.414,3.521-1.036,2.692-1.553,5.488-3.158,8.7-2.278a.779.779,0,0,0,.414-1.5,10.019,10.019,0,0,0-7.4,1.087c-.725.362-1.4.725-2.071,1.139-.414.207-.777.466-1.191.725-.466-.828-.984-1.657-1.45-2.485.1-1.294,2.692-2.8,3.624-3.314a25.538,25.538,0,0,1,8.284-2.227c3.78-.569,7.559-.932,11.339-1.139a.777.777,0,0,0-.052-1.553Z" transform="translate(-582.059 -966.697)" fill="#161616"/>
          </g>
        </g>
        <g id="Group_844" data-name="Group 844" transform="translate(10.185 183.946)">
          <g id="Group_843" data-name="Group 843">
            <path id="Path_479" data-name="Path 479" d="M612.487,975.589a11.864,11.864,0,0,0-9.009,7.249c-1.657,3.935-3.055,9.786-1.139,13.825,1.45,3.055,5.022,4.142,6.369.414.828-2.33.673-4.867,1.5-7.2a13.875,13.875,0,0,1,5.385-7.094c.828-.569.052-1.916-.777-1.346a14.889,14.889,0,0,0-5.437,6.42,19.963,19.963,0,0,0-1.4,4.194c-.259,1.191-.414,7.2-3.262,5.437-1.605-.984-1.76-4.142-1.709-5.747a28.086,28.086,0,0,1,1.5-7.4,10.58,10.58,0,0,1,8.336-7.249c1.035-.155.621-1.657-.362-1.5Z" transform="translate(-601.413 -975.578)" fill="#161616"/>
          </g>
        </g>
        <g id="Group_846" data-name="Group 846" transform="translate(21.414 187.651)">
          <g id="Group_845" data-name="Group 845">
            <path id="Path_480" data-name="Path 480" d="M627.812,982.872c-3.21,2.071-4.349,6.576-4.66,10.2-.311,3.883.777,8.077,3.676,10.822,1.709,1.605,4.349,2.433,4.815-.57.777-5.022-1.243-12.116,4.246-15.119.88-.466.1-1.812-.777-1.346a8.877,8.877,0,0,0-3.987,4.97c-1.087,3.107-.466,6.265-.932,9.475-.207,1.45-.621,3-2.227,1.5a8.787,8.787,0,0,1-1.5-1.864,11.376,11.376,0,0,1-1.709-5.126c-.362-3.625.57-9.423,3.883-11.6.777-.57,0-1.916-.828-1.346Z" transform="translate(-623.101 -982.734)" fill="#161616"/>
          </g>
        </g>
        <g id="Group_848" data-name="Group 848" transform="translate(31.983 191.408)">
          <g id="Group_847" data-name="Group 847">
            <path id="Path_481" data-name="Path 481" d="M645.008,990.514c-.984,3.728-1.916,7.611-1.294,11.495.259,1.864,1.346,6.42,3.728,6.886,2.692.518,3.78-4.246,4.039-6.006.57-3.832-.155-8.44,2.848-11.391a.769.769,0,0,0-1.087-1.087c-3.624,3.573-2.382,8.751-3.469,13.307-.362,1.657-1.4,4.142-3.107,2.226-.932-.984-1.191-2.9-1.4-4.194-.518-3.624.363-7.249,1.294-10.77.207-.984-1.294-1.4-1.553-.466Z" transform="translate(-643.513 -989.991)" fill="#161616"/>
          </g>
        </g>
        <g id="Group_850" data-name="Group 850" transform="translate(40.682 177.909)">
          <g id="Group_849" data-name="Group 849">
            <path id="Path_482" data-name="Path 482" d="M664.293,965.514c3.055,1.243,6.213,2.589,8.6,4.97a9.743,9.743,0,0,1,2.744,4.3c.777,4.3-2.434,1.553-3.624,1.036-3.262-1.45-9.734-.414-11.6,2.9-.466.88.88,1.657,1.346.777.984-1.812,3.676-2.278,5.54-2.537a8.939,8.939,0,0,1,3.521.052c1.243.362,2.019,1.45,3.21,1.812,1.709.518,3-.673,3.262-2.33.466-2.693-1.864-5.7-3.676-7.456-2.537-2.434-5.8-3.78-9.009-5.074-.828-.311-1.191,1.191-.311,1.553Z" transform="translate(-660.313 -963.919)" fill="#161616"/>
          </g>
        </g>
        <path id="Path_483" data-name="Path 483" d="M633.475,656.794c-5.954.362-9.527,15.585-11.495,24.025-2.226,9.475-4.246,22.523-3.832,41.525a241.1,241.1,0,0,0,16.672,82.792c1.657,4.66,3.262,9.32,4.919,13.928-.932,3.832-1.864,7.767-2.744,11.857-1.139,5.385-2.175,10.666-3,15.74a3.937,3.937,0,0,0,3.262-.88c1.191-1.191,1.036-3.107,1.087-4.763.052-1.553.207-9.061,3.573-11.857,2.071-1.709,5.385-1.709,7.663-.88,2.33.88,3.365,2.589,4.919,2.071a3.7,3.7,0,0,0,2.175-2.951c.518-3.78-6.731-7.663-7.922-8.284-2.33-1.242-3.417-1.4-4.919-2.951a11.725,11.725,0,0,1-2.744-5.333c-4.3-16.362-6.42-15.326-9.32-34.121-2.175-14.187-.777-13.359-3-24.646-1.553-7.974-2.848-11.236-3.262-18.122a74.665,74.665,0,0,1,1.346-18.692c3.883-21.384,11.339-47.273,13.151-53.434C638.343,659.227,636.064,656.638,633.475,656.794Z" transform="translate(-599.273 -637.903)" fill="#3f3f3f" opacity="0.13"/>
      </g>
      <g id="hand_left" transform="translate(86.381)">
        <path id="Path_484" data-name="Path 484" d="M791.886,222.648c-1.605-.052-2.848,2.848-3.158,3.624a11.76,11.76,0,0,0-.673,6.524s.311,2.175,1.346,15.326a55.341,55.341,0,0,1-.466,12.634c-2.071,5.7-4.038,10.148-5.385,13.048-4.556,9.734-7.611,13.617-13.98,25.94-2.382,4.608-2.589,5.333-5.385,11.029-6.99,14.135-12.116,22.989-17.345,32.464-4.608,8.284-11.08,20.452-18.692,36.089-.362,1.346-2.175,8.543,2.019,14.86,4.453,6.679,13.773,9.682,22.782,6.783a54.649,54.649,0,0,0,5.178-9.009,61.9,61.9,0,0,0,3.158-8.8c.57-1.916,2.848-8.388,7.456-21.436,1.45-4.039,3.21-8.854,6.783-18.277,5.437-14.446,8.129-21.643,9.941-26.148,4.09-10.252,7.2-17.345,13.307-31.118,3.21-7.249,7.145-16,11.7-25.94a63.5,63.5,0,0,0,10.148-7.2c5.592-4.815,8.388-8.906,13.773-16.672,3.469-5.074,6.11-9.527,5.385-13.98-.1-.621-.362-2.434-1.346-2.692-1.243-.362-2.8,2.123-4.5,4.3a46.3,46.3,0,0,1-8.336,8.129,86.107,86.107,0,0,1,3.624-8.543c2.123-4.349,3.883-7.145,4.971-11.961,1.191-5.126.1-6.058-.207-6.317-1.4-1.036-3.78.932-5.178-.207-1.243-1.087-.155-3.469-1.139-4.039s-3.158,1.139-4.712,2.951c-2.693,3.107-3.314,6.11-4.3,9.009a38.454,38.454,0,0,1-5.851,11.029c-.777.1-1.812.155-2.278-.466-.518-.725.207-1.916.88-3.832.155-.466.052-.207,1.139-4.971.414-1.812,1.191-5.178,1.812-7.87.88-3.883,1.294-5.488.466-7.2-.155-.362-.828-1.76-1.812-1.812-1.139-.052-2.019,1.76-2.692,3.158-2.744,5.644-4.142,8.491-4.5,9.475-1.812,4.919-4.246,12.427-4.608,15.015a12.644,12.644,0,0,1-.673,2.8c-.259.673-.414.932-.57,1.346-1.294,2.9-.207,4.815-1.553,5.851-.155.1-.932.673-1.553.466-.673-.207-.984-1.087-1.346-4.039-.518-4.039-.207-5.23-1.139-6.99C793.75,224.2,792.973,222.7,791.886,222.648Z" transform="translate(-726.912 -197.384)" fill="#fff"/>
        <g id="Group_852" data-name="Group 852" transform="translate(60.469 24.144)">
          <g id="Group_851" data-name="Group 851">
            <path id="Path_485" data-name="Path 485" d="M845.219,268.63c.362-3.78-.207-7.456-.414-11.236a27.8,27.8,0,0,1,.155-5.488,20.024,20.024,0,0,1,.673-3.055c.518-1.5.569-2.744,2.226-2.8,1.553-.052,1.45.88,1.709,2.175a19.732,19.732,0,0,1,.362,3.469,29.794,29.794,0,0,0,.518,4.815c.362,1.605,1.346,2.951,3.158,2.382.932-.311.57-1.812-.414-1.5-1.812.518-1.657-5.592-1.76-6.627a17.6,17.6,0,0,0-.932-4.919c-.88-2.175-2.9-3.262-4.608-1.243-2.226,2.589-2.693,7.249-2.693,10.459,0,4.556.88,9.009.466,13.566-.052.984,1.5.984,1.553,0Z" transform="translate(-843.2 -243.538)" fill="#161616"/>
          </g>
        </g>
        <g id="Group_854" data-name="Group 854" transform="translate(70.055)">
          <g id="Group_853" data-name="Group 853">
            <path id="Path_486" data-name="Path 486" d="M863.156,235.788c2.589-5.022,3.365-10.718,4.867-16.1a70.479,70.479,0,0,1,6.627-16.672,15.491,15.491,0,0,1,2.33-3.624c1.916-1.76,1.916,1.605,1.76,3.055a77.069,77.069,0,0,1-1.864,9.631c-.673,2.9-1.605,5.7-2.278,8.6-.362,1.605-.362,3,.777,4.246.673.725,1.76-.362,1.087-1.087-1.294-1.4.052-4.194.466-5.7.466-1.709.932-3.417,1.294-5.126.725-3.158,1.45-6.369,1.916-9.631.259-1.709.621-4.712-.88-6.006-1.295-1.087-2.589-.052-3.469.984-3.78,4.712-6.11,10.925-7.974,16.62-2.123,6.576-2.8,13.928-6.006,20.09a.765.765,0,0,0,1.346.725Z" transform="translate(-861.713 -196.906)" fill="#161616"/>
          </g>
        </g>
        <g id="Group_856" data-name="Group 856" transform="translate(83.348 2.481)">
          <g id="Group_855" data-name="Group 855">
            <path id="Path_487" data-name="Path 487" d="M888.119,227.38c1.553.155,2.123-.984,2.848-2.226,1.139-1.968,2.175-4.039,3.158-6.058,1.916-3.935,3.262-8.233,5.592-11.909a9.067,9.067,0,0,1,1.968-2.485,2.332,2.332,0,0,1,2.692-.673,10.381,10.381,0,0,1,.259,2.175,20.783,20.783,0,0,1-1.657,7.456c-1.76,4.712-3.728,9.372-5.644,14.083-.362.932,1.139,1.346,1.5.414,1.087-2.692,12.271-26.3,4.971-26.458-1.45-.052-3.107,1.76-3.935,2.744a24.464,24.464,0,0,0-3.417,5.7c-1.087,2.434-2.071,4.867-3.21,7.249-.673,1.45-1.45,2.951-2.175,4.349-.466.932-1.6,4.142-2.9,4.039-1.035-.052-1.035,1.5-.052,1.605Z" transform="translate(-887.387 -201.698)" fill="#161616"/>
          </g>
        </g>
        <g id="Group_858" data-name="Group 858" transform="translate(96.855 6.045)">
          <g id="Group_857" data-name="Group 857">
            <path id="Path_488" data-name="Path 488" d="M919.028,211.645c.569-3,3.831-.932,4.246.984.362,1.605-.259,3.21-.777,4.712-.777,2.278-1.657,4.5-2.589,6.679a101.738,101.738,0,0,1-6.317,12.271.777.777,0,0,0,1.346.777,108.316,108.316,0,0,0,5.954-11.391c1.5-3.366,3.314-7.093,3.883-10.77.362-2.33-.311-5.333-2.9-6.161a3.366,3.366,0,0,0-4.349,2.537c-.155.932,1.346,1.346,1.5.362Z" transform="translate(-913.475 -208.581)" fill="#161616"/>
          </g>
        </g>
        <g id="Group_860" data-name="Group 860" transform="translate(82.46 21.953)">
          <g id="Group_859" data-name="Group 859">
            <path id="Path_489" data-name="Path 489" d="M902.618,252.505c1.968-2.226,3.883-4.453,5.851-6.679a40.746,40.746,0,0,1,3.107-3.521c.363-.311.725-.57,1.036-.88.88.311,1.76.621,2.692.932.259.466-.362,1.812-.518,2.226a62.7,62.7,0,0,1-6.679,13.928,66.647,66.647,0,0,1-22.057,21.436c-.88.518-.052,1.864.777,1.346a68.06,68.06,0,0,0,25.94-27.908,53.723,53.723,0,0,0,3.624-8.75c.518-1.76.829-4.142-1.191-5.074-1.968-.932-4.039.88-5.281,2.175-2.951,3.055-5.644,6.472-8.44,9.682-.621.725.466,1.812,1.139,1.087Z" transform="translate(-885.672 -239.305)" fill="#161616"/>
          </g>
        </g>
        <g id="Group_862" data-name="Group 862" transform="translate(0 46.894)">
          <g id="Group_861" data-name="Group 861">
            <path id="Path_490" data-name="Path 490" d="M787.555,288.213c.362,4.764.725,9.631-.052,14.394a45.827,45.827,0,0,1-4.919,13.307c-4.4,8.6-9.009,17.087-13.514,25.63q-13.514,25.63-27.028,51.208c-5.178,9.786-10.355,19.624-15.533,29.409-.466.88.88,1.657,1.346.777,18.588-35.26,37.539-70.365,55.816-105.833a48.742,48.742,0,0,0,5.074-13.1c1.036-5.23.673-10.511.259-15.792a.725.725,0,1,0-1.45,0Z" transform="translate(-726.413 -287.475)" fill="#161616"/>
          </g>
        </g>
        <g id="Group_864" data-name="Group 864" transform="translate(26.943 61.846)">
          <g id="Group_863" data-name="Group 863">
            <path id="Path_491" data-name="Path 491" d="M834.239,316.739a1084.852,1084.852,0,0,0-43.752,107.386c-3.728,10.614-7.456,21.229-11.96,31.532-.414.932.932,1.709,1.346.777,7.715-17.552,13.359-35.933,19.986-53.848q10.174-27.649,21.953-54.729c4.453-10.2,9.009-20.3,13.773-30.341.414-.88-.932-1.657-1.346-.777Z" transform="translate(-778.449 -316.352)" fill="#161616"/>
          </g>
        </g>
        <path id="Path_492" data-name="Path 492" d="M846.335,213.292c-2.123-.311-4.97,8.388-6.627,12.737-5.022,13.359-9.268,14.912-20.038,33.034a242.89,242.89,0,0,0-15.015,29.824Q779.8,341.234,755,393.633c4.039,4.919,8.026,9.889,12.064,14.808,2.019-5.747,4.971-14.187,8.647-24.387,6.679-18.381,15.326-42.043,27.546-70.831,4.867-11.391,11.6-26.769,20.245-44.839a72.918,72.918,0,0,0,9.32-7.042c4.867-4.246,11.287-9.993,15.688-19.365a47.539,47.539,0,0,0,4.091-13.2,4.532,4.532,0,0,0-2.744-.466c-1.864.362-2.848,2.175-3.624,3.417-3,4.608-7.4,7.663-7.974,7.3-.311-.259.57-1.76,2.951-6.627,4.867-9.993,2.848-7.352,4.763-10.718,1.087-1.916,2.175-3.573,1.812-5.7C847.785,215.053,847.215,213.448,846.335,213.292Z" transform="translate(-740.199 -204.804)" fill="#3f3f3f" opacity="0.1"/>
        <path id="Path_493" data-name="Path 493" d="M847.9,281.5c-2.589,1.657-6.265,4.09-10.459,7.3-4.815,3.624-9.993,7.559-14.342,12.53a55.933,55.933,0,0,0-10.045,17.294c-14.239,36.348-31.17,75.8-35.985,86.779-2.641,6.006-6.783,15.067-12.271,25.94,2.485,3.262,5.022,6.524,7.508,9.786,7.145-21.8,15.378-44.632,24.8-68.294,10.148-25.423,20.659-49.188,31.222-71.3A68.161,68.161,0,0,0,847.9,281.5Z" transform="translate(-744.924 -237.7)" fill="#3f3f3f" opacity="0.13"/>
      </g>
      <g id="torso" transform="translate(27.214 175.544)">
        <path id="Path_494" data-name="Path 494" d="M637.218,554.363a57.838,57.838,0,0,0-10.614,9.165,66.166,66.166,0,0,0-9.372,13.721c-1.709,3.055-2.951,5.747-3.832,7.715,1.346,2.589,3.521,6.576,6.524,11.339,5.333,8.44,9.475,13,16.621,22.161,3,3.832,7.352,9.579,12.53,16.828q1.243,5.825,2.175,12.271a174.142,174.142,0,0,1,1.709,24.335,30.334,30.334,0,0,0,10.1,7.2c8.077,3.573,15.43,2.537,19.261,1.916,8.492-1.294,14.291-5.074,18.277-7.715a56.549,56.549,0,0,0,15.43-15.171c-.673-8.077-1.553-16.413-2.641-25.06q-1.4-11.029-3.107-21.436a118.1,118.1,0,0,0-2.382-21.436c-1.45-7.2-3.21-15.585-8.44-25.526a78.883,78.883,0,0,0-17.811-22.627,81.2,81.2,0,0,0-7.2-5.54,115.634,115.634,0,0,1-18.536,9.63C647.625,549.548,643.741,550.066,637.218,554.363Z" transform="translate(-612.749 -536.211)" fill="#fff"/>
        <g id="Group_866" data-name="Group 866" transform="translate(0 17.03)">
          <g id="Group_865" data-name="Group 865">
            <path id="Path_495" data-name="Path 495" d="M613.622,600.763c1.6-6.11,6.058-11.805,9.889-16.776a65.078,65.078,0,0,1,14.032-13.669c.828-.569.052-1.916-.777-1.346A66.327,66.327,0,0,0,622.32,583c-3.987,5.126-8.491,10.925-10.148,17.294-.259,1.036,1.243,1.4,1.45.466Z" transform="translate(-612.142 -568.834)" fill="#161616"/>
          </g>
        </g>
        <g id="Group_868" data-name="Group 868" transform="translate(0.224 48.313)">
          <g id="Group_867" data-name="Group 867">
            <path id="Path_496" data-name="Path 496" d="M612.692,630.416a305.4,305.4,0,0,0,37.642,52.14c.673.725,1.761-.362,1.087-1.087a304.389,304.389,0,0,1-37.383-51.829.777.777,0,0,0-1.346.777Z" transform="translate(-612.575 -629.252)" fill="#161616"/>
          </g>
        </g>
        <g id="Group_870" data-name="Group 870" transform="translate(43.013)">
          <g id="Group_869" data-name="Group 869">
            <path id="Path_497" data-name="Path 497" d="M696.347,546.587a63.438,63.438,0,0,1,18.951-9.113.779.779,0,0,0-.414-1.5,65.2,65.2,0,0,0-19.313,9.268c-.828.57-.052,1.916.777,1.346Z" transform="translate(-695.216 -535.942)" fill="#161616"/>
          </g>
        </g>
        <g id="Group_872" data-name="Group 872" transform="translate(61.478 0.462)">
          <g id="Group_871" data-name="Group 871">
            <path id="Path_498" data-name="Path 498" d="M731.2,538.318c24.75,17.242,35.364,47.48,34.173,76.734-.052.984,1.5.984,1.553,0,1.243-29.876-9.734-60.528-34.95-78.08-.777-.57-1.553.777-.777,1.346Z" transform="translate(-730.879 -536.834)" fill="#161616"/>
          </g>
        </g>
        <g id="Group_874" data-name="Group 874" transform="translate(34.537 97.348)">
          <g id="Group_873" data-name="Group 873">
            <path id="Path_499" data-name="Path 499" d="M678.925,725.169c2.692,5.54,3,12.427,3.573,18.433a182.262,182.262,0,0,1,.828,18.433.778.778,0,0,0,1.553,0,168.6,168.6,0,0,0-1.036-20.452c-.621-5.747-1.036-11.961-3.573-17.242-.466-.88-1.76-.1-1.346.828Z" transform="translate(-678.844 -723.955)" fill="#161616"/>
          </g>
        </g>
        <g id="Group_876" data-name="Group 876" transform="translate(39.816 120.594)">
          <g id="Group_875" data-name="Group 875">
            <path id="Path_500" data-name="Path 500" d="M689.227,784c7.767,9.527,21.022,12.219,32.568,9.268a51.994,51.994,0,0,0,17.708-8.75c5.333-3.935,10.407-8.491,13.41-14.5.466-.88-.88-1.657-1.346-.777-2.9,5.747-7.767,10.148-12.893,13.928a51.868,51.868,0,0,1-16.517,8.388c-11.287,3.159-24.284.725-31.895-8.647-.57-.777-1.657.311-1.036,1.087Z" transform="translate(-689.041 -768.852)" fill="#161616"/>
          </g>
        </g>
        <g id="Group_878" data-name="Group 878" transform="translate(96.531 75.373)">
          <g id="Group_877" data-name="Group 877">
            <path id="Path_501" data-name="Path 501" d="M798.589,682.49c2.537,15.171,5.022,30.341,5.9,45.668.052.984,1.605.984,1.553,0-.932-15.481-3.417-30.807-5.954-46.082-.155-.984-1.657-.57-1.5.414Z" transform="translate(-798.578 -681.514)" fill="#161616"/>
          </g>
        </g>
        <path id="Path_502" data-name="Path 502" d="M701.2,545.074a138.608,138.608,0,0,1,20.193,31.636c9.63,20.918,11.546,38.988,13,54.366a222.75,222.75,0,0,1-.518,47.48,54.583,54.583,0,0,0,24.283-20.193c-1.708-14.446-3.417-28.943-5.126-43.389a97.722,97.722,0,0,0-3.314-28.063A96.341,96.341,0,0,0,730.3,549.63a93.013,93.013,0,0,0-13-12.53C711.918,539.792,706.585,542.433,701.2,545.074Z" transform="translate(-655.088 -536.501)" fill="#3f3f3f" opacity="0.13"/>
        <path id="Path_503" data-name="Path 503" d="M775.493,587.494c-.932.259,1.243,8.7,3.314,21.177a336.85,336.85,0,0,1,3.832,37.28,185.085,185.085,0,0,1-5.592,51.829,48.891,48.891,0,0,0,8.7-5.592,46.566,46.566,0,0,0,8.44-8.957c-.673-20.866-2.434-31.688-4.09-37.8a79.7,79.7,0,0,1-1.812-7.922c-1.243-7.352-.621-10.511-1.294-16.62-.518-4.867-1.5-8.077-3.314-14.032C780.93,597.9,776.529,587.183,775.493,587.494Z" transform="translate(-690.807 -560.799)" fill="#3f3f3f" opacity="0.14"/>
      </g>
      <g id="head" transform="translate(0 96.354)">
        <path id="Path_504" data-name="Path 504" d="M610.646,395.168a48.374,48.374,0,0,0-24.439,33.966,6.244,6.244,0,0,0-4.608,1.087c-2.537,1.967-2.589,5.851-1.605,8.129a12.846,12.846,0,0,0,1.967,2.848c1.294,1.605,2.123,2.589,3.469,3.159a6.009,6.009,0,0,0,3.728.207,50.531,50.531,0,0,0,2.9,6.835A39.807,39.807,0,0,0,602.1,464.7a35.386,35.386,0,0,0,7.456,4.712,17.352,17.352,0,0,1,3.78,9.527c.518,8.025-5.333,14.7-10.873,17.656-9.631,5.126-20.09,0-23.921-1.916-2.071-1.035-12.478-6.42-16.827-18.226-5.281-14.239,1.6-28.477,5.7-36.969,4.142-8.543,6.058-7.974,9.216-16.31,4.194-11.029,1.967-14.912,6.783-23.351,1.864-3.314,5.644-9.941,13.566-13.048a24.854,24.854,0,0,1,15.74-.518A21.678,21.678,0,0,1,623.849,383c11.805,0,19.365,11.184,21.177,13.876,5.385,7.922,2.537,10.355,7.352,21.487,6.058,14.032,11.961,13.2,17.4,26.355,2.641,6.42,7.042,17.035,2.175,27.183-5.022,10.459-16.465,13.514-17.915,13.876-2.641.673-9.734,2.434-16.828-1.346-.673-.362-9.579-5.23-10.3-13.566a17.568,17.568,0,0,1,.828-6.524,19.165,19.165,0,0,1,3.521-6.265c2.226-2.744,4.919-7.818,6.783-17.915a8.685,8.685,0,0,0,3.78-1.087,9.306,9.306,0,0,0,4.349-8.44c-.052-.725-.259-4.867-3.262-6.265a5.278,5.278,0,0,0-3.262-.259C630.011,414.377,620.328,404.8,610.646,395.168Z" transform="translate(-559.688 -383)" fill="#5222d0"/>
        <path id="Path_505" data-name="Path 505" d="M629.513,406.4a53.4,53.4,0,0,0-12.271,9.838,50.587,50.587,0,0,0-11.7,20.97,29.216,29.216,0,0,0-.725,3.366,4.308,4.308,0,0,0-3.158,0c-1.967.88-2.382,3.262-2.589,4.453a9,9,0,0,0,.932,5.747,7.623,7.623,0,0,0,3.728,4.09,6.711,6.711,0,0,0,4.246.362,61.809,61.809,0,0,0,3.365,7.4c2.433,4.66,4.712,8.957,9.113,12.789A29.244,29.244,0,0,0,629,480.6a19.134,19.134,0,0,1,2.589,5.954,18.426,18.426,0,0,1,.57,5.178,15.36,15.36,0,0,0,7.042,1.657,16.341,16.341,0,0,0,10.977-4.815,46.784,46.784,0,0,1-2.226-10.77c-.155-1.916-.207-3.728-.207-5.385a30.4,30.4,0,0,0,5.178-7.4,31.964,31.964,0,0,0,3.365-13.928,7.185,7.185,0,0,0,3.728-.362,7.542,7.542,0,0,0,3.728-3.883,11.312,11.312,0,0,0,.362-9.113c-.466-.984-1.243-2.8-2.8-2.951a3.286,3.286,0,0,0-2.434,1.139c-2.123-2.537-6.11-7.249-11.7-13.721-4.815-5.644-7.87-9.165-13-12.789C632.309,408.057,630.652,407.073,629.513,406.4Z" transform="translate(-578.555 -394.284)" fill="#fff"/>
        <path id="Path_506" data-name="Path 506" d="M644.134,507c-.518,1.191,1.916,3.314,3.055,4.194a11,11,0,0,0,5.851,2.071,11.732,11.732,0,0,0,7.922-1.968,9.375,9.375,0,0,0,3.78-4.867c.57-2.019.414-4.815-.673-5.281-.828-.311-1.6.725-3.365,1.968a20.459,20.459,0,0,1-9.061,3.055C646.981,506.9,644.651,505.963,644.134,507Z" transform="translate(-600.321 -439.947)"/>
        <g id="Group_880" data-name="Group 880" transform="translate(27.369 52.437)">
          <g id="Group_879" data-name="Group 879">
            <path id="Path_507" data-name="Path 507" d="M612.472,486.929c1.864,7.767,4.867,15.378,9.838,21.695,4.4,5.644,10.925,11.08,18.536,10.355,7.042-.673,12.789-6.161,16.517-11.753a37.929,37.929,0,0,0,6.317-22.212c-.052-.984-1.605-.984-1.553,0a36.558,36.558,0,0,1-5.437,20.348c-3.573,5.747-9.475,11.805-16.672,12.116-7.611.311-13.876-5.9-17.915-11.7a56.953,56.953,0,0,1-8.181-19.313c-.207-.932-1.709-.518-1.45.466Z" transform="translate(-612.442 -484.275)" fill="#161616"/>
          </g>
        </g>
        <g id="Group_882" data-name="Group 882" transform="translate(49.288 85.252)">
          <g id="Group_881" data-name="Group 881">
            <path id="Path_508" data-name="Path 508" d="M654.892,548.816a19.462,19.462,0,0,1,3.262,10.925.778.778,0,0,0,1.553,0,21.348,21.348,0,0,0-3.469-11.7.777.777,0,0,0-1.346.777Z" transform="translate(-654.775 -547.652)" fill="#161616"/>
          </g>
        </g>
        <g id="Group_884" data-name="Group 884" transform="translate(53.004 92.929)">
          <g id="Group_883" data-name="Group 883">
            <path id="Path_509" data-name="Path 509" d="M662.339,567.512a14.561,14.561,0,0,0,18.8-3.935c.621-.777-.725-1.553-1.346-.777a12.939,12.939,0,0,1-16.672,3.366c-.88-.466-1.657.88-.776,1.346Z" transform="translate(-661.952 -562.479)" fill="#161616"/>
          </g>
        </g>
        <g id="Group_886" data-name="Group 886" transform="translate(68.303 78.701)">
          <g id="Group_885" data-name="Group 885">
            <path id="Path_510" data-name="Path 510" d="M691.5,535.777a45.29,45.29,0,0,0,2.278,13.876c.311.932,1.812.518,1.5-.414a45.821,45.821,0,0,1-2.226-13.462.777.777,0,1,0-1.553,0Z" transform="translate(-691.5 -535)" fill="#161616"/>
          </g>
        </g>
        <g id="Group_888" data-name="Group 888" transform="translate(19.586 45.473)">
          <g id="Group_887" data-name="Group 887">
            <path id="Path_511" data-name="Path 511" d="M606.777,485.361c-.673.725-2.33.466-3.107.052a6.616,6.616,0,0,1-1.657-1.243,9.909,9.909,0,0,1-2.382-3.469c-1.035-2.434-1.5-9.424,3.107-8.181a.779.779,0,0,0,.414-1.5c-5.7-1.5-6.576,6.058-5.126,9.838,1.139,3.055,6.369,9.372,9.889,5.592.621-.725-.466-1.812-1.139-1.087Z" transform="translate(-597.411 -470.824)" fill="#161616"/>
          </g>
        </g>
        <g id="Group_890" data-name="Group 890" transform="translate(77.112 39.9)">
          <g id="Group_889" data-name="Group 889">
            <path id="Path_512" data-name="Path 512" d="M712.39,462.049c.621-2.071,3.314,1.916,3.625,2.641a10.577,10.577,0,0,1,.57,5.23c-.414,3.521-3.21,6.886-7.094,5.9a.779.779,0,0,0-.414,1.5c6.265,1.605,9.631-4.919,9.061-10.252-.259-2.33-1.191-5.333-3.417-6.576-1.45-.777-3.314-.57-3.831,1.087a.786.786,0,0,0,1.5.466Z" transform="translate(-708.514 -460.061)" fill="#161616"/>
          </g>
        </g>
        <g id="Group_892" data-name="Group 892" transform="translate(33.05 23.496)">
          <g id="Group_891" data-name="Group 891">
            <path id="Path_513" data-name="Path 513" d="M624.856,435.794a11.019,11.019,0,0,1,8.336-5.9c.984-.155.57-1.657-.414-1.5a12.457,12.457,0,0,0-9.268,6.627c-.466.88.88,1.657,1.346.777Z" transform="translate(-623.413 -428.378)" fill="#161616"/>
          </g>
        </g>
        <g id="Group_894" data-name="Group 894" transform="translate(57.437 21.132)">
          <g id="Group_893" data-name="Group 893">
            <path id="Path_514" data-name="Path 514" d="M671.49,425.618a9.471,9.471,0,0,1,10.666,5.074c.466.88,1.76.1,1.346-.777a11,11,0,0,0-12.427-5.8.779.779,0,0,0,.414,1.5Z" transform="translate(-670.514 -423.812)" fill="#161616"/>
          </g>
        </g>
        <g id="Group_896" data-name="Group 896" transform="translate(47.115 28.34)">
          <g id="Group_895" data-name="Group 895">
            <path id="Path_515" data-name="Path 515" d="M650.589,438.7a60.289,60.289,0,0,1,.673,16.724c-.207,1.709-1.035,4.142-.259,5.851.828,1.864,3.055,3.469,4.453,4.919.673.725,1.812-.362,1.087-1.087-.932-.984-1.864-1.916-2.8-2.9-1.45-1.5-1.605-1.968-1.294-4.142.259-1.968.518-3.987.621-6.006a60.824,60.824,0,0,0-.984-13.721c-.155-1.035-1.657-.621-1.5.362Z" transform="translate(-650.578 -437.735)" fill="#161616"/>
          </g>
        </g>
        <g id="Group_898" data-name="Group 898" transform="translate(38.104 35.073)">
          <g id="Group_897" data-name="Group 897">
            <path id="Path_516" data-name="Path 516" d="M635.673,458.278a6.579,6.579,0,0,1-1.036-4.039c0-.311.207-1.657.466-1.709a9.7,9.7,0,0,1,.466,2.019,13.941,13.941,0,0,1,.155,2.071c0,.207-.052,1.916-.052.88-.052-1.5.052-3,.1-4.5-.518.052-1.036.155-1.5.207a30.362,30.362,0,0,1,.414,4.867h1.553v-.621a.778.778,0,0,0-1.553,0v.621a.778.778,0,0,0,1.553,0,30.333,30.333,0,0,0-.466-5.281c-.155-.88-1.5-.621-1.5.207a33.89,33.89,0,0,0-.052,5.126,1.714,1.714,0,0,0,1.346,1.657c2.589.518,1.812-4.556,1.605-5.8-.155-.984-.311-2.485-1.243-3.055a1.537,1.537,0,0,0-2.071.725c-1.294,2.175-.57,5.385.621,7.352.362.88,1.709.1,1.191-.725Z" transform="translate(-633.175 -450.739)" fill="#161616"/>
          </g>
        </g>
        <g id="Group_900" data-name="Group 900" transform="translate(62.025 32.329)">
          <g id="Group_899" data-name="Group 899">
            <path id="Path_517" data-name="Path 517" d="M681.873,452.978a6.578,6.578,0,0,1-1.036-4.039c0-.311.207-1.657.466-1.709a9.7,9.7,0,0,1,.466,2.019,13.94,13.94,0,0,1,.155,2.071c0,.207-.052,1.916-.052.88-.052-1.5.052-3,.1-4.5-.518.052-1.036.155-1.5.207a30.375,30.375,0,0,1,.414,4.867h1.553v-.621a.778.778,0,0,0-1.553,0v.621a.778.778,0,0,0,1.553,0,30.341,30.341,0,0,0-.466-5.281c-.155-.88-1.5-.621-1.5.207a33.881,33.881,0,0,0-.052,5.126,1.714,1.714,0,0,0,1.346,1.657c2.589.518,1.812-4.556,1.6-5.8-.155-.984-.311-2.485-1.243-3.055a1.537,1.537,0,0,0-2.071.725c-1.294,2.175-.57,5.385.621,7.352.362.932,1.709.155,1.191-.725Z" transform="translate(-679.375 -445.439)" fill="#161616"/>
          </g>
        </g>
        <g id="Group_902" data-name="Group 902" transform="translate(32.202 45.823)">
          <g id="Group_901" data-name="Group 901">
            <path id="Path_518" data-name="Path 518" d="M622.513,473.053a.778.778,0,0,0,0-1.553.778.778,0,0,0,0,1.553Z" transform="translate(-621.775 -471.5)" fill="#161616"/>
          </g>
        </g>
        <g id="Group_904" data-name="Group 904" transform="translate(38.273 46.962)">
          <g id="Group_903" data-name="Group 903">
            <path id="Path_519" data-name="Path 519" d="M634.277,475.253h.207a.777.777,0,0,0,0-1.553h-.207a.8.8,0,0,0-.777.777.763.763,0,0,0,.777.777Z" transform="translate(-633.5 -473.7)" fill="#161616"/>
          </g>
        </g>
        <g id="Group_906" data-name="Group 906" transform="translate(34.667 51.725)">
          <g id="Group_905" data-name="Group 905">
            <path id="Path_520" data-name="Path 520" d="M627.295,484.453a.778.778,0,0,0,0-1.553.778.778,0,0,0,0,1.553Z" transform="translate(-626.537 -482.9)" fill="#161616"/>
          </g>
        </g>
        <g id="Group_908" data-name="Group 908" transform="translate(64.058 45.046)">
          <g id="Group_907" data-name="Group 907">
            <path id="Path_521" data-name="Path 521" d="M684.077,471.553h.207a.777.777,0,1,0,0-1.553h-.207a.8.8,0,0,0-.777.777.763.763,0,0,0,.777.777Z" transform="translate(-683.3 -470)" fill="#161616"/>
          </g>
        </g>
        <g id="Group_910" data-name="Group 910" transform="translate(69.792 41.215)">
          <g id="Group_909" data-name="Group 909">
            <path id="Path_522" data-name="Path 522" d="M695.113,464.153a.778.778,0,0,0,0-1.553.778.778,0,0,0,0,1.553Z" transform="translate(-694.375 -462.6)" fill="#161616"/>
          </g>
        </g>
        <g id="Group_912" data-name="Group 912" transform="translate(68.976 45.409)">
          <g id="Group_911" data-name="Group 911">
            <path id="Path_523" data-name="Path 523" d="M693.577,472.253h.207a.777.777,0,1,0,0-1.553h-.207a.8.8,0,0,0-.777.777.835.835,0,0,0,.777.777Z" transform="translate(-692.8 -470.7)" fill="#161616"/>
          </g>
        </g>
        <g id="Group_914" data-name="Group 914" transform="translate(41.78 57.655)">
          <g id="Group_913" data-name="Group 913">
            <path id="Path_524" data-name="Path 524" d="M643.6,504.939c-.828-1.191-2.175-2.9-1.605-4.453.673-1.76,2.8-1.5,4.194-1.294a9.893,9.893,0,0,0,4.764.052,21.867,21.867,0,0,0,3.78-1.968c2.951-1.657,6.42-1.812,7.352,2.071,2.641,10.614-16.1,13.617-19,4.3-.311-.932-1.812-.57-1.5.414,3.573,11.443,25.733,7.2,21.85-5.488a5.66,5.66,0,0,0-4.556-4.194c-3.728-.362-6.161,3.366-9.734,3.624-2.641.207-5.851-1.812-7.974.673-1.916,2.227-.363,5.074,1.036,7.042.621.828,1.967.052,1.4-.777Z" transform="translate(-640.274 -494.352)" fill="#161616"/>
          </g>
        </g>
        <g id="Group_916" data-name="Group 916" transform="translate(42.048 59.959)">
          <g id="Group_915" data-name="Group 915">
            <path id="Path_525" data-name="Path 525" d="M640.848,504.134c1.139,3.158,6.835,2.175,9.32,1.812a26.125,26.125,0,0,0,12.789-5.851c.777-.621-.311-1.76-1.087-1.087a23.97,23.97,0,0,1-9.216,4.867c-1.5.414-9.423,2.175-10.252-.1-.414-.984-1.916-.57-1.553.363Z" transform="translate(-640.792 -498.802)" fill="#161616"/>
          </g>
        </g>
        <g id="Group_918" data-name="Group 918" transform="translate(50.758 79.59)">
          <g id="Group_917" data-name="Group 917">
            <path id="Path_526" data-name="Path 526" d="M658.176,545.148c6.058,1.553,14.135-2.278,17.552-7.3.569-.828-.777-1.605-1.346-.777-3,4.4-10.511,7.922-15.792,6.576a.779.779,0,0,0-.414,1.5Z" transform="translate(-657.614 -536.716)" fill="#161616"/>
          </g>
        </g>
        <g id="Group_920" data-name="Group 920" transform="translate(51.503 80.8)">
          <g id="Group_919" data-name="Group 919">
            <path id="Path_527" data-name="Path 527" d="M659.439,546.74c5.385,3.366,14.239-1.4,16.827-6.524.466-.88-.88-1.657-1.346-.777-2.175,4.349-10.1,8.854-14.7,6.006a.755.755,0,1,0-.777,1.294Z" transform="translate(-659.052 -539.052)" fill="#161616"/>
          </g>
        </g>
        <path id="Path_528" data-name="Path 528" d="M681.625,447.9a83.131,83.131,0,0,1,1.139,8.388c.725,9.527,1.967,25.474-7.663,36.089-2.071,2.278-6.472,6.317-14.6,8.6a43.59,43.59,0,0,0,9.165-1.294,32.848,32.848,0,0,0,4.66-1.5c.207,4.608.363,9.216.57,13.824,1.76-1.139,3.469-2.226,5.229-3.365a22,22,0,0,1-2.071-11.961,32.235,32.235,0,0,1,3.158-9.527,43,43,0,0,1,3.417-6.11,6.967,6.967,0,0,0,1.087,3.314c3.158,4.712,13.048,5.178,19.261,1.139,5.747-3.728,8.543-11.287,7.093-19.054a23.452,23.452,0,0,1,3,3c.777.932,2.8,3.624,5.592,13.1a51.766,51.766,0,0,1,1.553,5.954,26.469,26.469,0,0,1-.207,10.459,24.224,24.224,0,0,1-9.061,13.307,27.424,27.424,0,0,1-10.252,4.764c-2.589.57-10.355,2.434-17.656-1.812-2.744-1.605-4.246-2.8-5.074-4.246a10.052,10.052,0,0,1-1.087-4.246c-.466-7.093-.673-10.666-.207-13.1,1.4-7.042,4.556-7.767,6.317-15.792a38.787,38.787,0,0,0,.828-6.886,6.73,6.73,0,0,0,7.3-3.676c1.864-2.951,2.692-8.233-.207-10.666a6.185,6.185,0,0,0-4.66-1.243C686.13,452.871,683.9,450.385,681.625,447.9Z" transform="translate(-608.248 -414.296)" fill="#3f3f3f" opacity="0.2"/>
        <path id="Path_529" data-name="Path 529" d="M653.9,480.3c2.641.777,5.333,1.605,7.974,2.382-.673.621-1.346,1.191-2.071,1.812-.673.57-1.294,1.036-1.968,1.553a10.937,10.937,0,0,1-2.951-3.365A8.616,8.616,0,0,1,653.9,480.3Z" transform="translate(-605.065 -429.921)" fill="#3f3f3f" opacity="0.13"/>
        <path id="Path_530" data-name="Path 530" d="M566.892,489.955c-5.644,19.934-1.45,36.037,6.99,39.558,6.627,2.744,18.588-1.139,20.814-7.922.311-.88.621-2.434-.57-7.2a56.5,56.5,0,0,0-7.922-17.708,12.474,12.474,0,0,1-2.951-2.589,11.746,11.746,0,0,1-2.485-5.747c1.5,1.553,3.676,3.521,5.074,2.9a3.784,3.784,0,0,0,1.709-4.349,64.4,64.4,0,0,0,2.537,9.423c1.76,5.022,3.521,9.889,7.611,14.5a30.514,30.514,0,0,0,11.753,8.077,17.312,17.312,0,0,1,3.573,8.181,17.961,17.961,0,0,1-.466,7.042,20.1,20.1,0,0,1-5.54,9.216,21.89,21.89,0,0,1-12.323,5.644c-14.032,1.864-24.9-10.407-26.821-12.53a31.343,31.343,0,0,1-6.886-11.391c-2.9-8.906-.673-16.931.932-22.782A57.89,57.89,0,0,1,566.892,489.955Z" transform="translate(-559.582 -433.103)" fill="#3f3f3f" opacity="0.16"/>
      </g>
    </g>
  </g>
</svg>
