<svg xmlns="http://www.w3.org/2000/svg" width="502" height="470.525" viewBox="0 0 502 470.525">
  <g id="pixeltrue-idea-1" transform="translate(-230.1 -40.675)">
    <g id="color" transform="translate(319.344 74.263)">
      <path id="Path_923" data-name="Path 923" d="M911.6,123.495c-10.542,6.239-13.554,17-14.8,21.429a44.469,44.469,0,0,0,2.281,28.056c1.807,4.088,3.744,8.3,8.133,10.327,2.539,1.2,4.819,1.119,13.77.344,4.174-.344,8.692-.775,13.511-1.291A53.267,53.267,0,0,0,945.465,157.1c.3-2.281,3.83-29.476-10.973-36.7C924.811,115.62,913.149,122.548,911.6,123.495Z" transform="translate(-698.429 -118.733)" fill="#ec615b"/>
      <ellipse id="Ellipse_23" data-name="Ellipse 23" cx="9.725" cy="10.758" rx="9.725" ry="10.758" transform="translate(8.778 47.405)" fill="#ec615b"/>
      <ellipse id="Ellipse_24" data-name="Ellipse 24" cx="7.229" cy="6.971" rx="7.229" ry="6.971" transform="translate(231.803 227.357)" fill="#ec615b"/>
      <circle id="Ellipse_25" data-name="Ellipse 25" cx="5.379" cy="5.379" r="5.379" transform="translate(13.21 188.458)" fill="#ec615b"/>
      <ellipse id="Ellipse_26" data-name="Ellipse 26" cx="8.563" cy="8.993" rx="8.563" ry="8.993" transform="translate(0 47.362)" fill="#5222d0"/>
      <ellipse id="Ellipse_27" data-name="Ellipse 27" cx="5.293" cy="5.508" rx="5.293" ry="5.508" transform="translate(231.76 219.267)" fill="#5222d0"/>
      <ellipse id="Ellipse_28" data-name="Ellipse 28" cx="5.809" cy="6.196" rx="5.809" ry="6.196" transform="translate(301.985 65.994)" fill="#5222d0"/>
      <g id="Group_1199" data-name="Group 1199" transform="translate(176.856 116.028)">
        <g id="Group_1198" data-name="Group 1198">
          <path id="Path_924" data-name="Path 924" d="M853.279,389.032c-.947-1.506-2.5-.086-3.141.947-1.334,2.151-2.195,4.819-1.2,7.272a4.55,4.55,0,0,0,4.647,3.1,3.776,3.776,0,0,0,3.356-3.787.673.673,0,0,0-1.119-.473c-2.281,2.883-5.078,6.971-2.8,10.671,1.592,2.539,5.508,2.883,7.057.129a10.819,10.819,0,0,1-1.162-.172c.215,1.2.43,2.41.6,3.615.129.818,1.377.473,1.248-.344-.215-1.2-.43-2.41-.6-3.615A.648.648,0,0,0,859,406.2a2.683,2.683,0,0,1-3.485,1.033,4.037,4.037,0,0,1-1.979-3.744c0-2.5,1.764-4.69,3.227-6.541-.387-.172-.732-.3-1.119-.473a2.571,2.571,0,0,1-3.141,2.5,3.564,3.564,0,0,1-2.41-2.41,5.375,5.375,0,0,1-.043-3.485c.043-.086,1.807-3.916,2.065-3.485.473.775,1.592.129,1.162-.559Z" transform="translate(-848.505 -388.376)" fill="#ec615b"/>
        </g>
      </g>
      <g id="Group_1201" data-name="Group 1201" transform="translate(4.612 117.815)">
        <g id="Group_1200" data-name="Group 1200">
          <path id="Path_925" data-name="Path 925" d="M449.545,395.271c.947-2.582,4.088-1.463,5.078.344a5.3,5.3,0,0,1,.6,1.979,2.136,2.136,0,0,1-1.076,2.582c-1.2,1.2-1.506.732-.861-1.42.3-.129.645-.258.947-.387a4.79,4.79,0,0,1,2.582.086,4.422,4.422,0,0,1,2.8,4.905.66.66,0,0,0,.947.732,4.95,4.95,0,0,1,7.143,3.313c.172.818,1.42.473,1.248-.344a6.229,6.229,0,0,0-9.036-4.045c.3.258.645.473.947.732.559-3.787-2.324-7.315-6.325-6.713-1.377.215-3.442,1.076-3.615,2.711a2.461,2.461,0,0,0,2.367,2.453c3.7.344,3.615-5.035,2.41-7.186-1.635-2.926-6.153-3.658-7.444-.043-.258.731.99,1.076,1.291.3Z" transform="translate(-448.219 -392.53)" fill="#ec615b"/>
        </g>
      </g>
      <g id="Group_1203" data-name="Group 1203" transform="translate(232.199 281.313)">
        <g id="Group_1202" data-name="Group 1202">
          <path id="Path_926" data-name="Path 926" d="M977.412,773.7a30.51,30.51,0,0,1,8.348,8.262c.473.688,1.592.043,1.119-.645a32.447,32.447,0,0,0-8.778-8.692c-.731-.516-1.377.6-.688,1.076Z" transform="translate(-977.119 -772.49)" fill="#5222d0"/>
        </g>
      </g>
      <g id="Group_1205" data-name="Group 1205" transform="translate(240.728 283.768)">
        <g id="Group_1204" data-name="Group 1204">
          <path id="Path_927" data-name="Path 927" d="M997.1,779.317c.688.818,1.334,1.678,2.022,2.5.516.646,1.42-.258.9-.9-.688-.818-1.334-1.678-2.022-2.5-.516-.645-1.42.3-.9.9Z" transform="translate(-996.942 -778.197)" fill="#5222d0"/>
        </g>
      </g>
      <g id="Group_1207" data-name="Group 1207" transform="translate(236.725 271.743)">
        <g id="Group_1206" data-name="Group 1206">
          <path id="Path_928" data-name="Path 928" d="M987.837,751.347a35.564,35.564,0,0,1,7.315,9.467c.387.732,1.506.086,1.119-.645a35.99,35.99,0,0,0-7.53-9.725c-.6-.6-1.506.344-.9.9Z" transform="translate(-987.638 -750.25)" fill="#5222d0"/>
        </g>
      </g>
    </g>
    <g id="background" transform="translate(230.1 78.465)">
      <g id="Group_1209" data-name="Group 1209" transform="translate(28.654 316.477)">
        <g id="Group_1208" data-name="Group 1208">
          <path id="Path_929" data-name="Path 929" d="M296.695,864.588a194.97,194.97,0,0,0,4.862,27.668.647.647,0,0,0,1.248-.344,196.336,196.336,0,0,1-4.819-27.324c-.086-.818-1.377-.818-1.291,0Z" transform="translate(-296.69 -863.975)" fill="#e8e8e8"/>
        </g>
      </g>
      <g id="Group_1211" data-name="Group 1211" transform="translate(33.342 343.916)">
        <g id="Group_1210" data-name="Group 1210">
          <path id="Path_930" data-name="Path 930" d="M308.022,929.015a51.278,51.278,0,0,0,25.775,0,.647.647,0,0,0-.344-1.248,49.56,49.56,0,0,1-25.087,0,.649.649,0,0,0-.344,1.248Z" transform="translate(-307.585 -927.742)" fill="#e8e8e8"/>
        </g>
      </g>
      <g id="Group_1213" data-name="Group 1213" transform="translate(59.251 315.789)">
        <g id="Group_1212" data-name="Group 1212">
          <path id="Path_931" data-name="Path 931" d="M369.09,890.484q.839-13.748,2.152-27.5c.086-.818-1.2-.818-1.291,0q-1.291,13.748-2.152,27.5c-.043.818,1.248.818,1.291,0Z" transform="translate(-367.798 -862.375)" fill="#e8e8e8"/>
        </g>
      </g>
      <g id="Group_1215" data-name="Group 1215" transform="translate(28.922 316.214)">
        <g id="Group_1214" data-name="Group 1214">
          <path id="Path_932" data-name="Path 932" d="M297.781,864.928a77.082,77.082,0,0,0,32.445-.3c.818-.172.473-1.42-.344-1.248a75.957,75.957,0,0,1-31.756.3c-.818-.172-1.162,1.076-.344,1.248Z" transform="translate(-297.314 -863.362)" fill="#e8e8e8"/>
        </g>
      </g>
      <g id="Group_1217" data-name="Group 1217" transform="translate(29.251 319.033)">
        <g id="Group_1216" data-name="Group 1216">
          <path id="Path_933" data-name="Path 933" d="M298.087,871.758c.344,1.764,2.582,1.678,3.959,1.807a95.073,95.073,0,0,0,10.5.3c3.356-.086,6.713-.344,10.069-.732a20.216,20.216,0,0,0,7.616-2.022c.732-.387.086-1.506-.645-1.119-4.26,2.367-10.155,2.281-14.931,2.5-2.367.086-4.776.129-7.143.086-1.248-.043-7.918.258-8.176-1.162-.172-.818-1.377-.473-1.248.344Z" transform="translate(-298.078 -869.913)" fill="#e8e8e8"/>
        </g>
      </g>
      <g id="Group_1219" data-name="Group 1219" transform="translate(31.633 334.841)">
        <g id="Group_1218" data-name="Group 1218">
          <path id="Path_934" data-name="Path 934" d="M303.694,907.62a37.779,37.779,0,0,0,7.832,9.682c.6.559,1.549-.344.9-.9a34.944,34.944,0,0,1-7.616-9.424c-.387-.732-1.506-.086-1.119.646Z" transform="translate(-303.613 -906.652)" fill="#e8e8e8"/>
        </g>
      </g>
      <g id="Group_1221" data-name="Group 1221" transform="translate(29.938 324.929)">
        <g id="Group_1220" data-name="Group 1220">
          <path id="Path_935" data-name="Path 935" d="M299.772,884.556a103.18,103.18,0,0,0,15.835,20.31c.6.6,1.506-.344.9-.9a102.113,102.113,0,0,1-15.62-20.052c-.43-.689-1.549-.043-1.119.645Z" transform="translate(-299.675 -883.616)" fill="#e8e8e8"/>
        </g>
      </g>
      <g id="Group_1223" data-name="Group 1223" transform="translate(37.141 321.803)">
        <g id="Group_1222" data-name="Group 1222">
          <path id="Path_936" data-name="Path 936" d="M316.494,877.319a152.827,152.827,0,0,0,15.835,23.021c.516.645,1.42-.258.9-.9a149.19,149.19,0,0,1-15.62-22.763c-.387-.731-1.506-.086-1.119.646Z" transform="translate(-316.413 -876.352)" fill="#e8e8e8"/>
        </g>
      </g>
      <g id="Group_1225" data-name="Group 1225" transform="translate(45.325 322.132)">
        <g id="Group_1224" data-name="Group 1224">
          <path id="Path_937" data-name="Path 937" d="M335.549,878.056Q342.2,888,348.974,897.85c.473.689,1.592.043,1.119-.645q-6.777-9.875-13.425-19.794c-.473-.688-1.592-.043-1.119.646Z" transform="translate(-335.434 -877.116)" fill="#e8e8e8"/>
        </g>
      </g>
      <g id="Group_1227" data-name="Group 1227" transform="translate(52.228 321.745)">
        <g id="Group_1226" data-name="Group 1226">
          <path id="Path_938" data-name="Path 938" d="M351.572,877.156c2.238,3.615,4.647,7.143,7.143,10.585.473.645,1.592,0,1.119-.646-2.5-3.442-4.905-6.971-7.143-10.585-.43-.688-1.549-.043-1.119.645Z" transform="translate(-351.475 -876.216)" fill="#e8e8e8"/>
        </g>
      </g>
      <g id="Group_1229" data-name="Group 1229" transform="translate(15.087 278.421)">
        <g id="Group_1228" data-name="Group 1228">
          <path id="Path_939" data-name="Path 939" d="M265.178,776.337c.516,2.969,1.033,5.981,1.592,8.95a3.36,3.36,0,0,0,.99,2.195c.473.387,2.022.344,2.324.774a4.743,4.743,0,0,0,.086-.774c-.645.645-1.291,1.291-1.979,1.893a.72.72,0,0,0-.172.645c.387,1.162.645,2.883,1.42,3.873.387.516,1.076.43,1.377.732.258.258.172.086.043.861a7.951,7.951,0,0,0,0,2.022,11.685,11.685,0,0,0,.818,2.969c2.238,5.422,6.584,9.811,10.758,13.856.6.559,1.506-.344.9-.9a65.237,65.237,0,0,1-7.53-8.262c-2.151-2.969-4.69-6.971-3.356-10.758a.6.6,0,0,0-.172-.646c-.818-.645-1.635-.387-2.195-1.42-1.076-1.936-.473-2.582.9-3.916a.593.593,0,0,0,.086-.775,1.8,1.8,0,0,0-1.162-.861c-.344-.129-.861,0-1.2-.172-.732-.387-.732-1.334-.861-2.022-.516-2.84-1.033-5.723-1.506-8.563-.086-.861-1.334-.516-1.162.3Z" transform="translate(-265.162 -775.535)" fill="#e8e8e8"/>
        </g>
      </g>
      <g id="Group_1231" data-name="Group 1231" transform="translate(15.614 277.769)">
        <g id="Group_1230" data-name="Group 1230">
          <path id="Path_940" data-name="Path 940" d="M266.822,775.3a41.986,41.986,0,0,1,28.615,38.985.646.646,0,0,0,1.291,0,43.358,43.358,0,0,0-29.562-40.233c-.775-.258-1.119.99-.344,1.248Z" transform="translate(-266.385 -774.019)" fill="#e8e8e8"/>
        </g>
      </g>
      <g id="Group_1233" data-name="Group 1233" transform="translate(40.542 268.764)">
        <g id="Group_1232" data-name="Group 1232">
          <path id="Path_941" data-name="Path 941" d="M325.6,784.722c4.174-11.575,10.327-22.763,20.181-30.379.645-.516,0-1.635-.645-1.119-10.155,7.875-16.481,19.234-20.784,31.154-.258.774.99,1.119,1.248.344Z" transform="translate(-324.319 -753.091)" fill="#e8e8e8"/>
        </g>
      </g>
      <g id="Group_1235" data-name="Group 1235" transform="translate(60.887 269.144)">
        <g id="Group_1234" data-name="Group 1234">
          <path id="Path_942" data-name="Path 942" d="M371.6,754.588c.3,3.959.645,7.917.947,11.919.086.818,1.377.818,1.291,0-.3-3.959-.645-7.918-.947-11.919-.043-.818-1.334-.818-1.291,0Z" transform="translate(-371.598 -753.975)" fill="#e8e8e8"/>
        </g>
      </g>
      <g id="Group_1237" data-name="Group 1237" transform="translate(60.291 281.23)">
        <g id="Group_1236" data-name="Group 1236">
          <path id="Path_943" data-name="Path 943" d="M372.316,782.078c-.559.129-1.119.258-1.635.43a.647.647,0,0,0,.344,1.248c.559-.129,1.119-.258,1.635-.43a.647.647,0,0,0-.344-1.248Z" transform="translate(-370.214 -782.061)" fill="#e8e8e8"/>
        </g>
      </g>
      <g id="Group_1239" data-name="Group 1239" transform="translate(60.091 282.026)">
        <g id="Group_1238" data-name="Group 1238">
          <path id="Path_944" data-name="Path 944" d="M369.771,784.724a1.828,1.828,0,0,0,1.635,1.42.634.634,0,0,0,.645-.645.662.662,0,0,0-.645-.646h-.043c-.043,0-.129-.043-.043,0-.043-.043-.086-.043-.129-.086-.086-.043.086.086-.043-.043l-.086-.086c.086.086,0,0,0-.043-.043-.043-.043-.129-.043-.043,0-.043-.043-.129-.043-.172a.6.6,0,0,0-.775-.43.616.616,0,0,0-.43.775Z" transform="translate(-369.749 -783.912)" fill="#e8e8e8"/>
        </g>
      </g>
      <g id="Group_1241" data-name="Group 1241" transform="translate(59.116 283.166)">
        <g id="Group_1240" data-name="Group 1240">
          <path id="Path_945" data-name="Path 945" d="M369.47,787.181a58.38,58.38,0,0,1-.3,7.272c-.086.775.043,2.582-.473,3.184a7.887,7.887,0,0,0-.99.3c-.645.516.258,1.42.9.9.215-.172.732,0,1.076-.387.516-.516.43-1.721.516-2.324a62.688,62.688,0,0,0,.516-8.993c.043-.774-1.248-.774-1.248.043Z" transform="translate(-367.484 -786.562)" fill="#e8e8e8"/>
        </g>
      </g>
      <g id="Group_1243" data-name="Group 1243" transform="translate(52.967 294.559)">
        <g id="Group_1242" data-name="Group 1242">
          <path id="Path_946" data-name="Path 946" d="M359.047,814.141c1.377,1.635.99,4.346.861,6.325a14.757,14.757,0,0,1-1.678,6.368c-1.592,2.926-3.83,5.379-4.992,8.563-.3.775.947,1.119,1.248.344,1.549-4.174,5.121-7.272,6.2-11.661.775-3.141,1.506-8.176-.732-10.844-.516-.6-1.42.3-.9.9Z" transform="translate(-353.192 -813.038)" fill="#e8e8e8"/>
        </g>
      </g>
      <g id="Group_1245" data-name="Group 1245" transform="translate(47.372 281.293)">
        <g id="Group_1244" data-name="Group 1244">
          <path id="Path_947" data-name="Path 947" d="M341.485,818.436a108.872,108.872,0,0,1,9.6-35.242c.344-.731-.775-1.42-1.119-.645a110.907,110.907,0,0,0-9.768,35.93c-.086.818,1.2.775,1.291-.043Z" transform="translate(-340.19 -782.208)" fill="#e8e8e8"/>
        </g>
      </g>
      <g id="Group_1247" data-name="Group 1247" transform="translate(23.125 285.112)">
        <g id="Group_1246" data-name="Group 1246">
          <path id="Path_948" data-name="Path 948" d="M284,792.21a90.057,90.057,0,0,1,16.265,31.971.647.647,0,0,0,1.248-.344,91.893,91.893,0,0,0-16.61-32.531c-.516-.646-1.42.258-.9.9Z" transform="translate(-283.842 -791.084)" fill="#e8e8e8"/>
        </g>
      </g>
      <g id="Group_1249" data-name="Group 1249" transform="translate(23.451 300.795)">
        <g id="Group_1248" data-name="Group 1248">
          <path id="Path_949" data-name="Path 949" d="M285.245,828.851a16.755,16.755,0,0,1,10.026,2.539c.689.43,1.377-.689.645-1.119a18.269,18.269,0,0,0-10.671-2.711c-.861.043-.861,1.334,0,1.291Z" transform="translate(-284.6 -827.53)" fill="#e8e8e8"/>
        </g>
      </g>
      <g id="Group_1251" data-name="Group 1251" transform="translate(30.592 288.684)">
        <g id="Group_1250" data-name="Group 1250">
          <path id="Path_950" data-name="Path 950" d="M302.574,807.051a14,14,0,0,1,.947-6.885c.3-.775-.947-1.119-1.248-.344a14.81,14.81,0,0,0-.99,7.229c.086.818,1.377.818,1.291,0Z" transform="translate(-301.195 -799.385)" fill="#e8e8e8"/>
        </g>
      </g>
      <g id="Group_1253" data-name="Group 1253" transform="translate(45.867 288.426)">
        <g id="Group_1252" data-name="Group 1252">
          <path id="Path_951" data-name="Path 951" d="M336.738,799.566c1.42,3.485,3.485,7.186,4,10.887.129.818,1.377.473,1.248-.344-.559-3.744-2.625-7.444-4-10.887-.3-.774-1.549-.43-1.248.344Z" transform="translate(-336.692 -798.785)" fill="#e8e8e8"/>
        </g>
      </g>
      <g id="Group_1255" data-name="Group 1255" transform="translate(52.751 285.241)">
        <g id="Group_1254" data-name="Group 1254">
          <path id="Path_952" data-name="Path 952" d="M353.771,799.438a23.226,23.226,0,0,1,4.045-4.174c1.334-.9,2.8-1.506,3.83-2.754.516-.646-.387-1.549-.9-.9-1.119,1.334-2.754,1.893-4.088,2.926a27.789,27.789,0,0,0-3.787,4c-.559.645.344,1.549.9.9Z" transform="translate(-352.691 -791.384)" fill="#e8e8e8"/>
        </g>
      </g>
      <g id="Group_1257" data-name="Group 1257" transform="translate(53.468 315.118)">
        <g id="Group_1256" data-name="Group 1256">
          <path id="Path_953" data-name="Path 953" d="M355.15,862.789a19.557,19.557,0,0,1,6.325-.645c.818.043.818-1.248,0-1.291a20.488,20.488,0,0,0-6.67.688.648.648,0,0,0,.344,1.248Z" transform="translate(-354.357 -860.816)" fill="#e8e8e8"/>
        </g>
      </g>
      <g id="Group_1259" data-name="Group 1259" transform="translate(53.476 315.506)">
        <g id="Group_1258" data-name="Group 1258">
          <path id="Path_954" data-name="Path 954" d="M354.988,863.819a17.882,17.882,0,0,0,7.057-.818c.775-.258.43-1.506-.344-1.248a17.762,17.762,0,0,1-6.713.774c-.818-.043-.818,1.248,0,1.291Z" transform="translate(-354.375 -861.719)" fill="#e8e8e8"/>
        </g>
      </g>
      <g id="Group_1261" data-name="Group 1261" transform="translate(29.336 316.101)">
        <g id="Group_1260" data-name="Group 1260">
          <path id="Path_955" data-name="Path 955" d="M298.888,864.391h1.635a.646.646,0,0,0,0-1.291h-1.635a.646.646,0,0,0,0,1.291Z" transform="translate(-298.275 -863.1)" fill="#e8e8e8"/>
        </g>
      </g>
      <g id="Group_1263" data-name="Group 1263" transform="translate(60.877 326.514)">
        <g id="Group_1262" data-name="Group 1262">
          <path id="Path_956" data-name="Path 956" d="M372.188,888.591h40.965a.646.646,0,0,0,0-1.291H372.188a.646.646,0,0,0,0,1.291Z" transform="translate(-371.575 -887.3)" fill="#e8e8e8"/>
        </g>
      </g>
      <g id="Group_1265" data-name="Group 1265" transform="translate(291.776 317.994)">
        <g id="Group_1264" data-name="Group 1264" transform="translate(0)">
          <path id="Path_957" data-name="Path 957" d="M908.788,868.791h24.355a.646.646,0,0,0,0-1.291H908.788a.646.646,0,0,0,0,1.291Z" transform="translate(-908.175 -867.5)" fill="#e8e8e8"/>
        </g>
      </g>
      <g id="Group_1267" data-name="Group 1267" transform="translate(365.616 318.769)">
        <g id="Group_1266" data-name="Group 1266">
          <path id="Path_958" data-name="Path 958" d="M1080.388,870.591h135.157a.646.646,0,0,0,0-1.291H1080.388a.646.646,0,0,0,0,1.291Z" transform="translate(-1079.775 -869.3)" fill="#e8e8e8"/>
        </g>
      </g>
      <g id="Group_1269" data-name="Group 1269" transform="translate(303.676 178.451)">
        <g id="Group_1268" data-name="Group 1268" transform="translate(0 0)">
          <path id="Path_959" data-name="Path 959" d="M946.445,543.549q-4.905,10.134-10.542,19.88c-.172.344-.043.9.387.947,18.46,2.8,34.983,11.962,50.9,21.214a.646.646,0,0,0,.645-1.119c-16.05-9.295-32.66-18.5-51.249-21.343.129.3.258.646.387.947,3.787-6.5,7.272-13.124,10.542-19.88.387-.731-.689-1.42-1.076-.645Z" transform="translate(-935.829 -543.208)" fill="#e8e8e8"/>
        </g>
      </g>
      <g id="Group_1271" data-name="Group 1271" transform="translate(315.849 182.81)">
        <g id="Group_1270" data-name="Group 1270" transform="translate(0 0)">
          <path id="Path_960" data-name="Path 960" d="M965.4,572.771c1.291-3.7,2.582-7.444,3.873-11.145a48.364,48.364,0,0,1,1.678-4.776,3.116,3.116,0,0,1,1.592-2.108l1.549.387c.775.215,1.549.387,2.281.6,1.764.43,4.6.43,4.3,2.8-.215,1.678-1.2,3.485-1.764,5.121-1.291,3.658-2.539,7.315-3.83,10.973-.258.775.99,1.119,1.248.344,1.678-4.819,3.356-9.682,5.034-14.5.387-1.119,1.463-3.012.6-4.217-.947-1.291-3.787-1.377-5.25-1.764-1.42-.344-3.916-1.635-5.379-.947-1.248.559-1.506,2.711-1.893,3.787-1.764,5.035-3.529,10.112-5.293,15.147-.258.732.99,1.076,1.248.3Z" transform="translate(-964.119 -553.337)" fill="#e8e8e8"/>
        </g>
      </g>
      <g id="Group_1273" data-name="Group 1273" transform="translate(332.529 173.836)">
        <g id="Group_1272" data-name="Group 1272" transform="translate(0 0)">
          <path id="Path_961" data-name="Path 961" d="M1004.094,565.495c2.754-5.809,5.551-11.661,8.3-17.47,1.377-2.926,2.754-5.809,4.174-8.735a37.053,37.053,0,0,1,1.979-4.174c.688-1.076.861-1.334,2.066-.861a12.031,12.031,0,0,1,1.979,1.291,11.219,11.219,0,0,1,2.41,1.764c.646.818.387,1.678,0,2.711-.516,1.377-1.291,2.711-1.936,4.045-1.42,2.926-2.84,5.852-4.346,8.778-2.84,5.551-5.809,11.059-8.864,16.523a.646.646,0,0,0,1.119.646q5.615-9.94,10.671-20.138c1.678-3.356,3.529-6.8,4.949-10.284.99-2.539-1.162-3.571-3.055-4.905-1.506-1.033-3.873-3.4-5.508-1.463-1.033,1.2-1.592,3.227-2.281,4.69-.861,1.764-1.678,3.529-2.539,5.336q-5.164,10.844-10.284,21.687c-.3.645.818,1.334,1.162.559Z" transform="translate(-1002.882 -532.484)" fill="#e8e8e8"/>
        </g>
      </g>
      <g id="Group_1275" data-name="Group 1275" transform="translate(346.837 198.234)">
        <g id="Group_1274" data-name="Group 1274" transform="translate(0)">
          <path id="Path_962" data-name="Path 962" d="M1037.324,606.746a121.983,121.983,0,0,1,12.479-16.395,4.742,4.742,0,0,1-.775.086c1.635,1.119,3.227,2.195,4.862,3.313a6.875,6.875,0,0,1-.215-.9c-3.657,5.723-7.315,11.4-10.973,17.126-.43.688.646,1.334,1.119.645,3.658-5.723,7.315-11.4,10.973-17.126a.689.689,0,0,0-.215-.9c-1.635-1.119-3.227-2.195-4.862-3.313a.649.649,0,0,0-.775.086,125.091,125.091,0,0,0-12.694,16.653.651.651,0,1,0,1.076.732Z" transform="translate(-1036.134 -589.182)" fill="#e8e8e8"/>
        </g>
      </g>
      <g id="Group_1277" data-name="Group 1277" transform="translate(391.664 156.038)">
        <g id="Group_1276" data-name="Group 1276" transform="translate(0 0)">
          <path id="Path_963" data-name="Path 963" d="M1148.007,509.96a9.608,9.608,0,0,1-6.239-10.542c.775-4.69,5.379-8.864,10.112-6.067a8.339,8.339,0,0,1-5.723,15.4c-.818-.129-1.162,1.119-.344,1.248a10.054,10.054,0,0,0,11.016-6.411,9.891,9.891,0,0,0-5.422-11.919c-5.25-2.152-10.026,2.367-10.929,7.4a10.961,10.961,0,0,0,7.143,12.134c.818.3,1.162-.947.387-1.248Z" transform="translate(-1140.309 -491.122)" fill="#e8e8e8"/>
        </g>
      </g>
      <g id="Group_1279" data-name="Group 1279" transform="translate(401.668 159.259)">
        <g id="Group_1278" data-name="Group 1278">
          <path id="Path_964" data-name="Path 964" d="M1170.074,513.406c-8.563-.258-5.336-13.985,2.238-13.468,7.573.559,4.475,16.007-3.83,13.167-.775-.258-1.119.99-.344,1.248,9.6,3.27,13.9-14.2,4.734-15.663-4.475-.731-8.52,3.485-9.208,7.659a6.935,6.935,0,0,0,6.411,8.3c.818.086.818-1.2,0-1.248Z" transform="translate(-1163.558 -498.607)" fill="#e8e8e8"/>
        </g>
      </g>
      <g id="Group_1281" data-name="Group 1281" transform="translate(399.66 129.847)">
        <g id="Group_1280" data-name="Group 1280" transform="translate(0 0)">
          <path id="Path_965" data-name="Path 965" d="M1161,435.523a2.57,2.57,0,0,1-.516-2.969,2,2,0,0,1,2.8-.645,1.72,1.72,0,0,1,.215,2.539c-.86.775-2.238.387-3.055-.258-.646-.516-1.549.387-.9.9,1.334,1.033,3.4,1.549,4.819.3a3.022,3.022,0,0,0-.129-4.432,3.309,3.309,0,0,0-4.561.473,3.764,3.764,0,0,0,.387,4.991.655.655,0,0,0,.947-.9Z" transform="translate(-1158.892 -430.254)" fill="#e8e8e8"/>
        </g>
      </g>
      <g id="Group_1283" data-name="Group 1283" transform="translate(275.501 95.328)">
        <g id="Group_1282" data-name="Group 1282">
          <path id="Path_966" data-name="Path 966" d="M871.75,422.225c-1.2-7.315,3.055-16.136,11.317-16.05,4.217.043,8.3,1.764,12.565,1.162a11.418,11.418,0,0,0,7.4-4.518,15.256,15.256,0,0,0,3.012-8.3c.215-4.389-1.463-8.864-.258-13.21a7.058,7.058,0,0,1,4.088-5.035c2.108-.732,4.389-.3,6.584-.387a8.243,8.243,0,0,0,7.272-4.3c2.238-3.916,1.721-8.606,3.27-12.737,1.85-4.991,7.057-9.251,12.565-6.8.732.344,1.42-.775.646-1.119-7.487-3.356-13.727,3.4-15.19,10.2-.947,4.432-.775,11.317-6.067,13.081-3.7,1.248-7.875-.688-11.274,1.85-2.8,2.065-3.615,5.852-3.572,9.165.129,4.862,1.635,9.6-.516,14.243a10.767,10.767,0,0,1-10.758,6.713c-4.3-.258-8.563-2.022-12.909-.9-7.358,1.85-10.5,10.542-9.337,17.341.086.732,1.334.387,1.162-.387Z" transform="translate(-870.353 -350.035)" fill="#e8e8e8"/>
        </g>
      </g>
      <g id="Group_1285" data-name="Group 1285" transform="translate(329.523 98.013)">
        <g id="Group_1284" data-name="Group 1284">
          <path id="Path_967" data-name="Path 967" d="M997.663,395.1c-1.592-3.615.6-7.057,4.088-8.219,2.539-.861,5.336-.9,7.53-2.625a5.3,5.3,0,0,0,2.065-5.164c-.215-2.022-.215-3.615,1.377-4.992a7.807,7.807,0,0,1,4.819-1.678c4.733-.172,11.231,2.238,14.673-2.367,1.592-2.151,1.119-4.819,1.85-7.229a7.5,7.5,0,0,1,7.659-5.25c.818.043.818-1.248,0-1.291a8.993,8.993,0,0,0-6.971,2.754c-2.237,2.367-1.936,5.035-2.625,8-1.85,8.133-13.167,2.41-18.5,4.948a6.071,6.071,0,0,0-3.744,4.862c-.215,2.625.99,4.776-1.678,6.584a13.84,13.84,0,0,1-4.69,1.635c-2.711.645-5.379,1.463-6.756,4.088a7.3,7.3,0,0,0-.172,6.541c.3.818,1.377.129,1.076-.6Z" transform="translate(-995.897 -356.274)" fill="#e8e8e8"/>
        </g>
      </g>
      <g id="Group_1287" data-name="Group 1287" transform="translate(406.239 61.548)">
        <g id="Group_1286" data-name="Group 1286">
          <path id="Path_968" data-name="Path 968" d="M1175.91,289.5a10.716,10.716,0,0,1-.473-1.248c.559-.645,1.076-1.291,1.635-1.936.172-.043.947.473,1.2.473a2.257,2.257,0,0,0,1.721-.473c1.592-1.248,1.033-3.227,1.506-4.905.775-2.883,4.174-.9,5.723-3.055,1.549-2.108.99-6.584,5.12-5.379a.647.647,0,0,0,.344-1.248,4.257,4.257,0,0,0-5.379,2.711c-.258.645-.344,1.377-.6,2.022-.559,1.506-1.162,1.721-2.8,1.807-1.2.086-2.152,0-2.969,1.033a6.115,6.115,0,0,0-.818,3.141c-.129,1.592,0,2.926-2.367,2.754-.473-.043-.861-.473-1.377-.473-2.84-.043-2.367,3.442-1.678,5.121.258.775,1.549.43,1.2-.344Z" transform="translate(-1174.18 -271.532)" fill="#e8e8e8"/>
        </g>
      </g>
      <g id="Group_1289" data-name="Group 1289" transform="translate(413.793 65.37)">
        <g id="Group_1288" data-name="Group 1288" transform="translate(0)">
          <path id="Path_969" data-name="Path 969" d="M1194,298.136c-.688-.9-1.85-3.529.172-4.217a7.839,7.839,0,0,1,2.453.043,2.571,2.571,0,0,0,1.85-.473c1.721-1.377.473-3.83,1.377-5.551,1.463-2.8,4.389-.6,6.454-2.065,1.463-1.033,1.85-3.012,2.109-4.647.129-.818-1.119-1.162-1.248-.344-.3,1.936-.646,4.088-3.055,4.3-1.248.129-2.195-.3-3.356.258-1.893.9-2.5,2.582-2.539,4.518-.043,1.635.344,2.453-2.41,2.582-.344,0-.688-.086-1.033-.086a3.231,3.231,0,0,0-2.41,1.42c-1.2,1.721-.516,3.7.688,5.207.56.645,1.463-.3.947-.947Z" transform="translate(-1191.737 -280.414)" fill="#e8e8e8"/>
        </g>
      </g>
      <g id="Group_1291" data-name="Group 1291" transform="translate(49.094 97.834)">
        <g id="Group_1290" data-name="Group 1290">
          <path id="Path_970" data-name="Path 970" d="M345.314,364.439c3.572-4.3,8.649-7.831,14.5-7.229,6.368.645,9.51,5.723,10.112,11.661,1.033,9.854-1.377,21.644,5.293,30.035,2.625,3.313,6.541,5.078,10.758,4.045,5.078-1.2,9.036-5.207,13.555-7.573,5.336-2.8,12.694-4.3,17.513.387,3.529,3.442,4.3,8.692,5.465,13.253,1.076,4.131,2.926,8.692,6.627,11.145,2.238,1.463,4.69,1.592,7.272,1.42,2.883-.215,8.778-.387,8.176,4.131-.086.818,1.2.818,1.291,0a4.407,4.407,0,0,0-2.022-4.217c-2.238-1.635-4.819-1.377-7.444-1.2-2.969.215-5.508-.043-7.788-2.151a17.12,17.12,0,0,1-4.217-7.186c-1.506-4.518-1.936-9.467-4.518-13.6a12.775,12.775,0,0,0-11.661-5.9c-5.981.215-11.016,3.658-15.792,6.842-2.281,1.506-4.733,3.1-7.53,3.571a9.082,9.082,0,0,1-8.477-3.4c-4.045-4.733-4.69-11.489-4.905-17.427-.215-5.551.516-11.575-1.334-16.954a12.026,12.026,0,0,0-11.059-8.219c-5.938-.3-11.145,3.27-14.8,7.659-.473.646.43,1.549.99.9Z" transform="translate(-344.192 -355.859)" fill="#e8e8e8"/>
        </g>
      </g>
      <g id="Group_1293" data-name="Group 1293" transform="translate(28.389 171.843)">
        <g id="Group_1292" data-name="Group 1292" transform="translate(0 0)">
          <path id="Path_971" data-name="Path 971" d="M296.172,528.819A318.828,318.828,0,0,1,314.158,563.5c.344.775,1.463.086,1.119-.646a326.618,326.618,0,0,0-17.987-34.682.646.646,0,0,0-1.119.645Z" transform="translate(-296.075 -527.852)" fill="#e8e8e8"/>
        </g>
      </g>
      <g id="Group_1295" data-name="Group 1295" transform="translate(28.336 153.022)">
        <g id="Group_1294" data-name="Group 1294">
          <path id="Path_972" data-name="Path 972" d="M296.919,503.385c10.456-6.5,21.214-12.565,32.273-18.073.732-.387.086-1.506-.645-1.119-11.016,5.508-21.773,11.575-32.273,18.073-.732.473-.086,1.592.645,1.119Z" transform="translate(-295.952 -484.113)" fill="#e8e8e8"/>
        </g>
      </g>
      <g id="Group_1297" data-name="Group 1297" transform="translate(60.735 152.667)">
        <g id="Group_1296" data-name="Group 1296" transform="translate(0 0)">
          <path id="Path_973" data-name="Path 973" d="M371.311,484.283q8.2,17.234,17.341,33.951c.387.732,1.506.086,1.119-.645-6.11-11.145-11.919-22.462-17.341-33.951-.387-.775-1.463-.129-1.119.645Z" transform="translate(-371.244 -483.287)" fill="#e8e8e8"/>
        </g>
      </g>
      <g id="Group_1299" data-name="Group 1299" transform="translate(46.996 187.43)">
        <g id="Group_1298" data-name="Group 1298" transform="translate(0 0)">
          <path id="Path_974" data-name="Path 974" d="M340.256,584.4q15.426-9.295,30.508-19.105c.689-.43.043-1.549-.645-1.119q-15.1,9.811-30.508,19.105c-.689.43-.043,1.549.645,1.119Z" transform="translate(-339.316 -564.075)" fill="#e8e8e8"/>
        </g>
      </g>
      <g id="Group_1301" data-name="Group 1301" transform="translate(47.05 167.894)">
        <g id="Group_1300" data-name="Group 1300" transform="translate(0 0)">
          <path id="Path_975" data-name="Path 975" d="M339.51,519.288a139.006,139.006,0,0,0,1.42,24.656c.129.818,1.377.473,1.248-.344a135.142,135.142,0,0,1-1.377-24.312c.043-.818-1.248-.818-1.291,0Z" transform="translate(-339.441 -518.675)" fill="#e8e8e8"/>
        </g>
      </g>
      <g id="Group_1303" data-name="Group 1303" transform="translate(46.939 167.019)">
        <g id="Group_1302" data-name="Group 1302">
          <path id="Path_976" data-name="Path 976" d="M339.406,517.7c5.981,4.69,11.962,9.295,18.03,13.856.645.516,1.291-.6.645-1.119q-8.972-6.713-17.771-13.641c-.645-.516-1.549.387-.9.9Z" transform="translate(-339.184 -516.642)" fill="#e8e8e8"/>
        </g>
      </g>
      <g id="Group_1305" data-name="Group 1305" transform="translate(48.752 180.745)">
        <g id="Group_1304" data-name="Group 1304" transform="translate(0 0)">
          <path id="Path_977" data-name="Path 977" d="M344.517,561.216c4.948-4.432,11.4-6.8,16.093-11.575.6-.6-.344-1.506-.9-.9-4.69,4.733-11.1,7.143-16.093,11.575-.645.516.3,1.42.9.9Z" transform="translate(-343.397 -548.538)" fill="#e8e8e8"/>
        </g>
      </g>
      <g id="Group_1307" data-name="Group 1307" transform="translate(29.24 176.36)">
        <g id="Group_1306" data-name="Group 1306" transform="translate(0 0)">
          <path id="Path_978" data-name="Path 978" d="M299.019,541.555c1.377-.688,2.754-1.334,4.131-2.022.731-.344.086-1.463-.645-1.119-1.377.688-2.754,1.334-4.131,2.022-.732.387-.086,1.463.645,1.119Z" transform="translate(-298.052 -538.349)" fill="#e8e8e8"/>
        </g>
      </g>
      <g id="Group_1309" data-name="Group 1309" transform="translate(33.684 183.608)">
        <g id="Group_1308" data-name="Group 1308">
          <path id="Path_979" data-name="Path 979" d="M309.336,558.466a23.475,23.475,0,0,1,3.7-1.979c.775-.3.43-1.549-.344-1.248a27.741,27.741,0,0,0-4.045,2.108c-.645.473,0,1.592.688,1.119Z" transform="translate(-308.381 -555.192)" fill="#e8e8e8"/>
        </g>
      </g>
      <g id="Group_1311" data-name="Group 1311" transform="translate(38.534 192.365)">
        <g id="Group_1310" data-name="Group 1310" transform="translate(0 0)">
          <path id="Path_980" data-name="Path 980" d="M320.619,578.494c1.2-.6,2.41-1.2,3.615-1.764.731-.387.086-1.463-.645-1.119-1.2.6-2.41,1.2-3.615,1.764-.732.344-.086,1.463.645,1.119Z" transform="translate(-319.652 -575.544)" fill="#e8e8e8"/>
        </g>
      </g>
      <g id="Group_1313" data-name="Group 1313" transform="translate(40.872 199.536)">
        <g id="Group_1312" data-name="Group 1312" transform="translate(0 0)">
          <path id="Path_981" data-name="Path 981" d="M326.21,596.421a24.585,24.585,0,0,1,4.26-3.012.646.646,0,0,0-.645-1.119,27.1,27.1,0,0,0-4.518,3.227c-.645.559.258,1.463.9.9Z" transform="translate(-325.084 -592.208)" fill="#e8e8e8"/>
        </g>
      </g>
      <g id="Group_1315" data-name="Group 1315" transform="translate(62.299 159.411)">
        <g id="Group_1314" data-name="Group 1314">
          <path id="Path_982" data-name="Path 982" d="M375.836,501.689a9.739,9.739,0,0,1,3.184-1.463.647.647,0,0,0-.344-1.248,10.04,10.04,0,0,0-3.529,1.592c-.645.473,0,1.592.689,1.119Z" transform="translate(-374.881 -498.961)" fill="#e8e8e8"/>
        </g>
      </g>
      <g id="Group_1317" data-name="Group 1317" transform="translate(66.117 165.657)">
        <g id="Group_1316" data-name="Group 1316" transform="translate(0 0)">
          <path id="Path_983" data-name="Path 983" d="M384.719,517.316c1.377-.861,2.754-1.721,4.088-2.625.689-.43.043-1.549-.645-1.119-1.377.861-2.754,1.721-4.088,2.625-.732.473-.086,1.592.645,1.119Z" transform="translate(-383.752 -513.475)" fill="#e8e8e8"/>
        </g>
      </g>
      <g id="Group_1319" data-name="Group 1319" transform="translate(70.487 175.198)">
        <g id="Group_1318" data-name="Group 1318" transform="translate(0 0)">
          <path id="Path_984" data-name="Path 984" d="M394.894,538.769c1.463-.646,2.969-1.291,4.432-1.936.775-.344.086-1.463-.645-1.119-1.463.645-2.969,1.291-4.432,1.936-.775.344-.086,1.463.645,1.119Z" transform="translate(-393.908 -535.649)" fill="#e8e8e8"/>
        </g>
      </g>
      <g id="Group_1321" data-name="Group 1321" transform="translate(73.512 180.002)">
        <g id="Group_1320" data-name="Group 1320" transform="translate(0 0)">
          <path id="Path_985" data-name="Path 985" d="M402.041,550.9a19.7,19.7,0,0,1,3.873-2.883c.731-.387.086-1.506-.645-1.119a20.53,20.53,0,0,0-4.131,3.055.655.655,0,0,0,.9.947Z" transform="translate(-400.938 -546.813)" fill="#e8e8e8"/>
        </g>
      </g>
      <g id="Group_1323" data-name="Group 1323" transform="translate(51.479 201.116)">
        <g id="Group_1322" data-name="Group 1322" transform="translate(0 0)">
          <path id="Path_986" data-name="Path 986" d="M349.849,596.836a25.674,25.674,0,0,1,2.668,5.034c.3.775,1.549.43,1.248-.344a25.563,25.563,0,0,0-2.8-5.379c-.473-.645-1.592,0-1.119.689Z" transform="translate(-349.734 -595.881)" fill="#e8e8e8"/>
        </g>
      </g>
      <g id="Group_1325" data-name="Group 1325" transform="translate(58.096 197.532)">
        <g id="Group_1324" data-name="Group 1324">
          <path id="Path_987" data-name="Path 987" d="M365.194,588.519c.818,1.463,1.592,2.883,2.41,4.346.387.732,1.506.086,1.119-.645-.818-1.463-1.592-2.883-2.41-4.346-.387-.732-1.506-.086-1.119.645Z" transform="translate(-365.113 -587.552)" fill="#e8e8e8"/>
        </g>
      </g>
      <g id="Group_1327" data-name="Group 1327" transform="translate(65.713 192.067)">
        <g id="Group_1326" data-name="Group 1326">
          <path id="Path_988" data-name="Path 988" d="M382.894,575.819l2.582,4.647c.387.732,1.506.086,1.119-.645l-2.582-4.647c-.387-.732-1.506-.086-1.119.645Z" transform="translate(-382.813 -574.852)" fill="#e8e8e8"/>
        </g>
      </g>
      <g id="Group_1329" data-name="Group 1329" transform="translate(72.57 187.98)">
        <g id="Group_1328" data-name="Group 1328">
          <path id="Path_989" data-name="Path 989" d="M398.814,566.319c.688,1.635,1.377,3.27,2.108,4.862.344.775,1.42.086,1.119-.645-.688-1.635-1.377-3.27-2.108-4.862-.344-.732-1.463-.086-1.119.646Z" transform="translate(-398.749 -565.352)" fill="#e8e8e8"/>
        </g>
      </g>
      <g id="Group_1331" data-name="Group 1331" transform="translate(33.51 164.728)">
        <g id="Group_1330" data-name="Group 1330">
          <path id="Path_990" data-name="Path 990" d="M308.072,512.256c.818,1.334,1.592,2.668,2.41,3.959.43.732,1.549.043,1.119-.646-.818-1.334-1.592-2.668-2.41-3.959-.43-.688-1.549-.043-1.119.645Z" transform="translate(-307.975 -511.316)" fill="#e8e8e8"/>
        </g>
      </g>
      <g id="Group_1333" data-name="Group 1333" transform="translate(40.941 160.369)">
        <g id="Group_1332" data-name="Group 1332">
          <path id="Path_991" data-name="Path 991" d="M325.311,502.183l2.324,5.164c.344.775,1.463.086,1.119-.645l-2.324-5.164c-.387-.775-1.463-.129-1.119.645Z" transform="translate(-325.244 -501.188)" fill="#e8e8e8"/>
        </g>
      </g>
      <g id="Group_1335" data-name="Group 1335" transform="translate(47.563 156.313)">
        <g id="Group_1334" data-name="Group 1334">
          <path id="Path_992" data-name="Path 992" d="M340.749,492.681a17.7,17.7,0,0,1,2.668,5.035c.258.775,1.506.43,1.248-.344a17.577,17.577,0,0,0-2.8-5.336c-.473-.646-1.592-.043-1.119.645Z" transform="translate(-340.634 -491.76)" fill="#e8e8e8"/>
        </g>
      </g>
      <g id="Group_1337" data-name="Group 1337" transform="translate(54.749 152.98)">
        <g id="Group_1336" data-name="Group 1336" transform="translate(0 0)">
          <path id="Path_993" data-name="Path 993" d="M357.449,484.956c.9,1.377,1.764,2.711,2.668,4.088.43.689,1.549.043,1.119-.645-.9-1.377-1.764-2.711-2.668-4.088-.473-.688-1.592-.043-1.119.645Z" transform="translate(-357.334 -484.016)" fill="#e8e8e8"/>
        </g>
      </g>
      <g id="Group_1339" data-name="Group 1339" transform="translate(116.886 55.211)">
        <g id="Group_1338" data-name="Group 1338">
          <path id="Path_994" data-name="Path 994" d="M506.626,270.184c-4.174-1.291-4.389-5.723-2.41-9.036,1.936-3.227,5.68-4.088,8.606-1.42a6.084,6.084,0,0,1,.387,8.52,6.29,6.29,0,0,1-8.477.559c-.645-.516-1.291.6-.645,1.119a7.472,7.472,0,0,0,10.5-1.377,7.379,7.379,0,0,0-1.936-10.585c-8.606-5.551-16.007,10.456-6.368,13.468a.647.647,0,0,0,.344-1.248Z" transform="translate(-501.737 -256.804)" fill="#e8e8e8"/>
        </g>
      </g>
      <g id="Group_1341" data-name="Group 1341" transform="translate(124.06 61.191)">
        <g id="Group_1340" data-name="Group 1340">
          <path id="Path_995" data-name="Path 995" d="M523.053,279.221c-3.227.99-4-2.883-2.582-4.948a5.258,5.258,0,0,1,5.508-2.108,3.877,3.877,0,0,1,2.883,4.561c-.645,2.539-3.313,3.442-5.68,3.055-.818-.129-1.162,1.119-.344,1.248,3.184.559,6.627-.818,7.315-4.26a5.21,5.21,0,0,0-4.6-6.024c-3.184-.387-6.67,1.936-7.1,5.207a3.987,3.987,0,0,0,5.035,4.475c.732-.215.387-1.463-.43-1.2Z" transform="translate(-518.41 -270.702)" fill="#e8e8e8"/>
        </g>
      </g>
      <g id="Group_1343" data-name="Group 1343" transform="translate(100.911 97.401)">
        <g id="Group_1342" data-name="Group 1342">
          <path id="Path_996" data-name="Path 996" d="M464.952,355.174c-1.033,2.108.43,4.217,2.582,4.776,1.635.43,3.356.043,5.035.129a14.661,14.661,0,0,1,5.25,1.248,9.564,9.564,0,0,1,6.067,8.606c.129,3.356-.861,6.842.6,10.026,3.1,6.713,11.618,1.592,16.007,5.938,3.658,3.658,2.152,10.327,7.057,13.124a.646.646,0,0,0,.645-1.119c-4.389-2.5-3.356-8.993-6.454-12.608-1.635-1.893-4-2.41-6.411-2.582-2.926-.172-6.713.43-8.864-2.065-2.5-2.926-1.162-7.315-1.291-10.758a10.325,10.325,0,0,0-2.883-7.1,13.672,13.672,0,0,0-6.153-3.442,16.692,16.692,0,0,0-3.571-.559c-1.549-.086-8.262.688-6.454-2.969.344-.732-.775-1.377-1.162-.645Z" transform="translate(-464.613 -354.852)" fill="#e8e8e8"/>
        </g>
      </g>
      <g id="Group_1345" data-name="Group 1345" transform="translate(0 328.709)">
        <g id="Group_1344" data-name="Group 1344">
          <path id="Path_997" data-name="Path 997" d="M230.745,893.691h23.322a.646.646,0,0,0,0-1.291H230.745a.645.645,0,1,0,0,1.291Z" transform="translate(-230.1 -892.4)" fill="#e8e8e8"/>
        </g>
      </g>
      <g id="Group_1347" data-name="Group 1347" transform="translate(12.565 357.883)">
        <g id="Group_1346" data-name="Group 1346">
          <path id="Path_998" data-name="Path 998" d="M259.945,961.491h44.88a.646.646,0,0,0,0-1.291h-44.88a.645.645,0,1,0,0,1.291Z" transform="translate(-259.3 -960.2)" fill="#e8e8e8"/>
        </g>
      </g>
      <g id="Group_1349" data-name="Group 1349" transform="translate(55.638 349.793)">
        <g id="Group_1348" data-name="Group 1348">
          <path id="Path_999" data-name="Path 999" d="M360.045,942.691h41.739a.646.646,0,0,0,0-1.291H360.045a.645.645,0,0,0,0,1.291Z" transform="translate(-359.4 -941.4)" fill="#e8e8e8"/>
        </g>
      </g>
      <g id="Group_1351" data-name="Group 1351" transform="translate(286.952 344.25)">
        <g id="Group_1350" data-name="Group 1350" transform="translate(0)">
          <path id="Path_1000" data-name="Path 1000" d="M897.753,933.114a53.372,53.372,0,0,1,21.214-.775,38.213,38.213,0,0,0,9.122.688,51.137,51.137,0,0,0,8.735-1.936,29.013,29.013,0,0,1,9.983-1.334,71.2,71.2,0,0,1,10.37,2.022,37.656,37.656,0,0,0,9.036,1.119,78.18,78.18,0,0,0,9.553-1.119c8.606-1.377,16.7-.516,25.216.9.818.129,1.162-1.119.344-1.248-6.885-1.119-13.813-2.281-20.827-1.592-7.315.732-14.114,2.539-21.515,1.033-6.2-1.248-12.091-3.184-18.46-1.979-3.4.646-6.627,1.85-10.026,2.5-3.787.731-7.444.3-11.231-.3a55.243,55.243,0,0,0-21.9.775c-.732.215-.387,1.463.387,1.248Z" transform="translate(-896.963 -928.517)" fill="#e8e8e8"/>
        </g>
      </g>
      <g id="Group_1353" data-name="Group 1353" transform="translate(353.218 332.1)">
        <g id="Group_1352" data-name="Group 1352">
          <path id="Path_1001" data-name="Path 1001" d="M1051.581,903.947q20.267-1.1,40.534-2.151a104.507,104.507,0,0,1,19.751.688,35.253,35.253,0,0,0,8.778.129c3.313-.387,6.756-.9,9.854.689.732.387,1.377-.732.646-1.119-5.25-2.668-11.317-.172-16.954-.688-3.356-.3-6.627-.947-9.983-1.119-3.485-.172-6.971-.086-10.456.086-14.071.646-28.142,1.506-42.213,2.238a.625.625,0,0,0,.043,1.248Z" transform="translate(-1050.962 -900.282)" fill="#e8e8e8"/>
        </g>
      </g>
      <g id="Group_1355" data-name="Group 1355" transform="translate(88.615 368.954)">
        <g id="Group_1354" data-name="Group 1354">
          <path id="Path_1002" data-name="Path 1002" d="M436.667,989.7c6.368.6,12.78,1.2,19.148.473a50.433,50.433,0,0,0,8.692-1.85,22.589,22.589,0,0,1,10.973-.732c2.969.516,5.9,1.248,8.864,1.506a53.058,53.058,0,0,0,9.424-.215c6.584-.646,13.167-1.764,19.708-.3.818.172,1.162-1.076.344-1.248-6.282-1.377-12.565-.473-18.89.172a62.823,62.823,0,0,1-9.424.43c-3.571-.172-7.014-1.119-10.5-1.678a21.47,21.47,0,0,0-8.606.215c-3.1.775-6.024,1.807-9.208,2.281-6.8.99-13.727.3-20.525-.3-.861-.129-.818,1.162,0,1.248Z" transform="translate(-436.037 -985.929)" fill="#e8e8e8"/>
        </g>
      </g>
      <g id="Group_1357" data-name="Group 1357" transform="translate(152.661 0)">
        <g id="Group_1356" data-name="Group 1356">
          <path id="Path_1003" data-name="Path 1003" d="M589.535,154.015c-1.678-1.162-3.959-3.012-3.27-5.336.732-2.41,2.539-1.248,4.217-1.807,2.238-.732,2.108-3.442,1.463-5.207-.646-1.721-2.023-5.9,1.549-4.475.818.344,1.42.9,2.367.6a2.382,2.382,0,0,0,1.506-1.85,8.1,8.1,0,0,0,0-2.281,9.938,9.938,0,0,1-.129-1.592c-.172-1.248.6-1.764,2.238-1.549.043.818,1.334.818,1.291,0a2.112,2.112,0,0,0-2.281-2.022c-1.506.043-2.324,1.506-2.5,2.883-.129.947.645,3.141.215,3.916-.516.344-1.033.732-1.592,1.076l-.645-.387a11.7,11.7,0,0,0-1.076-.473,2.492,2.492,0,0,0-2.883,1.721c-.818,2.065.646,3.787,1.076,5.723.559,2.668-1.463,2.367-3.227,2.668a3.355,3.355,0,0,0-1.936,1.076c-2.711,3.141.43,6.627,3.012,8.434.645.473,1.291-.645.6-1.119Z" transform="translate(-584.878 -128.496)" fill="#e8e8e8"/>
        </g>
      </g>
      <g id="Group_1359" data-name="Group 1359" transform="translate(162.938 7.151)">
        <g id="Group_1358" data-name="Group 1358">
          <path id="Path_1004" data-name="Path 1004" d="M611.618,162.278c-1.42-1.635-2.5-3.873.258-4.733a7.284,7.284,0,0,0,2.108-.559c1.42-.99.818-2.324.559-3.7a3.8,3.8,0,0,1,.043-2.582c.344-.559,1.592-.775,2.238-.9a7.852,7.852,0,0,0,2.625-.861,2.576,2.576,0,0,0,.818-3.528c-.43-.688-1.549-.043-1.119.645,1.291,2.065-4.733,2.625-5.766,4.131-1.2,1.764,1.334,4.862-.774,5.981-.818.43-1.85.129-2.625.688a2.9,2.9,0,0,0-1.119,1.635c-.473,1.85.775,3.442,1.893,4.733.516.6,1.42-.3.861-.947Z" transform="translate(-608.761 -145.116)" fill="#e8e8e8"/>
        </g>
      </g>
      <g id="Group_1361" data-name="Group 1361" transform="translate(112.624 6.198)">
        <g id="Group_1360" data-name="Group 1360">
          <path id="Path_1005" data-name="Path 1005" d="M494.185,150.817a2.927,2.927,0,0,1-.9-3.356c.215-.818,1.248-3.055,2.238-3.141,1.635-.172,2.453,1.893,2.883,3.1a12.336,12.336,0,0,1,.559,3.528.646.646,0,0,0,1.291,0c-.043-2.41-1.635-9.811-5.594-7.659-1.506.818-2.625,3.184-2.8,4.819a4.029,4.029,0,0,0,1.678,3.83c.645.473,1.291-.645.645-1.119Z" transform="translate(-491.833 -142.9)" fill="#e8e8e8"/>
        </g>
      </g>
      <g id="Group_1363" data-name="Group 1363" transform="translate(105.638 14.788)">
        <g id="Group_1362" data-name="Group 1362">
          <path id="Path_1006" data-name="Path 1006" d="M484.421,162.878c-1.549.387-3.1.775-4.69,1.162-.9.215-2.453.3-3.184.99-1.248,1.162-.9,4.733-.9,6.239a.633.633,0,0,0,.818.6c.215-.043.43-.129.689-.172,1.119-.6,1.678-.215,1.721,1.076.861.861.861,1.377,0,1.463a4.03,4.03,0,0,1-1.592.3.662.662,0,0,0-.645.645c.086,2.754.3,5.465.6,8.219.086.818,1.377.818,1.291,0-.3-2.754-.516-5.465-.6-8.219l-.645.645c1.807-.215,4.69-.947,4.3-3.4-.43-2.625-3.615-2.324-5.422-1.807a9.939,9.939,0,0,0,.818.6c0-.99,0-1.936.086-2.926.129-1.549.043-2.108,1.463-2.668a50.827,50.827,0,0,1,6.239-1.549c.818-.129.473-1.377-.344-1.2Z" transform="translate(-475.599 -162.862)" fill="#e8e8e8"/>
        </g>
      </g>
      <g id="Group_1365" data-name="Group 1365" transform="translate(120.043 13.868)">
        <g id="Group_1364" data-name="Group 1364">
          <path id="Path_1007" data-name="Path 1007" d="M509.688,162.048a33.13,33.13,0,0,1,5.465.129c1.721.215,1.635.473,1.893,1.979.172.947.215,1.936.3,2.883.344,3.7.6,7.4.818,11.1.043.818,1.334.818,1.291,0a138.114,138.114,0,0,0-1.248-15.19c-.215-1.248-.43-1.635-1.721-1.85a27.728,27.728,0,0,0-6.8-.3c-.818,0-.818,1.291,0,1.248Z" transform="translate(-509.075 -160.725)" fill="#e8e8e8"/>
        </g>
      </g>
      <g id="Group_1367" data-name="Group 1367" transform="translate(107.409 30.871)">
        <g id="Group_1366" data-name="Group 1366">
          <path id="Path_1008" data-name="Path 1008" d="M480.525,205.6c2.539-.43,5.078-.861,7.573-1.291,2.883-.473,5.637-.258,8.52-.473,1.334-.129,7.659-.775,5.336-3.4-.559-.6-1.463.3-.9.9.344.387-5.508,1.248-5.637,1.248-1.807.043-3.615-.043-5.422.172-3.27.387-6.541,1.076-9.811,1.635-.818.086-.473,1.334.344,1.2Z" transform="translate(-479.714 -200.238)" fill="#e8e8e8"/>
        </g>
      </g>
    </g>
    <g id="robot" transform="translate(554.296 362.508)">
      <path id="Path_1009" data-name="Path 1009" d="M1012.287,788.6c-.129,4.518-.258,9.036-.387,13.6,5.723.387,11.4.732,17.126,1.119V789.375Z" transform="translate(-999.687 -788.6)" fill="#fff" stroke="#161616" stroke-miterlimit="10" stroke-width="2"/>
      <path id="Path_1010" data-name="Path 1010" d="M1023.406,904.047c.775,4.992,1.119,9.122,1.291,12.091.559,9.854.129,12.135-.731,13.942-2.109,4.432-5.938,6.282-5.594,6.885.258.387,2.151-.043,10.585-4.475-.516-9.811-.99-19.579-1.506-29.39C1026.117,903.444,1024.783,903.746,1023.406,904.047Z" transform="translate(-1003.361 -853.831)" fill="#fff" stroke="#161616" stroke-miterlimit="10" stroke-width="2"/>
      <path id="Path_1011" data-name="Path 1011" d="M1004.2,831.8c7.315.043,14.63.129,21.945.172-.817,9.811-1.592,19.579-2.41,29.39-6.369-.516-12.78-.99-19.148-1.506Q1004.329,845.849,1004.2,831.8Z" transform="translate(-995.3 -813.211)" fill="#fff" stroke="#161616" stroke-miterlimit="10" stroke-width="2"/>
      <path id="Path_1012" data-name="Path 1012" d="M1001.979,904.215a45.571,45.571,0,0,1,3.356,13.77c.387,4.819.645,8.52-1.678,10.973-.861.947-2.281,1.85-5.035,3.7-2.453,1.635-3.615,2.238-3.529,2.41.129.258,2.5-.258,12.823-3.916a60.43,60.43,0,0,0,1.119-13.21A59.529,59.529,0,0,0,1006.97,904C1005.335,904.086,1003.657,904.129,1001.979,904.215Z" transform="translate(-990.11 -854.343)" fill="#fff" stroke="#161616" stroke-miterlimit="10" stroke-width="2"/>
      <g id="Group_1369" data-name="Group 1369" transform="translate(14.505 76.206)">
        <g id="Group_1368" data-name="Group 1368">
          <path id="Path_1013" data-name="Path 1013" d="M1018.334,973.015a39.864,39.864,0,0,0,3.658-3.485c1.334-1.463,3.313-3.7,5.379-1.764l.129-1.033c-3.055,1.506-6.067,3.012-9.122,4.475a.648.648,0,0,0,.344,1.2c2.883.043,4.69-4.991,7.659-4.045.774.258,1.119-.99.344-1.248a3.552,3.552,0,0,0-3.356.732c-1.248.9-3.012,3.27-4.6,3.27.129.387.215.818.344,1.2,3.055-1.506,6.067-3.012,9.122-4.475a.647.647,0,0,0,.129-1.033,4.544,4.544,0,0,0-4.69-.774c-1.076.473-1.764,1.721-2.539,2.539a46.612,46.612,0,0,1-3.658,3.485c-.688.559.215,1.506.861.947Z" transform="translate(-1017.227 -965.7)" fill="#161616"/>
        </g>
      </g>
      <g id="Group_1371" data-name="Group 1371" transform="translate(20.292 75.475)">
        <g id="Group_1370" data-name="Group 1370">
          <path id="Path_1014" data-name="Path 1014" d="M1031.288,965.334a10.27,10.27,0,0,1,3.744.818c.732.344,1.42-.775.646-1.119a11.117,11.117,0,0,0-4.389-1.033c-.817.043-.817,1.334,0,1.334Z" transform="translate(-1030.675 -964)" fill="#161616"/>
        </g>
      </g>
      <g id="Group_1373" data-name="Group 1373" transform="translate(13.409 74.063)">
        <g id="Group_1372" data-name="Group 1372">
          <path id="Path_1015" data-name="Path 1015" d="M1015.119,961.959a5.046,5.046,0,0,1,2.539,1.549c.559.6,1.463-.3.9-.9a6.516,6.516,0,0,0-3.141-1.85c-.732-.258-1.076.99-.3,1.2Z" transform="translate(-1014.679 -960.719)" fill="#161616"/>
        </g>
      </g>
      <g id="Group_1375" data-name="Group 1375" transform="translate(5.966 75.041)">
        <g id="Group_1374" data-name="Group 1374">
          <path id="Path_1016" data-name="Path 1016" d="M998.293,968.461c1.334-.99,2.711-1.893,4.131-2.754a10.413,10.413,0,0,1,2.022-1.119,3.17,3.17,0,0,1,2.711.3V963.77c-1.377.6-2.926.559-4.346,1.162-1.377.559-2.668,1.936-4.088,2.195l.516,1.162c2.539-1.248,5.379-1.463,7.918-2.711.732-.387.086-1.463-.645-1.119-2.539,1.248-5.379,1.463-7.918,2.711-.688.344-.172,1.291.516,1.162,1.549-.258,2.8-1.678,4.26-2.238s3.055-.6,4.475-1.2a.646.646,0,0,0,0-1.119c-1.635-.732-2.367-1.162-4-.3a47.273,47.273,0,0,0-6.11,3.873c-.775.473-.129,1.592.559,1.119Z" transform="translate(-997.381 -962.993)" fill="#161616"/>
        </g>
      </g>
      <g id="Group_1377" data-name="Group 1377" transform="translate(13.455 54.892)">
        <g id="Group_1376" data-name="Group 1376">
          <path id="Path_1017" data-name="Path 1017" d="M1015.566,917.73a3.806,3.806,0,0,1,3.141.172c.732.387,1.377-.732.645-1.119a4.961,4.961,0,0,0-4.131-.3c-.775.3-.43,1.549.344,1.248Z" transform="translate(-1014.785 -916.167)" fill="#161616"/>
        </g>
      </g>
      <g id="Group_1379" data-name="Group 1379" transform="translate(14.698 59.457)">
        <g id="Group_1378" data-name="Group 1378">
          <path id="Path_1018" data-name="Path 1018" d="M1018.288,928.077a3.163,3.163,0,0,1,2.453.731c.645.516,1.549-.387.9-.9a4.747,4.747,0,0,0-3.356-1.119c-.818.043-.818,1.334,0,1.291Z" transform="translate(-1017.675 -926.775)" fill="#161616"/>
        </g>
      </g>
      <g id="Group_1381" data-name="Group 1381" transform="translate(15.178 64.819)">
        <g id="Group_1380" data-name="Group 1380">
          <path id="Path_1019" data-name="Path 1019" d="M1019.4,940.554a2.158,2.158,0,0,1,2.065.9c.43.688,1.549.043,1.119-.646a3.211,3.211,0,0,0-3.141-1.549.662.662,0,0,0-.645.645.6.6,0,0,0,.6.646Z" transform="translate(-1018.791 -939.236)" fill="#161616"/>
        </g>
      </g>
      <g id="Group_1383" data-name="Group 1383" transform="translate(20.368 54.598)">
        <g id="Group_1382" data-name="Group 1382">
          <path id="Path_1020" data-name="Path 1020" d="M1031.819,917.04a2.219,2.219,0,0,1,2.5.215c.645.516,1.549-.387.9-.9a3.586,3.586,0,0,0-4.045-.43.646.646,0,0,0,.646,1.119Z" transform="translate(-1030.852 -915.484)" fill="#161616"/>
        </g>
      </g>
      <g id="Group_1385" data-name="Group 1385" transform="translate(21.067 62.872)">
        <g id="Group_1384" data-name="Group 1384">
          <path id="Path_1021" data-name="Path 1021" d="M1033.475,936.126a1.85,1.85,0,0,1,2.022.344c.6.559,1.549-.344.9-.9a3.2,3.2,0,0,0-3.615-.516c-.731.3-.043,1.42.688,1.076Z" transform="translate(-1032.475 -934.711)" fill="#161616"/>
        </g>
      </g>
      <g id="Group_1387" data-name="Group 1387" transform="translate(21.3 69.588)">
        <g id="Group_1386" data-name="Group 1386">
          <path id="Path_1022" data-name="Path 1022" d="M1033.956,951.9a1.875,1.875,0,0,1,2.195.086c.645.516,1.549-.387.9-.9a3.109,3.109,0,0,0-3.744-.258c-.688.43-.043,1.549.646,1.076Z" transform="translate(-1033.016 -950.318)" fill="#161616"/>
        </g>
      </g>
      <path id="Path_1023" data-name="Path 1023" d="M1054.182,832.1q-1.291,14.845-2.582,29.691" transform="translate(-1022.304 -813.382)" fill="none" stroke="#161616" stroke-miterlimit="10" stroke-width="6"/>
      <path id="Path_1024" data-name="Path 1024" d="M1004.8,897.9c7.186.516,14.372.99,21.558,1.506" transform="translate(-995.642 -850.868)" fill="none" stroke="#161616" stroke-miterlimit="10" stroke-width="6"/>
      <path id="Path_1025" data-name="Path 1025" d="M1054.259,789.5c-.172,4.905-.387,9.768-.559,14.673" transform="translate(-1023.5 -789.113)" fill="none" stroke="#161616" stroke-miterlimit="10" stroke-width="6"/>
      <g id="Group_1389" data-name="Group 1389" transform="translate(30.077 23.142)">
        <g id="Group_1388" data-name="Group 1388">
          <path id="Path_1026" data-name="Path 1026" d="M1055,843.766a7.479,7.479,0,0,1,8.563,6.541c.43,5.164-5.465,6.067-9.338,5.508-.818-.129-1.162,1.119-.344,1.248,4.733.689,11.4-.645,10.973-6.756a8.776,8.776,0,0,0-10.2-7.788c-.818.129-.473,1.377.344,1.248Z" transform="translate(-1053.414 -842.38)" fill="#161616"/>
        </g>
      </g>
      <g id="Group_1391" data-name="Group 1391" transform="translate(30.252 37.599)">
        <g id="Group_1390" data-name="Group 1390">
          <path id="Path_1027" data-name="Path 1027" d="M1054.285,877.235a4.539,4.539,0,0,1,3.485,3.184.647.647,0,0,0,1.248-.344,5.624,5.624,0,0,0-4.346-4.088c-.861-.129-1.2,1.076-.387,1.248Z" transform="translate(-1053.82 -875.978)" fill="#161616"/>
        </g>
      </g>
      <g id="Group_1393" data-name="Group 1393" transform="translate(29.956 37.486)">
        <g id="Group_1392" data-name="Group 1392">
          <path id="Path_1028" data-name="Path 1028" d="M1053.248,876.656a7.452,7.452,0,0,1,1.334,5.035c-.043.818,1.248.818,1.291,0a8.9,8.9,0,0,0-1.549-5.68c-.43-.688-1.549-.043-1.076.645Z" transform="translate(-1053.134 -875.716)" fill="#161616"/>
        </g>
      </g>
      <g id="Group_1395" data-name="Group 1395" transform="translate(0 23.551)">
        <g id="Group_1394" data-name="Group 1394">
          <path id="Path_1029" data-name="Path 1029" d="M992.374,843.706c-2.84-1.807-8.047,3.4-8.692,5.938-1.291,5.164,5.336,4.561,8.09,6.282.688.43,1.334-.688.645-1.119-1.979-1.248-4.905-.775-6.627-2.324-2.109-1.893-.172-4.174,1.291-5.508.775-.688,3.4-2.969,4.647-2.195.688.516,1.377-.6.645-1.076Z" transform="translate(-983.517 -843.332)" fill="#161616"/>
        </g>
      </g>
      <g id="Group_1397" data-name="Group 1397" transform="translate(4.103 35.496)">
        <g id="Group_1396" data-name="Group 1396">
          <path id="Path_1030" data-name="Path 1030" d="M997.118,871.138a8.159,8.159,0,0,0-3.012,1.979c-.646.688-1.463,1.764-.818,2.711.473.688,1.592.043,1.119-.646-.3-.43.818-1.377,1.119-1.635a5.544,5.544,0,0,1,1.936-1.162c.775-.3.473-1.549-.344-1.248Z" transform="translate(-993.053 -871.092)" fill="#161616"/>
        </g>
      </g>
      <g id="Group_1399" data-name="Group 1399" transform="translate(6.756 36.152)">
        <g id="Group_1398" data-name="Group 1398">
          <path id="Path_1031" data-name="Path 1031" d="M1000.114,872.91a5.627,5.627,0,0,0-.775,4.217c.172.818,1.42.473,1.248-.344a4.1,4.1,0,0,1,.646-3.227c.473-.688-.646-1.334-1.119-.645Z" transform="translate(-999.217 -872.616)" fill="#161616"/>
        </g>
      </g>
      <g id="Group_1401" data-name="Group 1401" transform="translate(11.599 22.494)">
        <g id="Group_1400" data-name="Group 1400">
          <path id="Path_1032" data-name="Path 1032" d="M1010.613,841.488a69.506,69.506,0,0,0,.043,9.467c.086.818,1.377.818,1.291,0a63.227,63.227,0,0,1-.043-9.467c.086-.818-1.2-.818-1.291,0Z" transform="translate(-1010.471 -840.875)" fill="#161616"/>
        </g>
      </g>
      <g id="Group_1403" data-name="Group 1403" transform="translate(12.073 22.159)">
        <g id="Group_1402" data-name="Group 1402">
          <path id="Path_1033" data-name="Path 1033" d="M1012.188,841.39c4.561.258,9.079.43,13.641.516l-.645-.646c-.129,3.227-.258,6.5-.43,9.725-.043.818,1.248.818,1.291,0,.129-3.227.258-6.5.43-9.725a.662.662,0,0,0-.646-.645c-4.561-.086-9.079-.258-13.641-.516-.818-.043-.818,1.248,0,1.291Z" transform="translate(-1011.575 -840.098)" fill="#161616"/>
        </g>
      </g>
      <g id="Group_1405" data-name="Group 1405" transform="translate(11.731 31.86)">
        <g id="Group_1404" data-name="Group 1404">
          <path id="Path_1034" data-name="Path 1034" d="M1011.218,863.915a30.325,30.325,0,0,0,5.9.516c2.324.129,4.69.3,7.014.43.817.043.817-1.248,0-1.291l-6.2-.387a35.483,35.483,0,0,1-6.411-.516c-.732-.215-1.076,1.033-.3,1.248Z" transform="translate(-1010.779 -862.642)" fill="#161616"/>
        </g>
      </g>
      <g id="Group_1407" data-name="Group 1407" transform="translate(13.568 38.821)">
        <g id="Group_1406" data-name="Group 1406">
          <path id="Path_1035" data-name="Path 1035" d="M1015.114,879.8c.774,1.678,2.453.215,3.744.818.6.258.473.645,1.291.688.947.043,3.27-1.85,3.744-.086a.668.668,0,0,0,1.076.3c.43-.129.9-.258,1.334-.344.516.645,1.463-.3.9-.9-.99-1.162-2.238-.516-3.184.344a10.059,10.059,0,0,1,1.076.3,2.548,2.548,0,0,0-3.485-1.807c-.731.344-.818.99-1.936.559-.215-.086-.3-.43-.516-.516a21.321,21.321,0,0,0-2.969.043c-.3-.818-1.42-.172-1.076.6Z" transform="translate(-1015.049 -878.818)" fill="#161616"/>
        </g>
      </g>
      <g id="Group_1409" data-name="Group 1409" transform="translate(14.684 4.122)">
        <g id="Group_1408" data-name="Group 1408">
          <path id="Path_1036" data-name="Path 1036" d="M1018.872,800a.72.72,0,0,1,1.033-.43c.559.215.861.861,1.119,1.334.344.732,1.463.086,1.119-.645a3.278,3.278,0,0,0-2.367-2.065,1.912,1.912,0,0,0-2.109,1.42c-.215.861,1.033,1.2,1.2.387Z" transform="translate(-1017.642 -798.18)" fill="#161616"/>
        </g>
      </g>
      <g id="Group_1411" data-name="Group 1411" transform="translate(22.574 4.673)">
        <g id="Group_1410" data-name="Group 1410">
          <path id="Path_1037" data-name="Path 1037" d="M1037.236,801.327a.65.65,0,0,1,.9-.516c.516.172.731.818.818,1.291.129.818,1.377.473,1.248-.344a2.616,2.616,0,0,0-1.979-2.281,1.974,1.974,0,0,0-2.238,1.506c-.129.818,1.119,1.162,1.248.344Z" transform="translate(-1035.978 -799.46)" fill="#161616"/>
        </g>
      </g>
      <g id="Group_1413" data-name="Group 1413" transform="translate(16.479 7.682)">
        <g id="Group_1412" data-name="Group 1412">
          <path id="Path_1038" data-name="Path 1038" d="M1021.894,807.419a4.12,4.12,0,0,0,6.842.645c.516-.645-.387-1.549-.9-.9a2.828,2.828,0,0,1-4.819-.387c-.387-.732-1.506-.086-1.119.646Z" transform="translate(-1021.813 -806.452)" fill="#161616"/>
        </g>
      </g>
    </g>
    <g id="lightbulb" transform="translate(479.406 40.675)">
      <g id="Group_1415" data-name="Group 1415" transform="translate(31.622 30.742)">
        <g id="Group_1414" data-name="Group 1414">
          <path id="Path_1039" data-name="Path 1039" d="M897.652,178.033c-5.422-2.195-8.692-7.444-10.672-12.694a42.127,42.127,0,0,1-2.711-17.255c.516-10.8,5.121-21.73,13.641-28.615,8.047-6.541,19.966-8.391,28.916-2.453,9.338,6.2,11.016,18.976,11.1,29.26.086,11.446-2.582,23.451-11.059,31.67-.6.559.3,1.506.9.9,8.047-7.831,11.1-19.019,11.4-29.949.3-10.714-.99-24.269-9.811-31.627-8.262-6.885-20.525-6.541-29.346-.947-9.768,6.2-15.534,17.427-16.782,28.744a44.486,44.486,0,0,0,2.668,20.913c2.195,5.594,5.68,10.93,11.446,13.253.732.344,1.033-.9.3-1.2Z" transform="translate(-882.963 -112.119)" fill="#fff"/>
        </g>
      </g>
      <g id="Group_1417" data-name="Group 1417" transform="translate(44.805 96.808)">
        <g id="Group_1416" data-name="Group 1416">
          <path id="Path_1040" data-name="Path 1040" d="M914.5,266.318a4.835,4.835,0,0,0,.99,6.67c1.635,1.162,4.045,1.334,5.981,1.592a48.211,48.211,0,0,0,7.057.473c4.217-.043,9.036-.344,12.952-1.979,2.84-1.2,4.991-4.045,3.485-7.1-.344-.732-1.463-.086-1.119.645,3.227,6.584-12.049,7.143-15.362,7.143a49.147,49.147,0,0,1-9.079-.818c-1.42-.258-3.012-.516-3.916-1.764a3.623,3.623,0,0,1,.129-4.174c.473-.732-.645-1.377-1.119-.689Z" transform="translate(-913.599 -265.652)" fill="#fff"/>
        </g>
      </g>
      <g id="Group_1419" data-name="Group 1419" transform="translate(47.086 103.461)">
        <g id="Group_1418" data-name="Group 1418">
          <path id="Path_1041" data-name="Path 1041" d="M918.9,282.1a54.732,54.732,0,0,0,.3,6.5,3.263,3.263,0,0,0,1.162,2.453c1.162.861,3.1.818,4.475.947a63.578,63.578,0,0,0,7.014.086c2.195-.086,4.389-.258,6.584-.473,1.291-.129,2.754-.086,3.744-1.076,2.195-2.152,2.238-6.239,1.678-8.95-.172-.818-1.42-.473-1.248.344a10.972,10.972,0,0,1,.086,4.432c-.43,2.109-1.033,3.485-3.4,3.916a52.787,52.787,0,0,1-8.649.559,35.668,35.668,0,0,1-8.563-.473c-2.5-.6-1.85-6.2-1.85-8.262-.043-.818-1.334-.818-1.334,0Z" transform="translate(-918.9 -281.114)" fill="#fff"/>
        </g>
      </g>
      <g id="Group_1421" data-name="Group 1421" transform="translate(47.223 56.868)">
        <g id="Group_1420" data-name="Group 1420">
          <path id="Path_1042" data-name="Path 1042" d="M919.512,174.067a27.828,27.828,0,0,1,11.274,13.641c.3.775,1.549.43,1.248-.344A29.317,29.317,0,0,0,920.2,172.949c-.732-.473-1.377.645-.689,1.119Z" transform="translate(-919.219 -172.834)" fill="#161616"/>
        </g>
      </g>
      <g id="Group_1423" data-name="Group 1423" transform="translate(58.639 57.068)">
        <g id="Group_1422" data-name="Group 1422">
          <path id="Path_1043" data-name="Path 1043" d="M946.933,187.973a35.783,35.783,0,0,1,10.973-13.425c.646-.473,0-1.635-.645-1.119a37.761,37.761,0,0,0-11.446,13.9c-.344.732.774,1.377,1.119.645Z" transform="translate(-945.749 -173.299)" fill="#161616"/>
        </g>
      </g>
      <g id="Group_1425" data-name="Group 1425" transform="translate(58.786 69.59)">
        <g id="Group_1424" data-name="Group 1424">
          <path id="Path_1044" data-name="Path 1044" d="M946.095,203.045c.645,8.864.947,17.728.818,26.593a.646.646,0,0,0,1.291,0c.129-8.864-.172-17.771-.818-26.593-.086-.861-1.377-.861-1.291,0Z" transform="translate(-946.09 -202.4)" fill="#161616"/>
        </g>
      </g>
      <g id="Group_1427" data-name="Group 1427" transform="translate(7.59 84.831)">
        <g id="Group_1426" data-name="Group 1426">
          <path id="Path_1045" data-name="Path 1045" d="M827.925,244.911c5.723-1.936,11.4-3.873,17.126-5.809.775-.258.43-1.506-.344-1.248-5.723,1.936-11.4,3.873-17.126,5.809a.647.647,0,0,0,.344,1.248Z" transform="translate(-827.114 -237.819)" fill="#fff"/>
        </g>
      </g>
      <g id="Group_1429" data-name="Group 1429" transform="translate(14.149 80.323)">
        <g id="Group_1428" data-name="Group 1428">
          <path id="Path_1046" data-name="Path 1046" d="M843.15,230.336c1.979-.559,3.959-1.162,5.938-1.721a.648.648,0,0,0-.344-1.248c-1.979.559-3.959,1.162-5.938,1.721-.775.258-.473,1.506.344,1.248Z" transform="translate(-842.357 -227.342)" fill="#fff"/>
        </g>
      </g>
      <g id="Group_1431" data-name="Group 1431" transform="translate(0 67.691)">
        <g id="Group_1430" data-name="Group 1430">
          <path id="Path_1047" data-name="Path 1047" d="M810.088,199.282c7.573-.086,15.1.129,22.634.6.818.043.818-1.248,0-1.291-7.53-.473-15.1-.645-22.634-.6a.646.646,0,0,0,0,1.291Z" transform="translate(-809.475 -197.985)" fill="#fff"/>
        </g>
      </g>
      <g id="Group_1433" data-name="Group 1433" transform="translate(16.153 61.863)">
        <g id="Group_1432" data-name="Group 1432">
          <path id="Path_1048" data-name="Path 1048" d="M847.481,185.715a23.889,23.889,0,0,0,5.508.732.646.646,0,0,0,0-1.291,22.96,22.96,0,0,1-5.164-.688.647.647,0,0,0-.344,1.248Z" transform="translate(-847.014 -184.442)" fill="#fff"/>
        </g>
      </g>
      <g id="Group_1435" data-name="Group 1435" transform="translate(13.607 21.995)">
        <g id="Group_1434" data-name="Group 1434">
          <path id="Path_1049" data-name="Path 1049" d="M841.314,92.871a141.209,141.209,0,0,1,18.46,19.148c.516.645,1.42-.258.9-.9a138.745,138.745,0,0,0-18.46-19.148c-.6-.559-1.549.344-.9.9Z" transform="translate(-841.097 -91.791)" fill="#fff"/>
        </g>
      </g>
      <g id="Group_1437" data-name="Group 1437" transform="translate(32.538 34.193)">
        <g id="Group_1436" data-name="Group 1436">
          <path id="Path_1050" data-name="Path 1050" d="M885.267,121.241c1.162,1.2,2.281,2.41,3.443,3.658.559.6,1.463-.3.9-.9-1.162-1.2-2.281-2.41-3.443-3.658-.559-.6-1.463.3-.9.9Z" transform="translate(-885.091 -120.138)" fill="#fff"/>
        </g>
      </g>
      <g id="Group_1439" data-name="Group 1439" transform="translate(6.187 36.49)">
        <g id="Group_1438" data-name="Group 1438">
          <path id="Path_1051" data-name="Path 1051" d="M824.174,126.691q3.163,1.872,6.455,3.485c.732.387,1.377-.732.646-1.119q-3.292-1.678-6.455-3.485a.646.646,0,0,0-.645,1.119Z" transform="translate(-823.852 -125.475)" fill="#fff"/>
        </g>
      </g>
      <g id="Group_1441" data-name="Group 1441" transform="translate(80.278 7.687)">
        <g id="Group_1440" data-name="Group 1440">
          <path id="Path_1052" data-name="Path 1052" d="M997.141,78.746l19.105-19.105c.6-.6-.344-1.506-.9-.9L996.237,77.842a.639.639,0,0,0,.9.9Z" transform="translate(-996.038 -58.538)" fill="#fff"/>
        </g>
      </g>
      <g id="Group_1443" data-name="Group 1443" transform="translate(86.852 26.059)">
        <g id="Group_1442" data-name="Group 1442">
          <path id="Path_1053" data-name="Path 1053" d="M1012.256,106.039c1.635-1.2,3.27-2.367,4.905-3.572.645-.473.043-1.592-.646-1.119-1.635,1.2-3.27,2.367-4.905,3.572-.688.473-.043,1.592.646,1.119Z" transform="translate(-1011.316 -101.234)" fill="#fff"/>
        </g>
      </g>
      <g id="Group_1445" data-name="Group 1445" transform="translate(60.237)">
        <g id="Group_1444" data-name="Group 1444">
          <path id="Path_1054" data-name="Path 1054" d="M950.726,60.135a174.858,174.858,0,0,0,2.883-18.847c.086-.818-1.2-.818-1.291,0a168.533,168.533,0,0,1-2.84,18.5c-.172.818,1.076,1.162,1.248.344Z" transform="translate(-949.462 -40.675)" fill="#fff"/>
        </g>
      </g>
      <g id="Group_1447" data-name="Group 1447" transform="translate(97.06 54.526)">
        <g id="Group_1446" data-name="Group 1446">
          <path id="Path_1055" data-name="Path 1055" d="M1035.667,171.913c11.7-1.076,23.365-2.152,35.07-3.227.818-.086.818-1.377,0-1.291-11.7,1.076-23.365,2.152-35.07,3.227-.818.043-.86,1.334,0,1.291Z" transform="translate(-1035.037 -167.39)" fill="#fff"/>
        </g>
      </g>
      <g id="Group_1449" data-name="Group 1449" transform="translate(48.038 97.673)">
        <g id="Group_1448" data-name="Group 1448">
          <path id="Path_1056" data-name="Path 1056" d="M921.581,269.012a50.151,50.151,0,0,0,21.9-.086c.818-.172.473-1.42-.344-1.248a48.346,48.346,0,0,1-21.214.086c-.818-.172-1.162,1.076-.344,1.248Z" transform="translate(-921.114 -267.662)" fill="#161616"/>
        </g>
      </g>
      <g id="Group_1451" data-name="Group 1451" transform="translate(48.968 108.658)">
        <g id="Group_1450" data-name="Group 1450">
          <path id="Path_1057" data-name="Path 1057" d="M923.888,294.485a83.278,83.278,0,0,0,16.7.516c.818-.043.818-1.334,0-1.291a83.276,83.276,0,0,1-16.7-.516c-.818-.086-.818,1.2,0,1.291Z" transform="translate(-923.275 -293.19)" fill="#fff"/>
        </g>
      </g>
      <g id="Group_1453" data-name="Group 1453" transform="translate(89.262 93.444)">
        <g id="Group_1452" data-name="Group 1452">
          <path id="Path_1058" data-name="Path 1058" d="M1017.21,259.067q13.1,9.23,26.679,17.814c.689.43,1.334-.688.645-1.119q-13.554-8.584-26.678-17.814c-.689-.473-1.334.645-.646,1.119Z" transform="translate(-1016.916 -257.834)" fill="#fff"/>
        </g>
      </g>
    </g>
    <g id="leg_l" transform="translate(420.476 345.941)">
      <path id="Path_1059" data-name="Path 1059" d="M729.684,964.1q-12.264,15.039-24.484,30.035c9.6,33.736,15.017,42.6,18.245,42.127,2.324-.344,3.442-5.379,4.69-11.016a73.47,73.47,0,0,0-.645-33.693c5.164-5.766,10.284-11.575,15.448-17.341C738.505,970.856,734.116,967.5,729.684,964.1Z" transform="translate(-691.14 -872.015)" fill="#161616" stroke="#161616" stroke-miterlimit="10" stroke-width="2"/>
      <path id="Path_1060" data-name="Path 1060" d="M680.905,790.548c5.121,3.959,10.026,2.539,20.181,4.26a78.349,78.349,0,0,1,28.7,11.145q-16.523,19.363-32.961,40.922c-2.625,3.485-5.25,6.971-7.788,10.456a80.312,80.312,0,0,1,14.8,5.034,79.19,79.19,0,0,1,13.253,7.573c16.395-14.286,31.025-28.1,44.063-41.137,6.024-6.024,14.544-15.233,15.878-28.271a16.577,16.577,0,0,0,.086-2.022c-.3-21.644-27.539-37.307-44.106-43.073-18.116-6.282-49.27-9.682-57.962,5.336C669.933,769.635,672.945,784.394,680.905,790.548Z" transform="translate(-672.525 -750.099)" fill="#ec615b"/>
      <path id="Path_1061" data-name="Path 1061" d="M734.225,793.8a73.784,73.784,0,0,1-6.2,24.441c-1.42.559-2.8,1.119-4.217,1.678,9.252,3.658,18.546,7.315,27.8,10.973q-10.327,11.812-20.784,24.742-10.779,13.3-20.525,26.119c4.6,1.506,9.165,3.012,13.77,4.475q24.721-27.238,49.442-54.519a22.089,22.089,0,0,0,1.119-11.532C772.263,806.924,756.041,796.124,734.225,793.8Z" transform="translate(-694.045 -774.995)" fill="#6d6c6c" opacity="0.26"/>
      <path id="Path_1062" data-name="Path 1062" d="M751.979,879.8c1.506,2.281,2.969,4.6,4.475,6.885q-19.234,23.172-38.469,46.3c-2.281-.6-4.6-1.248-6.885-1.85,8.219-11.274,17.083-22.849,26.679-34.51Q744.943,887.911,751.979,879.8Z" transform="translate(-694.501 -823.989)" fill="#6d6c6c" opacity="0.23"/>
    </g>
    <g id="leg_r" transform="translate(338.89 345.049)">
      <path id="Path_1063" data-name="Path 1063" d="M702.042,926.1c12.694,2.324,25.431,4.6,38.125,6.928,14.673,32.014,16.308,42.342,13.554,44.106-1.979,1.248-6.11-1.85-10.715-5.336a73.742,73.742,0,0,1-21.429-26.162c-7.659-1.033-15.319-2.108-22.978-3.141C699.719,937.03,700.881,931.565,702.042,926.1Z" transform="translate(-605.794 -849.474)" fill="#161616" stroke="#161616" stroke-miterlimit="10" stroke-width="2"/>
      <path id="Path_1064" data-name="Path 1064" d="M553.009,753.35c-23.15,6.8-37.264,20.913-46.344,30.207-12.264,12.608-27.324,28.056-22.978,39.459,2.238,5.809,9.036,9.381,40.707,14.888,23.925,4.174,44.665,6.411,60.845,7.659,2.022-7.4,4.045-14.759,6.024-22.161q-24.4-7.874-48.753-15.706c9.983-2.108,20.482-4.6,31.412-7.659q12.457-3.486,23.753-7.272c6.971-14.071,8.477-29.261,1.2-37.867C588.724,742.851,565.961,749.52,553.009,753.35Z" transform="translate(-482.923 -748.025)" fill="#ec615b"/>
      <path id="Path_1065" data-name="Path 1065" d="M648.528,795a60.273,60.273,0,0,1-2.926,15.749,62.825,62.825,0,0,1-3.959,9.467c-1.162.086-2.324.215-3.485.3q-14.716,4.841-31.326,9.122c-7.143,1.85-14.114,3.442-20.87,4.905q24.463,7.681,48.925,15.319-.516,2.646-1.291,5.551c-.6,2.238-1.291,4.3-1.936,6.2l-67.514-16.653a16.841,16.841,0,0,1-3.916-11.747c.559-6.5,6.756-11.1,14.673-15.319C597.8,805.758,636.178,797.539,648.528,795Z" transform="translate(-526.934 -774.787)" fill="#6d6c6c" opacity="0.29"/>
      <path id="Path_1066" data-name="Path 1066" d="M530.7,993.8" transform="translate(-510.142 -888.043)" fill="#6d6c6c"/>
      <path id="Path_1067" data-name="Path 1067" d="M593.2,887.747c4.088-.3,8.219-.6,12.307-.947q24.075,8,48.151,16.05c-.688,2.539-1.377,5.121-2.065,7.659Q622.417,899.085,593.2,887.747Z" transform="translate(-545.748 -827.085)" fill="#6d6c6c" opacity="0.24"/>
    </g>
    <g id="torso" transform="translate(402.909 241.812)">
      <path id="Path_1068" data-name="Path 1068" d="M631.7,519.164a80.054,80.054,0,0,1,32.143-10.628,81.644,81.644,0,0,1,46.688,9.38c-1.248,16.911-3.184,30.422-4.733,39.717-1.85,11.1-3.356,17.255-4.045,27.453a143.122,143.122,0,0,0,1.2,30.164,102.444,102.444,0,0,1-64.287-1.2,150.055,150.055,0,0,0,.344-35.93c-1.076-9.252-2.539-13.77-4.3-24.958A245.472,245.472,0,0,1,631.7,519.164Z" transform="translate(-631.7 -508.109)" fill="#fff" stroke="#161616" stroke-miterlimit="10" stroke-width="2"/>
      <path id="Path_1069" data-name="Path 1069" d="M696.888,515.93a94.8,94.8,0,0,1,2.625,13.21c.473,3.658,2.41,20.224-3.615,42.083-3.7,13.468-7.616,27.711-20.439,39.416a56.259,56.259,0,0,1-11.059,7.918,103.227,103.227,0,0,0,56.5-1.2c-.43-3.227-.99-8.09-1.2-13.942-.172-5.121-.172-13.3,3.356-36.317,2.8-18.116,4.776-25.9,5.766-42.3.129-1.893.172-3.485.258-4.561a61.648,61.648,0,0,0-12.264-5.508,59.05,59.05,0,0,0-12.264-2.625Z" transform="translate(-650.329 -510.383)" fill="#6d6c6c" opacity="0.14"/>
      <path id="Path_1070" data-name="Path 1070" d="M735.631,547.3a237.052,237.052,0,0,1-8.09,32.316c-7.315,22.376-12.436,37.436-26.248,48.452a59.013,59.013,0,0,1-23.193,11.1,82,82,0,0,0,23.968,3.012,84.32,84.32,0,0,0,26.765-5.035,124.747,124.747,0,0,1-1.506-22.72c.3-12.436,2.324-19.923,4.561-33.563C733.135,572.86,734.728,561.414,735.631,547.3Z" transform="translate(-658.134 -530.436)" fill="#6d6c6c" opacity="0.17"/>
    </g>
    <g id="hand_r" transform="translate(370.176 252.652)">
      <path id="Path_1071" data-name="Path 1071" d="M588.105,533.3a75.418,75.418,0,0,0-19.062,19.062c-14.157,20.568-13.77,42.385-13.21,50.431a81.038,81.038,0,0,0,14.759,24.914c4.518,5.207,11.145,12.694,22.462,17.513a50.967,50.967,0,0,0,9.51,3.055c2.065-1.85,4.088-3.7,6.153-5.551-6.627-7.745-13.3-15.878-19.966-24.269q-7.681-9.617-14.759-19.062a53.741,53.741,0,0,1,7.057-24.914A52.907,52.907,0,0,1,591.2,561.872Q589.654,547.608,588.105,533.3Z" transform="translate(-555.631 -533.3)" fill="#fff" stroke="#161616" stroke-miterlimit="10" stroke-width="2"/>
      <path id="Path_1072" data-name="Path 1072" d="M599.712,555.6A106.77,106.77,0,0,0,578.5,591.186c-5.121,14.458-4.045,22.031-3.27,25.646.646,2.84,2.066,7.7,7.272,15.1,4.518,6.412,14.028,17.9,32.143,27.367,1.592-1.549,3.184-3.055,4.776-4.6q-7.681-8.649-15.491-18.159-10.263-12.457-19.105-24.484a54.581,54.581,0,0,1,17.04-37.694C601.089,568.122,600.4,561.882,599.712,555.6Z" transform="translate(-566.421 -546.004)" fill="#6d6c6c" opacity="0.13"/>
      <path id="Path_1073" data-name="Path 1073" d="M598.3,688.1a64.616,64.616,0,0,0,5.723,18.374,66.318,66.318,0,0,0,24.871,26.98c1.162-1.033,2.281-2.022,3.442-3.055Q615.3,709.228,598.3,688.1Z" transform="translate(-579.939 -621.489)" fill="#6d6c6c" opacity="0.16"/>
    </g>
    <g id="hand_l" transform="translate(458.977 251.878)">
      <path id="Path_1074" data-name="Path 1074" d="M785.75,531.5a80.422,80.422,0,0,1,21.386,18.718,70.845,70.845,0,0,1,14.845,49.528,78.952,78.952,0,0,1-16.567,24.484c-5.078,5.078-12.522,12.436-25.216,17.212a66.143,66.143,0,0,1-10.715,3.012c-2.281-1.807-4.6-3.615-6.885-5.422,7.4-7.616,14.932-15.577,22.419-23.839q8.585-9.488,16.567-18.718a48.01,48.01,0,0,0-7.918-24.484,54.326,54.326,0,0,0-11.4-12.393C783.47,550.218,784.631,540.88,785.75,531.5Z" transform="translate(-762.342 -531.5)" fill="#fff" stroke="#161616" stroke-miterlimit="10" stroke-width="2"/>
      <path id="Path_1075" data-name="Path 1075" d="M785.506,555.8a100.228,100.228,0,0,1,18.718,27.668c2.754,6.067,7.229,15.921,7.315,25.216.3,28.271-39.717,47.72-42.04,48.839-2.281-1.463-4.518-2.883-6.8-4.346q19.428-21.3,38.813-42.6a51.944,51.944,0,0,0-6.5-22.5,51.017,51.017,0,0,0-13.038-15.19C783.182,567.2,784.344,561.523,785.506,555.8Z" transform="translate(-762.399 -545.344)" fill="#6d6c6c" opacity="0.16"/>
      <path id="Path_1076" data-name="Path 1076" d="M801.545,683.4a60.413,60.413,0,0,1-3.4,12.048c-7.573,19.105-22.892,29.562-30.638,34.037-1.85-1.2-3.658-2.41-5.508-3.614Q781.751,704.635,801.545,683.4Z" transform="translate(-762 -618.037)" fill="#6d6c6c" opacity="0.12"/>
    </g>
    <g id="laptop" transform="translate(386.471 320.037)">
      <rect id="Rectangle_5" data-name="Rectangle 5" width="105.811" height="66.998" transform="translate(0 0.387)" fill="#fff" stroke="#161616" stroke-miterlimit="10" stroke-width="2"/>
      <g id="Group_1455" data-name="Group 1455" transform="translate(42.816 22.945)">
        <g id="Group_1454" data-name="Group 1454">
          <path id="Path_1077" data-name="Path 1077" d="M701.564,760.554c-5.594.688-8.3-6.11-6.842-10.628,1.42-4.475,6.713-6.584,11.016-5.034,4.26,1.549,6.326,6.756,4.819,10.93-1.678,4.647-7.53,6.541-11.833,4.475-.731-.344-1.42.775-.645,1.119a10.226,10.226,0,0,0,11.575-1.85,9.846,9.846,0,0,0,1.549-11.317c-4.217-8.348-17.255-5.68-18.159,3.485-.473,4.906,3.055,10.8,8.52,10.155.818-.129.818-1.42,0-1.334Z" transform="translate(-693.001 -743.223)" fill="#161616"/>
        </g>
      </g>
      <path id="Path_1078" data-name="Path 1078" d="M673.38,690.172c14.329,4.991,24.1,17.771,24.4,31.5.387,17.212-14.071,33.391-33.779,35.026l75.3.645q-.129-33.693-.215-67.342Q706.234,690,673.38,690.172Z" transform="translate(-633.664 -689.957)" fill="#6d6c6c" opacity="0.14"/>
      <path id="Path_1079" data-name="Path 1079" d="M780.207,689.9a110.938,110.938,0,0,1-5.379,31.369c-3.356,10.2-5.766,17.642-12.694,24.226-9.424,9.036-21.171,10.714-26.334,11.145q22.01.194,44.02.43.064-19.17.215-38.383C780.035,709.091,780.121,699.5,780.207,689.9Z" transform="translate(-674.568 -689.9)" fill="#6d6c6c" opacity="0.26"/>
    </g>
    <g id="head" transform="translate(400.86 157.297)">
      <path id="Path_1080" data-name="Path 1080" d="M706.408,449.275c-2.367,2.883-.086,6.411-.516,15.835a58.718,58.718,0,0,1-1.592,11.016,25.89,25.89,0,0,0,10.2,2.41,26.194,26.194,0,0,0,12.091-2.668,34.843,34.843,0,0,1-2.969-8.606c-1.936-9.639,1.506-14.157-1.334-17.728C718.973,445.4,709.593,445.359,706.408,449.275Z" transform="translate(-671.011 -388.43)" fill="#fff" stroke="#161616" stroke-miterlimit="10" stroke-width="2"/>
      <path id="Path_1081" data-name="Path 1081" d="M663.592,334.26a27.638,27.638,0,0,0-1.076,15.964c-.258.043-5.293,1.119-6.67,4.992-1.377,3.916,1.463,9.467,7.4,11.274,2.151,5.25,7.358,15.4,18.331,20.956a34.171,34.171,0,0,0,5.379,2.152,42.481,42.481,0,0,0,6.2-2.969,43.592,43.592,0,0,0,12.909-11.274,39.612,39.612,0,0,0,5.981-11.618,6.937,6.937,0,0,0,4.26-.559c3.7-1.893,5.551-7.788,2.969-11.618-2.151-3.184-6.325-3.313-6.842-3.313.559-2.238,2.281-10.284-2.065-18.245-4.991-9.165-15.706-13.985-25.775-12.608C669.7,319.329,663.851,333.572,663.592,334.26Z" transform="translate(-643.213 -314.811)" fill="#fff" stroke="#161616" stroke-miterlimit="10" stroke-width="2"/>
      <g id="Group_1457" data-name="Group 1457" transform="translate(34.542 71.032)">
        <g id="Group_1456" data-name="Group 1456">
          <path id="Path_1082" data-name="Path 1082" d="M707.509,477.991c2.625,1.549,5.508,3.959,8.735,3.7a15.3,15.3,0,0,0,7.659-3.4c.646-.516-.258-1.42-.9-.9-1.893,1.506-4.948,3.1-7.444,3.055-2.625-.043-5.293-2.238-7.444-3.571-.645-.43-1.291.688-.6,1.119Z" transform="translate(-707.213 -476.775)" fill="#161616"/>
        </g>
      </g>
      <g id="Group_1459" data-name="Group 1459" transform="translate(34.467 71.189)">
        <g id="Group_1458" data-name="Group 1458">
          <path id="Path_1083" data-name="Path 1083" d="M707.237,478.757c2.453,2.108,5.25,4.475,8.692,4.3,3.356-.172,6.5-2.41,8.692-4.819.559-.6-.344-1.506-.9-.9-1.893,2.065-4.561,4.088-7.487,4.389-3.227.3-5.809-1.893-8.09-3.873-.6-.559-1.506.344-.9.9Z" transform="translate(-707.038 -477.138)" fill="#161616"/>
        </g>
      </g>
      <g id="Group_1461" data-name="Group 1461" transform="translate(35.031 71.907)">
        <g id="Group_1460" data-name="Group 1460">
          <path id="Path_1084" data-name="Path 1084" d="M709.619,479.966h0a.66.66,0,0,0-1.033-.172l-.043.043a.624.624,0,0,0,0,.9c4.733,4.518,13.425,5.981,16.825-.947.344-.731-.731-1.42-1.119-.645-3.012,6.2-10.629,4.69-14.759.688v.9l.043-.043-1.033-.129v.043c.43.688,1.549.043,1.119-.645Z" transform="translate(-708.35 -478.808)" fill="#161616"/>
        </g>
      </g>
      <g id="Group_1463" data-name="Group 1463" transform="translate(41.19 32.612)">
        <g id="Group_1462" data-name="Group 1462">
          <path id="Path_1085" data-name="Path 1085" d="M722.937,388.138a86.147,86.147,0,0,0,.861,20.784.586.586,0,0,0,.774.43,6.68,6.68,0,0,0,3.787-3.055.646.646,0,0,0-1.119-.645,5.178,5.178,0,0,1-3.012,2.453c.258.129.516.3.774.43a83.328,83.328,0,0,1-.818-20.439c.129-.818-1.162-.818-1.248.043Z" transform="translate(-722.663 -387.487)" fill="#161616"/>
        </g>
      </g>
      <path id="Path_1086" data-name="Path 1086" d="M700.646,399.527c.086.387.732,2.8,0,3.184s-2.8-1.162-3.442-3.184c-.516-1.721-.086-3.873.732-4.045C698.8,395.267,700.129,397.633,700.646,399.527Z" transform="translate(-666.841 -359.422)" fill="#161616" stroke="#161616" stroke-miterlimit="10" stroke-width="1"/>
      <path id="Path_1087" data-name="Path 1087" d="M752.245,399.527c.086.387.732,2.8,0,3.184s-2.8-1.162-3.442-3.184c-.516-1.721-.086-3.873.731-4.045C750.4,395.267,751.729,397.633,752.245,399.527Z" transform="translate(-696.237 -359.422)" fill="#161616" stroke="#161616" stroke-miterlimit="10" stroke-width="1"/>
      <g id="Group_1465" data-name="Group 1465" transform="translate(39.567 54.344)">
        <g id="Group_1464" data-name="Group 1464">
          <path id="Path_1088" data-name="Path 1088" d="M719.239,443.374c5.25,2.238,10.026-.9,13.9-4.3.646-.559-.3-1.463-.9-.9-3.356,2.926-7.659,6.067-12.307,4.088-.818-.3-1.463.818-.688,1.119Z" transform="translate(-718.891 -437.991)" fill="#161616"/>
        </g>
      </g>
      <g id="Group_1467" data-name="Group 1467" transform="translate(54.449 45.655)">
        <g id="Group_1466" data-name="Group 1466">
          <path id="Path_1089" data-name="Path 1089" d="M754.088,419.091a.646.646,0,0,0,0-1.291.646.646,0,0,0,0,1.291Z" transform="translate(-753.475 -417.8)" fill="#161616"/>
        </g>
      </g>
      <g id="Group_1469" data-name="Group 1469" transform="translate(58.741 43.31)">
        <g id="Group_1468" data-name="Group 1468">
          <path id="Path_1090" data-name="Path 1090" d="M764.547,413.576l.129-.129a.639.639,0,0,0-.9-.9l-.129.129a.639.639,0,0,0,.9.9Z" transform="translate(-763.45 -412.35)" fill="#161616"/>
        </g>
      </g>
      <g id="Group_1471" data-name="Group 1471" transform="translate(57.773 46.387)">
        <g id="Group_1470" data-name="Group 1470">
          <path id="Path_1091" data-name="Path 1091" d="M761.845,420.791h.129a.645.645,0,0,0,0-1.291h-.129a.662.662,0,0,0-.645.645.634.634,0,0,0,.645.645Z" transform="translate(-761.2 -419.5)" fill="#161616"/>
        </g>
      </g>
      <g id="Group_1473" data-name="Group 1473" transform="translate(27.588 30.067)">
        <g id="Group_1472" data-name="Group 1472">
          <path id="Path_1092" data-name="Path 1092" d="M692.191,383.909a4.477,4.477,0,0,1,5.68-.086c.646.516,1.549-.387.9-.9a5.8,5.8,0,0,0-7.53.086c-.6.516.344,1.42.947.9Z" transform="translate(-691.052 -381.575)" fill="#161616"/>
        </g>
      </g>
      <g id="Group_1475" data-name="Group 1475" transform="translate(48.6 29.157)">
        <g id="Group_1474" data-name="Group 1474">
          <path id="Path_1093" data-name="Path 1093" d="M741.01,382.23a5.861,5.861,0,0,1,6.67-.775c.732.387,1.377-.732.646-1.119a7.093,7.093,0,0,0-8.219.99c-.645.559.258,1.463.9.9Z" transform="translate(-739.884 -379.458)" fill="#161616"/>
        </g>
      </g>
      <g id="Group_1477" data-name="Group 1477" transform="translate(28.458 45.526)">
        <g id="Group_1476" data-name="Group 1476">
          <path id="Path_1094" data-name="Path 1094" d="M693.688,418.791a.646.646,0,0,0,0-1.291.646.646,0,0,0,0,1.291Z" transform="translate(-693.075 -417.5)" fill="#161616"/>
        </g>
      </g>
      <g id="Group_1479" data-name="Group 1479" transform="translate(33.02 44.924)">
        <g id="Group_1478" data-name="Group 1478">
          <path id="Path_1095" data-name="Path 1095" d="M704.288,417.391a.646.646,0,0,0,0-1.291.646.646,0,0,0,0,1.291Z" transform="translate(-703.675 -416.1)" fill="#161616"/>
        </g>
      </g>
      <g id="Group_1481" data-name="Group 1481" transform="translate(31.03 47.011)">
        <g id="Group_1480" data-name="Group 1480">
          <path id="Path_1096" data-name="Path 1096" d="M699.373,421.144l-.129.129a.639.639,0,0,0,.9.9l.129-.129a.639.639,0,1,0-.9-.9Z" transform="translate(-699.05 -420.95)" fill="#161616"/>
        </g>
      </g>
      <path id="Path_1097" data-name="Path 1097" d="M654.332,317.164a31.794,31.794,0,0,0-12.049,12.221,31.309,31.309,0,0,0-3.614,16.7,97.909,97.909,0,0,0-10.5,28.1c-2.237,10.8-1.033,14.759.516,17.384,3.787,6.454,11.4,8.047,13.253,8.434,9.51,2.022,17.083-2.84,18.8-3.959a27.76,27.76,0,0,0,1.2-5.164,26.576,26.576,0,0,0-.172-8.434,44.4,44.4,0,0,1-13.942-19.966c-3.787-.387-6.627-2.969-6.885-5.852-.258-2.711,1.635-6.2,4.131-6.2,1.85,0,3.184,1.893,3.442,2.238a18.213,18.213,0,0,0,5.164-4.475c2.539-3.227,2.969-6.11,4.131-9.122a28.921,28.921,0,0,1,7.918-11.188c4.475,1.592,8.047,3.141,10.5,4.3,7.875,3.658,12.35,5.809,15.835,10.5a22.987,22.987,0,0,1,3.442,6.713c4-3.055,5.637-2.238,5.981-2.065,2.539,1.42,2.453,9.208-1.506,11.36a6.134,6.134,0,0,1-4.3.344,40.8,40.8,0,0,1-10.327,17.728,37.492,37.492,0,0,1-6.2,4.992,23.294,23.294,0,0,0,.172,6.368,21.819,21.819,0,0,0,1.721,5.68c10.456,6.885,23.451,5.637,30.508-1.764,6.282-6.627,6.282-16.653,3.916-23.494a25.581,25.581,0,0,0-8.391-11.618c.559-2.41,3.657-16.7-5.336-29.82a35.338,35.338,0,0,0-20.525-14.458C668.833,309.634,658.635,314.539,654.332,317.164Z" transform="translate(-626.939 -311.699)" fill="#5222d0"/>
      <path id="Path_1098" data-name="Path 1098" d="M739.928,365.5a30.5,30.5,0,0,1,6.584,14.673c1.764,12.307-5.379,22.29-8.993,27.41a53.13,53.13,0,0,1-8.219,9.079c1.893,5.078,3.744,10.112,5.637,15.19l5.809-1.936a29.255,29.255,0,0,1-2.582-5.981,30.626,30.626,0,0,1-1.291-10.672,45.772,45.772,0,0,0,7.788-6.971,46.786,46.786,0,0,0,9.381-16.394,6.6,6.6,0,0,0,4.475-.6c3.7-2.108,3.1-7.358,3.055-7.7-.129-1.119-.387-2.926-1.678-3.658-1.506-.818-4-.043-5.981,2.281a22.094,22.094,0,0,0-6.971-10.844A21.6,21.6,0,0,0,739.928,365.5Z" transform="translate(-685.254 -342.349)" fill="#6d6c6c" opacity="0.17"/>
      <path id="Path_1099" data-name="Path 1099" d="M719.744,389.9c-.258-.043-1.119,3.7-3.744,20.224h4.518c-.3-2.195-.645-5.379-.818-9.251C719.485,394.246,720,389.943,719.744,389.9Z" transform="translate(-677.677 -356.25)" fill="#6d6c6c" opacity="0.19"/>
      <path id="Path_1100" data-name="Path 1100" d="M775.368,417.738c-.732.43,2.022,4.131,1.635,9.639-.129,1.721-.387,5.637-3.485,8.262-.215.172-4.819,3.959-9.38,1.549a8.348,8.348,0,0,1-4.26-7.7,33.8,33.8,0,0,1-6.713,8.692,35.508,35.508,0,0,1-5.852,4.432,24.742,24.742,0,0,0,.559,7.4,26.857,26.857,0,0,0,1.334,4.088,27.6,27.6,0,0,0,5.9,2.926c1.635.559,10.628,3.7,19.407-.645a18.5,18.5,0,0,0,7.487-6.325,18.068,18.068,0,0,0,2.238-4.991c2.926-9.725-1.377-18.5-1.764-19.234C780.1,421.051,776.272,417.222,775.368,417.738Z" transform="translate(-695.478 -372.083)" fill="#341999" opacity="0.54"/>
      <path id="Path_1101" data-name="Path 1101" d="M647.834,430.1c-.387.043.473,3.571-.473,7.057-.688,2.582-2.883,6.8-6.627,7.659-3.916.861-8.778-2.022-11.016-7.4a30.671,30.671,0,0,0-2.625,10.973c-.129,3.141-.3,6.5,1.248,9.811,3.485,7.4,13.727,10.284,21.343,9.6a24.673,24.673,0,0,0,10.973-3.787,31.731,31.731,0,0,0,1.377-5.25,30.316,30.316,0,0,0,.129-8.778,35.994,35.994,0,0,1-7.186-6.842c-2.065-2.625-4.862-6.153-6.282-11.059C648.48,431.519,648.093,430.056,647.834,430.1Z" transform="translate(-626.981 -379.151)" fill="#341999" opacity="0.35"/>
    </g>
  </g>
</svg>
