<svg xmlns="http://www.w3.org/2000/svg" width="664" height="195.635" viewBox="0 0 664 195.635">
  <g id="Group_1483" data-name="Group 1483" transform="translate(-681 -1960.5)">
    <path id="Path_1141" data-name="Path 1141" d="M7.959,17.328a2.042,2.042,0,0,0-.62-1.5,5.38,5.38,0,0,0-2.056-1.108A7.086,7.086,0,0,1,2.3,13.129,3.571,3.571,0,0,1,1.3,10.473a3.743,3.743,0,0,1,.928-2.627A4,4,0,0,1,4.775,6.625V4.467H6.318V6.635a3.732,3.732,0,0,1,2.534,1.4,4.982,4.982,0,0,1,.9,3.13H7.842a3.51,3.51,0,0,0-.61-2.148,2,2,0,0,0-1.7-.82A2.29,2.29,0,0,0,3.8,8.8a2.278,2.278,0,0,0-.576,1.646,2.055,2.055,0,0,0,.6,1.533A5.836,5.836,0,0,0,5.957,13.09,7.386,7.386,0,0,1,8.916,14.7a3.52,3.52,0,0,1,.967,2.612,3.6,3.6,0,0,1-1.006,2.676,4.454,4.454,0,0,1-2.764,1.182v1.865H4.59V21.166A4.475,4.475,0,0,1,1.836,19.94,4,4,0,0,1,.8,16.859l.02-.049H2.676a2.67,2.67,0,0,0,.757,2.144,2.784,2.784,0,0,0,1.86.64,2.93,2.93,0,0,0,1.963-.6A2.073,2.073,0,0,0,7.959,17.328ZM20.43,11.674l-1.211.215L20.6,17.152l.225,1.279h.059l.273-1.279,2.109-6.719H24.8l2.119,6.719.3,1.426h.059l.283-1.426,1.3-5.264-1.23-.215v-1.24H31.66v1.24l-.918.137L28.076,21H26.523l-2.051-6.436-.439-1.777-.059.01-.41,1.768L21.553,21H20l-2.666-9.189-.928-.137v-1.24H20.43ZM40.107,21q-.088-.43-.137-.771t-.068-.684a4.655,4.655,0,0,1-1.392,1.187,3.986,3.986,0,0,1-4.292-.332,2.96,2.96,0,0,1-.859-2.271,2.63,2.63,0,0,1,1.216-2.319,5.925,5.925,0,0,1,3.335-.815h1.982v-1.23a1.9,1.9,0,0,0-.586-1.47,2.311,2.311,0,0,0-1.631-.542,4,4,0,0,0-1.274.186,2.393,2.393,0,0,0-.894.508L35.3,13.559H33.818V11.508a5.708,5.708,0,0,1,1.748-.923,6.911,6.911,0,0,1,2.227-.347,4.426,4.426,0,0,1,2.91.918,3.211,3.211,0,0,1,1.113,2.627v5.088q0,.205,0,.4t.024.391l.781.107V21Zm-3.1-1.406a3.42,3.42,0,0,0,1.748-.459,2.847,2.847,0,0,0,1.133-1.1V16.293H37.842a2.926,2.926,0,0,0-1.87.547,1.644,1.644,0,0,0-.688,1.328,1.315,1.315,0,0,0,.43,1.06A1.963,1.963,0,0,0,37.012,19.594Zm15.3-5.84H50.869l-.312-1.27a2.6,2.6,0,0,0-.884-.532,3.408,3.408,0,0,0-1.206-.2,2.218,2.218,0,0,0-1.523.449,1.408,1.408,0,0,0-.5,1.084,1.209,1.209,0,0,0,.439.986,4.557,4.557,0,0,0,1.787.645,7.7,7.7,0,0,1,2.979,1.167,2.352,2.352,0,0,1,.977,1.978,2.73,2.73,0,0,1-1.138,2.275,4.767,4.767,0,0,1-2.974.869,7.727,7.727,0,0,1-2.158-.278,5.745,5.745,0,0,1-1.709-.806l-.01-2.412h1.445l.361,1.416a2.009,2.009,0,0,0,.9.439,5,5,0,0,0,1.167.137,2.723,2.723,0,0,0,1.606-.415A1.279,1.279,0,0,0,50.7,18.2a1.31,1.31,0,0,0-.483-1.045,4.545,4.545,0,0,0-1.831-.713,7.69,7.69,0,0,1-2.9-1.143,2.3,2.3,0,0,1-.977-1.953,2.759,2.759,0,0,1,1.1-2.2,4.336,4.336,0,0,1,2.856-.908,6.936,6.936,0,0,1,2.158.313,4.5,4.5,0,0,1,1.592.869Zm1.729,6.016,1.592-.273V11.947l-1.592-.273v-1.24h3.32l.127,1.377A3.459,3.459,0,0,1,58.8,10.648a4.016,4.016,0,0,1,1.855-.41,3.269,3.269,0,0,1,1.812.488A2.954,2.954,0,0,1,63.6,12.191a3.92,3.92,0,0,1,1.318-1.426,3.462,3.462,0,0,1,1.914-.527,3.174,3.174,0,0,1,2.559,1.108,5.064,5.064,0,0,1,.938,3.335V19.5l1.592.273V21H66.807V19.77L68.4,19.5V14.662a3.512,3.512,0,0,0-.537-2.212A1.947,1.947,0,0,0,66.27,11.8a2.029,2.029,0,0,0-1.616.708,3.078,3.078,0,0,0-.708,1.782V19.5l1.592.273V21H60.43V19.77l1.592-.273V14.662a3.465,3.465,0,0,0-.552-2.173,1.926,1.926,0,0,0-1.6-.688,2.643,2.643,0,0,0-1.445.361,2.334,2.334,0,0,0-.869,1.016V19.5l1.592.273V21H54.043ZM77.969,19.7a2.594,2.594,0,0,0,1.685-.591,1.8,1.8,0,0,0,.728-1.45h1.729l.02.059a2.963,2.963,0,0,1-1.216,2.427,4.446,4.446,0,0,1-2.944,1.06,4.263,4.263,0,0,1-3.521-1.5,5.818,5.818,0,0,1-1.216-3.779v-.41a5.792,5.792,0,0,1,1.221-3.765,4.26,4.26,0,0,1,3.516-1.509,5.894,5.894,0,0,1,2.28.42,4.606,4.606,0,0,1,1.675,1.152l.088,2.344H80.479l-.42-1.66a2.544,2.544,0,0,0-.879-.537,3.374,3.374,0,0,0-1.211-.205,2.318,2.318,0,0,0-2.163,1.089,5.13,5.13,0,0,0-.649,2.671v.41a5.19,5.19,0,0,0,.645,2.7A2.322,2.322,0,0,0,77.969,19.7Zm6.045-4.082a5.817,5.817,0,0,1,1.27-3.862,4.694,4.694,0,0,1,6.909,0,5.8,5.8,0,0,1,1.274,3.867v.215A5.789,5.789,0,0,1,92.2,19.7a4.72,4.72,0,0,1-6.914,0,5.793,5.793,0,0,1-1.27-3.862Zm1.924.215a5.012,5.012,0,0,0,.708,2.773,2.548,2.548,0,0,0,4.185,0,4.985,4.985,0,0,0,.713-2.773v-.215a5,5,0,0,0-.713-2.764,2.54,2.54,0,0,0-4.189,0,5.049,5.049,0,0,0-.7,2.764Zm8.906,3.936,1.592-.273V11.947l-1.592-.273v-1.24h3.32l.127,1.377A3.459,3.459,0,0,1,99.6,10.648a4.016,4.016,0,0,1,1.855-.41,3.269,3.269,0,0,1,1.812.488,2.954,2.954,0,0,1,1.138,1.465,3.92,3.92,0,0,1,1.318-1.426,3.462,3.462,0,0,1,1.914-.527,3.174,3.174,0,0,1,2.559,1.108,5.064,5.064,0,0,1,.938,3.335V19.5l1.592.273V21h-5.117V19.77L109.2,19.5V14.662a3.512,3.512,0,0,0-.537-2.212,1.947,1.947,0,0,0-1.592-.649,2.029,2.029,0,0,0-1.616.708,3.078,3.078,0,0,0-.708,1.782V19.5l1.592.273V21H101.23V19.77l1.592-.273V14.662a3.465,3.465,0,0,0-.552-2.173,1.926,1.926,0,0,0-1.6-.688,2.643,2.643,0,0,0-1.445.361,2.334,2.334,0,0,0-.869,1.016V19.5l1.592.273V21H94.844Zm19.043,4.053,1.592-.273v-11.6l-1.592-.273v-1.24h3.242l.176,1.289a3.557,3.557,0,0,1,1.284-1.1,3.85,3.85,0,0,1,1.753-.381,3.512,3.512,0,0,1,3.052,1.558,7.047,7.047,0,0,1,1.089,4.116v.205a5.824,5.824,0,0,1-1.094,3.687,3.616,3.616,0,0,1-3.018,1.4,4.192,4.192,0,0,1-1.714-.327,3.315,3.315,0,0,1-1.255-.972v3.643l1.592.273v1.24h-5.107Zm8.662-7.91a5.609,5.609,0,0,0-.7-2.959,2.294,2.294,0,0,0-2.09-1.152,2.574,2.574,0,0,0-1.406.371,2.793,2.793,0,0,0-.947,1.016v5.146a2.513,2.513,0,0,0,2.373,1.367,2.372,2.372,0,0,0,2.07-1,4.39,4.39,0,0,0,.7-2.588Zm11.24,3.525a3.566,3.566,0,0,1-1.284,1.309,3.526,3.526,0,0,1-1.812.459,3.383,3.383,0,0,1-2.686-1.1,5.124,5.124,0,0,1-.967-3.437V11.947l-1.211-.273v-1.24h3.135v6.25a3.934,3.934,0,0,0,.5,2.324,1.852,1.852,0,0,0,1.553.635,3.164,3.164,0,0,0,1.694-.415,2.6,2.6,0,0,0,1.011-1.177v-6.1l-1.416-.273v-1.24h3.34V19.5l1.211.273V21h-2.939Zm7.949-11.553v2.549h2v1.426h-2v6.416a1.437,1.437,0,0,0,.308,1.045,1.112,1.112,0,0,0,.815.3,4.205,4.205,0,0,0,.571-.044q.317-.044.532-.093l.264,1.318a2.464,2.464,0,0,1-.8.288,5.051,5.051,0,0,1-1.055.112,2.491,2.491,0,0,1-1.865-.708,3.075,3.075,0,0,1-.693-2.222V11.859h-1.67V10.434h1.67V7.885Zm8.789,13.32a4.457,4.457,0,0,1-3.511-1.47,5.533,5.533,0,0,1-1.3-3.813v-.43a5.418,5.418,0,0,1,1.343-3.755,4.136,4.136,0,0,1,3.179-1.5,4.005,4.005,0,0,1,3.228,1.289,5.121,5.121,0,0,1,1.1,3.438v1.2h-6.855l-.029.049a4.177,4.177,0,0,0,.771,2.5,2.458,2.458,0,0,0,2.08.981,4.84,4.84,0,0,0,1.714-.278,3.94,3.94,0,0,0,1.274-.767l.752,1.25a4.615,4.615,0,0,1-1.5.923A5.991,5.991,0,0,1,150.527,21.205Zm-.293-9.453a2.084,2.084,0,0,0-1.65.815,3.863,3.863,0,0,0-.84,2.046l.02.049h4.873v-.254a2.949,2.949,0,0,0-.605-1.895A2.157,2.157,0,0,0,150.234,11.752Zm11.631,3.994H157.09v-1.5h4.775Zm7.119,3.955a2.594,2.594,0,0,0,1.685-.591,1.8,1.8,0,0,0,.728-1.45h1.729l.02.059a2.963,2.963,0,0,1-1.216,2.427,4.446,4.446,0,0,1-2.944,1.06,4.263,4.263,0,0,1-3.521-1.5,5.818,5.818,0,0,1-1.216-3.779v-.41a5.792,5.792,0,0,1,1.221-3.765,4.26,4.26,0,0,1,3.516-1.509,5.894,5.894,0,0,1,2.28.42,4.606,4.606,0,0,1,1.675,1.152l.088,2.344h-1.533l-.42-1.66a2.544,2.544,0,0,0-.879-.537,3.374,3.374,0,0,0-1.211-.205,2.318,2.318,0,0,0-2.163,1.089,5.13,5.13,0,0,0-.649,2.671v.41a5.19,5.19,0,0,0,.645,2.7A2.322,2.322,0,0,0,168.984,19.7Zm5.771-12.7V5.766h3.516V19.5l1.592.273V21h-5.107V19.77l1.592-.273V7.279Zm6.563,12.764,1.592-.273V11.947l-1.592-.273v-1.24h3.516V19.5l1.592.273V21h-5.107Zm3.516-12.041H182.91V5.766h1.924Zm7.793,16.094,1.592-.273v-11.6l-1.592-.273v-1.24h3.242l.176,1.289a3.557,3.557,0,0,1,1.284-1.1,3.85,3.85,0,0,1,1.753-.381,3.512,3.512,0,0,1,3.052,1.558,7.047,7.047,0,0,1,1.089,4.116v.205a5.824,5.824,0,0,1-1.094,3.687,3.616,3.616,0,0,1-3.018,1.4,4.192,4.192,0,0,1-1.714-.327,3.315,3.315,0,0,1-1.255-.972v3.643l1.592.273v1.24h-5.107Zm8.662-7.91a5.609,5.609,0,0,0-.7-2.959A2.294,2.294,0,0,0,198.5,11.8a2.574,2.574,0,0,0-1.406.371,2.793,2.793,0,0,0-.947,1.016v5.146a2.513,2.513,0,0,0,2.373,1.367,2.372,2.372,0,0,0,2.07-1,4.39,4.39,0,0,0,.7-2.588Zm11.24,3.525a3.566,3.566,0,0,1-1.284,1.309,3.526,3.526,0,0,1-1.812.459,3.383,3.383,0,0,1-2.686-1.1,5.124,5.124,0,0,1-.967-3.437V11.947l-1.211-.273v-1.24h3.135v6.25a3.934,3.934,0,0,0,.5,2.324,1.852,1.852,0,0,0,1.553.635,3.164,3.164,0,0,0,1.694-.415,2.6,2.6,0,0,0,1.011-1.177v-6.1l-1.416-.273v-1.24h3.34V19.5l1.211.273V21h-2.939Zm14.258-3.32a5.806,5.806,0,0,1-1.1,3.687,3.629,3.629,0,0,1-3.022,1.4,3.85,3.85,0,0,1-1.8-.4,3.369,3.369,0,0,1-1.27-1.167L219.424,21h-1.66V7.279l-1.592-.273V5.766h3.516v5.918a3.339,3.339,0,0,1,1.235-1.074,3.787,3.787,0,0,1,1.724-.371,3.512,3.512,0,0,1,3.047,1.563,7.028,7.028,0,0,1,1.094,4.111Zm-1.934-.205a5.862,5.862,0,0,0-.664-2.969,2.193,2.193,0,0,0-2.031-1.143,2.538,2.538,0,0,0-1.5.43,3.042,3.042,0,0,0-.972,1.152v4.668a2.991,2.991,0,0,0,.981,1.162,2.584,2.584,0,0,0,1.509.43,2.273,2.273,0,0,0,2.017-.967,4.465,4.465,0,0,0,.659-2.559Zm3.486-8.906V5.766h3.516V19.5l1.592.273V21H228.34V19.77l1.592-.273V7.279ZM234.9,19.77l1.592-.273V11.947l-1.592-.273v-1.24h3.516V19.5l1.592.273V21H234.9Zm3.516-12.041h-1.924V5.766h1.924Zm11.143,6.025h-1.445l-.312-1.27a2.6,2.6,0,0,0-.884-.532,3.408,3.408,0,0,0-1.206-.2,2.218,2.218,0,0,0-1.523.449,1.408,1.408,0,0,0-.5,1.084,1.209,1.209,0,0,0,.439.986,4.557,4.557,0,0,0,1.787.645,7.7,7.7,0,0,1,2.979,1.167,2.352,2.352,0,0,1,.977,1.978,2.73,2.73,0,0,1-1.138,2.275,4.767,4.767,0,0,1-2.974.869,7.727,7.727,0,0,1-2.158-.278,5.745,5.745,0,0,1-1.709-.806l-.01-2.412h1.445l.361,1.416a2.009,2.009,0,0,0,.9.439,5,5,0,0,0,1.167.137,2.723,2.723,0,0,0,1.606-.415,1.279,1.279,0,0,0,.581-1.089,1.31,1.31,0,0,0-.483-1.045,4.545,4.545,0,0,0-1.831-.713,7.69,7.69,0,0,1-2.9-1.143,2.3,2.3,0,0,1-.977-1.953,2.759,2.759,0,0,1,1.1-2.2,4.336,4.336,0,0,1,2.856-.908,6.936,6.936,0,0,1,2.158.313,4.5,4.5,0,0,1,1.592.869Zm1.846,6.016L253,19.5V7.279l-1.592-.273V5.766h3.516V11.84a3.865,3.865,0,0,1,1.338-1.182,3.69,3.69,0,0,1,1.758-.42,3.409,3.409,0,0,1,2.637,1.016,4.484,4.484,0,0,1,.938,3.125V19.5l1.592.273V21h-5.107V19.77l1.592-.273V14.359a2.828,2.828,0,0,0-.562-1.934,2.137,2.137,0,0,0-1.675-.625,2.823,2.823,0,0,0-1.44.376,3.141,3.141,0,0,0-1.069,1.021v6.3l1.592.273V21h-5.107ZM11.719,37.146H10.361L10,35.135a3.72,3.72,0,0,0-1.152-.752,4.124,4.124,0,0,0-1.631-.293A3.988,3.988,0,0,0,3.809,35.7a6.661,6.661,0,0,0-1.191,4.077V40a6.8,6.8,0,0,0,1.167,4.087A3.77,3.77,0,0,0,7.021,45.7a4.883,4.883,0,0,0,1.758-.3A3.366,3.366,0,0,0,10,44.656l.361-2.012h1.357v2.529a5.326,5.326,0,0,1-1.846,1.411,6.255,6.255,0,0,1-2.852.62,5.751,5.751,0,0,1-4.551-2.051A7.591,7.591,0,0,1,.693,40v-.205a7.68,7.68,0,0,1,1.748-5.171,5.734,5.734,0,0,1,4.58-2.046,6.174,6.174,0,0,1,2.852.63,5.487,5.487,0,0,1,1.846,1.411Zm2.061,4.473a5.817,5.817,0,0,1,1.27-3.862A4.257,4.257,0,0,1,18.5,36.238a4.288,4.288,0,0,1,3.462,1.514,5.8,5.8,0,0,1,1.274,3.867v.215a5.789,5.789,0,0,1-1.27,3.867,4.275,4.275,0,0,1-3.447,1.5A4.291,4.291,0,0,1,15.049,45.7a5.793,5.793,0,0,1-1.27-3.862Zm1.924.215a5.012,5.012,0,0,0,.708,2.773,2.344,2.344,0,0,0,2.1,1.094,2.329,2.329,0,0,0,2.08-1.094,4.985,4.985,0,0,0,.713-2.773v-.215a5,5,0,0,0-.713-2.764,2.341,2.341,0,0,0-2.1-1.1,2.318,2.318,0,0,0-2.09,1.1,5.049,5.049,0,0,0-.7,2.764Zm8.906,3.936L26.2,45.5V37.947l-1.592-.273v-1.24h3.32l.127,1.377a3.459,3.459,0,0,1,1.309-1.162,4.016,4.016,0,0,1,1.855-.41,3.269,3.269,0,0,1,1.812.488,2.954,2.954,0,0,1,1.138,1.465,3.92,3.92,0,0,1,1.318-1.426,3.461,3.461,0,0,1,1.914-.527,3.174,3.174,0,0,1,2.559,1.108,5.064,5.064,0,0,1,.938,3.335V45.5l1.592.273V47H37.373V45.77l1.592-.273V40.662a3.512,3.512,0,0,0-.537-2.212,1.947,1.947,0,0,0-1.592-.649,2.029,2.029,0,0,0-1.616.708,3.078,3.078,0,0,0-.708,1.782V45.5l1.592.273V47H31V45.77l1.592-.273V40.662a3.465,3.465,0,0,0-.552-2.173,1.926,1.926,0,0,0-1.6-.688,2.643,2.643,0,0,0-1.445.361,2.334,2.334,0,0,0-.869,1.016V45.5l1.592.273V47H24.609Zm19.043,4.053,1.592-.273v-11.6l-1.592-.273v-1.24h3.242l.176,1.289a3.557,3.557,0,0,1,1.284-1.1,3.85,3.85,0,0,1,1.753-.381A3.512,3.512,0,0,1,53.159,37.8a7.047,7.047,0,0,1,1.089,4.116v.205A5.824,5.824,0,0,1,53.154,45.8a3.616,3.616,0,0,1-3.018,1.4,4.192,4.192,0,0,1-1.714-.327,3.315,3.315,0,0,1-1.255-.972v3.643l1.592.273v1.24H43.652Zm8.662-7.91a5.609,5.609,0,0,0-.7-2.959,2.294,2.294,0,0,0-2.09-1.152,2.574,2.574,0,0,0-1.406.371,2.793,2.793,0,0,0-.947,1.016v5.146A2.513,2.513,0,0,0,49.541,45.7a2.372,2.372,0,0,0,2.07-1,4.39,4.39,0,0,0,.7-2.588ZM56,37.674v-1.24h3.311l.186,1.533A3.691,3.691,0,0,1,60.6,36.7a2.576,2.576,0,0,1,1.509-.459,3.28,3.28,0,0,1,.464.034,2.549,2.549,0,0,1,.366.073l-.254,1.787-1.094-.059a2.2,2.2,0,0,0-1.279.356,2.307,2.307,0,0,0-.8,1V45.5l1.592.273V47H56V45.77l1.592-.273V37.947Zm12.91,9.531a4.457,4.457,0,0,1-3.511-1.47,5.533,5.533,0,0,1-1.3-3.813v-.43a5.418,5.418,0,0,1,1.343-3.755,4.136,4.136,0,0,1,3.179-1.5,4.005,4.005,0,0,1,3.228,1.289,5.121,5.121,0,0,1,1.1,3.438v1.2H66.084l-.029.049a4.177,4.177,0,0,0,.771,2.5,2.458,2.458,0,0,0,2.08.981,4.84,4.84,0,0,0,1.714-.278,3.94,3.94,0,0,0,1.274-.767l.752,1.25a4.615,4.615,0,0,1-1.5.923A5.991,5.991,0,0,1,68.906,47.205Zm-.293-9.453a2.084,2.084,0,0,0-1.65.815,3.863,3.863,0,0,0-.84,2.046l.02.049h4.873v-.254a2.949,2.949,0,0,0-.605-1.895A2.157,2.157,0,0,0,68.613,37.752Zm14.307,2H81.475l-.312-1.27a2.6,2.6,0,0,0-.884-.532,3.408,3.408,0,0,0-1.206-.2,2.218,2.218,0,0,0-1.523.449,1.408,1.408,0,0,0-.5,1.084,1.209,1.209,0,0,0,.439.986,4.557,4.557,0,0,0,1.787.645,7.7,7.7,0,0,1,2.979,1.167,2.352,2.352,0,0,1,.977,1.978,2.73,2.73,0,0,1-1.138,2.275,4.767,4.767,0,0,1-2.974.869,7.727,7.727,0,0,1-2.158-.278,5.745,5.745,0,0,1-1.709-.806l-.01-2.412h1.445l.361,1.416a2.009,2.009,0,0,0,.9.439,5,5,0,0,0,1.167.137,2.723,2.723,0,0,0,1.606-.415,1.279,1.279,0,0,0,.581-1.089,1.31,1.31,0,0,0-.483-1.045,4.545,4.545,0,0,0-1.831-.713,7.69,7.69,0,0,1-2.9-1.143,2.3,2.3,0,0,1-.977-1.953,2.759,2.759,0,0,1,1.1-2.2,4.336,4.336,0,0,1,2.856-.908,6.936,6.936,0,0,1,2.158.313,4.5,4.5,0,0,1,1.592.869Zm10.2,0H91.67l-.312-1.27a2.6,2.6,0,0,0-.884-.532,3.408,3.408,0,0,0-1.206-.2,2.218,2.218,0,0,0-1.523.449,1.408,1.408,0,0,0-.5,1.084,1.209,1.209,0,0,0,.439.986,4.557,4.557,0,0,0,1.787.645,7.7,7.7,0,0,1,2.979,1.167,2.352,2.352,0,0,1,.977,1.978,2.73,2.73,0,0,1-1.138,2.275,4.767,4.767,0,0,1-2.974.869,7.727,7.727,0,0,1-2.158-.278,5.745,5.745,0,0,1-1.709-.806l-.01-2.412h1.445l.361,1.416a2.009,2.009,0,0,0,.9.439,5,5,0,0,0,1.167.137,2.723,2.723,0,0,0,1.606-.415A1.279,1.279,0,0,0,91.5,44.2a1.31,1.31,0,0,0-.483-1.045,4.545,4.545,0,0,0-1.831-.713,7.69,7.69,0,0,1-2.9-1.143,2.3,2.3,0,0,1-.977-1.953,2.759,2.759,0,0,1,1.1-2.2,4.336,4.336,0,0,1,2.856-.908,6.936,6.936,0,0,1,2.158.313,4.5,4.5,0,0,1,1.592.869Zm2.109,6.016,1.592-.273V37.947l-1.592-.273v-1.24H98.74V45.5l1.592.273V47H95.225ZM98.74,33.729H96.816V31.766H98.74Zm2.773,12.041,1.592-.273V37.947l-1.592-.273v-1.24h3.311l.137,1.572a3.837,3.837,0,0,1,1.323-1.3,3.531,3.531,0,0,1,1.812-.464,3.449,3.449,0,0,1,2.646,1,4.394,4.394,0,0,1,.938,3.091V45.5l1.592.273V47h-5.107V45.77l1.592-.273V40.369a2.858,2.858,0,0,0-.552-1.982,2.21,2.21,0,0,0-1.685-.586,2.712,2.712,0,0,0-1.47.4,2.924,2.924,0,0,0-1.021,1.094v6.2l1.592.273V47h-5.107Zm13.066-3.857a6.936,6.936,0,0,1,1.113-4.111,3.57,3.57,0,0,1,3.076-1.562,3.74,3.74,0,0,1,1.748.391,3.432,3.432,0,0,1,1.26,1.133l.176-1.328h1.621v10.43a4.437,4.437,0,0,1-1.143,3.228,4.325,4.325,0,0,1-3.252,1.177,7.207,7.207,0,0,1-1.65-.21,6.423,6.423,0,0,1-1.562-.571l.5-1.494a6.235,6.235,0,0,0,2.7.654,2.319,2.319,0,0,0,1.89-.723,3.142,3.142,0,0,0,.6-2.061V45.857a3.407,3.407,0,0,1-1.24,1.006,3.84,3.84,0,0,1-1.66.342,3.686,3.686,0,0,1-3.057-1.406,5.757,5.757,0,0,1-1.113-3.682Zm1.924.205a4.391,4.391,0,0,0,.674,2.559,2.331,2.331,0,0,0,2.051.967,2.543,2.543,0,0,0,1.455-.4,3,3,0,0,0,.967-1.118V39.266a2.985,2.985,0,0,0-.967-1.069,2.536,2.536,0,0,0-1.436-.4,2.241,2.241,0,0,0-2.061,1.152,5.737,5.737,0,0,0-.684,2.959Zm14.121,7.705,1.592-.273v-11.6l-1.592-.273v-1.24h3.242l.176,1.289a3.557,3.557,0,0,1,1.284-1.1,3.85,3.85,0,0,1,1.753-.381,3.512,3.512,0,0,1,3.052,1.558,7.047,7.047,0,0,1,1.089,4.116v.205a5.824,5.824,0,0,1-1.094,3.687,3.616,3.616,0,0,1-3.018,1.4,4.192,4.192,0,0,1-1.714-.327,3.315,3.315,0,0,1-1.255-.972v3.643l1.592.273v1.24h-5.107Zm8.662-7.91a5.609,5.609,0,0,0-.7-2.959,2.294,2.294,0,0,0-2.09-1.152,2.574,2.574,0,0,0-1.406.371,2.793,2.793,0,0,0-.947,1.016v5.146a2.513,2.513,0,0,0,2.373,1.367,2.372,2.372,0,0,0,2.07-1,4.39,4.39,0,0,0,.7-2.588Zm3.682-4.238v-1.24h3.311l.186,1.533a3.691,3.691,0,0,1,1.108-1.27,2.576,2.576,0,0,1,1.509-.459,3.28,3.28,0,0,1,.464.034,2.549,2.549,0,0,1,.366.073l-.254,1.787-1.094-.059a2.2,2.2,0,0,0-1.279.356,2.307,2.307,0,0,0-.8,1V45.5l1.592.273V47h-5.107V45.77l1.592-.273V37.947Zm8.086,3.945a5.817,5.817,0,0,1,1.27-3.862,4.694,4.694,0,0,1,6.909,0,5.8,5.8,0,0,1,1.274,3.867v.215a5.789,5.789,0,0,1-1.27,3.867,4.72,4.72,0,0,1-6.914,0,5.793,5.793,0,0,1-1.27-3.862Zm1.924.215a5.012,5.012,0,0,0,.708,2.773,2.548,2.548,0,0,0,4.185,0,4.985,4.985,0,0,0,.713-2.773v-.215a5,5,0,0,0-.713-2.764,2.54,2.54,0,0,0-4.189,0,5.049,5.049,0,0,0-.7,2.764Zm12.559,6.035a3.509,3.509,0,0,1-.84,2.515,3.066,3.066,0,0,1-2.334.884,3.336,3.336,0,0,1-.566-.044,3.9,3.9,0,0,1-.527-.132l.127-1.514a2.043,2.043,0,0,0,.4.083,3.485,3.485,0,0,0,.43.034,1.275,1.275,0,0,0,1.011-.43,2.1,2.1,0,0,0,.376-1.4V37.947l-1.592-.273v-1.24h3.516Zm-.059-14.18h-1.924V31.766h1.924Zm7.188,13.516a4.457,4.457,0,0,1-3.511-1.47,5.533,5.533,0,0,1-1.3-3.813v-.43a5.418,5.418,0,0,1,1.343-3.755,4.136,4.136,0,0,1,3.179-1.5,4.005,4.005,0,0,1,3.228,1.289,5.121,5.121,0,0,1,1.1,3.438v1.2h-6.855l-.029.049a4.177,4.177,0,0,0,.771,2.5,2.458,2.458,0,0,0,2.08.981,4.84,4.84,0,0,0,1.714-.278,3.94,3.94,0,0,0,1.274-.767l.752,1.25a4.615,4.615,0,0,1-1.5.923A5.991,5.991,0,0,1,172.666,47.205Zm-.293-9.453a2.084,2.084,0,0,0-1.65.815,3.863,3.863,0,0,0-.84,2.046l.02.049h4.873v-.254a2.949,2.949,0,0,0-.605-1.895A2.157,2.157,0,0,0,172.373,37.752ZM183.34,45.7a2.594,2.594,0,0,0,1.685-.591,1.8,1.8,0,0,0,.728-1.45h1.729l.02.059a2.963,2.963,0,0,1-1.216,2.427,4.446,4.446,0,0,1-2.944,1.06,4.263,4.263,0,0,1-3.521-1.5,5.818,5.818,0,0,1-1.216-3.779v-.41a5.792,5.792,0,0,1,1.221-3.765,4.26,4.26,0,0,1,3.516-1.509,5.894,5.894,0,0,1,2.28.42,4.606,4.606,0,0,1,1.675,1.152l.088,2.344H185.85l-.42-1.66a2.544,2.544,0,0,0-.879-.537,3.374,3.374,0,0,0-1.211-.205,2.318,2.318,0,0,0-2.163,1.089,5.13,5.13,0,0,0-.649,2.671v.41a5.19,5.19,0,0,0,.645,2.7A2.322,2.322,0,0,0,183.34,45.7Zm9.395-11.816v2.549h2v1.426h-2v6.416a1.437,1.437,0,0,0,.308,1.045,1.112,1.112,0,0,0,.815.3,4.205,4.205,0,0,0,.571-.044q.317-.044.532-.093l.264,1.318a2.464,2.464,0,0,1-.8.288,5.051,5.051,0,0,1-1.055.112A2.491,2.491,0,0,1,191.5,46.5a3.075,3.075,0,0,1-.693-2.222V37.859h-1.67V36.434h1.67V33.885Zm8.506,3.975V36.434h1.65V35.291a3.585,3.585,0,0,1,1.045-2.754,4.068,4.068,0,0,1,2.891-.977,5.454,5.454,0,0,1,1.289.156q.645.156,1.484.439l-.322,1.563a8.763,8.763,0,0,0-1.1-.352,4.934,4.934,0,0,0-1.2-.146,2.264,2.264,0,0,0-1.655.508,2.141,2.141,0,0,0-.5,1.563v1.143h6.025V45.5l1.592.273V47h-5.107V45.77l1.592-.273V37.859h-4.1V45.5l1.592.273V47H201.3V45.77l1.592-.273V37.859Zm12.266-4.854v-1.24h3.516V45.5l1.592.273V47h-5.107V45.77L215.1,45.5V33.279Zm11.387,14.2a4.457,4.457,0,0,1-3.511-1.47,5.533,5.533,0,0,1-1.3-3.813v-.43a5.418,5.418,0,0,1,1.343-3.755,4.136,4.136,0,0,1,3.179-1.5,4.005,4.005,0,0,1,3.228,1.289,5.121,5.121,0,0,1,1.1,3.438v1.2H222.07l-.029.049a4.177,4.177,0,0,0,.771,2.5,2.458,2.458,0,0,0,2.08.981,4.84,4.84,0,0,0,1.714-.278,3.94,3.94,0,0,0,1.274-.767l.752,1.25a4.615,4.615,0,0,1-1.5.923A5.991,5.991,0,0,1,224.893,47.205Zm-.293-9.453a2.084,2.084,0,0,0-1.65.815,3.863,3.863,0,0,0-.84,2.046l.02.049H227v-.254a2.949,2.949,0,0,0-.605-1.895A2.157,2.157,0,0,0,224.6,37.752Zm14.307,2h-1.445l-.312-1.27a2.6,2.6,0,0,0-.884-.532,3.408,3.408,0,0,0-1.206-.2,2.218,2.218,0,0,0-1.523.449,1.408,1.408,0,0,0-.5,1.084,1.209,1.209,0,0,0,.439.986,4.557,4.557,0,0,0,1.787.645,7.7,7.7,0,0,1,2.979,1.167,2.352,2.352,0,0,1,.977,1.978,2.73,2.73,0,0,1-1.138,2.275,4.767,4.767,0,0,1-2.974.869,7.727,7.727,0,0,1-2.158-.278,5.745,5.745,0,0,1-1.709-.806l-.01-2.412h1.445l.361,1.416a2.009,2.009,0,0,0,.9.439,5,5,0,0,0,1.167.137,2.723,2.723,0,0,0,1.606-.415,1.279,1.279,0,0,0,.581-1.089,1.31,1.31,0,0,0-.483-1.045,4.545,4.545,0,0,0-1.831-.713,7.69,7.69,0,0,1-2.9-1.143,2.3,2.3,0,0,1-.977-1.953,2.759,2.759,0,0,1,1.1-2.2,4.336,4.336,0,0,1,2.856-.908,6.936,6.936,0,0,1,2.158.313,4.5,4.5,0,0,1,1.592.869ZM243.5,47h-1.924V45.027H243.5Zm4.316,0h-1.924V45.027h1.924Zm4.092,0H249.98V45.027H251.9Zm4.727,0h-1.924V45.027h1.924Zm37.451-1.23,2.2-.273V34.842l-2.236.039v-1.2l4.16-.9V45.5l2.188.273V47h-6.309Zm17.295-4.189a6.353,6.353,0,0,1-1.211,4.175,4.5,4.5,0,0,1-6.621,0,6.321,6.321,0,0,1-1.221-4.17V38.211a6.377,6.377,0,0,1,1.211-4.175,4.483,4.483,0,0,1,6.621,0,6.341,6.341,0,0,1,1.221,4.175ZM309.453,37.8a4.76,4.76,0,0,0-.669-2.778,2.247,2.247,0,0,0-1.948-.933,2.215,2.215,0,0,0-1.924.933,4.787,4.787,0,0,0-.664,2.778v4.17a4.781,4.781,0,0,0,.674,2.788,2.464,2.464,0,0,0,3.872,0,4.86,4.86,0,0,0,.659-2.793Zm13.33,3.779a6.353,6.353,0,0,1-1.211,4.175,4.5,4.5,0,0,1-6.621,0,6.321,6.321,0,0,1-1.221-4.17V38.211a6.377,6.377,0,0,1,1.211-4.175,4.483,4.483,0,0,1,6.621,0,6.341,6.341,0,0,1,1.221,4.175ZM320.859,37.8a4.76,4.76,0,0,0-.669-2.778,2.247,2.247,0,0,0-1.948-.933,2.215,2.215,0,0,0-1.924.933,4.787,4.787,0,0,0-.664,2.778v4.17a4.781,4.781,0,0,0,.674,2.788,2.464,2.464,0,0,0,3.872,0,4.86,4.86,0,0,0,.659-2.793Zm3.848-2.285a2.932,2.932,0,0,1,.8-2.09,2.788,2.788,0,0,1,2.129-.85,2.82,2.82,0,0,1,2.148.845,2.927,2.927,0,0,1,.8,2.095v.752a2.9,2.9,0,0,1-.8,2.08,2.8,2.8,0,0,1-2.129.84,2.833,2.833,0,0,1-2.144-.84,2.888,2.888,0,0,1-.806-2.08Zm1.426.752a1.922,1.922,0,0,0,.4,1.226,1.351,1.351,0,0,0,1.128.5,1.335,1.335,0,0,0,1.108-.5,1.917,1.917,0,0,0,.4-1.23v-.752a1.946,1.946,0,0,0-.4-1.235,1.343,1.343,0,0,0-1.123-.513,1.317,1.317,0,0,0-1.113.513,1.979,1.979,0,0,0-.391,1.235Zm5.459,7.246a2.919,2.919,0,0,1,.8-2.08,2.788,2.788,0,0,1,2.129-.85,2.824,2.824,0,0,1,2.144.845,2.905,2.905,0,0,1,.806,2.085v.762a2.91,2.91,0,0,1-.8,2.09,3.143,3.143,0,0,1-4.277,0,2.91,2.91,0,0,1-.8-2.09Zm1.426.762a1.937,1.937,0,0,0,.4,1.235,1.351,1.351,0,0,0,1.128.5,1.327,1.327,0,0,0,1.113-.5,1.953,1.953,0,0,0,.391-1.235v-.762a1.926,1.926,0,0,0-.4-1.23,1.349,1.349,0,0,0-1.123-.508,1.322,1.322,0,0,0-1.113.508,1.958,1.958,0,0,0-.391,1.23Zm-4.746,1.65-1.064-.654,6.943-11.113,1.064.654ZM341.553,47h-1.924V45.027h1.924Zm9.99-8h1.68a2.241,2.241,0,0,0,1.812-.64,2.708,2.708,0,0,0,.532-1.782,2.589,2.589,0,0,0-.605-1.855,2.357,2.357,0,0,0-1.787-.635,2.476,2.476,0,0,0-1.8.659,2.332,2.332,0,0,0-.679,1.753h-1.846l-.02-.059A3.445,3.445,0,0,1,350,33.7a4.487,4.487,0,0,1,3.179-1.128,4.538,4.538,0,0,1,3.145,1.05,3.81,3.81,0,0,1,1.172,2.993,3.419,3.419,0,0,1-2.129,3.086,3.125,3.125,0,0,1,1.812,1.318,4.212,4.212,0,0,1-.742,5.068,4.77,4.77,0,0,1-3.257,1.113,4.888,4.888,0,0,1-3.223-1.05,3.371,3.371,0,0,1-1.221-2.847l.029-.059H350.6a2.367,2.367,0,0,0,.688,1.787,2.608,2.608,0,0,0,1.89.664,2.653,2.653,0,0,0,1.914-.664,2.6,2.6,0,0,0,.693-1.963,2.677,2.677,0,0,0-.615-1.943,2.63,2.63,0,0,0-1.943-.625h-1.68Zm16.172,3.213h1.963v1.5h-1.963V45.5l1.592.273V47h-5.1V45.77L365.8,45.5V43.719h-6.387V42.635l6.27-9.854h2.031Zm-6.25,0H365.8V35.525l-.059-.02-.2.518ZM373.73,47h-1.924V45.027h1.924ZM383.2,35.594l-.186-1.1H378.77l-.459,3.994a4.23,4.23,0,0,1,.991-.552,3.7,3.7,0,0,1,1.274-.239,3.826,3.826,0,0,1,3.091,1.279,5.147,5.147,0,0,1,1.128,3.5,5,5,0,0,1-1.147,3.438,4.227,4.227,0,0,1-3.345,1.3,4.563,4.563,0,0,1-3-.986,3.42,3.42,0,0,1-1.147-2.9l.02-.059h1.738A2.262,2.262,0,0,0,380.3,45.7a2.269,2.269,0,0,0,1.895-.859,3.72,3.72,0,0,0,.674-2.354,3.564,3.564,0,0,0-.679-2.251,2.247,2.247,0,0,0-1.88-.874,3.047,3.047,0,0,0-1.646.342,1.94,1.94,0,0,0-.747,1.045l-1.6-.166.82-7.8h7.51v2.813Zm22.119.02-.049-.01-4.6,11.4h-1.279l-4.6-11.387-.049.01.2,5.752V45.5l1.592.273V47h-5.107V45.77l1.592-.273v-11.2l-1.592-.273v-1.24h4.053l4.531,11.553h.059l4.521-11.553h4.063v1.24l-1.592.273V45.5l1.592.273V47h-5.107V45.77l1.592-.273V41.375Zm10.938-2.832a5.6,5.6,0,0,1,3.481.962A3.408,3.408,0,0,1,421,36.629a2.632,2.632,0,0,1-.6,1.694,3.553,3.553,0,0,1-1.587,1.108,3.3,3.3,0,0,1,2.021,1.26,3.712,3.712,0,0,1,.742,2.295,3.619,3.619,0,0,1-1.27,2.983A5.3,5.3,0,0,1,416.865,47h-6.836V45.77l1.592-.273v-11.2l-1.592-.273v-1.24h6.23Zm-2.715,7.549V45.5h3.32a2.968,2.968,0,0,0,2.046-.649,2.339,2.339,0,0,0,.728-1.841,2.922,2.922,0,0,0-.61-1.963,2.328,2.328,0,0,0-1.87-.713Zm0-1.5h3.213a2.492,2.492,0,0,0,1.675-.615,2.088,2.088,0,0,0,.64-1.621,2.063,2.063,0,0,0-.723-1.724,3.309,3.309,0,0,0-2.09-.571h-2.715ZM5.693,58.781v1.24L4.1,60.295V68.42a3.14,3.14,0,0,0,.918,2.446,3.46,3.46,0,0,0,2.422.835,3.777,3.777,0,0,0,2.549-.83,3.053,3.053,0,0,0,.967-2.451V60.295l-1.592-.273v-1.24h5.107v1.24l-1.592.273V68.42a4.325,4.325,0,0,1-1.509,3.55,6.006,6.006,0,0,1-3.931,1.235A5.683,5.683,0,0,1,3.633,71.97a4.4,4.4,0,0,1-1.455-3.55V60.295L.586,60.021v-1.24H5.693Zm9.99,17.041,1.592-.273v-11.6l-1.592-.273v-1.24h3.242l.176,1.289a3.557,3.557,0,0,1,1.284-1.1,3.85,3.85,0,0,1,1.753-.381A3.512,3.512,0,0,1,25.19,63.8a7.047,7.047,0,0,1,1.089,4.116v.205A5.824,5.824,0,0,1,25.186,71.8a3.616,3.616,0,0,1-3.018,1.4,4.192,4.192,0,0,1-1.714-.327,3.315,3.315,0,0,1-1.255-.972v3.643l1.592.273v1.24H15.684Zm8.662-7.91a5.609,5.609,0,0,0-.7-2.959,2.294,2.294,0,0,0-2.09-1.152,2.574,2.574,0,0,0-1.406.371,2.793,2.793,0,0,0-.947,1.016v5.146A2.513,2.513,0,0,0,21.572,71.7a2.372,2.372,0,0,0,2.07-1,4.39,4.39,0,0,0,.7-2.588Zm3.32-8.906v-1.24h3.516V71.5l1.592.273V73H27.666V71.77l1.592-.273V59.279Zm6.377,8.613a5.817,5.817,0,0,1,1.27-3.862,4.694,4.694,0,0,1,6.909,0A5.8,5.8,0,0,1,43.5,67.619v.215a5.789,5.789,0,0,1-1.27,3.867,4.72,4.72,0,0,1-6.914,0,5.793,5.793,0,0,1-1.27-3.862Zm1.924.215a5.012,5.012,0,0,0,.708,2.773,2.548,2.548,0,0,0,4.185,0,4.985,4.985,0,0,0,.713-2.773v-.215a5,5,0,0,0-.713-2.764,2.54,2.54,0,0,0-4.189,0,5.049,5.049,0,0,0-.7,2.764ZM52.148,73q-.088-.43-.137-.771t-.068-.684a4.655,4.655,0,0,1-1.392,1.187A3.986,3.986,0,0,1,46.26,72.4a2.96,2.96,0,0,1-.859-2.271,2.63,2.63,0,0,1,1.216-2.319,5.925,5.925,0,0,1,3.335-.815h1.982v-1.23a1.9,1.9,0,0,0-.586-1.47,2.311,2.311,0,0,0-1.631-.542,4,4,0,0,0-1.274.186,2.393,2.393,0,0,0-.894.508l-.205,1.113H45.859V63.508a5.708,5.708,0,0,1,1.748-.923,6.911,6.911,0,0,1,2.227-.347,4.426,4.426,0,0,1,2.91.918,3.211,3.211,0,0,1,1.113,2.627v5.088q0,.205,0,.4t.024.391l.781.107V73Zm-3.1-1.406a3.42,3.42,0,0,0,1.748-.459,2.847,2.847,0,0,0,1.133-1.1V68.293H49.883a2.926,2.926,0,0,0-1.87.547,1.644,1.644,0,0,0-.688,1.328,1.315,1.315,0,0,0,.43,1.06A1.963,1.963,0,0,0,49.053,71.594Zm14.336.146a3.411,3.411,0,0,1-1.265,1.094,3.849,3.849,0,0,1-1.733.371,3.613,3.613,0,0,1-3.022-1.4,5.842,5.842,0,0,1-1.089-3.687v-.205A7.052,7.052,0,0,1,57.368,63.8a3.5,3.5,0,0,1,3.042-1.562,3.762,3.762,0,0,1,1.655.347,3.42,3.42,0,0,1,1.226,1V59.279L61.7,59.006v-1.24h3.516V71.5l1.592.273V73H63.545ZM58.2,68.117a4.49,4.49,0,0,0,.654,2.559,2.271,2.271,0,0,0,2.021.967,2.548,2.548,0,0,0,1.445-.391,2.978,2.978,0,0,0,.967-1.1v-4.9a2.964,2.964,0,0,0-.967-1.055A2.542,2.542,0,0,0,60.9,63.8a2.191,2.191,0,0,0-2.036,1.143,5.9,5.9,0,0,0-.659,2.969ZM68.271,71.77l1.592-.273V63.947l-1.592-.273v-1.24h3.516V71.5l1.592.273V73H68.271Zm3.516-12.041H69.863V57.766h1.924ZM74.561,71.77l1.592-.273V63.947l-1.592-.273v-1.24h3.311l.137,1.572a3.837,3.837,0,0,1,1.323-1.3,3.531,3.531,0,0,1,1.812-.464,3.449,3.449,0,0,1,2.646,1,4.394,4.394,0,0,1,.938,3.091V71.5l1.592.273V73H81.211V71.77L82.8,71.5V66.369a2.858,2.858,0,0,0-.552-1.982,2.21,2.21,0,0,0-1.685-.586,2.712,2.712,0,0,0-1.47.4,2.924,2.924,0,0,0-1.021,1.094v6.2l1.592.273V73H74.561Zm13.066-3.857A6.936,6.936,0,0,1,88.74,63.8a3.57,3.57,0,0,1,3.076-1.562,3.74,3.74,0,0,1,1.748.391,3.432,3.432,0,0,1,1.26,1.133L95,62.434h1.621v10.43a4.437,4.437,0,0,1-1.143,3.228,4.325,4.325,0,0,1-3.252,1.177,7.207,7.207,0,0,1-1.65-.21,6.423,6.423,0,0,1-1.562-.571l.5-1.494a6.235,6.235,0,0,0,2.7.654,2.319,2.319,0,0,0,1.89-.723,3.142,3.142,0,0,0,.6-2.061V71.857a3.407,3.407,0,0,1-1.24,1.006,3.84,3.84,0,0,1-1.66.342A3.686,3.686,0,0,1,88.74,71.8a5.757,5.757,0,0,1-1.113-3.682Zm1.924.205a4.391,4.391,0,0,0,.674,2.559,2.331,2.331,0,0,0,2.051.967,2.543,2.543,0,0,0,1.455-.4,3,3,0,0,0,.967-1.118V65.266A2.985,2.985,0,0,0,93.73,64.2a2.536,2.536,0,0,0-1.436-.4,2.241,2.241,0,0,0-2.061,1.152,5.737,5.737,0,0,0-.684,2.959Zm14.121,7.705,1.592-.273v-11.6l-1.592-.273v-1.24h3.242l.176,1.289a3.557,3.557,0,0,1,1.284-1.1,3.85,3.85,0,0,1,1.753-.381,3.512,3.512,0,0,1,3.052,1.558,7.047,7.047,0,0,1,1.089,4.116v.205a5.824,5.824,0,0,1-1.094,3.687,3.616,3.616,0,0,1-3.018,1.4,4.192,4.192,0,0,1-1.714-.327,3.315,3.315,0,0,1-1.255-.972v3.643l1.592.273v1.24h-5.107Zm8.662-7.91a5.609,5.609,0,0,0-.7-2.959,2.294,2.294,0,0,0-2.09-1.152,2.574,2.574,0,0,0-1.406.371,2.793,2.793,0,0,0-.947,1.016v5.146a2.513,2.513,0,0,0,2.373,1.367,2.372,2.372,0,0,0,2.07-1,4.39,4.39,0,0,0,.7-2.588Zm3.682-4.238v-1.24h3.311l.186,1.533a3.691,3.691,0,0,1,1.108-1.27,2.576,2.576,0,0,1,1.509-.459,3.28,3.28,0,0,1,.464.034,2.548,2.548,0,0,1,.366.073l-.254,1.787-1.094-.059a2.2,2.2,0,0,0-1.279.356,2.307,2.307,0,0,0-.8,1V71.5l1.592.273V73h-5.107V71.77l1.592-.273V63.947Zm8.086,3.945a5.817,5.817,0,0,1,1.27-3.862,4.694,4.694,0,0,1,6.909,0,5.8,5.8,0,0,1,1.274,3.867v.215a5.789,5.789,0,0,1-1.27,3.867,4.72,4.72,0,0,1-6.914,0,5.793,5.793,0,0,1-1.27-3.862Zm1.924.215a5.012,5.012,0,0,0,.708,2.773,2.548,2.548,0,0,0,4.185,0,4.985,4.985,0,0,0,.713-2.773v-.215a5,5,0,0,0-.713-2.764,2.54,2.54,0,0,0-4.189,0,5.049,5.049,0,0,0-.7,2.764Zm12.559,6.035a3.509,3.509,0,0,1-.84,2.515,3.066,3.066,0,0,1-2.334.884,3.336,3.336,0,0,1-.566-.044,3.9,3.9,0,0,1-.527-.132l.127-1.514a2.043,2.043,0,0,0,.4.083,3.484,3.484,0,0,0,.43.034,1.275,1.275,0,0,0,1.011-.43,2.1,2.1,0,0,0,.376-1.4V63.947l-1.592-.273v-1.24h3.516Zm-.059-14.18H136.6V57.766h1.924Zm7.188,13.516a4.457,4.457,0,0,1-3.511-1.47,5.533,5.533,0,0,1-1.3-3.813v-.43a5.418,5.418,0,0,1,1.343-3.755,4.136,4.136,0,0,1,3.179-1.5,4.005,4.005,0,0,1,3.228,1.289,5.121,5.121,0,0,1,1.1,3.438v1.2h-6.855l-.029.049a4.177,4.177,0,0,0,.771,2.5,2.458,2.458,0,0,0,2.08.981,4.84,4.84,0,0,0,1.714-.278,3.94,3.94,0,0,0,1.274-.767l.752,1.25a4.615,4.615,0,0,1-1.5.923A5.991,5.991,0,0,1,145.713,73.205Zm-.293-9.453a2.084,2.084,0,0,0-1.65.815,3.863,3.863,0,0,0-.84,2.046l.02.049h4.873v-.254a2.949,2.949,0,0,0-.605-1.895A2.157,2.157,0,0,0,145.42,63.752ZM156.387,71.7a2.594,2.594,0,0,0,1.685-.591,1.8,1.8,0,0,0,.728-1.45h1.729l.02.059a2.963,2.963,0,0,1-1.216,2.427,4.446,4.446,0,0,1-2.944,1.06,4.263,4.263,0,0,1-3.521-1.5,5.818,5.818,0,0,1-1.216-3.779v-.41a5.792,5.792,0,0,1,1.221-3.765,4.26,4.26,0,0,1,3.516-1.509,5.894,5.894,0,0,1,2.28.42,4.606,4.606,0,0,1,1.675,1.152l.088,2.344H158.9l-.42-1.66a2.544,2.544,0,0,0-.879-.537,3.374,3.374,0,0,0-1.211-.205,2.318,2.318,0,0,0-2.163,1.089,5.13,5.13,0,0,0-.649,2.671v.41a5.19,5.19,0,0,0,.645,2.7A2.322,2.322,0,0,0,156.387,71.7Zm9.395-11.816v2.549h2v1.426h-2v6.416a1.437,1.437,0,0,0,.308,1.045,1.112,1.112,0,0,0,.815.3,4.205,4.205,0,0,0,.571-.044q.317-.044.532-.093l.264,1.318a2.464,2.464,0,0,1-.8.288,5.051,5.051,0,0,1-1.055.112,2.491,2.491,0,0,1-1.865-.708,3.075,3.075,0,0,1-.693-2.222V63.859h-1.67V62.434h1.67V59.885Zm8.506,3.975V62.434h1.65V61.291a3.585,3.585,0,0,1,1.045-2.754,4.068,4.068,0,0,1,2.891-.977,5.454,5.454,0,0,1,1.289.156q.645.156,1.484.439l-.322,1.563a8.763,8.763,0,0,0-1.1-.352,4.934,4.934,0,0,0-1.2-.146,2.264,2.264,0,0,0-1.655.508,2.141,2.141,0,0,0-.5,1.563v1.143h6.025V71.5l1.592.273V73h-5.107V71.77l1.592-.273V63.859h-4.1V71.5l1.592.273V73h-5.107V71.77l1.592-.273V63.859Zm12.266-4.854v-1.24h3.516V71.5l1.592.273V73h-5.107V71.77l1.592-.273V59.279Zm11.387,14.2a4.457,4.457,0,0,1-3.511-1.47,5.533,5.533,0,0,1-1.3-3.813v-.43a5.418,5.418,0,0,1,1.343-3.755,4.136,4.136,0,0,1,3.179-1.5,4.005,4.005,0,0,1,3.228,1.289,5.121,5.121,0,0,1,1.1,3.438v1.2h-6.855l-.029.049a4.177,4.177,0,0,0,.771,2.5,2.458,2.458,0,0,0,2.08.981,4.84,4.84,0,0,0,1.714-.278,3.94,3.94,0,0,0,1.274-.767l.752,1.25a4.615,4.615,0,0,1-1.5.923A5.991,5.991,0,0,1,197.939,73.205Zm-.293-9.453a2.084,2.084,0,0,0-1.65.815,3.863,3.863,0,0,0-.84,2.046l.02.049h4.873v-.254a2.949,2.949,0,0,0-.605-1.895A2.157,2.157,0,0,0,197.646,63.752Zm14.307,2h-1.445l-.312-1.27a2.6,2.6,0,0,0-.884-.532,3.408,3.408,0,0,0-1.206-.2,2.218,2.218,0,0,0-1.523.449,1.408,1.408,0,0,0-.5,1.084,1.209,1.209,0,0,0,.439.986,4.557,4.557,0,0,0,1.787.645,7.7,7.7,0,0,1,2.979,1.167,2.352,2.352,0,0,1,.977,1.978,2.73,2.73,0,0,1-1.138,2.275,4.767,4.767,0,0,1-2.974.869A7.727,7.727,0,0,1,206,72.927a5.745,5.745,0,0,1-1.709-.806l-.01-2.412h1.445l.361,1.416a2.009,2.009,0,0,0,.9.439,5,5,0,0,0,1.167.137,2.723,2.723,0,0,0,1.606-.415,1.279,1.279,0,0,0,.581-1.089,1.31,1.31,0,0,0-.483-1.045,4.545,4.545,0,0,0-1.831-.713,7.689,7.689,0,0,1-2.9-1.143,2.3,2.3,0,0,1-.977-1.953,2.759,2.759,0,0,1,1.1-2.2,4.336,4.336,0,0,1,2.856-.908,6.936,6.936,0,0,1,2.158.313,4.5,4.5,0,0,1,1.592.869ZM216.543,73h-1.924V71.027h1.924Zm4.316,0h-1.924V71.027h1.924Zm4.092,0h-1.924V71.027h1.924Zm4.727,0h-1.924V71.027h1.924Zm62.3-1.23,2.2-.273V60.842l-2.236.039v-1.2l4.16-.9V71.5l2.188.273V73h-6.309Zm17.295-4.189a6.353,6.353,0,0,1-1.211,4.175,4.5,4.5,0,0,1-6.621,0,6.321,6.321,0,0,1-1.221-4.17V64.211a6.377,6.377,0,0,1,1.211-4.175,4.483,4.483,0,0,1,6.621,0,6.341,6.341,0,0,1,1.221,4.175ZM307.354,63.8a4.76,4.76,0,0,0-.669-2.778,2.247,2.247,0,0,0-1.948-.933,2.215,2.215,0,0,0-1.924.933,4.787,4.787,0,0,0-.664,2.778v4.17a4.781,4.781,0,0,0,.674,2.788,2.464,2.464,0,0,0,3.872,0,4.86,4.86,0,0,0,.659-2.793Zm13.33,3.779a6.353,6.353,0,0,1-1.211,4.175,4.5,4.5,0,0,1-6.621,0,6.321,6.321,0,0,1-1.221-4.17V64.211a6.377,6.377,0,0,1,1.211-4.175,4.483,4.483,0,0,1,6.621,0,6.341,6.341,0,0,1,1.221,4.175ZM318.76,63.8a4.76,4.76,0,0,0-.669-2.778,2.247,2.247,0,0,0-1.948-.933,2.215,2.215,0,0,0-1.924.933,4.787,4.787,0,0,0-.664,2.778v4.17a4.781,4.781,0,0,0,.674,2.788,2.464,2.464,0,0,0,3.872,0,4.86,4.86,0,0,0,.659-2.793Zm3.848-2.285a2.932,2.932,0,0,1,.8-2.09,2.788,2.788,0,0,1,2.129-.85,2.82,2.82,0,0,1,2.148.845,2.927,2.927,0,0,1,.8,2.095v.752a2.9,2.9,0,0,1-.8,2.08,2.8,2.8,0,0,1-2.129.84,2.833,2.833,0,0,1-2.144-.84,2.888,2.888,0,0,1-.806-2.08Zm1.426.752a1.922,1.922,0,0,0,.4,1.226,1.351,1.351,0,0,0,1.128.5,1.335,1.335,0,0,0,1.108-.5,1.917,1.917,0,0,0,.4-1.23v-.752a1.946,1.946,0,0,0-.4-1.235,1.343,1.343,0,0,0-1.123-.513,1.317,1.317,0,0,0-1.113.513,1.979,1.979,0,0,0-.391,1.235Zm5.459,7.246a2.919,2.919,0,0,1,.8-2.08,2.788,2.788,0,0,1,2.129-.85,2.824,2.824,0,0,1,2.144.845,2.905,2.905,0,0,1,.806,2.085v.762a2.91,2.91,0,0,1-.8,2.09,3.143,3.143,0,0,1-4.277,0,2.91,2.91,0,0,1-.8-2.09Zm1.426.762a1.937,1.937,0,0,0,.4,1.235,1.351,1.351,0,0,0,1.128.5,1.327,1.327,0,0,0,1.113-.5,1.953,1.953,0,0,0,.391-1.235v-.762a1.926,1.926,0,0,0-.4-1.23,1.349,1.349,0,0,0-1.123-.508,1.322,1.322,0,0,0-1.113.508,1.958,1.958,0,0,0-.391,1.23Zm-4.746,1.65-1.064-.654,6.943-11.113,1.064.654ZM344.629,65h1.68a2.241,2.241,0,0,0,1.812-.64,2.708,2.708,0,0,0,.532-1.782,2.589,2.589,0,0,0-.605-1.855,2.357,2.357,0,0,0-1.787-.635,2.476,2.476,0,0,0-1.8.659,2.332,2.332,0,0,0-.679,1.753h-1.846l-.02-.059a3.445,3.445,0,0,1,1.167-2.739,4.487,4.487,0,0,1,3.179-1.128,4.538,4.538,0,0,1,3.145,1.05,3.81,3.81,0,0,1,1.172,2.993,3.419,3.419,0,0,1-2.129,3.086,3.125,3.125,0,0,1,1.812,1.318,4.212,4.212,0,0,1-.742,5.068,4.77,4.77,0,0,1-3.257,1.113,4.888,4.888,0,0,1-3.223-1.05,3.371,3.371,0,0,1-1.221-2.847l.029-.059h1.836a2.368,2.368,0,0,0,.688,1.787,2.608,2.608,0,0,0,1.89.664,2.653,2.653,0,0,0,1.914-.664,2.6,2.6,0,0,0,.693-1.963,2.677,2.677,0,0,0-.615-1.943,2.63,2.63,0,0,0-1.943-.625h-1.68ZM360.8,68.215h1.963v1.5H360.8V71.5l1.592.273V73h-5.1V71.77l1.592-.273V69.719H352.5V68.635l6.27-9.854H360.8Zm-6.25,0h4.336V61.525l-.059-.02-.2.518ZM366.816,73h-1.924V71.027h1.924Zm9.473-11.406-.186-1.1h-4.248l-.459,3.994a4.23,4.23,0,0,1,.991-.552,3.7,3.7,0,0,1,1.274-.239,3.826,3.826,0,0,1,3.091,1.279,5.147,5.147,0,0,1,1.128,3.5,5,5,0,0,1-1.147,3.438,4.227,4.227,0,0,1-3.345,1.3,4.563,4.563,0,0,1-3-.986,3.42,3.42,0,0,1-1.147-2.9l.02-.059H371a2.262,2.262,0,0,0,2.393,2.441,2.269,2.269,0,0,0,1.895-.859,3.72,3.72,0,0,0,.674-2.354,3.564,3.564,0,0,0-.679-2.251,2.247,2.247,0,0,0-1.88-.874,3.047,3.047,0,0,0-1.646.342,1.94,1.94,0,0,0-.747,1.045l-1.6-.166.82-7.8h7.51v2.813Zm22.119.02-.049-.01L393.76,73H392.48l-4.6-11.387-.049.01.2,5.752V71.5l1.592.273V73h-5.107V71.77L386.1,71.5v-11.2l-1.592-.273v-1.24h4.053L393.1,70.334h.059l4.521-11.553h4.063v1.24l-1.592.273V71.5l1.592.273V73h-5.107V71.77l1.592-.273V67.375Zm10.938-2.832a5.6,5.6,0,0,1,3.481.962,3.408,3.408,0,0,1,1.255,2.886,2.632,2.632,0,0,1-.6,1.694,3.553,3.553,0,0,1-1.587,1.108,3.3,3.3,0,0,1,2.021,1.26,3.712,3.712,0,0,1,.742,2.295,3.619,3.619,0,0,1-1.27,2.983A5.3,5.3,0,0,1,409.951,73h-6.836V71.77l1.592-.273v-11.2l-1.592-.273v-1.24h6.23Zm-2.715,7.549V71.5h3.32A2.968,2.968,0,0,0,412,70.847a2.339,2.339,0,0,0,.728-1.841,2.922,2.922,0,0,0-.61-1.963,2.328,2.328,0,0,0-1.87-.713Zm0-1.5h3.213a2.492,2.492,0,0,0,1.675-.615,2.088,2.088,0,0,0,.64-1.621,2.063,2.063,0,0,0-.723-1.724,3.309,3.309,0,0,0-2.09-.571h-2.715ZM7.227,84.781a5.012,5.012,0,0,1,3.54,1.172,4.409,4.409,0,0,1,0,6.182A5.038,5.038,0,0,1,7.227,93.3H4.209v4.2L5.8,97.77V99H.693V97.77L2.285,97.5v-11.2L.693,86.021v-1.24H7.227ZM4.209,91.793H7.227a2.806,2.806,0,0,0,2.163-.776,2.772,2.772,0,0,0,.718-1.958,2.825,2.825,0,0,0-.718-1.973,2.776,2.776,0,0,0-2.163-.791H4.209Zm9.365-2.119v-1.24h3.311l.186,1.533a3.691,3.691,0,0,1,1.108-1.27,2.576,2.576,0,0,1,1.509-.459,3.279,3.279,0,0,1,.464.034,2.55,2.55,0,0,1,.366.073l-.254,1.787-1.094-.059a2.2,2.2,0,0,0-1.279.356,2.307,2.307,0,0,0-.8,1V97.5l1.592.273V99H13.574V97.77l1.592-.273V89.947Zm8.086,3.945a5.817,5.817,0,0,1,1.27-3.862,4.257,4.257,0,0,1,3.447-1.519,4.288,4.288,0,0,1,3.462,1.514,5.8,5.8,0,0,1,1.274,3.867v.215a5.789,5.789,0,0,1-1.27,3.867,4.275,4.275,0,0,1-3.447,1.5A4.291,4.291,0,0,1,22.93,97.7a5.793,5.793,0,0,1-1.27-3.862Zm1.924.215a5.012,5.012,0,0,0,.708,2.773,2.548,2.548,0,0,0,4.185,0,4.985,4.985,0,0,0,.713-2.773v-.215a5,5,0,0,0-.713-2.764,2.54,2.54,0,0,0-4.189,0,5.049,5.049,0,0,0-.7,2.764Zm12.559,6.035a3.509,3.509,0,0,1-.84,2.515,3.066,3.066,0,0,1-2.334.884,3.336,3.336,0,0,1-.566-.044,3.9,3.9,0,0,1-.527-.132L32,101.578a2.043,2.043,0,0,0,.4.083,3.484,3.484,0,0,0,.43.034,1.275,1.275,0,0,0,1.011-.43,2.1,2.1,0,0,0,.376-1.4V89.947l-1.592-.273v-1.24h3.516Zm-.059-14.18H34.16V83.766h1.924Zm7.188,13.516a4.457,4.457,0,0,1-3.511-1.47,5.533,5.533,0,0,1-1.3-3.813v-.43A5.418,5.418,0,0,1,39.8,89.737a4.136,4.136,0,0,1,3.179-1.5,4.005,4.005,0,0,1,3.228,1.289,5.121,5.121,0,0,1,1.1,3.438v1.2H40.449l-.029.049a4.177,4.177,0,0,0,.771,2.5,2.458,2.458,0,0,0,2.08.981,4.84,4.84,0,0,0,1.714-.278,3.94,3.94,0,0,0,1.274-.767l.752,1.25a4.615,4.615,0,0,1-1.5.923A5.991,5.991,0,0,1,43.271,99.205Zm-.293-9.453a2.084,2.084,0,0,0-1.65.815,3.863,3.863,0,0,0-.84,2.046l.02.049h4.873v-.254a2.949,2.949,0,0,0-.605-1.895A2.157,2.157,0,0,0,42.979,89.752ZM53.945,97.7a2.594,2.594,0,0,0,1.685-.591,1.8,1.8,0,0,0,.728-1.45h1.729l.02.059a2.963,2.963,0,0,1-1.216,2.427,4.446,4.446,0,0,1-2.944,1.06,4.263,4.263,0,0,1-3.521-1.5,5.818,5.818,0,0,1-1.216-3.779v-.41a5.792,5.792,0,0,1,1.221-3.765,4.26,4.26,0,0,1,3.516-1.509,5.894,5.894,0,0,1,2.28.42A4.606,4.606,0,0,1,57.9,89.811l.088,2.344H56.455l-.42-1.66a2.544,2.544,0,0,0-.879-.537,3.374,3.374,0,0,0-1.211-.205,2.318,2.318,0,0,0-2.163,1.089,5.13,5.13,0,0,0-.649,2.671v.41a5.19,5.19,0,0,0,.645,2.7A2.322,2.322,0,0,0,53.945,97.7ZM63.34,85.885v2.549h2v1.426h-2v6.416a1.437,1.437,0,0,0,.308,1.045,1.112,1.112,0,0,0,.815.3,4.205,4.205,0,0,0,.571-.044q.317-.044.532-.093L65.83,98.8a2.464,2.464,0,0,1-.8.288,5.051,5.051,0,0,1-1.055.112,2.491,2.491,0,0,1-1.865-.708,3.075,3.075,0,0,1-.693-2.222V89.859h-1.67V88.434h1.67V85.885ZM72.012,97.77,73.6,97.5V85.279l-1.592-.273v-1.24h3.516V89.84a3.865,3.865,0,0,1,1.338-1.182,3.69,3.69,0,0,1,1.758-.42,3.409,3.409,0,0,1,2.637,1.016,4.484,4.484,0,0,1,.938,3.125V97.5l1.592.273V99H78.682V97.77l1.592-.273V92.359a2.828,2.828,0,0,0-.562-1.934,2.137,2.137,0,0,0-1.675-.625,2.823,2.823,0,0,0-1.44.376A3.141,3.141,0,0,0,75.527,91.2v6.3l1.592.273V99H72.012ZM92.08,99q-.088-.43-.137-.771t-.068-.684a4.655,4.655,0,0,1-1.392,1.187,3.986,3.986,0,0,1-4.292-.332,2.96,2.96,0,0,1-.859-2.271,2.63,2.63,0,0,1,1.216-2.319,5.925,5.925,0,0,1,3.335-.815h1.982v-1.23a1.9,1.9,0,0,0-.586-1.47,2.311,2.311,0,0,0-1.631-.542,4,4,0,0,0-1.274.186,2.393,2.393,0,0,0-.894.508l-.205,1.113H85.791V89.508a5.708,5.708,0,0,1,1.748-.923,6.911,6.911,0,0,1,2.227-.347,4.426,4.426,0,0,1,2.91.918,3.211,3.211,0,0,1,1.113,2.627v5.088q0,.205,0,.4t.024.391l.781.107V99Zm-3.1-1.406a3.42,3.42,0,0,0,1.748-.459,2.847,2.847,0,0,0,1.133-1.1V94.293H89.814a2.926,2.926,0,0,0-1.87.547,1.644,1.644,0,0,0-.688,1.328,1.315,1.315,0,0,0,.43,1.06A1.963,1.963,0,0,0,88.984,97.594Zm15.3-5.84h-1.445l-.312-1.27a2.6,2.6,0,0,0-.884-.532,3.408,3.408,0,0,0-1.206-.2,2.218,2.218,0,0,0-1.523.449,1.408,1.408,0,0,0-.5,1.084,1.209,1.209,0,0,0,.439.986,4.557,4.557,0,0,0,1.787.645,7.7,7.7,0,0,1,2.979,1.167,2.352,2.352,0,0,1,.977,1.978,2.73,2.73,0,0,1-1.138,2.275,4.766,4.766,0,0,1-2.974.869,7.727,7.727,0,0,1-2.158-.278,5.745,5.745,0,0,1-1.709-.806l-.01-2.412h1.445l.361,1.416a2.009,2.009,0,0,0,.9.439,5,5,0,0,0,1.167.137,2.723,2.723,0,0,0,1.606-.415,1.279,1.279,0,0,0,.581-1.089,1.31,1.31,0,0,0-.483-1.045,4.545,4.545,0,0,0-1.831-.713,7.689,7.689,0,0,1-2.9-1.143,2.3,2.3,0,0,1-.977-1.953,2.759,2.759,0,0,1,1.1-2.2,4.336,4.336,0,0,1,2.856-.908,6.936,6.936,0,0,1,2.158.313,4.5,4.5,0,0,1,1.592.869Zm15.166,0h-1.445l-.312-1.27a2.6,2.6,0,0,0-.884-.532,3.408,3.408,0,0,0-1.206-.2,2.218,2.218,0,0,0-1.523.449,1.408,1.408,0,0,0-.5,1.084,1.209,1.209,0,0,0,.439.986,4.557,4.557,0,0,0,1.787.645,7.7,7.7,0,0,1,2.979,1.167,2.352,2.352,0,0,1,.977,1.978,2.73,2.73,0,0,1-1.138,2.275,4.766,4.766,0,0,1-2.974.869,7.727,7.727,0,0,1-2.158-.278,5.745,5.745,0,0,1-1.709-.806l-.01-2.412h1.445l.361,1.416a2.009,2.009,0,0,0,.9.439,5,5,0,0,0,1.167.137,2.723,2.723,0,0,0,1.606-.415,1.279,1.279,0,0,0,.581-1.089,1.31,1.31,0,0,0-.483-1.045,4.545,4.545,0,0,0-1.831-.713,7.689,7.689,0,0,1-2.9-1.143,2.3,2.3,0,0,1-.977-1.953,2.759,2.759,0,0,1,1.1-2.2,4.336,4.336,0,0,1,2.856-.908,6.936,6.936,0,0,1,2.158.313,4.5,4.5,0,0,1,1.592.869Zm9.668,5.684a3.566,3.566,0,0,1-1.284,1.309,3.526,3.526,0,0,1-1.812.459,3.383,3.383,0,0,1-2.686-1.1,5.124,5.124,0,0,1-.967-3.437V89.947l-1.211-.273v-1.24H124.3v6.25a3.934,3.934,0,0,0,.5,2.324,1.852,1.852,0,0,0,1.553.635,3.164,3.164,0,0,0,1.694-.415,2.6,2.6,0,0,0,1.011-1.177v-6.1l-1.416-.273v-1.24h3.34V97.5l1.211.273V99h-2.939Zm9.336.264a2.594,2.594,0,0,0,1.685-.591,1.8,1.8,0,0,0,.728-1.45H142.6l.02.059a2.963,2.963,0,0,1-1.216,2.427,4.446,4.446,0,0,1-2.944,1.06,4.263,4.263,0,0,1-3.521-1.5,5.818,5.818,0,0,1-1.216-3.779v-.41a5.792,5.792,0,0,1,1.221-3.765,4.26,4.26,0,0,1,3.516-1.509,5.894,5.894,0,0,1,2.28.42,4.606,4.606,0,0,1,1.675,1.152l.088,2.344h-1.533l-.42-1.66a2.544,2.544,0,0,0-.879-.537,3.374,3.374,0,0,0-1.211-.205,2.318,2.318,0,0,0-2.163,1.089,5.13,5.13,0,0,0-.649,2.671v.41a5.19,5.19,0,0,0,.645,2.7A2.322,2.322,0,0,0,138.457,97.7Zm10.781,0a2.594,2.594,0,0,0,1.685-.591,1.8,1.8,0,0,0,.728-1.45h1.729l.02.059a2.963,2.963,0,0,1-1.216,2.427,4.446,4.446,0,0,1-2.944,1.06,4.263,4.263,0,0,1-3.521-1.5,5.818,5.818,0,0,1-1.216-3.779v-.41a5.792,5.792,0,0,1,1.221-3.765,4.26,4.26,0,0,1,3.516-1.509,5.894,5.894,0,0,1,2.28.42,4.606,4.606,0,0,1,1.675,1.152l.088,2.344h-1.533l-.42-1.66a2.544,2.544,0,0,0-.879-.537,3.374,3.374,0,0,0-1.211-.205,2.318,2.318,0,0,0-2.163,1.089,5.13,5.13,0,0,0-.649,2.671v.41a5.19,5.19,0,0,0,.645,2.7A2.322,2.322,0,0,0,149.238,97.7Zm10.859,1.5a4.457,4.457,0,0,1-3.511-1.47,5.533,5.533,0,0,1-1.3-3.813v-.43a5.418,5.418,0,0,1,1.343-3.755,4.136,4.136,0,0,1,3.179-1.5,4.005,4.005,0,0,1,3.228,1.289,5.121,5.121,0,0,1,1.1,3.438v1.2h-6.855l-.029.049a4.177,4.177,0,0,0,.771,2.5,2.458,2.458,0,0,0,2.08.981,4.84,4.84,0,0,0,1.714-.278,3.94,3.94,0,0,0,1.274-.767l.752,1.25a4.615,4.615,0,0,1-1.5.923A5.991,5.991,0,0,1,160.1,99.205Zm-.293-9.453a2.084,2.084,0,0,0-1.65.815,3.863,3.863,0,0,0-.84,2.046l.02.049h4.873v-.254a2.949,2.949,0,0,0-.605-1.895A2.157,2.157,0,0,0,159.8,89.752Zm14.307,2h-1.445l-.312-1.27a2.6,2.6,0,0,0-.884-.532,3.408,3.408,0,0,0-1.206-.2,2.218,2.218,0,0,0-1.523.449,1.408,1.408,0,0,0-.5,1.084,1.209,1.209,0,0,0,.439.986,4.557,4.557,0,0,0,1.787.645,7.7,7.7,0,0,1,2.979,1.167,2.352,2.352,0,0,1,.977,1.978,2.73,2.73,0,0,1-1.138,2.275,4.767,4.767,0,0,1-2.974.869,7.727,7.727,0,0,1-2.158-.278,5.745,5.745,0,0,1-1.709-.806l-.01-2.412h1.445l.361,1.416a2.009,2.009,0,0,0,.9.439,5,5,0,0,0,1.167.137,2.723,2.723,0,0,0,1.606-.415A1.279,1.279,0,0,0,172.5,96.2a1.31,1.31,0,0,0-.483-1.045,4.545,4.545,0,0,0-1.831-.713,7.689,7.689,0,0,1-2.9-1.143,2.3,2.3,0,0,1-.977-1.953,2.759,2.759,0,0,1,1.1-2.2,4.336,4.336,0,0,1,2.856-.908,6.936,6.936,0,0,1,2.158.313,4.5,4.5,0,0,1,1.592.869Zm10.2,0h-1.445l-.312-1.27a2.6,2.6,0,0,0-.884-.532,3.408,3.408,0,0,0-1.206-.2,2.218,2.218,0,0,0-1.523.449,1.408,1.408,0,0,0-.5,1.084,1.209,1.209,0,0,0,.439.986,4.557,4.557,0,0,0,1.787.645,7.7,7.7,0,0,1,2.979,1.167,2.352,2.352,0,0,1,.977,1.978,2.73,2.73,0,0,1-1.138,2.275,4.767,4.767,0,0,1-2.974.869,7.727,7.727,0,0,1-2.158-.278,5.745,5.745,0,0,1-1.709-.806l-.01-2.412h1.445l.361,1.416a2.009,2.009,0,0,0,.9.439,5,5,0,0,0,1.167.137,2.723,2.723,0,0,0,1.606-.415A1.279,1.279,0,0,0,182.7,96.2a1.31,1.31,0,0,0-.483-1.045,4.545,4.545,0,0,0-1.831-.713,7.689,7.689,0,0,1-2.9-1.143,2.3,2.3,0,0,1-.977-1.953,2.759,2.759,0,0,1,1.1-2.2,4.336,4.336,0,0,1,2.856-.908,6.936,6.936,0,0,1,2.158.313,4.5,4.5,0,0,1,1.592.869Zm1.924-1.895V88.434h1.65V87.1a3.626,3.626,0,0,1,.884-2.612,3.253,3.253,0,0,1,2.466-.923,4.244,4.244,0,0,1,.669.054q.337.054.747.151l-.234,1.465q-.176-.039-.425-.068a4.386,4.386,0,0,0-.513-.029,1.53,1.53,0,0,0-1.26.5,2.262,2.262,0,0,0-.41,1.46v1.338h2.207v1.426H189.8V97.5l1.592.273V99h-5.107V97.77l1.592-.273V89.859Zm14.854,7.578a3.566,3.566,0,0,1-1.284,1.309,3.526,3.526,0,0,1-1.812.459,3.383,3.383,0,0,1-2.686-1.1,5.124,5.124,0,0,1-.967-3.437V89.947l-1.211-.273v-1.24h3.135v6.25a3.934,3.934,0,0,0,.5,2.324,1.852,1.852,0,0,0,1.553.635A3.164,3.164,0,0,0,200,97.228a2.6,2.6,0,0,0,1.011-1.177v-6.1l-1.416-.273v-1.24h3.34V97.5l1.211.273V99h-2.939Zm4.326-12.432v-1.24h3.516V97.5l1.592.273V99H205.41V97.77L207,97.5V85.279Zm6.3,0v-1.24h3.516V97.5l1.592.273V99h-5.107V97.77L213.3,97.5V85.279Zm16.6,4.668-.947.146-4.023,10.8a5.44,5.44,0,0,1-1.152,1.855,2.657,2.657,0,0,1-2.021.791,4.167,4.167,0,0,1-.586-.054q-.361-.054-.557-.1l.2-1.514a2.578,2.578,0,0,1,.347.02q.405.029.513.029a1.172,1.172,0,0,0,1-.532,5.987,5.987,0,0,0,.664-1.226l.459-1.094-3.486-8.965-.967-.156v-1.24h4.268v1.24l-1.191.2,1.826,5.215L223,96.432h.059l2.2-6.562-1.2-.2v-1.24h4.258Zm13.838,7.764a3.566,3.566,0,0,1-1.284,1.309,3.526,3.526,0,0,1-1.812.459,3.383,3.383,0,0,1-2.686-1.1,5.124,5.124,0,0,1-.967-3.437V89.947l-1.211-.273v-1.24h3.135v6.25a3.934,3.934,0,0,0,.5,2.324,1.852,1.852,0,0,0,1.553.635,3.164,3.164,0,0,0,1.694-.415,2.6,2.6,0,0,0,1.011-1.177v-6.1l-1.416-.273v-1.24H244V97.5l1.211.273V99h-2.939Zm4.355,4.385,1.592-.273v-11.6l-1.592-.273v-1.24h3.242l.176,1.289a3.557,3.557,0,0,1,1.284-1.1,3.85,3.85,0,0,1,1.753-.381,3.512,3.512,0,0,1,3.052,1.558,7.047,7.047,0,0,1,1.089,4.116v.205a5.824,5.824,0,0,1-1.094,3.687,3.616,3.616,0,0,1-3.018,1.4,4.192,4.192,0,0,1-1.714-.327,3.315,3.315,0,0,1-1.255-.972v3.643l1.592.273v1.24H246.5Zm8.662-7.91a5.609,5.609,0,0,0-.7-2.959,2.294,2.294,0,0,0-2.09-1.152,2.574,2.574,0,0,0-1.406.371,2.793,2.793,0,0,0-.947,1.016v5.146a2.513,2.513,0,0,0,2.373,1.367,2.372,2.372,0,0,0,2.07-1,4.39,4.39,0,0,0,.7-2.588Zm3.32-8.906v-1.24H262V97.5l1.592.273V99h-5.107V97.77l1.592-.273V85.279Zm6.377,8.613a5.817,5.817,0,0,1,1.27-3.862,4.694,4.694,0,0,1,6.909,0,5.8,5.8,0,0,1,1.274,3.867v.215a5.789,5.789,0,0,1-1.27,3.867,4.72,4.72,0,0,1-6.914,0,5.793,5.793,0,0,1-1.27-3.862Zm1.924.215a5.012,5.012,0,0,0,.708,2.773,2.548,2.548,0,0,0,4.185,0,4.985,4.985,0,0,0,.713-2.773v-.215a5,5,0,0,0-.713-2.764,2.54,2.54,0,0,0-4.189,0,5.049,5.049,0,0,0-.7,2.764ZM282.969,99q-.088-.43-.137-.771t-.068-.684a4.655,4.655,0,0,1-1.392,1.187,3.986,3.986,0,0,1-4.292-.332,2.96,2.96,0,0,1-.859-2.271,2.63,2.63,0,0,1,1.216-2.319,5.925,5.925,0,0,1,3.335-.815h1.982v-1.23a1.9,1.9,0,0,0-.586-1.47,2.311,2.311,0,0,0-1.631-.542,4,4,0,0,0-1.274.186,2.393,2.393,0,0,0-.894.508l-.205,1.113H276.68V89.508a5.708,5.708,0,0,1,1.748-.923,6.911,6.911,0,0,1,2.227-.347,4.426,4.426,0,0,1,2.91.918,3.211,3.211,0,0,1,1.113,2.627v5.088q0,.205,0,.4t.024.391l.781.107V99Zm-3.1-1.406a3.42,3.42,0,0,0,1.748-.459,2.847,2.847,0,0,0,1.133-1.1V94.293H280.7a2.926,2.926,0,0,0-1.87.547,1.644,1.644,0,0,0-.688,1.328,1.315,1.315,0,0,0,.43,1.06A1.963,1.963,0,0,0,279.873,97.594Zm14.336.146a3.411,3.411,0,0,1-1.265,1.094,3.849,3.849,0,0,1-1.733.371,3.613,3.613,0,0,1-3.022-1.4,5.842,5.842,0,0,1-1.089-3.687v-.205a7.051,7.051,0,0,1,1.089-4.111,3.5,3.5,0,0,1,3.042-1.562,3.762,3.762,0,0,1,1.655.347,3.42,3.42,0,0,1,1.226,1V85.279l-1.592-.273v-1.24h3.516V97.5l1.592.273V99h-3.262Zm-5.186-3.623a4.49,4.49,0,0,0,.654,2.559,2.271,2.271,0,0,0,2.021.967,2.548,2.548,0,0,0,1.445-.391,2.978,2.978,0,0,0,.967-1.1v-4.9a2.965,2.965,0,0,0-.967-1.055,2.542,2.542,0,0,0-1.426-.391,2.191,2.191,0,0,0-2.036,1.143,5.9,5.9,0,0,0-.659,2.969Zm18.154-2.363h-1.445l-.312-1.27a2.6,2.6,0,0,0-.884-.532,3.408,3.408,0,0,0-1.206-.2,2.218,2.218,0,0,0-1.523.449,1.408,1.408,0,0,0-.5,1.084,1.209,1.209,0,0,0,.439.986,4.557,4.557,0,0,0,1.787.645,7.7,7.7,0,0,1,2.979,1.167,2.352,2.352,0,0,1,.977,1.978,2.73,2.73,0,0,1-1.138,2.275,4.766,4.766,0,0,1-2.974.869,7.727,7.727,0,0,1-2.158-.278,5.745,5.745,0,0,1-1.709-.806l-.01-2.412h1.445l.361,1.416a2.009,2.009,0,0,0,.9.439,5,5,0,0,0,1.167.137,2.723,2.723,0,0,0,1.606-.415,1.279,1.279,0,0,0,.581-1.089,1.31,1.31,0,0,0-.483-1.045,4.545,4.545,0,0,0-1.831-.713,7.689,7.689,0,0,1-2.9-1.143,2.3,2.3,0,0,1-.977-1.953,2.759,2.759,0,0,1,1.1-2.2,4.336,4.336,0,0,1,2.856-.908,6.936,6.936,0,0,1,2.158.313,4.5,4.5,0,0,1,1.592.869ZM316.729,99H314.8V97.027h1.924Zm0-8.594H314.8V88.434h1.924Zm6.094,2.91a13.032,13.032,0,0,1-1.558,6.577,9.055,9.055,0,0,1-3.257,3.628h-.059l-.361-1.055a8.281,8.281,0,0,0,2.314-3.374,14.75,14.75,0,0,0,1-5.757v-.127a14.244,14.244,0,0,0-1.025-5.7,9.376,9.376,0,0,0-2.285-3.428l.361-1.055h.059a9.051,9.051,0,0,1,3.257,3.633,13.039,13.039,0,0,1,1.558,6.572ZM4.951,112.021l-1.3.205,3.184,9.238.322,1.123h.059l.322-1.123,3.174-9.248-1.279-.2v-1.24h4.482v1.24l-1.143.156L8.008,125H6.357L1.592,112.178l-1.133-.156v-1.24H4.951ZM15.225,123.77l1.592-.273v-7.549l-1.592-.273v-1.24H18.74V123.5l1.592.273V125H15.225Zm3.516-12.041H16.816v-1.963H18.74Zm11.143,6.025H28.438l-.312-1.27a2.6,2.6,0,0,0-.884-.532,3.408,3.408,0,0,0-1.206-.2,2.218,2.218,0,0,0-1.523.449,1.408,1.408,0,0,0-.5,1.084,1.209,1.209,0,0,0,.439.986,4.557,4.557,0,0,0,1.787.645,7.7,7.7,0,0,1,2.979,1.167,2.352,2.352,0,0,1,.977,1.978,2.73,2.73,0,0,1-1.138,2.275,4.766,4.766,0,0,1-2.974.869,7.727,7.727,0,0,1-2.158-.278,5.745,5.745,0,0,1-1.709-.806l-.01-2.412h1.445l.361,1.416a2.009,2.009,0,0,0,.9.439,5,5,0,0,0,1.167.137,2.723,2.723,0,0,0,1.606-.415,1.279,1.279,0,0,0,.581-1.089,1.31,1.31,0,0,0-.483-1.045,4.545,4.545,0,0,0-1.831-.713,7.689,7.689,0,0,1-2.9-1.143,2.3,2.3,0,0,1-.977-1.953,2.759,2.759,0,0,1,1.1-2.2,4.336,4.336,0,0,1,2.856-.908,6.936,6.936,0,0,1,2.158.313,4.5,4.5,0,0,1,1.592.869Zm2.109,6.016,1.592-.273v-7.549l-1.592-.273v-1.24h3.516V123.5l1.592.273V125H31.992Zm3.516-12.041H33.584v-1.963h1.924Zm6.416.156v2.549h2v1.426h-2v6.416a1.437,1.437,0,0,0,.308,1.045,1.112,1.112,0,0,0,.815.3,4.205,4.205,0,0,0,.571-.044q.317-.044.532-.093l.264,1.318a2.464,2.464,0,0,1-.8.288,5.051,5.051,0,0,1-1.055.112,2.491,2.491,0,0,1-1.865-.708A3.075,3.075,0,0,1,40,122.275v-6.416H38.33v-1.426H40v-2.549ZM50.6,123.77l1.592-.273V111.279l-1.592-.273v-1.24h3.516v6.074a3.865,3.865,0,0,1,1.338-1.182,3.69,3.69,0,0,1,1.758-.42,3.409,3.409,0,0,1,2.637,1.016,4.484,4.484,0,0,1,.938,3.125V123.5l1.592.273V125H57.266v-1.23l1.592-.273v-5.137a2.828,2.828,0,0,0-.562-1.934,2.137,2.137,0,0,0-1.675-.625,2.823,2.823,0,0,0-1.44.376,3.141,3.141,0,0,0-1.069,1.021v6.3l1.592.273V125H50.6Zm16.533-11.885v2.549h2v1.426h-2v6.416a1.437,1.437,0,0,0,.308,1.045,1.112,1.112,0,0,0,.815.3,4.205,4.205,0,0,0,.571-.044q.317-.044.532-.093l.264,1.318a2.464,2.464,0,0,1-.8.288,5.051,5.051,0,0,1-1.055.112A2.491,2.491,0,0,1,65.9,124.5a3.075,3.075,0,0,1-.693-2.222v-6.416h-1.67v-1.426h1.67v-2.549Zm7.324,0v2.549h2v1.426h-2v6.416a1.437,1.437,0,0,0,.308,1.045,1.112,1.112,0,0,0,.815.3,4.205,4.205,0,0,0,.571-.044q.317-.044.532-.093l.264,1.318a2.464,2.464,0,0,1-.8.288,5.051,5.051,0,0,1-1.055.112,2.491,2.491,0,0,1-1.865-.708,3.075,3.075,0,0,1-.693-2.222v-6.416h-1.67v-1.426h1.67v-2.549Zm3.73,15.938,1.592-.273v-11.6l-1.592-.273v-1.24h3.242l.176,1.289a3.557,3.557,0,0,1,1.284-1.1,3.85,3.85,0,0,1,1.753-.381A3.512,3.512,0,0,1,87.69,115.8a7.047,7.047,0,0,1,1.089,4.116v.205a5.824,5.824,0,0,1-1.094,3.687,3.616,3.616,0,0,1-3.018,1.4,4.192,4.192,0,0,1-1.714-.327,3.315,3.315,0,0,1-1.255-.972v3.643l1.592.273v1.24H78.184Zm8.662-7.91a5.609,5.609,0,0,0-.7-2.959,2.294,2.294,0,0,0-2.09-1.152,2.574,2.574,0,0,0-1.406.371,2.793,2.793,0,0,0-.947,1.016v5.146a2.513,2.513,0,0,0,2.373,1.367,2.372,2.372,0,0,0,2.07-1,4.39,4.39,0,0,0,.7-2.588ZM93,125H91.074v-1.973H93Zm0-8.594H91.074v-1.973H93Zm2.383,9.814H93.75l5.938-15.439h1.621Zm5.859,0H99.609l5.938-15.439h1.621Zm12.031-2.52a2.594,2.594,0,0,0,1.685-.591,1.8,1.8,0,0,0,.728-1.45h1.729l.02.059a2.963,2.963,0,0,1-1.216,2.427,4.446,4.446,0,0,1-2.944,1.06,4.263,4.263,0,0,1-3.521-1.5,5.818,5.818,0,0,1-1.216-3.779v-.41a5.792,5.792,0,0,1,1.221-3.765,4.26,4.26,0,0,1,3.516-1.509,5.894,5.894,0,0,1,2.28.42,4.606,4.606,0,0,1,1.675,1.152l.088,2.344h-1.533l-.42-1.66a2.545,2.545,0,0,0-.879-.537,3.374,3.374,0,0,0-1.211-.205,2.318,2.318,0,0,0-2.163,1.089,5.13,5.13,0,0,0-.649,2.671v.41a5.19,5.19,0,0,0,.645,2.7A2.322,2.322,0,0,0,113.271,123.7Zm6.045-4.082a5.817,5.817,0,0,1,1.27-3.862,4.694,4.694,0,0,1,6.909,0,5.8,5.8,0,0,1,1.274,3.867v.215a5.789,5.789,0,0,1-1.27,3.867,4.72,4.72,0,0,1-6.914,0,5.793,5.793,0,0,1-1.27-3.862Zm1.924.215a5.012,5.012,0,0,0,.708,2.773,2.548,2.548,0,0,0,4.185,0,4.985,4.985,0,0,0,.713-2.773v-.215a5,5,0,0,0-.713-2.764,2.54,2.54,0,0,0-4.189,0,5.049,5.049,0,0,0-.7,2.764Zm8.906,3.936,1.592-.273v-7.549l-1.592-.273v-1.24h3.32l.127,1.377a3.459,3.459,0,0,1,1.309-1.162,4.016,4.016,0,0,1,1.855-.41,3.269,3.269,0,0,1,1.812.488,2.954,2.954,0,0,1,1.138,1.465,3.92,3.92,0,0,1,1.318-1.426,3.461,3.461,0,0,1,1.914-.527,3.174,3.174,0,0,1,2.559,1.108,5.064,5.064,0,0,1,.938,3.335V123.5l1.592.273V125H142.91v-1.23l1.592-.273v-4.834a3.512,3.512,0,0,0-.537-2.212,1.947,1.947,0,0,0-1.592-.649,2.029,2.029,0,0,0-1.616.708,3.078,3.078,0,0,0-.708,1.782V123.5l1.592.273V125h-5.107v-1.23l1.592-.273v-4.834a3.465,3.465,0,0,0-.552-2.173,1.926,1.926,0,0,0-1.6-.688,2.643,2.643,0,0,0-1.445.361,2.334,2.334,0,0,0-.869,1.016V123.5l1.592.273V125h-5.107Zm19.043,4.053,1.592-.273v-11.6l-1.592-.273v-1.24h3.242l.176,1.289a3.557,3.557,0,0,1,1.284-1.1,3.85,3.85,0,0,1,1.753-.381A3.512,3.512,0,0,1,158.7,115.8a7.047,7.047,0,0,1,1.089,4.116v.205a5.824,5.824,0,0,1-1.094,3.687,3.616,3.616,0,0,1-3.018,1.4,4.192,4.192,0,0,1-1.714-.327,3.315,3.315,0,0,1-1.255-.972v3.643l1.592.273v1.24h-5.107Zm8.662-7.91a5.609,5.609,0,0,0-.7-2.959,2.294,2.294,0,0,0-2.09-1.152,2.574,2.574,0,0,0-1.406.371,2.793,2.793,0,0,0-.947,1.016v5.146a2.513,2.513,0,0,0,2.373,1.367,2.372,2.372,0,0,0,2.07-1,4.39,4.39,0,0,0,.7-2.588ZM168.428,125q-.088-.43-.137-.771t-.068-.684a4.655,4.655,0,0,1-1.392,1.187,3.986,3.986,0,0,1-4.292-.332,2.96,2.96,0,0,1-.859-2.271,2.63,2.63,0,0,1,1.216-2.319,5.925,5.925,0,0,1,3.335-.815h1.982v-1.23a1.9,1.9,0,0,0-.586-1.47,2.311,2.311,0,0,0-1.631-.542,4,4,0,0,0-1.274.186,2.393,2.393,0,0,0-.894.508l-.205,1.113h-1.484v-2.051a5.708,5.708,0,0,1,1.748-.923,6.911,6.911,0,0,1,2.227-.347,4.426,4.426,0,0,1,2.91.918,3.211,3.211,0,0,1,1.113,2.627v5.088q0,.205,0,.4t.024.391l.781.107V125Zm-3.1-1.406a3.42,3.42,0,0,0,1.748-.459,2.847,2.847,0,0,0,1.133-1.1v-1.738h-2.051a2.926,2.926,0,0,0-1.87.547,1.644,1.644,0,0,0-.688,1.328,1.315,1.315,0,0,0,.43,1.06A1.963,1.963,0,0,0,165.332,123.594Zm6.934.176,1.592-.273v-7.549l-1.592-.273v-1.24h3.311l.137,1.572a3.837,3.837,0,0,1,1.323-1.3,3.531,3.531,0,0,1,1.812-.464,3.449,3.449,0,0,1,2.646,1,4.394,4.394,0,0,1,.938,3.091V123.5l1.592.273V125h-5.107v-1.23l1.592-.273v-5.127a2.858,2.858,0,0,0-.552-1.982,2.21,2.21,0,0,0-1.685-.586,2.712,2.712,0,0,0-1.47.4,2.924,2.924,0,0,0-1.021,1.094v6.2l1.592.273V125h-5.107Zm23.193-8.1-.947.146-4.023,10.8a5.44,5.44,0,0,1-1.152,1.855,2.657,2.657,0,0,1-2.021.791,4.165,4.165,0,0,1-.586-.054q-.361-.054-.557-.1l.2-1.514a2.578,2.578,0,0,1,.347.02q.405.029.513.029a1.172,1.172,0,0,0,1-.532,5.987,5.987,0,0,0,.664-1.226l.459-1.094-3.486-8.965-.967-.156v-1.24h4.268v1.24l-1.191.2,1.826,5.215.352,1.348h.059l2.2-6.562-1.2-.2v-1.24h4.258ZM198.193,125H196.27v-1.973h1.924Zm6.094-9.326-1.211.215,1.377,5.264.225,1.279h.059l.273-1.279,2.109-6.719h1.543l2.119,6.719.3,1.426h.059l.283-1.426,1.3-5.264-1.23-.215v-1.24h4.023v1.24l-.918.137L211.934,125h-1.553l-2.051-6.436-.439-1.777-.059.01-.41,1.768L205.41,125h-1.553l-2.666-9.189-.928-.137v-1.24h4.023ZM223.965,125q-.088-.43-.137-.771t-.068-.684a4.655,4.655,0,0,1-1.392,1.187,3.986,3.986,0,0,1-4.292-.332,2.96,2.96,0,0,1-.859-2.271,2.63,2.63,0,0,1,1.216-2.319,5.925,5.925,0,0,1,3.335-.815h1.982v-1.23a1.9,1.9,0,0,0-.586-1.47,2.311,2.311,0,0,0-1.631-.542,4,4,0,0,0-1.274.186,2.393,2.393,0,0,0-.894.508l-.205,1.113h-1.484v-2.051a5.708,5.708,0,0,1,1.748-.923,6.911,6.911,0,0,1,2.227-.347,4.426,4.426,0,0,1,2.91.918,3.211,3.211,0,0,1,1.113,2.627v5.088q0,.205,0,.4t.024.391l.781.107V125Zm-3.1-1.406a3.42,3.42,0,0,0,1.748-.459,2.847,2.847,0,0,0,1.133-1.1v-1.738H221.7a2.926,2.926,0,0,0-1.87.547,1.644,1.644,0,0,0-.688,1.328,1.315,1.315,0,0,0,.43,1.06A1.963,1.963,0,0,0,220.869,123.594Zm15.3-5.84h-1.445l-.312-1.27a2.6,2.6,0,0,0-.884-.532,3.408,3.408,0,0,0-1.206-.2,2.218,2.218,0,0,0-1.523.449,1.408,1.408,0,0,0-.5,1.084,1.209,1.209,0,0,0,.439.986,4.557,4.557,0,0,0,1.787.645,7.7,7.7,0,0,1,2.979,1.167,2.352,2.352,0,0,1,.977,1.978,2.73,2.73,0,0,1-1.138,2.275,4.767,4.767,0,0,1-2.974.869,7.727,7.727,0,0,1-2.158-.278,5.745,5.745,0,0,1-1.709-.806l-.01-2.412h1.445l.361,1.416a2.009,2.009,0,0,0,.9.439,5,5,0,0,0,1.167.137,2.723,2.723,0,0,0,1.606-.415,1.279,1.279,0,0,0,.581-1.089,1.31,1.31,0,0,0-.483-1.045,4.545,4.545,0,0,0-1.831-.713,7.689,7.689,0,0,1-2.9-1.143,2.3,2.3,0,0,1-.977-1.953,2.759,2.759,0,0,1,1.1-2.2,4.336,4.336,0,0,1,2.856-.908,6.936,6.936,0,0,1,2.158.313,4.5,4.5,0,0,1,1.592.869Zm1.729,6.016,1.592-.273v-7.549l-1.592-.273v-1.24h3.32l.127,1.377a3.459,3.459,0,0,1,1.309-1.162,4.016,4.016,0,0,1,1.855-.41,3.269,3.269,0,0,1,1.812.488,2.954,2.954,0,0,1,1.138,1.465,3.92,3.92,0,0,1,1.318-1.426,3.461,3.461,0,0,1,1.914-.527,3.174,3.174,0,0,1,2.559,1.108,5.064,5.064,0,0,1,.938,3.335V123.5l1.592.273V125h-5.117v-1.23l1.592-.273v-4.834a3.512,3.512,0,0,0-.537-2.212,1.947,1.947,0,0,0-1.592-.649,2.029,2.029,0,0,0-1.616.708,3.078,3.078,0,0,0-.708,1.782V123.5l1.592.273V125h-5.107v-1.23l1.592-.273v-4.834a3.465,3.465,0,0,0-.552-2.173,1.926,1.926,0,0,0-1.6-.688,2.643,2.643,0,0,0-1.445.361,2.334,2.334,0,0,0-.869,1.016V123.5l1.592.273V125H237.9Zm23.926-.068a2.594,2.594,0,0,0,1.685-.591,1.8,1.8,0,0,0,.728-1.45h1.729l.02.059a2.963,2.963,0,0,1-1.216,2.427,4.446,4.446,0,0,1-2.944,1.06,4.263,4.263,0,0,1-3.521-1.5,5.818,5.818,0,0,1-1.216-3.779v-.41a5.792,5.792,0,0,1,1.221-3.765,4.26,4.26,0,0,1,3.516-1.509,5.894,5.894,0,0,1,2.28.42,4.606,4.606,0,0,1,1.675,1.152l.088,2.344h-1.533l-.42-1.66a2.545,2.545,0,0,0-.879-.537,3.374,3.374,0,0,0-1.211-.205,2.318,2.318,0,0,0-2.163,1.089,5.13,5.13,0,0,0-.649,2.671v.41a5.19,5.19,0,0,0,.645,2.7A2.322,2.322,0,0,0,261.826,123.7Zm6.045-4.082a5.817,5.817,0,0,1,1.27-3.862,4.694,4.694,0,0,1,6.909,0,5.8,5.8,0,0,1,1.274,3.867v.215a5.789,5.789,0,0,1-1.27,3.867,4.72,4.72,0,0,1-6.914,0,5.793,5.793,0,0,1-1.27-3.862Zm1.924.215a5.012,5.012,0,0,0,.708,2.773,2.548,2.548,0,0,0,4.185,0,4.985,4.985,0,0,0,.713-2.773v-.215a5,5,0,0,0-.713-2.764,2.54,2.54,0,0,0-4.189,0,5.049,5.049,0,0,0-.7,2.764Zm8.906,3.936,1.592-.273v-7.549l-1.592-.273v-1.24h3.32l.127,1.377a3.459,3.459,0,0,1,1.309-1.162,4.016,4.016,0,0,1,1.855-.41,3.269,3.269,0,0,1,1.812.488,2.954,2.954,0,0,1,1.138,1.465,3.92,3.92,0,0,1,1.318-1.426,3.462,3.462,0,0,1,1.914-.527,3.174,3.174,0,0,1,2.559,1.108,5.064,5.064,0,0,1,.938,3.335V123.5l1.592.273V125h-5.117v-1.23l1.592-.273v-4.834a3.512,3.512,0,0,0-.537-2.212,1.946,1.946,0,0,0-1.592-.649,2.029,2.029,0,0,0-1.616.708,3.078,3.078,0,0,0-.708,1.782V123.5l1.592.273V125h-5.107v-1.23l1.592-.273v-4.834a3.465,3.465,0,0,0-.552-2.173,1.926,1.926,0,0,0-1.6-.688,2.643,2.643,0,0,0-1.445.361,2.334,2.334,0,0,0-.869,1.016V123.5l1.592.273V125H278.7Zm19.043,4.053,1.592-.273v-11.6l-1.592-.273v-1.24h3.242l.176,1.289a3.557,3.557,0,0,1,1.284-1.1,3.85,3.85,0,0,1,1.753-.381,3.512,3.512,0,0,1,3.052,1.558,7.047,7.047,0,0,1,1.089,4.116v.205a5.824,5.824,0,0,1-1.094,3.687,3.616,3.616,0,0,1-3.018,1.4,4.192,4.192,0,0,1-1.714-.327,3.315,3.315,0,0,1-1.255-.972v3.643l1.592.273v1.24h-5.107Zm8.662-7.91a5.609,5.609,0,0,0-.7-2.959,2.294,2.294,0,0,0-2.09-1.152,2.574,2.574,0,0,0-1.406.371,2.793,2.793,0,0,0-.947,1.016v5.146a2.513,2.513,0,0,0,2.373,1.367,2.372,2.372,0,0,0,2.07-1,4.39,4.39,0,0,0,.7-2.588Zm11.24,3.525a3.566,3.566,0,0,1-1.284,1.309,3.526,3.526,0,0,1-1.812.459,3.383,3.383,0,0,1-2.686-1.1,5.124,5.124,0,0,1-.967-3.437v-4.717l-1.211-.273v-1.24h3.135v6.25a3.934,3.934,0,0,0,.5,2.324,1.852,1.852,0,0,0,1.553.635,3.164,3.164,0,0,0,1.694-.415,2.6,2.6,0,0,0,1.011-1.177v-6.1l-1.416-.273v-1.24h3.34V123.5l1.211.273V125h-2.939Zm7.949-11.553v2.549h2v1.426h-2v6.416a1.437,1.437,0,0,0,.308,1.045,1.112,1.112,0,0,0,.815.3,4.205,4.205,0,0,0,.571-.044q.317-.044.532-.093l.264,1.318a2.464,2.464,0,0,1-.8.288,5.051,5.051,0,0,1-1.055.112,2.491,2.491,0,0,1-1.865-.708,3.075,3.075,0,0,1-.693-2.222v-6.416H322v-1.426h1.67v-2.549Zm8.789,13.32a4.457,4.457,0,0,1-3.511-1.47,5.533,5.533,0,0,1-1.3-3.813v-.43a5.418,5.418,0,0,1,1.343-3.755,4.136,4.136,0,0,1,3.179-1.5,4.005,4.005,0,0,1,3.228,1.289,5.121,5.121,0,0,1,1.1,3.438v1.2h-6.855l-.029.049a4.177,4.177,0,0,0,.771,2.5,2.458,2.458,0,0,0,2.08.981,4.84,4.84,0,0,0,1.714-.278,3.94,3.94,0,0,0,1.274-.767l.752,1.25a4.615,4.615,0,0,1-1.5.923A5.991,5.991,0,0,1,334.385,125.205Zm-.293-9.453a2.084,2.084,0,0,0-1.65.815,3.863,3.863,0,0,0-.84,2.046l.02.049h4.873v-.254a2.949,2.949,0,0,0-.605-1.895A2.157,2.157,0,0,0,334.092,115.752ZM342.783,125h-1.924v-1.973h1.924Zm7.09-1.3a2.594,2.594,0,0,0,1.685-.591,1.8,1.8,0,0,0,.728-1.45h1.729l.02.059a2.963,2.963,0,0,1-1.216,2.427,4.446,4.446,0,0,1-2.944,1.06,4.263,4.263,0,0,1-3.521-1.5,5.818,5.818,0,0,1-1.216-3.779v-.41a5.792,5.792,0,0,1,1.221-3.765,4.26,4.26,0,0,1,3.516-1.509,5.894,5.894,0,0,1,2.28.42,4.606,4.606,0,0,1,1.675,1.152l.088,2.344h-1.533l-.42-1.66a2.545,2.545,0,0,0-.879-.537,3.374,3.374,0,0,0-1.211-.205,2.318,2.318,0,0,0-2.163,1.089,5.13,5.13,0,0,0-.649,2.671v.41a5.19,5.19,0,0,0,.645,2.7A2.322,2.322,0,0,0,349.873,123.7Zm6.045-4.082a5.817,5.817,0,0,1,1.27-3.862,4.694,4.694,0,0,1,6.909,0,5.8,5.8,0,0,1,1.274,3.867v.215a5.789,5.789,0,0,1-1.27,3.867,4.72,4.72,0,0,1-6.914,0,5.793,5.793,0,0,1-1.27-3.862Zm1.924.215a5.012,5.012,0,0,0,.708,2.773,2.548,2.548,0,0,0,4.185,0,4.985,4.985,0,0,0,.713-2.773v-.215a5,5,0,0,0-.713-2.764,2.54,2.54,0,0,0-4.189,0,5.049,5.049,0,0,0-.7,2.764Zm8.906,3.936,1.592-.273v-7.549l-1.592-.273v-1.24h3.32l.127,1.377a3.459,3.459,0,0,1,1.309-1.162,4.016,4.016,0,0,1,1.855-.41,3.269,3.269,0,0,1,1.812.488,2.954,2.954,0,0,1,1.138,1.465,3.92,3.92,0,0,1,1.318-1.426,3.462,3.462,0,0,1,1.914-.527,3.174,3.174,0,0,1,2.559,1.108,5.064,5.064,0,0,1,.938,3.335V123.5l1.592.273V125h-5.117v-1.23l1.592-.273v-4.834a3.512,3.512,0,0,0-.537-2.212,1.946,1.946,0,0,0-1.592-.649,2.029,2.029,0,0,0-1.616.708,3.078,3.078,0,0,0-.708,1.782V123.5l1.592.273V125h-5.107v-1.23l1.592-.273v-4.834a3.465,3.465,0,0,0-.552-2.173,1.926,1.926,0,0,0-1.6-.688,2.643,2.643,0,0,0-1.445.361,2.334,2.334,0,0,0-.869,1.016V123.5l1.592.273V125h-5.107Zm20.039,2.451h-1.631l5.938-15.439h1.621Zm7-2.451,1.592-.273v-7.549l-1.592-.273v-1.24H397.1l.137,1.572a3.837,3.837,0,0,1,1.323-1.3,3.531,3.531,0,0,1,1.812-.464,3.449,3.449,0,0,1,2.646,1,4.394,4.394,0,0,1,.938,3.091V123.5l1.592.273V125h-5.107v-1.23l1.592-.273v-5.127a2.858,2.858,0,0,0-.552-1.982,2.21,2.21,0,0,0-1.685-.586,2.712,2.712,0,0,0-1.47.4,2.924,2.924,0,0,0-1.021,1.094v6.2l1.592.273V125h-5.107Zm17.881,1.436a4.457,4.457,0,0,1-3.511-1.47,5.533,5.533,0,0,1-1.3-3.813v-.43a5.418,5.418,0,0,1,1.343-3.755,4.136,4.136,0,0,1,3.179-1.5,4.005,4.005,0,0,1,3.228,1.289,5.121,5.121,0,0,1,1.1,3.438v1.2h-6.855l-.029.049a4.177,4.177,0,0,0,.771,2.5,2.458,2.458,0,0,0,2.08.981,4.84,4.84,0,0,0,1.714-.278,3.94,3.94,0,0,0,1.274-.767l.752,1.25a4.615,4.615,0,0,1-1.5.923A5.991,5.991,0,0,1,411.67,125.205Zm-.293-9.453a2.084,2.084,0,0,0-1.65.815,3.863,3.863,0,0,0-.84,2.046l.02.049h4.873v-.254a2.949,2.949,0,0,0-.605-1.895A2.157,2.157,0,0,0,411.377,115.752Zm5.957,8.018,1.133-.225,3.115-3.887-3.018-3.76-1.133-.225v-1.24h4.141v1.24l-.957.117,1.973,2.539,1.982-2.549-.947-.107v-1.24h4.17v1.24l-1.133.225-3.018,3.76,3.105,3.887,1.143.225V125H423.75v-1.23l.938-.107-2.07-2.656-2.07,2.656.947.107V125h-4.16ZM432.6,111.885v2.549h2v1.426h-2v6.416a1.437,1.437,0,0,0,.308,1.045,1.112,1.112,0,0,0,.815.3,4.205,4.205,0,0,0,.571-.044q.317-.044.532-.093l.264,1.318a2.464,2.464,0,0,1-.8.288,5.051,5.051,0,0,1-1.055.112,2.491,2.491,0,0,1-1.865-.708,3.075,3.075,0,0,1-.693-2.222v-6.416H429v-1.426h1.67v-2.549Zm9.375,7.861H437.2v-1.5h4.775Zm12.041.371a5.806,5.806,0,0,1-1.1,3.687,3.629,3.629,0,0,1-3.022,1.4,3.85,3.85,0,0,1-1.8-.4,3.369,3.369,0,0,1-1.27-1.167L446.65,125h-1.66V111.279l-1.592-.273v-1.24h3.516v5.918a3.338,3.338,0,0,1,1.235-1.074,3.787,3.787,0,0,1,1.724-.371,3.512,3.512,0,0,1,3.047,1.563,7.028,7.028,0,0,1,1.094,4.111Zm-1.934-.205a5.862,5.862,0,0,0-.664-2.969,2.193,2.193,0,0,0-2.031-1.143,2.538,2.538,0,0,0-1.5.43,3.042,3.042,0,0,0-.972,1.152v4.668a2.991,2.991,0,0,0,.981,1.162,2.584,2.584,0,0,0,1.509.43,2.273,2.273,0,0,0,2.017-.967,4.465,4.465,0,0,0,.659-2.559Zm3.848,3.857,1.592-.273v-7.549l-1.592-.273v-1.24h3.516V123.5l1.592.273V125h-5.107Zm3.516-12.041H457.52v-1.963h1.924Zm3.066,8.184a6.936,6.936,0,0,1,1.113-4.111,3.57,3.57,0,0,1,3.076-1.562,3.74,3.74,0,0,1,1.748.391,3.432,3.432,0,0,1,1.26,1.133l.176-1.328H471.5v10.43a4.437,4.437,0,0,1-1.143,3.228,4.325,4.325,0,0,1-3.252,1.177,7.207,7.207,0,0,1-1.65-.21,6.423,6.423,0,0,1-1.562-.571l.5-1.494a6.235,6.235,0,0,0,2.7.654,2.319,2.319,0,0,0,1.89-.723,3.142,3.142,0,0,0,.6-2.061v-1.006a3.407,3.407,0,0,1-1.24,1.006,3.84,3.84,0,0,1-1.66.342,3.686,3.686,0,0,1-3.057-1.406,5.757,5.757,0,0,1-1.113-3.682Zm1.924.205a4.391,4.391,0,0,0,.674,2.559,2.331,2.331,0,0,0,2.051.967,2.543,2.543,0,0,0,1.455-.4,3,3,0,0,0,.967-1.118v-4.863a2.985,2.985,0,0,0-.967-1.069,2.536,2.536,0,0,0-1.436-.4,2.241,2.241,0,0,0-2.061,1.152,5.737,5.737,0,0,0-.684,2.959Zm14.795-.371h-4.775v-1.5h4.775Zm2.373,4.023,1.592-.273v-7.549l-1.592-.273v-1.24h3.516V123.5l1.592.273V125H481.6Zm3.516-12.041h-1.924v-1.963h1.924Zm10.176,12.012a3.411,3.411,0,0,1-1.265,1.094,3.849,3.849,0,0,1-1.733.371,3.613,3.613,0,0,1-3.022-1.4,5.842,5.842,0,0,1-1.089-3.687v-.205a7.051,7.051,0,0,1,1.089-4.111,3.5,3.5,0,0,1,3.042-1.562,3.762,3.762,0,0,1,1.655.347,3.42,3.42,0,0,1,1.226,1v-4.307l-1.592-.273v-1.24h3.516V123.5l1.592.273V125h-3.262Zm-5.186-3.623a4.49,4.49,0,0,0,.654,2.559,2.271,2.271,0,0,0,2.021.967,2.548,2.548,0,0,0,1.445-.391,2.978,2.978,0,0,0,.967-1.1v-4.9a2.965,2.965,0,0,0-.967-1.055,2.542,2.542,0,0,0-1.426-.391,2.191,2.191,0,0,0-2.036,1.143,5.9,5.9,0,0,0-.659,2.969ZM505,125.205a4.457,4.457,0,0,1-3.511-1.47,5.533,5.533,0,0,1-1.3-3.813v-.43a5.418,5.418,0,0,1,1.343-3.755,4.136,4.136,0,0,1,3.179-1.5,4.005,4.005,0,0,1,3.228,1.289,5.121,5.121,0,0,1,1.1,3.438v1.2h-6.855l-.029.049a4.177,4.177,0,0,0,.771,2.5,2.458,2.458,0,0,0,2.08.981,4.84,4.84,0,0,0,1.714-.278,3.94,3.94,0,0,0,1.274-.767l.752,1.25a4.615,4.615,0,0,1-1.5.923A5.991,5.991,0,0,1,505,125.205Zm-.293-9.453a2.084,2.084,0,0,0-1.65.815,3.863,3.863,0,0,0-.84,2.046l.02.049h4.873v-.254a2.949,2.949,0,0,0-.605-1.895A2.157,2.157,0,0,0,504.707,115.752ZM517.822,125q-.088-.43-.137-.771t-.068-.684a4.655,4.655,0,0,1-1.392,1.187,3.986,3.986,0,0,1-4.292-.332,2.96,2.96,0,0,1-.859-2.271,2.63,2.63,0,0,1,1.216-2.319,5.925,5.925,0,0,1,3.335-.815h1.982v-1.23a1.9,1.9,0,0,0-.586-1.47,2.311,2.311,0,0,0-1.631-.542,4,4,0,0,0-1.274.186,2.393,2.393,0,0,0-.894.508l-.205,1.113h-1.484v-2.051a5.708,5.708,0,0,1,1.748-.923,6.911,6.911,0,0,1,2.227-.347,4.426,4.426,0,0,1,2.91.918,3.211,3.211,0,0,1,1.113,2.627v5.088q0,.205,0,.4t.024.391l.781.107V125Zm-3.1-1.406a3.42,3.42,0,0,0,1.748-.459,2.847,2.847,0,0,0,1.133-1.1v-1.738h-2.051a2.926,2.926,0,0,0-1.87.547,1.644,1.644,0,0,0-.688,1.328,1.315,1.315,0,0,0,.43,1.06A1.963,1.963,0,0,0,514.727,123.594Zm15.547-11.709v2.549h2v1.426h-2v6.416a1.437,1.437,0,0,0,.308,1.045,1.112,1.112,0,0,0,.815.3,4.206,4.206,0,0,0,.571-.044q.317-.044.532-.093l.264,1.318a2.464,2.464,0,0,1-.8.288,5.051,5.051,0,0,1-1.055.112,2.491,2.491,0,0,1-1.865-.708,3.075,3.075,0,0,1-.693-2.222v-6.416h-1.67v-1.426h1.67v-2.549Zm3.779,7.734a5.817,5.817,0,0,1,1.27-3.862,4.694,4.694,0,0,1,6.909,0,5.8,5.8,0,0,1,1.274,3.867v.215a5.789,5.789,0,0,1-1.27,3.867,4.72,4.72,0,0,1-6.914,0,5.793,5.793,0,0,1-1.27-3.862Zm1.924.215a5.012,5.012,0,0,0,.708,2.773,2.548,2.548,0,0,0,4.185,0,4.985,4.985,0,0,0,.713-2.773v-.215a5,5,0,0,0-.713-2.764,2.54,2.54,0,0,0-4.189,0,5.049,5.049,0,0,0-.7,2.764Zm17.881-4.16-1.27.2,2.178,6.016.176.762H555l.186-.762,2.109-6.016-1.279-.2v-1.24H560.1v1.24l-.869.146L555.684,125h-1.455l-3.584-9.18-.869-.146v-1.24h4.082Zm7.539,8.1,1.592-.273v-7.549l-1.592-.273v-1.24h3.516V123.5l1.592.273V125H561.4Zm3.516-12.041h-1.924v-1.963h1.924Zm7.881,13.477a4.457,4.457,0,0,1-3.511-1.47,5.533,5.533,0,0,1-1.3-3.813v-.43a5.418,5.418,0,0,1,1.343-3.755,4.136,4.136,0,0,1,3.179-1.5,4.005,4.005,0,0,1,3.228,1.289,5.121,5.121,0,0,1,1.1,3.438v1.2h-6.855l-.029.049a4.177,4.177,0,0,0,.771,2.5,2.458,2.458,0,0,0,2.08.981,4.839,4.839,0,0,0,1.714-.278,3.94,3.94,0,0,0,1.274-.767l.752,1.25a4.615,4.615,0,0,1-1.5.923A5.991,5.991,0,0,1,572.793,125.205Zm-.293-9.453a2.084,2.084,0,0,0-1.65.815,3.863,3.863,0,0,0-.84,2.046l.02.049H574.9v-.254a2.949,2.949,0,0,0-.605-1.895A2.157,2.157,0,0,0,572.5,115.752Zm9.971-.078-1.211.215,1.377,5.264.225,1.279h.059l.273-1.279,2.109-6.719h1.543l2.119,6.719.3,1.426h.059l.283-1.426,1.3-5.264-1.23-.215v-1.24H593.7v1.24l-.918.137L590.117,125h-1.553l-2.051-6.436-.439-1.777-.059.01-.41,1.768L583.594,125h-1.553l-2.666-9.189-.928-.137v-1.24h4.023Zm-571.562,26-.947.146-4.023,10.8a5.44,5.44,0,0,1-1.152,1.855,2.657,2.657,0,0,1-2.021.791,4.165,4.165,0,0,1-.586-.054q-.361-.054-.557-.1l.2-1.514a2.576,2.576,0,0,1,.347.02q.405.029.513.029a1.172,1.172,0,0,0,1-.532,5.987,5.987,0,0,0,.664-1.226l.459-1.094L1.309,141.83l-.967-.156v-1.24H4.609v1.24l-1.191.2,1.826,5.215.352,1.348h.059l2.2-6.562-1.2-.2v-1.24h4.258Zm1.172,3.945a5.817,5.817,0,0,1,1.27-3.862,4.257,4.257,0,0,1,3.447-1.519,4.288,4.288,0,0,1,3.462,1.514,5.8,5.8,0,0,1,1.274,3.867v.215a5.789,5.789,0,0,1-1.27,3.867,4.275,4.275,0,0,1-3.447,1.5A4.291,4.291,0,0,1,13.35,149.7a5.793,5.793,0,0,1-1.27-3.862Zm1.924.215a5.012,5.012,0,0,0,.708,2.773,2.344,2.344,0,0,0,2.1,1.094,2.329,2.329,0,0,0,2.08-1.094,4.985,4.985,0,0,0,.713-2.773v-.215a5,5,0,0,0-.713-2.764,2.341,2.341,0,0,0-2.1-1.1,2.318,2.318,0,0,0-2.09,1.1,5.049,5.049,0,0,0-.7,2.764Zm16.846,3.6a3.566,3.566,0,0,1-1.284,1.309,3.526,3.526,0,0,1-1.812.459,3.383,3.383,0,0,1-2.686-1.1,5.124,5.124,0,0,1-.967-3.437v-4.717l-1.211-.273v-1.24h3.135v6.25a3.934,3.934,0,0,0,.5,2.324,1.852,1.852,0,0,0,1.553.635,3.164,3.164,0,0,0,1.694-.415,2.6,2.6,0,0,0,1.011-1.177v-6.1l-1.416-.273v-1.24h3.34V149.5l1.211.273V151H30.977Zm4.59-7.764v-1.24H38.75l.186,1.533a3.691,3.691,0,0,1,1.108-1.27,2.576,2.576,0,0,1,1.509-.459,3.281,3.281,0,0,1,.464.034,2.548,2.548,0,0,1,.366.073l-.254,1.787-1.094-.059a2.2,2.2,0,0,0-1.279.356,2.307,2.307,0,0,0-.8,1V149.5l1.592.273V151H35.439v-1.23l1.592-.273v-7.549Zm13.008,12.148,1.592-.273v-11.6l-1.592-.273v-1.24h3.242l.176,1.289a3.557,3.557,0,0,1,1.284-1.1,3.85,3.85,0,0,1,1.753-.381,3.512,3.512,0,0,1,3.052,1.558,7.047,7.047,0,0,1,1.089,4.116v.205a5.824,5.824,0,0,1-1.094,3.687,3.616,3.616,0,0,1-3.018,1.4,4.192,4.192,0,0,1-1.714-.327,3.315,3.315,0,0,1-1.255-.972v3.643l1.592.273v1.24H48.447Zm8.662-7.91a5.609,5.609,0,0,0-.7-2.959,2.294,2.294,0,0,0-2.09-1.152,2.574,2.574,0,0,0-1.406.371,2.793,2.793,0,0,0-.947,1.016v5.146a2.513,2.513,0,0,0,2.373,1.367,2.372,2.372,0,0,0,2.07-1,4.39,4.39,0,0,0,.7-2.588Zm3.682-4.238v-1.24H64.1l.186,1.533A3.691,3.691,0,0,1,65.4,140.7a2.576,2.576,0,0,1,1.509-.459,3.281,3.281,0,0,1,.464.034,2.547,2.547,0,0,1,.366.073l-.254,1.787-1.094-.059a2.2,2.2,0,0,0-1.279.356,2.307,2.307,0,0,0-.8,1V149.5l1.592.273V151H60.791v-1.23l1.592-.273v-7.549Zm8.086,3.945a5.817,5.817,0,0,1,1.27-3.862,4.694,4.694,0,0,1,6.909,0,5.8,5.8,0,0,1,1.274,3.867v.215a5.789,5.789,0,0,1-1.27,3.867,4.72,4.72,0,0,1-6.914,0,5.793,5.793,0,0,1-1.27-3.862Zm1.924.215a5.012,5.012,0,0,0,.708,2.773,2.548,2.548,0,0,0,4.185,0,4.985,4.985,0,0,0,.713-2.773v-.215a5,5,0,0,0-.713-2.764,2.54,2.54,0,0,0-4.189,0,5.049,5.049,0,0,0-.7,2.764Zm12.559,6.035a3.509,3.509,0,0,1-.84,2.515,3.066,3.066,0,0,1-2.334.884,3.336,3.336,0,0,1-.566-.044,3.9,3.9,0,0,1-.527-.132l.127-1.514a2.043,2.043,0,0,0,.4.083,3.485,3.485,0,0,0,.43.034,1.275,1.275,0,0,0,1.011-.43,2.1,2.1,0,0,0,.376-1.4v-9.922l-1.592-.273v-1.24h3.516Zm-.059-14.18H81.377v-1.924H83.3Zm7.188,13.516a4.457,4.457,0,0,1-3.511-1.47,5.533,5.533,0,0,1-1.3-3.813v-.43a5.418,5.418,0,0,1,1.343-3.755,4.136,4.136,0,0,1,3.179-1.5,4.005,4.005,0,0,1,3.228,1.289,5.12,5.12,0,0,1,1.1,3.438v1.2H87.666l-.029.049a4.177,4.177,0,0,0,.771,2.5,2.458,2.458,0,0,0,2.08.981,4.84,4.84,0,0,0,1.714-.278,3.94,3.94,0,0,0,1.274-.767l.752,1.25a4.615,4.615,0,0,1-1.5.923A5.991,5.991,0,0,1,90.488,151.205Zm-.293-9.453a2.084,2.084,0,0,0-1.65.815,3.863,3.863,0,0,0-.84,2.046l.02.049H92.6v-.254a2.949,2.949,0,0,0-.605-1.895A2.157,2.157,0,0,0,90.2,141.752Zm10.967,7.949a2.594,2.594,0,0,0,1.685-.591,1.8,1.8,0,0,0,.728-1.45H105.3l.02.059a2.963,2.963,0,0,1-1.216,2.427,4.446,4.446,0,0,1-2.944,1.06,4.263,4.263,0,0,1-3.521-1.5,5.818,5.818,0,0,1-1.216-3.779v-.41a5.792,5.792,0,0,1,1.221-3.765,4.26,4.26,0,0,1,3.516-1.509,5.894,5.894,0,0,1,2.28.42,4.606,4.606,0,0,1,1.675,1.152l.088,2.344h-1.533l-.42-1.66a2.544,2.544,0,0,0-.879-.537,3.374,3.374,0,0,0-1.211-.205A2.318,2.318,0,0,0,99,142.841a5.13,5.13,0,0,0-.649,2.671v.41a5.19,5.19,0,0,0,.645,2.7A2.322,2.322,0,0,0,101.162,149.7Zm9.395-11.816v2.549h2v1.426h-2v6.416a1.437,1.437,0,0,0,.308,1.045,1.112,1.112,0,0,0,.815.3,4.205,4.205,0,0,0,.571-.044q.317-.044.532-.093l.264,1.318a2.464,2.464,0,0,1-.8.288,5.05,5.05,0,0,1-1.055.112,2.491,2.491,0,0,1-1.865-.708,3.075,3.075,0,0,1-.693-2.222v-6.416h-1.67v-1.426h1.67v-2.549Z" transform="translate(692 1978.5)" fill="#fff"/>
    <g id="Rectangle_10" data-name="Rectangle 10" transform="translate(681 1960.5)" fill="none" stroke="#ffbcbc" stroke-width="1">
      <rect width="664" height="195.635" rx="10" stroke="none"/>
      <rect x="0.5" y="0.5" width="663" height="194.635" rx="9.5" fill="none"/>
    </g>
  </g>
</svg>
