<svg xmlns="http://www.w3.org/2000/svg" width="61.533" height="59.838" viewBox="0 0 61.533 59.838">
  <g id="noun_fast_2292698" transform="translate(-20.9 -21.6)">
    <g id="Group_1488" data-name="Group 1488" transform="translate(20.9 21.6)">
      <path id="Path_1135" data-name="Path 1135" d="M64.2,43.418a1.024,1.024,0,0,0-1.483,0l-5.931,5.931a5.273,5.273,0,0,0-3.071-.953,5.543,5.543,0,1,0,5.613,5.613,4.8,4.8,0,0,0-1.059-3.177l5.825-5.825A1.068,1.068,0,0,0,64.2,43.418ZM56.255,56.444a3.725,3.725,0,0,1-4.978,0,3.649,3.649,0,0,1-1.059-2.436,3.067,3.067,0,0,1,1.059-2.436,3.725,3.725,0,0,1,4.978,0,3.649,3.649,0,0,1,1.059,2.436A3.954,3.954,0,0,1,56.255,56.444Z" transform="translate(-19.293 -20.33)" fill="#a48fe2"/>
      <path id="Path_1136" data-name="Path 1136" d="M25.1,52.559a1,1,0,0,0,1.059,1.059H44.481a1.059,1.059,0,0,0,0-2.118H26.159A1,1,0,0,0,25.1,52.559Z" transform="translate(-20.652 -19.833)" fill="#a48fe2"/>
      <path id="Path_1137" data-name="Path 1137" d="M21.959,45.218H40.281a1.059,1.059,0,1,0,0-2.118H21.959a1.059,1.059,0,1,0,0,2.118Z" transform="translate(-20.9 -20.33)" fill="#a48fe2"/>
      <path id="Path_1138" data-name="Path 1138" d="M41.34,60.959A1,1,0,0,0,40.281,59.9H21.959a1.059,1.059,0,1,0,0,2.118H40.281A1,1,0,0,0,41.34,60.959Z" transform="translate(-20.9 -19.337)" fill="#a48fe2"/>
      <path id="Path_1139" data-name="Path 1139" d="M73.963,36.215l1.059-1.059a3.108,3.108,0,0,0,1.695.424,3.571,3.571,0,0,0,3.6-3.6,3.483,3.483,0,0,0-3.495-3.6,3.571,3.571,0,0,0-3.6,3.6,2.758,2.758,0,0,0,.424,1.589L72.48,34.733a26.167,26.167,0,0,0-16.522-6.566V23.718h3.813a1.059,1.059,0,1,0,0-2.118H50.133a1.059,1.059,0,0,0,0,2.118H53.84v4.448a26.457,26.457,0,0,0-18.322,8.367A1.048,1.048,0,0,0,37,38.016a24.585,24.585,0,0,1,34.738-1.059h0A24.3,24.3,0,0,1,79.47,54.749,24.563,24.563,0,0,1,37.53,72.118,1.048,1.048,0,0,0,36.047,73.6,26.44,26.44,0,0,0,54.9,81.438,26.713,26.713,0,0,0,81.588,54.749,26.093,26.093,0,0,0,73.963,36.215Zm2.86-5.719a1.483,1.483,0,1,1,0,2.965,1.708,1.708,0,0,1-.953-.318c0-.106-.106-.106-.106-.212a.37.37,0,0,0-.212-.106,1.141,1.141,0,0,1-.212-.847A1.448,1.448,0,0,1,76.822,30.5Z" transform="translate(-20.055 -21.6)" fill="#a48fe2"/>
      <path id="Path_1140" data-name="Path 1140" d="M41.728,71.08a1.042,1.042,0,0,0,.318,1.483,22.25,22.25,0,1,0-.424-36.327,1.139,1.139,0,0,0-.212,1.483,1.12,1.12,0,0,0,1.483.212,19.5,19.5,0,0,1,11.756-3.813,20.123,20.123,0,1,1,0,40.245,19.4,19.4,0,0,1-11.332-3.495A1.239,1.239,0,0,0,41.728,71.08Z" transform="translate(-19.699 -20.986)" fill="#a48fe2"/>
    </g>
  </g>
</svg>
